<svg xmlns="http://www.w3.org/2000/svg" width="373.023" height="444.01" viewBox="0 0 373.023 444.01">
  <g id="Grupo_900001" data-name="Grupo 900001" transform="translate(-180 -1212.066)">
    <rect id="Rectángulo_303808" data-name="Rectángulo 303808" width="346.5" height="379.4" transform="translate(180 1226.363)" fill="#f5fafe"/>
    <g id="Grupo_898062" data-name="Grupo 898062" transform="translate(155.474 1190.009)">
      <g id="Background_Complete" data-name="Background Complete" transform="translate(36.526 34.797)">
        <g id="Grupo_897833" data-name="Grupo 897833">
          <g id="Grupo_897772" data-name="Grupo 897772" transform="translate(284.352 81.025)">
            <g id="Grupo_897763" data-name="Grupo 897763" transform="translate(0.235 0.196)">
              <g id="Grupo_897762" data-name="Grupo 897762">
                <g id="Grupo_897761" data-name="Grupo 897761">
                  <path id="Trazado_617877" data-name="Trazado 617877" d="M379.1,138.411a26,26,0,0,1,6.345-2.758l1.308-6.281,10.612-.187,1.527,6.231a26.021,26.021,0,0,1,6.439,2.533l5.363-3.515,7.635,7.372-3.324,5.483a25.992,25.992,0,0,1,2.758,6.347l6.281,1.307.186,10.612L418,167.082a26.021,26.021,0,0,1-2.533,6.439l3.514,5.363-7.371,7.636-5.484-3.325a25.958,25.958,0,0,1-6.347,2.758l-1.307,6.281-10.612.187-1.527-6.232a26.021,26.021,0,0,1-6.439-2.533l-5.363,3.515L366.9,179.8l3.324-5.483a26,26,0,0,1-2.758-6.347l-6.28-1.307L361,156.051l6.231-1.528a26.049,26.049,0,0,1,2.533-6.438l-3.514-5.363,7.371-7.636,5.484,3.325Zm5.656,14.137a11.385,11.385,0,1,0,16.1-.283A11.385,11.385,0,0,0,384.758,152.548Z" transform="translate(-360.997 -129.186)" fill="#e0e0e0"/>
                </g>
              </g>
            </g>
            <g id="Grupo_897767" data-name="Grupo 897767" transform="translate(20.601 19.874)">
              <g id="Grupo_897766" data-name="Grupo 897766">
                <g id="Grupo_897765" data-name="Grupo 897765">
                  <g id="Grupo_897764" data-name="Grupo 897764">
                    <path id="Trazado_617878" data-name="Trazado 617878" d="M387.612,155.306a8.614,8.614,0,0,1,2.12-1.861,11.338,11.338,0,0,1,7.428-1.756,11.481,11.481,0,0,1,5.048,1.794,11.661,11.661,0,0,1,4.083,4.6,11.658,11.658,0,0,1,1.1,6.7,11.616,11.616,0,0,1-9.61,9.956,11.674,11.674,0,0,1-6.737-.863,11.666,11.666,0,0,1-4.741-3.919,11.474,11.474,0,0,1-1.969-4.983,11.337,11.337,0,0,1,1.494-7.485,8.617,8.617,0,0,1,1.785-2.183c.061.052-.687.747-1.564,2.31a11.345,11.345,0,0,0-1.259,7.289,11.122,11.122,0,0,0,6.5,8.421,11.109,11.109,0,0,0,6.383.783,11.031,11.031,0,0,0,9.085-9.411,11.138,11.138,0,0,0-1.006-6.351,11.124,11.124,0,0,0-8.645-6.2,11.341,11.341,0,0,0-7.24,1.514C388.335,154.593,387.667,155.365,387.612,155.306Z" transform="translate(-384.217 -151.623)" fill="#e0e0e0"/>
                  </g>
                </g>
              </g>
            </g>
            <g id="Grupo_897771" data-name="Grupo 897771">
              <g id="Grupo_897770" data-name="Grupo 897770">
                <g id="Grupo_897769" data-name="Grupo 897769">
                  <g id="Grupo_897768" data-name="Grupo 897768">
                    <path id="Trazado_617879" data-name="Trazado 617879" d="M379.068,138.384a2.548,2.548,0,0,1-.353-.187l-1.052-.608-4.133-2.441.129-.017-7.327,7.678.02-.205c1.071,1.621,2.262,3.421,3.536,5.348l.063.1-.056.1a25.968,25.968,0,0,0-2.492,6.4l-.031.125-.126.032-6.226,1.545.176-.23c.067,3.341.138,6.887.211,10.61l-.2-.246,6.283,1.295.16.033.045.157a25.841,25.841,0,0,0,2.739,6.275l.089.146-.089.146-3.316,5.487-.047-.36,7.645,7.362-.378-.035,5.36-3.521.157-.1.164.091a25.841,25.841,0,0,0,6.363,2.5l.185.045.046.186c.48,1.951,1,4.08,1.531,6.231l-.316-.244,10.612-.191-.312.259c.412-1.984.858-4.125,1.306-6.281l.04-.194.189-.054a25.753,25.753,0,0,0,6.261-2.72l.006,0,.171-.1.167.1,5.483,3.325-.4.052,7.373-7.633-.038.4-3.513-5.365-.106-.162.095-.169a25.714,25.714,0,0,0,2.506-6.358l.046-.186.186-.046,6.232-1.523-.237.308q-.089-5.434-.175-10.612l.239.289-6.278-1.315-.175-.037-.047-.17a25.793,25.793,0,0,0-2.718-6.28l-.089-.147.089-.146,3.333-5.477.044.336-7.62-7.388.31.03-5.371,3.5-.119.078-.124-.069a25.91,25.91,0,0,0-6.376-2.529l-.127-.032-.03-.125c-.547-2.266-1.041-4.307-1.507-6.235l.191.146-10.613.139.14-.117c-.539,2.506-.98,4.561-1.347,6.273l-.014.063-.061.017a26.894,26.894,0,0,0-4.852,1.866l-1.142.6a2.538,2.538,0,0,1-.381.194,3.217,3.217,0,0,1,.354-.241c.242-.149.61-.373,1.118-.645a25.11,25.11,0,0,1,4.845-1.973l-.075.079c.346-1.716.76-3.777,1.267-6.289l.023-.114.118,0,10.611-.232.154,0,.038.15c.478,1.925.985,3.963,1.548,6.225l-.157-.157a26.249,26.249,0,0,1,6.5,2.537l-.242.009,5.355-3.528.167-.11.144.139,7.65,7.356.156.15-.112.186-3.314,5.488v-.292a26.314,26.314,0,0,1,2.8,6.412l-.222-.206,6.283,1.3.235.049,0,.24q.1,5.176.2,10.611l.005.248-.242.06-6.229,1.532.231-.232a26.307,26.307,0,0,1-2.559,6.518l-.012-.331q1.742,2.654,3.517,5.362l.142.216-.18.186-7.369,7.638-.181.187-.223-.135-5.483-3.323h.338l-.006,0a26.331,26.331,0,0,1-6.42,2.788l.23-.246-1.309,6.28-.053.254-.259,0-10.613.182-.255,0-.061-.248c-.526-2.151-1.046-4.28-1.523-6.232l.232.232a26.411,26.411,0,0,1-6.514-2.569l.321-.011-5.367,3.51-.2.133-.175-.168-7.626-7.382-.168-.162.121-.2c1.16-1.907,2.3-3.779,3.332-5.477v.291a26.333,26.333,0,0,1-2.776-6.418l.2.19-6.278-1.319-.2-.043,0-.2c-.057-3.723-.111-7.27-.162-10.612l0-.186.18-.044,6.235-1.51-.156.157a26.186,26.186,0,0,1,2.573-6.48l.007.2c-1.259-1.937-2.435-3.749-3.494-5.377l-.072-.112.092-.094,7.416-7.593.059-.061.07.044,4.039,2.513,1.038.66A3.165,3.165,0,0,1,379.068,138.384Z" transform="translate(-360.729 -128.963)" fill="#e0e0e0"/>
                  </g>
                </g>
              </g>
            </g>
          </g>
          <g id="Grupo_897784" data-name="Grupo 897784" transform="translate(11.474 144.12)">
            <g id="Grupo_897775" data-name="Grupo 897775" transform="translate(0.236 0.196)">
              <g id="Grupo_897774" data-name="Grupo 897774">
                <g id="Grupo_897773" data-name="Grupo 897773">
                  <path id="Trazado_617880" data-name="Trazado 617880" d="M67.981,210.349a26.034,26.034,0,0,1,6.346-2.758l1.307-6.281,10.612-.186,1.527,6.231a25.945,25.945,0,0,1,6.44,2.533l5.363-3.516,7.635,7.373-3.324,5.483a25.972,25.972,0,0,1,2.758,6.347l6.28,1.307.187,10.612-6.231,1.528a26.015,26.015,0,0,1-2.533,6.438l3.515,5.364-7.372,7.635-5.483-3.324a26.041,26.041,0,0,1-6.347,2.758l-1.308,6.281-10.611.186-1.528-6.231a26.016,26.016,0,0,1-6.438-2.533l-5.363,3.515-7.636-7.372,3.324-5.483a26.006,26.006,0,0,1-2.758-6.347L50.063,238.6l-.186-10.612,6.231-1.528a26,26,0,0,1,2.533-6.438l-3.515-5.364,7.372-7.635,5.484,3.324Zm5.657,14.137a11.386,11.386,0,1,0,16.1-.282A11.386,11.386,0,0,0,73.638,224.486Z" transform="translate(-49.877 -201.125)" fill="#f5f5f5"/>
                </g>
              </g>
            </g>
            <g id="Grupo_897779" data-name="Grupo 897779" transform="translate(20.601 19.875)">
              <g id="Grupo_897778" data-name="Grupo 897778">
                <g id="Grupo_897777" data-name="Grupo 897777">
                  <g id="Grupo_897776" data-name="Grupo 897776">
                    <path id="Trazado_617881" data-name="Trazado 617881" d="M76.492,227.244a8.6,8.6,0,0,1,2.12-1.86,11.338,11.338,0,0,1,7.428-1.756,11.477,11.477,0,0,1,5.048,1.794,11.65,11.65,0,0,1,4.082,4.6,11.672,11.672,0,0,1,1.1,6.7,11.618,11.618,0,0,1-9.611,9.956,11.661,11.661,0,0,1-6.736-.864,11.656,11.656,0,0,1-4.741-3.919,11.478,11.478,0,0,1-1.969-4.982,11.337,11.337,0,0,1,1.495-7.485,8.591,8.591,0,0,1,1.785-2.184c.061.053-.688.747-1.565,2.31a11.356,11.356,0,0,0-1.259,7.289,11.126,11.126,0,0,0,6.5,8.422,11.123,11.123,0,0,0,6.384.782,11.033,11.033,0,0,0,9.085-9.411,11.131,11.131,0,0,0-1.007-6.351,11.127,11.127,0,0,0-8.644-6.2,11.352,11.352,0,0,0-7.24,1.514C77.214,226.531,76.546,227.3,76.492,227.244Z" transform="translate(-73.096 -223.562)" fill="#f5f5f5"/>
                  </g>
                </g>
              </g>
            </g>
            <g id="Grupo_897783" data-name="Grupo 897783">
              <g id="Grupo_897782" data-name="Grupo 897782">
                <g id="Grupo_897781" data-name="Grupo 897781">
                  <g id="Grupo_897780" data-name="Grupo 897780">
                    <path id="Trazado_617882" data-name="Trazado 617882" d="M67.948,210.322a2.429,2.429,0,0,1-.354-.186l-1.051-.609-4.133-2.44.129-.018-7.327,7.678.019-.205c1.072,1.621,2.263,3.421,3.536,5.349l.064.1-.056.1a25.948,25.948,0,0,0-2.493,6.4l-.03.125-.127.032L49.9,228.188l.177-.229c.067,3.341.137,6.887.211,10.61l-.2-.246,6.283,1.295.161.033.045.157a25.872,25.872,0,0,0,2.739,6.275l.089.145-.089.146c-1.028,1.7-2.162,3.577-3.316,5.488l-.046-.36,7.644,7.363-.377-.036,5.36-3.521.157-.1.164.091a25.854,25.854,0,0,0,6.362,2.5l.186.046.046.186c.479,1.952,1,4.08,1.531,6.23l-.317-.244,10.612-.19-.311.258,1.305-6.281.04-.193.19-.054a25.75,25.75,0,0,0,6.261-2.72l.005,0,.171-.1.168.1,5.483,3.324-.4.053,7.374-7.634-.038.4-3.513-5.364-.107-.163.095-.168a25.713,25.713,0,0,0,2.506-6.358l.046-.187.186-.045L113,237.164l-.236.307q-.091-5.433-.176-10.611l.239.289-6.278-1.315-.174-.037-.048-.17a25.811,25.811,0,0,0-2.717-6.28l-.089-.147.089-.146,3.333-5.476.044.335-7.62-7.387.31.029-5.372,3.5-.119.077-.123-.068a25.867,25.867,0,0,0-6.376-2.53l-.126-.032-.031-.125c-.547-2.266-1.04-4.307-1.507-6.235l.191.146L75.6,201.43l.14-.117c-.538,2.5-.979,4.561-1.347,6.273l-.013.062-.061.017a26.935,26.935,0,0,0-4.853,1.867l-1.141.6a2.509,2.509,0,0,1-.381.193,3.383,3.383,0,0,1,.353-.24c.243-.149.61-.374,1.118-.645a25.159,25.159,0,0,1,4.845-1.973l-.074.08c.346-1.716.76-3.778,1.267-6.29l.023-.114.118,0,10.611-.232.153,0,.038.151c.479,1.924.985,3.963,1.548,6.225l-.157-.157a26.251,26.251,0,0,1,6.5,2.537l-.242.009,5.354-3.529.167-.11.145.139,7.65,7.356.156.15-.113.187-3.314,5.488v-.292a26.3,26.3,0,0,1,2.8,6.412l-.221-.206,6.282,1.3.235.048,0,.241q.1,5.174.2,10.611l0,.248-.241.059-6.23,1.532.232-.231a26.309,26.309,0,0,1-2.56,6.518l-.012-.332,3.518,5.362.141.216-.179.186-7.369,7.638-.181.188-.223-.136L94.8,255.385h.338l-.006,0a26.365,26.365,0,0,1-6.42,2.788l.23-.246-1.308,6.28-.053.253-.26,0-10.612.182-.255.005-.061-.249c-.526-2.15-1.046-4.279-1.523-6.231l.231.231a26.415,26.415,0,0,1-6.513-2.568l.321-.012-5.368,3.511-.2.132-.175-.168-7.626-7.382-.168-.161.121-.2c1.16-1.908,2.3-3.78,3.332-5.477v.291a26.338,26.338,0,0,1-2.777-6.418l.205.189-6.278-1.319-.2-.042,0-.205c-.057-3.723-.111-7.269-.161-10.611l0-.187.181-.044,6.235-1.509-.157.156a26.283,26.283,0,0,1,2.573-6.48l.007.2-3.493-5.377-.073-.111.092-.095,7.416-7.593.059-.061.07.044,4.039,2.514,1.039.66A3.253,3.253,0,0,1,67.948,210.322Z" transform="translate(-49.608 -200.901)" fill="#f5f5f5"/>
                  </g>
                </g>
              </g>
            </g>
          </g>
          <g id="Grupo_897796" data-name="Grupo 897796" transform="translate(309.146 25.631)">
            <g id="Grupo_897787" data-name="Grupo 897787" transform="translate(0.171 0.142)">
              <g id="Grupo_897786" data-name="Grupo 897786">
                <g id="Grupo_897785" data-name="Grupo 897785">
                  <path id="Trazado_617883" data-name="Trazado 617883" d="M402.311,72.653a18.876,18.876,0,0,1,4.6-2l.947-4.551,7.689-.135,1.107,4.515a18.84,18.84,0,0,1,4.666,1.836l3.886-2.548,5.534,5.342-2.409,3.973a18.834,18.834,0,0,1,2,4.6l4.55.947.135,7.689L430.5,93.429a18.848,18.848,0,0,1-1.836,4.665l2.547,3.887-5.341,5.533-3.973-2.409a18.832,18.832,0,0,1-4.6,2l-.947,4.551-7.689.135-1.107-4.515a18.853,18.853,0,0,1-4.666-1.836L399,107.986l-5.533-5.341,2.408-3.973a18.831,18.831,0,0,1-2-4.6l-4.551-.947-.135-7.689,4.515-1.107a18.848,18.848,0,0,1,1.836-4.665L393,75.776l5.342-5.533,3.973,2.409Zm4.1,10.243a8.251,8.251,0,1,0,11.666-.2A8.251,8.251,0,0,0,406.411,82.9Z" transform="translate(-389.193 -65.968)" fill="#f5f5f5"/>
                </g>
              </g>
            </g>
            <g id="Grupo_897791" data-name="Grupo 897791" transform="translate(14.928 14.402)">
              <g id="Grupo_897790" data-name="Grupo 897790">
                <g id="Grupo_897789" data-name="Grupo 897789">
                  <g id="Grupo_897788" data-name="Grupo 897788">
                    <path id="Trazado_617884" data-name="Trazado 617884" d="M408.479,84.9a6.242,6.242,0,0,1,1.537-1.348,8.217,8.217,0,0,1,5.383-1.273,8.326,8.326,0,0,1,3.658,1.3,8.444,8.444,0,0,1,2.958,3.334,8.464,8.464,0,0,1,.8,4.856,8.418,8.418,0,0,1-6.964,7.214,8.464,8.464,0,0,1-4.882-.625,8.448,8.448,0,0,1-3.436-2.84A8.321,8.321,0,0,1,406.1,91.9a8.211,8.211,0,0,1,1.083-5.424,6.219,6.219,0,0,1,1.293-1.583c.045.039-.5.542-1.133,1.674a8.225,8.225,0,0,0-.912,5.282,8.062,8.062,0,0,0,4.71,6.1,8.048,8.048,0,0,0,4.626.567,7.993,7.993,0,0,0,6.583-6.819,8.07,8.07,0,0,0-.73-4.6,8.06,8.06,0,0,0-6.264-4.492,8.223,8.223,0,0,0-5.246,1.1C409,84.378,408.519,84.939,408.479,84.9Z" transform="translate(-406.019 -82.227)" fill="#f5f5f5"/>
                  </g>
                </g>
              </g>
            </g>
            <g id="Grupo_897795" data-name="Grupo 897795">
              <g id="Grupo_897794" data-name="Grupo 897794">
                <g id="Grupo_897793" data-name="Grupo 897793">
                  <g id="Grupo_897792" data-name="Grupo 897792">
                    <path id="Trazado_617885" data-name="Trazado 617885" d="M402.288,72.633a1.775,1.775,0,0,1-.256-.136l-.762-.44-2.994-1.768.093-.012-5.309,5.563.014-.149c.776,1.175,1.639,2.48,2.563,3.877l.046.069-.04.075a18.79,18.79,0,0,0-1.806,4.634l-.022.091-.092.023-4.512,1.12.128-.167c.048,2.421.1,4.991.153,7.688l-.148-.178,4.553.938.116.025.032.114a18.74,18.74,0,0,0,1.985,4.546l.064.106-.064.106-2.4,3.976-.033-.26c1.739,1.676,3.616,3.483,5.54,5.335l-.274-.026,3.884-2.551.114-.075.118.066a18.768,18.768,0,0,0,4.611,1.81l.134.032.033.135c.347,1.414.727,2.956,1.109,4.514l-.229-.176,7.689-.139-.225.187c.3-1.438.621-2.989.946-4.551l.029-.14.138-.039a18.674,18.674,0,0,0,4.536-1.971l0,0,.124-.074.121.074,3.973,2.409-.292.038,5.343-5.532-.028.291L428.446,98.2l-.076-.118.068-.123a18.62,18.62,0,0,0,1.816-4.607l.033-.134.135-.033,4.515-1.1-.172.223q-.064-3.938-.127-7.689l.174.209-4.55-.953-.125-.026-.035-.124a18.7,18.7,0,0,0-1.969-4.55l-.064-.107.064-.105,2.415-3.969.032.243-5.522-5.353.225.021-3.893,2.537-.086.057-.089-.05a18.755,18.755,0,0,0-4.62-1.833l-.092-.023-.021-.091c-.4-1.642-.754-3.122-1.092-4.519l.138.107-7.69.1.1-.084c-.389,1.816-.71,3.3-.976,4.545l-.01.046-.044.012a19.484,19.484,0,0,0-3.516,1.352l-.827.432a1.942,1.942,0,0,1-.276.14,2.4,2.4,0,0,1,.257-.175c.175-.109.442-.271.81-.467a18.235,18.235,0,0,1,3.51-1.43l-.053.058c.25-1.244.551-2.737.917-4.558l.017-.082.085,0,7.689-.168.111,0,.028.109c.346,1.4.714,2.872,1.121,4.511l-.113-.113a18.985,18.985,0,0,1,4.711,1.838l-.175.006,3.88-2.557.12-.08.105.1,5.543,5.331.113.109-.082.135-2.4,3.977V78.96a19.1,19.1,0,0,1,2.027,4.647l-.16-.149,4.552.942.17.035,0,.174q.068,3.751.142,7.689l0,.18-.175.043-4.514,1.11.167-.168a19.068,19.068,0,0,1-1.855,4.724l-.009-.24,2.549,3.885.1.156-.13.135-5.341,5.534-.131.136-.161-.1-3.973-2.408h.245l0,0a19.133,19.133,0,0,1-4.652,2.021l.166-.179-.947,4.55-.039.184-.188,0-7.69.132-.185,0-.044-.181c-.381-1.558-.758-3.1-1.1-4.515l.168.168a19.131,19.131,0,0,1-4.72-1.861l.232-.009-3.889,2.544-.147.1-.126-.122-5.526-5.348-.122-.118.088-.144,2.415-3.97v.211a19.085,19.085,0,0,1-2.011-4.651l.148.138-4.549-.956-.146-.031,0-.148c-.041-2.7-.081-5.269-.118-7.689l0-.135.131-.032,4.519-1.094-.114.114a19.012,19.012,0,0,1,1.865-4.7l.005.143-2.531-3.9-.053-.082.067-.068,5.374-5.5.043-.044.05.032,2.927,1.822.753.478A2.152,2.152,0,0,1,402.288,72.633Z" transform="translate(-388.998 -65.806)" fill="#f5f5f5"/>
                  </g>
                </g>
              </g>
            </g>
          </g>
          <g id="Grupo_897808" data-name="Grupo 897808" transform="translate(68.637 3.966)">
            <g id="Grupo_897799" data-name="Grupo 897799" transform="translate(0.17 0.143)">
              <g id="Grupo_897798" data-name="Grupo 897798">
                <g id="Grupo_897797" data-name="Grupo 897797">
                  <path id="Trazado_617886" data-name="Trazado 617886" d="M128.1,47.952a18.824,18.824,0,0,1,4.6-2l.946-4.552,7.69-.134,1.107,4.514a18.853,18.853,0,0,1,4.666,1.836l3.886-2.548,5.533,5.343-2.408,3.972a18.845,18.845,0,0,1,2,4.6l4.551.947.135,7.689-4.515,1.107a18.847,18.847,0,0,1-1.836,4.665l2.547,3.887-5.341,5.534-3.973-2.409a18.839,18.839,0,0,1-4.6,2l-.948,4.551-7.689.135-1.107-4.515a18.847,18.847,0,0,1-4.665-1.836l-3.886,2.548-5.534-5.342,2.409-3.973a18.841,18.841,0,0,1-2-4.6l-4.551-.947-.135-7.69,4.515-1.107a18.882,18.882,0,0,1,1.836-4.665l-2.547-3.886,5.341-5.534,3.974,2.409Zm4.1,10.244a8.25,8.25,0,1,0,11.666-.205A8.25,8.25,0,0,0,132.195,58.2Z" transform="translate(-114.976 -41.268)" fill="#e0e0e0"/>
                </g>
              </g>
            </g>
            <g id="Grupo_897803" data-name="Grupo 897803" transform="translate(14.928 14.403)">
              <g id="Grupo_897802" data-name="Grupo 897802">
                <g id="Grupo_897801" data-name="Grupo 897801">
                  <g id="Grupo_897800" data-name="Grupo 897800">
                    <path id="Trazado_617887" data-name="Trazado 617887" d="M134.263,60.2a6.224,6.224,0,0,1,1.536-1.348,8.212,8.212,0,0,1,5.383-1.273,8.314,8.314,0,0,1,3.658,1.3,8.45,8.45,0,0,1,2.958,3.334,8.455,8.455,0,0,1,.8,4.856,8.42,8.42,0,0,1-6.965,7.214,8.447,8.447,0,0,1-4.882-.625,8.451,8.451,0,0,1-3.435-2.84,8.316,8.316,0,0,1-1.428-3.61,8.217,8.217,0,0,1,1.083-5.424,6.234,6.234,0,0,1,1.294-1.582c.045.038-.5.541-1.134,1.673a8.231,8.231,0,0,0-.912,5.282,8.062,8.062,0,0,0,4.71,6.1,8.061,8.061,0,0,0,4.626.567A8,8,0,0,0,148.136,67a8.06,8.06,0,0,0-.729-4.6,8.065,8.065,0,0,0-6.264-4.492A8.226,8.226,0,0,0,135.9,59C134.786,59.678,134.3,60.238,134.263,60.2Z" transform="translate(-131.802 -57.527)" fill="#e0e0e0"/>
                  </g>
                </g>
              </g>
            </g>
            <g id="Grupo_897807" data-name="Grupo 897807">
              <g id="Grupo_897806" data-name="Grupo 897806">
                <g id="Grupo_897805" data-name="Grupo 897805">
                  <g id="Grupo_897804" data-name="Grupo 897804">
                    <path id="Trazado_617888" data-name="Trazado 617888" d="M128.072,47.932a1.717,1.717,0,0,1-.257-.135l-.761-.44-3-1.769.094-.012-5.31,5.564.014-.149,2.563,3.876.046.069-.041.075a18.838,18.838,0,0,0-1.806,4.634l-.022.091-.091.023-4.513,1.12.128-.167c.048,2.422.1,4.991.153,7.689l-.148-.179c1.409.29,2.962.61,4.552.938l.117.024.032.114a18.726,18.726,0,0,0,1.985,4.547l.064.105-.064.106c-.746,1.232-1.566,2.592-2.4,3.977l-.034-.261,5.54,5.335-.274-.025,3.884-2.551.114-.075.119.066a18.749,18.749,0,0,0,4.61,1.81l.135.032.032.135c.348,1.414.727,2.957,1.11,4.514l-.23-.176,7.69-.139-.226.187c.3-1.438.622-2.988.946-4.551l.029-.14.138-.039a18.647,18.647,0,0,0,4.537-1.971l0,0,.125-.074.121.074,3.973,2.409-.293.038L156.8,77.1l-.027.291L154.23,73.5l-.077-.118.068-.122a18.635,18.635,0,0,0,1.816-4.607l.034-.135.134-.032,4.516-1.1-.172.222q-.066-3.936-.127-7.689l.173.21-4.549-.953-.126-.026-.034-.123a18.7,18.7,0,0,0-1.97-4.551l-.064-.106.064-.106,2.415-3.969.032.244-5.522-5.354.225.021-3.892,2.538-.087.056-.089-.05a18.769,18.769,0,0,0-4.62-1.833l-.092-.023-.022-.091c-.4-1.642-.754-3.121-1.092-4.518l.139.106-7.69.1.1-.084c-.39,1.816-.71,3.3-.976,4.545l-.01.046-.045.012a19.6,19.6,0,0,0-3.516,1.352l-.827.432a1.916,1.916,0,0,1-.275.14,2.3,2.3,0,0,1,.256-.175c.175-.108.442-.27.81-.467a18.282,18.282,0,0,1,3.511-1.43l-.053.058c.25-1.244.551-2.737.917-4.557l.017-.082.086,0,7.688-.168.111,0,.027.11c.346,1.395.714,2.872,1.122,4.511l-.114-.114a18.991,18.991,0,0,1,4.712,1.838l-.175.006,3.88-2.557.12-.079.1.1,5.544,5.331.113.109-.082.135-2.4,3.977V54.26a19.033,19.033,0,0,1,2.027,4.647l-.16-.15,4.552.942.17.035,0,.175q.07,3.75.143,7.688l0,.181-.175.043-4.514,1.11.168-.167a19.042,19.042,0,0,1-1.855,4.723l-.009-.24,2.55,3.885.1.156-.13.135L151.8,82.957l-.132.136-.161-.1-3.974-2.408h.245l0,0a19.1,19.1,0,0,1-4.652,2.021l.167-.179c-.325,1.562-.649,3.114-.948,4.551l-.039.183-.188,0-7.689.132-.185,0-.044-.18c-.382-1.559-.759-3.1-1.1-4.516l.168.168a19.124,19.124,0,0,1-4.72-1.861l.232-.009-3.889,2.544-.147.1-.126-.123-5.526-5.348-.121-.118.088-.144c.84-1.382,1.666-2.739,2.415-3.969v.211a19.062,19.062,0,0,1-2.012-4.65l.148.138-4.549-.957-.146-.031,0-.148c-.041-2.7-.081-5.268-.118-7.689l0-.135.131-.032,4.518-1.095-.113.114a19.011,19.011,0,0,1,1.865-4.7l.005.144-2.532-3.9-.053-.081.068-.068,5.373-5.5.043-.043.051.032,2.927,1.821.753.478A2.424,2.424,0,0,1,128.072,47.932Z" transform="translate(-114.782 -41.105)" fill="#e0e0e0"/>
                  </g>
                </g>
              </g>
            </g>
          </g>
          <g id="Grupo_897820" data-name="Grupo 897820" transform="translate(270.544)">
            <g id="Grupo_897811" data-name="Grupo 897811" transform="translate(0.106 0.086)">
              <g id="Grupo_897810" data-name="Grupo 897810">
                <g id="Grupo_897809" data-name="Grupo 897809">
                  <path id="Trazado_617889" data-name="Trazado 617889" d="M359.821,71.346l0-.018-.833-3.4a14.264,14.264,0,0,1-3.507-1.379l-2.939,1.927-.013-.012-4.192-4.049.009-.015,1.813-2.99a14.282,14.282,0,0,1-1.5-3.457l-3.443-.717v-.018l-.1-5.827.018,0,3.4-.833a14.308,14.308,0,0,1,1.379-3.507l-1.926-2.94.012-.012,4.048-4.193.015.009,2.991,1.814a14.293,14.293,0,0,1,3.456-1.5l.717-3.443h.018l5.826-.1,0,.017.832,3.4a14.244,14.244,0,0,1,3.507,1.379l2.94-1.927.012.012,4.193,4.049-.009.015-1.813,2.99a14.191,14.191,0,0,1,1.5,3.457l3.443.717V50.8l.1,5.827-.017,0-3.4.832a14.283,14.283,0,0,1-1.379,3.507l1.927,2.94-.013.012-4.048,4.193-.015-.009L369.839,66.3a14.3,14.3,0,0,1-3.456,1.5l-.717,3.443h-.018ZM355.476,66.5l.011.006a14.2,14.2,0,0,0,3.521,1.386l.012,0,0,.013.831,3.394,5.775-.1.716-3.436.013,0a14.278,14.278,0,0,0,3.47-1.508l.01-.007.011.007,2.987,1.811,4.011-4.156-1.922-2.933.007-.011a14.256,14.256,0,0,0,1.384-3.52l0-.013.013,0,3.394-.831-.1-5.775-3.434-.715,0-.013a14.219,14.219,0,0,0-1.508-3.47l-.007-.011.007-.011,1.811-2.986L372.337,39.6,369.4,41.526l-.011-.006a14.2,14.2,0,0,0-3.52-1.384l-.013,0,0-.012-.831-3.394-5.775.1-.715,3.436-.013,0a14.235,14.235,0,0,0-3.469,1.509l-.011.007-.011-.007-2.987-1.812-4.011,4.156,1.921,2.933-.006.011a14.277,14.277,0,0,0-1.385,3.52l0,.013-.013,0-3.394.831.1,5.775,3.434.715,0,.013A14.206,14.206,0,0,0,350.2,61.4l.006.011-.006.011-1.812,2.986,4.156,4.012Zm7.147-6.424a6.253,6.253,0,0,1-4.5-10.6h0a6.256,6.256,0,1,1,4.5,10.6Zm0-12.462a6.194,6.194,0,0,0-4.47,1.9h0a6.218,6.218,0,1,0,4.47-1.9Z" transform="translate(-345.107 -36.681)" fill="#e0e0e0"/>
                </g>
              </g>
            </g>
            <g id="Grupo_897815" data-name="Grupo 897815" transform="translate(11.278 10.882)">
              <g id="Grupo_897814" data-name="Grupo 897814">
                <g id="Grupo_897813" data-name="Grupo 897813">
                  <g id="Grupo_897812" data-name="Grupo 897812">
                    <path id="Trazado_617890" data-name="Trazado 617890" d="M359.7,51.006a4.72,4.72,0,0,1,1.161-1.019,6.209,6.209,0,0,1,4.067-.961,6.287,6.287,0,0,1,2.764.982,6.376,6.376,0,0,1,2.235,2.518,6.387,6.387,0,0,1,.6,3.669,6.36,6.36,0,0,1-5.262,5.451,6.393,6.393,0,0,1-3.688-.473,6.385,6.385,0,0,1-2.6-2.146,6.288,6.288,0,0,1-1.079-2.728,6.2,6.2,0,0,1,.818-4.1,4.724,4.724,0,0,1,.977-1.2c.034.028-.376.409-.856,1.265a6.217,6.217,0,0,0-.689,3.991,6.09,6.09,0,0,0,3.558,4.611,6.092,6.092,0,0,0,3.5.428,6.037,6.037,0,0,0,4.974-5.152,6.09,6.09,0,0,0-.551-3.478,6.093,6.093,0,0,0-4.733-3.394,6.219,6.219,0,0,0-3.964.829C360.1,50.616,359.734,51.039,359.7,51.006Z" transform="translate(-357.845 -48.99)" fill="#ebebeb"/>
                  </g>
                </g>
              </g>
            </g>
            <g id="Grupo_897819" data-name="Grupo 897819">
              <g id="Grupo_897818" data-name="Grupo 897818">
                <g id="Grupo_897817" data-name="Grupo 897817">
                  <g id="Grupo_897816" data-name="Grupo 897816">
                    <path id="Trazado_617891" data-name="Trazado 617891" d="M355.027,41.741a1.249,1.249,0,0,1-.194-.1l-.575-.332-2.263-1.337.07-.009-4.012,4.2.011-.112c.587.887,1.238,1.873,1.936,2.929l.035.053L350,47.09a14.251,14.251,0,0,0-1.365,3.5l-.017.068-.069.018-3.408.846.1-.126c.037,1.83.075,3.771.116,5.81l-.112-.135,3.44.709.088.018.025.086a14.162,14.162,0,0,0,1.5,3.436l.048.079-.048.081-1.816,3-.025-.2,4.185,4.032-.207-.019,2.935-1.928.086-.057.09.05a14.091,14.091,0,0,0,3.484,1.367l.1.025.025.1c.262,1.068.549,2.234.839,3.411l-.174-.133,5.811-.1-.171.141c.226-1.087.469-2.258.715-3.439l.022-.106.1-.029a14.083,14.083,0,0,0,3.428-1.489l0,0,.094-.055.092.055,3,1.82-.221.029,4.037-4.179-.02.219q-.972-1.483-1.923-2.937l-.059-.089.052-.092a14.088,14.088,0,0,0,1.373-3.481l.025-.1.1-.025,3.412-.833-.129.168q-.05-2.976-.1-5.811l.131.159-3.437-.72-.1-.02-.026-.093a14.138,14.138,0,0,0-1.488-3.439l-.049-.08.049-.08c.625-1.029,1.232-2.025,1.825-3l.024.184-4.172-4.045.17.016L369.459,41.6l-.066.043-.068-.038a14.158,14.158,0,0,0-3.491-1.385l-.069-.018-.017-.068c-.3-1.241-.57-2.358-.824-3.414l.1.081-5.811.076.077-.064c-.295,1.372-.537,2.5-.738,3.435l-.008.034-.033.01a14.749,14.749,0,0,0-2.657,1.022l-.624.326a1.34,1.34,0,0,1-.209.106,1.877,1.877,0,0,1,.194-.132c.132-.082.334-.2.612-.353a13.782,13.782,0,0,1,2.652-1.08l-.04.043.694-3.443.012-.062.065,0,5.809-.127.084,0,.021.082c.261,1.054.539,2.17.847,3.408l-.086-.086a14.387,14.387,0,0,1,3.559,1.388l-.132.005,2.932-1.932.091-.06.079.076,4.188,4.028.086.082-.062.1q-.883,1.463-1.815,3v-.16a14.363,14.363,0,0,1,1.531,3.511l-.121-.113,3.44.711.128.027,0,.132.108,5.81,0,.136-.132.032-3.411.838.127-.126a14.431,14.431,0,0,1-1.4,3.569l-.007-.182L377.01,63.8l.077.118-.1.1-4.035,4.182-.1.1-.122-.075-3-1.819h.185l0,0a14.458,14.458,0,0,1-3.515,1.526l.125-.135c-.246,1.181-.489,2.352-.716,3.438l-.029.139-.142,0-5.811.1-.139,0-.033-.136c-.288-1.178-.573-2.344-.834-3.412l.126.126a14.478,14.478,0,0,1-3.566-1.406l.176-.007-2.939,1.923-.111.073-.095-.092-4.176-4.042-.092-.089.067-.109,1.824-3v.159a14.413,14.413,0,0,1-1.52-3.514l.111.1-3.437-.723-.11-.024,0-.111c-.032-2.039-.061-3.981-.089-5.811l0-.1.1-.024,3.414-.827-.086.086a14.35,14.35,0,0,1,1.409-3.548l0,.109-1.913-2.944-.039-.061.05-.052,4.06-4.156.032-.033.039.024,2.211,1.376.568.361A1.676,1.676,0,0,1,355.027,41.741Z" transform="translate(-344.986 -36.583)" fill="#ebebeb"/>
                  </g>
                </g>
              </g>
            </g>
          </g>
          <g id="Grupo_897832" data-name="Grupo 897832" transform="translate(0 104.826)">
            <g id="Grupo_897823" data-name="Grupo 897823" transform="translate(0.106 0.086)">
              <g id="Grupo_897822" data-name="Grupo 897822">
                <g id="Grupo_897821" data-name="Grupo 897821">
                  <path id="Trazado_617892" data-name="Trazado 617892" d="M51.361,190.863l0-.017-.833-3.4a14.267,14.267,0,0,1-3.507-1.38l-2.94,1.927-.012-.012-4.193-4.049.01-.015,1.813-2.99a14.27,14.27,0,0,1-1.5-3.457l-3.443-.716v-.018l-.1-5.827.018,0,3.4-.833a14.243,14.243,0,0,1,1.379-3.507l-1.926-2.94.011-.012,4.048-4.193.016.009,2.991,1.814a14.248,14.248,0,0,1,3.456-1.5l.717-3.443h.018l5.827-.1,0,.017.832,3.4a14.229,14.229,0,0,1,3.507,1.379l2.94-1.927.012.012,4.193,4.049-.009.015-1.813,2.99a14.285,14.285,0,0,1,1.5,3.457l3.442.717v.018l.1,5.827-.018,0-3.4.832a14.243,14.243,0,0,1-1.379,3.507l1.927,2.94-.012.013-4.048,4.192-.016-.009-2.99-1.813a14.284,14.284,0,0,1-3.457,1.5l-.717,3.443h-.018Zm-4.345-4.847.012.007a14.25,14.25,0,0,0,3.519,1.385l.013,0,0,.013.831,3.394,5.775-.1.715-3.435.013,0a14.244,14.244,0,0,0,3.47-1.508l.011-.007.011.007,2.987,1.811,4.011-4.156-1.922-2.933.006-.011a14.235,14.235,0,0,0,1.385-3.52l0-.013.013,0,3.394-.831-.1-5.775-3.435-.715,0-.013a14.229,14.229,0,0,0-1.508-3.47l-.007-.011.007-.011,1.811-2.986-4.156-4.012-2.933,1.922-.011-.006a14.187,14.187,0,0,0-3.52-1.384l-.013,0,0-.013-.831-3.394-5.775.1-.715,3.436-.013,0a14.247,14.247,0,0,0-3.47,1.508l-.011.007-.011-.007-2.988-1.812-4.011,4.156,1.922,2.933-.006.012A14.18,14.18,0,0,0,40.1,170.1l0,.013-.013,0-3.394.832.1,5.775,3.436.714,0,.013a14.217,14.217,0,0,0,1.509,3.47l.007.011-.007.011-1.811,2.986,4.155,4.013Zm7.146-6.424a6.249,6.249,0,1,1,4.5-1.907A6.236,6.236,0,0,1,54.162,179.592Zm0-12.464h-.112a6.225,6.225,0,1,0,.112,0Z" transform="translate(-36.647 -156.198)" fill="#e0e0e0"/>
                </g>
              </g>
            </g>
            <g id="Grupo_897827" data-name="Grupo 897827" transform="translate(11.278 10.882)">
              <g id="Grupo_897826" data-name="Grupo 897826">
                <g id="Grupo_897825" data-name="Grupo 897825">
                  <g id="Grupo_897824" data-name="Grupo 897824">
                    <path id="Trazado_617893" data-name="Trazado 617893" d="M51.244,170.523a4.713,4.713,0,0,1,1.16-1.018,6.206,6.206,0,0,1,4.067-.962,6.286,6.286,0,0,1,2.765.982,6.383,6.383,0,0,1,2.235,2.518,6.387,6.387,0,0,1,.6,3.669,6.36,6.36,0,0,1-5.262,5.451,6.393,6.393,0,0,1-3.688-.473,6.378,6.378,0,0,1-2.6-2.146,6.277,6.277,0,0,1-1.079-2.728,6.2,6.2,0,0,1,.818-4.1,4.725,4.725,0,0,1,.977-1.2c.034.028-.376.409-.856,1.265a6.211,6.211,0,0,0-.689,3.991,6.09,6.09,0,0,0,3.558,4.611,6.089,6.089,0,0,0,3.5.428,6.037,6.037,0,0,0,4.974-5.152,6.09,6.09,0,0,0-.551-3.478,6.092,6.092,0,0,0-4.733-3.394,6.218,6.218,0,0,0-3.964.829C51.64,170.133,51.274,170.556,51.244,170.523Z" transform="translate(-49.385 -168.507)" fill="#ebebeb"/>
                  </g>
                </g>
              </g>
            </g>
            <g id="Grupo_897831" data-name="Grupo 897831">
              <g id="Grupo_897830" data-name="Grupo 897830">
                <g id="Grupo_897829" data-name="Grupo 897829">
                  <g id="Grupo_897828" data-name="Grupo 897828">
                    <path id="Trazado_617894" data-name="Trazado 617894" d="M46.567,161.258a1.279,1.279,0,0,1-.194-.1l-.575-.333-2.263-1.336.07-.01-4.012,4.2.011-.112L41.54,166.5l.035.053-.031.056a14.217,14.217,0,0,0-1.365,3.5l-.017.069-.069.017-3.409.846.1-.126c.036,1.83.075,3.771.115,5.81l-.111-.135,3.44.709.087.018.025.086a14.179,14.179,0,0,0,1.5,3.436l.048.08-.048.08-1.816,3L40,183.8l4.185,4.031-.207-.019,2.935-1.928.086-.056.09.05a14.167,14.167,0,0,0,3.483,1.367l.1.025.025.1c.262,1.068.549,2.234.838,3.411l-.174-.133,5.81-.1-.17.141c.225-1.086.469-2.258.715-3.439l.022-.106.1-.029a14.1,14.1,0,0,0,3.428-1.489l0,0,.094-.055.091.055,3,1.821-.221.028,4.037-4.179-.021.22-1.923-2.937-.059-.089.052-.092a14.039,14.039,0,0,0,1.372-3.481l.025-.1.1-.025,3.412-.833-.13.168q-.049-2.976-.1-5.81l.131.158-3.438-.72-.095-.02-.026-.093a14.131,14.131,0,0,0-1.488-3.438l-.049-.081.049-.08,1.824-3,.025.184-4.172-4.045.17.017L61,161.113l-.065.043-.068-.038a14.193,14.193,0,0,0-3.491-1.385l-.069-.018-.017-.068-.825-3.414.1.08-5.81.076.076-.063c-.295,1.372-.536,2.5-.738,3.434l-.007.034-.033.01a14.749,14.749,0,0,0-2.657,1.022l-.625.326a1.316,1.316,0,0,1-.208.106,1.758,1.758,0,0,1,.194-.132c.132-.082.334-.2.612-.353a13.781,13.781,0,0,1,2.652-1.08l-.04.043.694-3.443.012-.062h.064l5.81-.128.084,0,.02.082c.262,1.054.539,2.17.848,3.408l-.086-.086a14.356,14.356,0,0,1,3.559,1.389l-.132,0,2.932-1.932.09-.06.079.076,4.189,4.028.085.082-.061.1-1.815,3v-.161a14.4,14.4,0,0,1,1.531,3.511l-.121-.113,3.439.712.129.026,0,.132.108,5.81,0,.136-.132.032-3.411.839.127-.126a14.419,14.419,0,0,1-1.4,3.569l-.006-.182,1.926,2.936.077.118-.1.1-4.035,4.182-.1.1-.122-.075-3-1.819h.185l0,0a14.439,14.439,0,0,1-3.514,1.526l.125-.135c-.246,1.181-.49,2.352-.717,3.439l-.029.139-.141,0-5.811.1-.139,0-.033-.136-.834-3.412.126.126a14.464,14.464,0,0,1-3.566-1.406l.176-.006-2.939,1.922-.111.073-.1-.092-4.175-4.042-.092-.089.067-.109,1.824-3V181a14.4,14.4,0,0,1-1.52-3.514l.111.1-3.437-.723-.11-.023,0-.112c-.031-2.039-.061-3.98-.089-5.81v-.1l.1-.024,3.414-.827-.086.086a14.385,14.385,0,0,1,1.409-3.548l0,.109c-.689-1.061-1.333-2.052-1.913-2.944l-.039-.061.051-.052c1.653-1.693,3.02-3.093,4.06-4.156l.032-.033.038.024,2.212,1.376.568.361A1.834,1.834,0,0,1,46.567,161.258Z" transform="translate(-36.526 -156.1)" fill="#ebebeb"/>
                  </g>
                </g>
              </g>
            </g>
          </g>
        </g>
      </g>
      <g id="Iteration" transform="translate(40.828 22.057)">
        <g id="Grupo_897844" data-name="Grupo 897844" transform="translate(97.495 74.358)">
          <g id="Grupo_897843" data-name="Grupo 897843">
            <g id="Grupo_897842" data-name="Grupo 897842">
              <g id="Grupo_897841" data-name="Grupo 897841">
                <g id="Grupo_897834" data-name="Grupo 897834" transform="translate(0.187 0.155)">
                  <path id="Trazado_617895" data-name="Trazado 617895" d="M188.014,137.988a63.876,63.876,0,0,1,13.98-9.683l.147-15.769,25.5-5.523L234.3,121.3a63.9,63.9,0,0,1,16.736,3.028l11.249-11.041,21.935,14.123-5.393,14.808a63.854,63.854,0,0,1,9.684,13.983l15.767.147,5.525,25.5L295.51,188.51a63.932,63.932,0,0,1-3.028,16.734l11.039,11.25L289.4,238.429l-14.81-5.393a63.861,63.861,0,0,1-13.982,9.683l-.147,15.769-25.495,5.524L228.3,249.719a63.967,63.967,0,0,1-16.734-3.029l-11.249,11.042-21.935-14.123,5.393-14.808a63.889,63.889,0,0,1-9.685-13.982l-15.767-.147-5.524-25.5,14.291-6.663a64.01,64.01,0,0,1,3.028-16.734l-11.04-11.249L173.2,132.595l14.811,5.393Zm14.24,28.823A34.547,34.547,0,1,0,250,156.463,34.546,34.546,0,0,0,202.255,166.811Z" transform="translate(-152.803 -107.013)" fill="#e0e0e0"/>
                </g>
                <g id="Grupo_897840" data-name="Grupo 897840">
                  <g id="Grupo_897835" data-name="Grupo 897835" transform="translate(0.187 0.155)">
                    <path id="Trazado_617896" data-name="Trazado 617896" d="M188.014,137.988a63.876,63.876,0,0,1,13.98-9.683l.147-15.769,25.5-5.523L234.3,121.3a63.9,63.9,0,0,1,16.736,3.028l11.249-11.041,21.935,14.123-5.393,14.808a63.854,63.854,0,0,1,9.684,13.983l15.767.147,5.525,25.5L295.51,188.51a63.932,63.932,0,0,1-3.028,16.734l11.039,11.25L289.4,238.429l-14.81-5.393a63.861,63.861,0,0,1-13.982,9.683l-.147,15.769-25.495,5.524L228.3,249.719a63.967,63.967,0,0,1-16.734-3.029l-11.249,11.042-21.935-14.123,5.393-14.808a63.889,63.889,0,0,1-9.685-13.982l-15.767-.147-5.524-25.5,14.291-6.663a64.01,64.01,0,0,1,3.028-16.734l-11.04-11.249L173.2,132.595l14.811,5.393Zm14.24,28.823A34.547,34.547,0,1,0,250,156.463,34.546,34.546,0,0,0,202.255,166.811Z" transform="translate(-152.803 -107.013)" fill="none"/>
                  </g>
                  <g id="Grupo_897837" data-name="Grupo 897837" transform="translate(44.039 43.953)">
                    <g id="Grupo_897836" data-name="Grupo 897836">
                      <path id="Trazado_617897" data-name="Trazado 617897" d="M208.4,172.949s.1-.162.307-.468l.941-1.35q.313-.446.7-.993c.274-.352.608-.71.952-1.112l1.124-1.288a18.564,18.564,0,0,1,1.391-1.36A32.783,32.783,0,0,1,222,160.644a34.445,34.445,0,0,1,12.726-3.559l1.866-.135c.631-.008,1.269.024,1.914.035.645.032,1.3-.008,1.954.086l1.985.242,1.007.128,1,.223,2.03.453c.678.173,1.339.427,2.019.64a17.688,17.688,0,0,1,2.028.732,32.29,32.29,0,0,1,3.973,1.94c.645.382,1.32.728,1.954,1.148l1.872,1.339c.31.231.639.439.937.69l.88.774c.582.525,1.2,1.026,1.763,1.582a36.648,36.648,0,0,1,3.168,3.646,36.181,36.181,0,0,1,2.739,4.125c.4.731.746,1.5,1.124,2.258.176.383.391.753.538,1.152l.447,1.2a31.757,31.757,0,0,1,2.194,10.183l.094,1.332-.029,1.341-.034,1.347a8.789,8.789,0,0,1-.1,1.348q-.166,1.345-.333,2.7l-.6,2.677a34.42,34.42,0,0,1-11.877,18.455l-2.189,1.654-2.322,1.423-.58.35-.608.3-1.212.589-1.209.582-1.252.467a31.838,31.838,0,0,1-10.181,2.218l-1.275.089c-.424.032-.849-.011-1.272-.012-.845-.032-1.687-.025-2.52-.089a36.011,36.011,0,0,1-4.89-.787,36.562,36.562,0,0,1-4.631-1.374c-.741-.288-1.452-.639-2.17-.951l-1.07-.48c-.352-.168-.678-.381-1.016-.567l-1.994-1.15c-.646-.4-1.24-.874-1.854-1.3a32.232,32.232,0,0,1-3.411-2.815,17.7,17.7,0,0,1-1.506-1.542c-.475-.532-.981-1.028-1.419-1.573l-1.252-1.66-.617-.818-.533-.864-1.041-1.707c-.356-.556-.591-1.17-.888-1.743-.277-.583-.57-1.151-.824-1.728l-.65-1.755a34.428,34.428,0,0,1-2.027-13.058,32.762,32.762,0,0,1,1.83-9.822,18.679,18.679,0,0,1,.662-1.83l.708-1.556c.225-.48.411-.932.618-1.327l.615-1.046.839-1.416c.191-.318.3-.474.3-.474s-.082.173-.26.5l-.8,1.436-.593,1.053c-.2.4-.38.852-.6,1.331s-.441,1-.685,1.559a18.367,18.367,0,0,0-.64,1.828,32.912,32.912,0,0,0-1.744,9.774,34.321,34.321,0,0,0,2.075,12.939q.321.858.651,1.736c.253.571.546,1.132.823,1.709.3.566.531,1.174.885,1.723l1.037,1.686.531.853.614.808,1.245,1.639c.434.538.938,1.028,1.409,1.552a17.567,17.567,0,0,0,1.494,1.521,31.913,31.913,0,0,0,3.381,2.774c.609.423,1.2.887,1.836,1.285l1.975,1.131c.335.184.658.395,1.005.559l1.059.472c.711.307,1.414.653,2.146.935a36.444,36.444,0,0,0,4.577,1.349,35.888,35.888,0,0,0,4.831.769c.823.061,1.655.053,2.489.083.418,0,.837.043,1.255.011l1.26-.089a31.449,31.449,0,0,0,10.05-2.2l1.235-.46,1.193-.576,1.2-.582.6-.292.571-.346,2.291-1.405,2.159-1.634a34.006,34.006,0,0,0,11.722-18.213q.3-1.325.594-2.641.166-1.338.33-2.666a8.452,8.452,0,0,0,.1-1.331l.035-1.329.03-1.324-.092-1.315a31.381,31.381,0,0,0-2.156-10.057l-.44-1.184c-.144-.395-.355-.759-.529-1.138-.373-.747-.71-1.509-1.106-2.231a37.625,37.625,0,0,0-5.822-7.688c-.56-.55-1.165-1.045-1.739-1.566l-.867-.768c-.293-.249-.618-.455-.924-.684l-1.847-1.329c-.626-.417-1.293-.76-1.93-1.14a32.029,32.029,0,0,0-3.924-1.929,17.3,17.3,0,0,0-2-.73c-.672-.213-1.326-.467-2-.641l-2.008-.454-.989-.225-1-.129-1.963-.246c-.647-.1-1.3-.058-1.935-.093-.639-.013-1.271-.047-1.9-.042l-1.85.126a34.322,34.322,0,0,0-12.638,3.466,32.918,32.918,0,0,0-8.177,5.633,18.617,18.617,0,0,0-1.4,1.338l-1.135,1.269c-.347.4-.687.748-.965,1.095l-.715.976-.976,1.322C208.524,172.8,208.4,172.949,208.4,172.949Z" transform="translate(-202.801 -156.949)" fill="#263238"/>
                    </g>
                  </g>
                  <g id="Grupo_897839" data-name="Grupo 897839">
                    <g id="Grupo_897838" data-name="Grupo 897838">
                      <path id="Trazado_617898" data-name="Trazado 617898" d="M187.988,137.966s-.318-.1-.95-.328l-2.824-1.01-11.063-3.986.087-.029-14.085,21.958-.015-.144,11.053,11.236.057.058-.025.078a64.088,64.088,0,0,0-3.006,16.7l0,.09-.082.039L152.845,189.3l.09-.182,5.541,25.491-.174-.141,15.767.139h.114l.053.1a63.925,63.925,0,0,0,9.662,13.935l.08.088-.04.113c-1.67,4.59-3.511,9.653-5.387,14.81l-.081-.241,21.939,14.115-.264.027,11.247-11.044.094-.092.125.04a64.056,64.056,0,0,0,16.678,3.014l.133.006.057.121,6.665,14.291-.25-.125,25.494-5.526-.179.219c.047-4.98.1-10.355.147-15.768v-.139l.123-.062a63.852,63.852,0,0,0,13.92-9.638l.012-.011.1-.093.128.046,14.809,5.393-.27.091L303.3,216.35l.029.281L292.3,205.379l-.095-.1.041-.13a63.7,63.7,0,0,0,3.021-16.674l.006-.134.121-.056,14.293-6.66-.121.243q-2.826-13.056-5.518-25.5l.2.166-15.766-.153-.124,0-.056-.111a63.84,63.84,0,0,0-9.648-13.943l-.081-.089.041-.112c1.852-5.077,3.647-10,5.4-14.805l.075.225-21.926-14.135.217-.023-11.257,11.034-.071.069-.094-.031a63.9,63.9,0,0,0-16.692-3.034l-.091,0-.039-.082-6.648-14.3.151.075-25.5,5.492.081-.1c-.071,6.314-.129,11.484-.176,15.767v.045l-.039.02a64.568,64.568,0,0,0-10.781,6.911c-1.11.874-1.905,1.567-2.439,2.022s-.793.685-.793.685.982-.981,3.185-2.765a63.312,63.312,0,0,1,10.762-6.983l-.04.065c.032-4.285.071-9.454.118-15.769v-.082l.08-.018,25.489-5.555.105-.023.046.1,6.675,14.284-.129-.087a64.163,64.163,0,0,1,16.779,3.022l-.166.039,11.242-11.049.1-.1.117.075,21.943,14.11.128.082-.053.143-5.385,14.809-.039-.2a64.182,64.182,0,0,1,9.72,14.024l-.18-.111,15.766.141.168,0,.036.165q2.7,12.433,5.532,25.493l.037.17-.158.074-14.289,6.666.128-.19a64.153,64.153,0,0,1-3.036,16.792l-.053-.225,11.041,11.249.127.129-.1.152L289.567,238.53l-.1.154-.171-.062-14.809-5.392.232-.046-.012.011a64.324,64.324,0,0,1-14.02,9.707l.124-.2c-.051,5.413-.1,10.788-.149,15.768v.182l-.178.039-25.495,5.52-.175.038-.075-.162-6.661-14.293.19.127a64.43,64.43,0,0,1-16.791-3.042l.218-.052-11.252,11.038-.121.118-.143-.092-21.93-14.13-.137-.088.055-.153c1.88-5.155,3.726-10.217,5.4-14.806l.039.2a64.329,64.329,0,0,1-9.708-14.029l.167.1L158.3,214.83l-.144,0-.03-.14-5.508-25.5-.027-.127.118-.055,14.3-6.652-.087.129a64.324,64.324,0,0,1,3.05-16.768l.032.135-11.027-11.262-.065-.067.05-.078,14.157-21.91.032-.05.054.02,11.008,4.049,2.822,1.046C187.665,137.837,187.988,137.966,187.988,137.966Z" transform="translate(-152.59 -106.836)" fill="#263238"/>
                    </g>
                  </g>
                </g>
              </g>
            </g>
          </g>
        </g>
        <g id="Grupo_897849" data-name="Grupo 897849" transform="translate(199.174 218.173)">
          <g id="Grupo_897845" data-name="Grupo 897845" transform="translate(0 20.041)">
            <path id="Trazado_617899" data-name="Trazado 617899" d="M302.239,293.656l-33.72,32.452H379.059V293.656Z" transform="translate(-268.519 -293.656)" fill="#455a64"/>
          </g>
          <g id="Grupo_897847" data-name="Grupo 897847" transform="translate(110.274)">
            <g id="Grupo_897846" data-name="Grupo 897846">
              <path id="Trazado_617900" data-name="Trazado 617900" d="M394.248,270.806v72.533l47.272-36.267Z" transform="translate(-394.248 -270.806)" fill="#455a64"/>
            </g>
          </g>
          <g id="Grupo_897848" data-name="Grupo 897848" transform="translate(56.563 34.716)">
            <path id="Trazado_617901" data-name="Trazado 617901" d="M333.01,310.5h1.369v4.8h2.971v1.116h-4.34Z" transform="translate(-333.01 -310.401)" fill="#263238"/>
            <path id="Trazado_617902" data-name="Trazado 617902" d="M342.681,315.155h-2.75l-.524,1.268H338l2.639-5.92H342l2.647,5.92H343.2Zm-.432-1.041-.939-2.266-.938,2.266Z" transform="translate(-333.624 -310.401)" fill="#263238"/>
            <path id="Trazado_617903" data-name="Trazado 617903" d="M346.071,313.818V310.5h1.37v3.265c0,1.125.492,1.59,1.321,1.59s1.319-.465,1.319-1.59V310.5h1.353v3.315a2.682,2.682,0,1,1-5.363,0Z" transform="translate(-334.615 -310.401)" fill="#263238"/>
            <path id="Trazado_617904" data-name="Trazado 617904" d="M359.156,310.5v5.92h-1.124l-2.951-3.594v3.594h-1.353V310.5h1.132L357.8,314.1V310.5Z" transform="translate(-335.557 -310.401)" fill="#263238"/>
            <path id="Trazado_617905" data-name="Trazado 617905" d="M361.09,313.449a3.261,3.261,0,0,1,5.652-2.013l-.881.812a1.9,1.9,0,0,0-1.488-.694,1.895,1.895,0,1,0,0,3.789,1.887,1.887,0,0,0,1.488-.7l.881.811a3.256,3.256,0,0,1-5.652-2Z" transform="translate(-336.462 -310.387)" fill="#263238"/>
            <path id="Trazado_617906" data-name="Trazado 617906" d="M374.011,310.5v5.92h-1.368V314h-2.692v2.427h-1.368V310.5h1.368v2.334h2.692V310.5Z" transform="translate(-337.383 -310.401)" fill="#263238"/>
          </g>
        </g>
        <g id="Grupo_897853" data-name="Grupo 897853" transform="translate(44.934 119.227)">
          <g id="Grupo_897851" data-name="Grupo 897851">
            <g id="Grupo_897850" data-name="Grupo 897850">
              <path id="Trazado_617907" data-name="Trazado 617907" d="M92.735,195.989c5.215,66.066,60.645,118.23,128.028,118.23V281.767a96.086,96.086,0,0,1-95.977-95.977s1.446-16.746,2.455-21.791l-31.948-6.006h0C94.129,163.722,92.275,190.16,92.735,195.989Z" transform="translate(-92.663 -157.993)" fill="#26aab7"/>
            </g>
          </g>
          <g id="Grupo_897852" data-name="Grupo 897852" transform="translate(19.63 68.994)">
            <path id="Trazado_617908" data-name="Trazado 617908" d="M139.114,264.729l-.553,1.925.043.053.754.923,1.276-1.044.867,1.059-4.578,3.748-1.623-1.982c-1-1.224-.992-2.508.035-3.35a1.925,1.925,0,0,1,2.216-.24l.631-2.231Zm-2.9,4.034.706.863,1.6-1.306-.706-.863c-.531-.647-1.1-.729-1.6-.322S135.682,268.115,136.212,268.763Z" transform="translate(-117.443 -239.967)" fill="#263238"/>
            <path id="Trazado_617909" data-name="Trazado 617909" d="M133.428,259.2l.883-.653,2.721,3.685-4.758,3.515-2.656-3.6.884-.653,1.848,2.5,1.033-.764-1.632-2.21.858-.631,1.63,2.208,1.1-.813Z" transform="translate(-116.835 -239.347)" fill="#263238"/>
            <path id="Trazado_617910" data-name="Trazado 617910" d="M125.139,255.873l6.34-1.166.753,1.124-3.494,5.413-.824-1.229,2.508-3.849L125.9,257Z" transform="translate(-116.285 -238.875)" fill="#263238"/>
            <path id="Trazado_617911" data-name="Trazado 617911" d="M124.68,254.807l-.726-1.163,5.026-3.135.726,1.162Z" transform="translate(-116.139 -238.359)" fill="#263238"/>
            <path id="Trazado_617912" data-name="Trazado 617912" d="M124.578,245.222l.951-.552,2.3,3.964-5.12,2.971-2.246-3.869.952-.552,1.562,2.692,1.11-.646-1.379-2.377.923-.535,1.379,2.378,1.185-.688Z" transform="translate(-115.71 -237.641)" fill="#263238"/>
            <path id="Trazado_617913" data-name="Trazado 617913" d="M115.044,237.619l6.148-.963.667,1.309-2.976,2.979,4.178-.623.664,1.3-4.385,4.418-.645-1.264,3.1-3.078-4.337.646-.576-1.129,3.12-3.108-4.36.677Z" transform="translate(-115.044 -236.656)" fill="#263238"/>
          </g>
        </g>
        <g id="Grupo_897857" data-name="Grupo 897857" transform="translate(35.647 20.525)">
          <g id="Grupo_897854" data-name="Grupo 897854" transform="translate(0 79.175)">
            <path id="Trazado_617914" data-name="Trazado 617914" d="M145.869,153.225l-63.794-17.5,20.641,49.791Z" transform="translate(-82.075 -135.729)" fill="#455a64"/>
          </g>
          <g id="Grupo_897855" data-name="Grupo 897855" transform="translate(16.852)">
            <path id="Trazado_617915" data-name="Trazado 617915" d="M131.972,140.9A96.142,96.142,0,0,1,222.107,77.91V45.458a128.652,128.652,0,0,0-120.819,84.853Z" transform="translate(-101.288 -45.458)" fill="#455a64"/>
          </g>
          <g id="Grupo_897856" data-name="Grupo 897856" transform="translate(52.007 31.024)">
            <path id="Trazado_617916" data-name="Trazado 617916" d="M141.37,103.528l2.222-1.516a2.974,2.974,0,1,1,3.338,4.89l-2.223,1.516Zm4.869,2.483a1.839,1.839,0,1,0-2.069-3.032l-1.035.706,2.071,3.032Z" transform="translate(-141.37 -83.349)" fill="#263238"/>
            <path id="Trazado_617917" data-name="Trazado 617917" d="M154.451,100.392l.62.908-3.785,2.585-3.338-4.89,3.7-2.522.62.908-2.572,1.755.724,1.061,2.27-1.549.6.88-2.27,1.55.773,1.131Z" transform="translate(-142.178 -82.753)" fill="#263238"/>
            <path id="Trazado_617918" data-name="Trazado 617918" d="M158.74,94.3c.745,1.089.39,2.325-.917,3.217l-.985.673.919,1.348-1.131.772-3.337-4.89,2.116-1.445C156.712,93.079,157.991,93.2,158.74,94.3Zm-1.145.782c-.367-.539-.931-.614-1.623-.142l-.923.63,1.159,1.7.923-.629C157.823,96.162,157.957,95.608,157.595,95.078Z" transform="translate(-142.835 -82.372)" fill="#263238"/>
            <path id="Trazado_617919" data-name="Trazado 617919" d="M159.038,91.669l1.131-.772,2.708,3.967,2.451-1.673.629.923-3.583,2.445Z" transform="translate(-143.542 -82.067)" fill="#263238"/>
            <path id="Trazado_617920" data-name="Trazado 617920" d="M165.228,90.889a3.244,3.244,0,1,1,4.4.7A3.065,3.065,0,0,1,165.228,90.889Zm4.206-2.871a1.853,1.853,0,1,0-.462,2.609A1.805,1.805,0,0,0,169.434,88.018Z" transform="translate(-144.236 -81.454)" fill="#263238"/>
            <path id="Trazado_617921" data-name="Trazado 617921" d="M174.641,85.285l1.181,1.732-1.131.773L173.5,86.042l-4.038-1.851,1.2-.82,2.79,1.281-.178-3.064,1.112-.759Z" transform="translate(-144.823 -80.83)" fill="#263238"/>
          </g>
        </g>
        <g id="Grupo_897861" data-name="Grupo 897861" transform="translate(149.339)">
          <g id="Grupo_897858" data-name="Grupo 897858">
            <path id="Trazado_617922" data-name="Trazado 617922" d="M253.959,98.831,211.7,52.6l53.925-30.546Z" transform="translate(-211.699 -22.057)" fill="#e0e0e0"/>
          </g>
          <g id="Grupo_897859" data-name="Grupo 897859" transform="translate(28.281 18.594)">
            <path id="Trazado_617923" data-name="Trazado 617923" d="M316.232,108.548a96.023,96.023,0,0,0-72.288-32.839V43.257a128.472,128.472,0,0,1,96.719,43.931Z" transform="translate(-243.944 -43.257)" fill="#e0e0e0"/>
          </g>
          <g id="Grupo_897860" data-name="Grupo 897860" transform="translate(62.272 38.557)">
            <path id="Trazado_617924" data-name="Trazado 617924" d="M284.467,67.738l-1.768-.679.4-1.041,4.817,1.845-.4,1.043-1.77-.678-1.719,4.487-1.278-.491Z" transform="translate(-282.699 -66.018)" fill="#263238"/>
            <path id="Trazado_617925" data-name="Trazado 617925" d="M291.687,74.563,291.3,75.59l-4.281-1.64,2.117-5.529,4.178,1.6-.394,1.026-2.907-1.113-.46,1.2,2.568.983-.382,1-2.568-.984-.49,1.28Z" transform="translate(-283.229 -66.313)" fill="#263238"/>
            <path id="Trazado_617926" data-name="Trazado 617926" d="M292.8,75.611l.8-.8a3.487,3.487,0,0,0,1.6,1.275c.758.29,1.162.156,1.292-.184.4-1.035-3.089-1.556-2.3-3.608.36-.941,1.418-1.432,2.989-.83a3.959,3.959,0,0,1,1.732,1.225l-.767.82a3.341,3.341,0,0,0-1.366-1.022c-.759-.29-1.159-.118-1.293.23-.391,1.019,3.093,1.548,2.315,3.578-.353.924-1.422,1.42-3,.815A4.224,4.224,0,0,1,292.8,75.611Z" transform="translate(-283.94 -66.655)" fill="#263238"/>
            <path id="Trazado_617927" data-name="Trazado 617927" d="M301.725,74.349l-1.769-.677.4-1.043,4.817,1.846-.4,1.042L303,74.839l-1.719,4.486-1.278-.49Z" transform="translate(-284.82 -66.831)" fill="#263238"/>
          </g>
        </g>
        <g id="Grupo_897866" data-name="Grupo 897866" transform="translate(245.217 52.718)">
          <g id="Grupo_897863" data-name="Grupo 897863" transform="translate(11.429 22.129)">
            <g id="Grupo_897862" data-name="Grupo 897862">
              <path id="Trazado_617928" data-name="Trazado 617928" d="M368.906,238.739l-29.384-13.773C345.507,212.2,351,193.8,351,179.571a94.936,94.936,0,0,0-10.293-43.3c-1.186-2.339-5.48-10.128-6.659-12.076l27.761-16.8c1.708,2.82,6.4,11.365,7.847,14.216a127.107,127.107,0,0,1,13.8,57.961C383.449,198.594,376.927,221.629,368.906,238.739Z" transform="translate(-334.045 -107.394)" fill="#1565c0"/>
            </g>
          </g>
          <g id="Grupo_897864" data-name="Grupo 897864">
            <path id="Trazado_617929" data-name="Trazado 617929" d="M321.015,135.9l55.262-36.359L325.254,82.163Z" transform="translate(-321.015 -82.163)" fill="#1565c0"/>
          </g>
          <g id="Grupo_897865" data-name="Grupo 897865" transform="translate(35.768 59.747)">
            <path id="Trazado_617930" data-name="Trazado 617930" d="M367.492,150.284l.73,2.587a2.974,2.974,0,1,1-5.7,1.608l-.731-2.589Zm-3.9,3.823a1.838,1.838,0,1,0,3.533-1l-.339-1.205-3.532,1Z" transform="translate(-361.795 -150.284)" fill="#263238"/>
            <path id="Trazado_617931" data-name="Trazado 617931" d="M365.947,163.742l-1.072.242-1.01-4.467,5.769-1.3.986,4.361-1.072.241-.685-3.033-1.253.283.605,2.679-1.038.236-.6-2.679-1.336.3Z" transform="translate(-362.05 -151.259)" fill="#263238"/>
            <path id="Trazado_617932" data-name="Trazado 617932" d="M372.1,170.162l-6.275-1.482-.237-1.331,5.375-3.552.261,1.456-3.845,2.515,4.482,1.055Z" transform="translate(-362.261 -151.945)" fill="#263238"/>
            <path id="Trazado_617933" data-name="Trazado 617933" d="M368.128,177.011l-1.089.147-.615-4.539,5.862-.795.6,4.431-1.088.146-.417-3.08-1.273.171.369,2.722-1.056.145-.369-2.723-1.355.184Z" transform="translate(-362.364 -152.932)" fill="#263238"/>
            <path id="Trazado_617934" data-name="Trazado 617934" d="M373.133,178.444l.129,1.363-4.779.453.278,2.953-1.109.106L367.243,179Z" transform="translate(-362.465 -153.745)" fill="#263238"/>
            <path id="Trazado_617935" data-name="Trazado 617935" d="M370.711,184.085a3.243,3.243,0,1,1-2.89,3.391A3.062,3.062,0,0,1,370.711,184.085Zm.261,5.082a1.852,1.852,0,1,0-1.987-1.752A1.8,1.8,0,0,0,370.973,189.167Z" transform="translate(-362.535 -154.438)" fill="#263238"/>
            <path id="Trazado_617936" data-name="Trazado 617936" d="M371.925,197.849c-1.319.005-2.142-.981-2.149-2.562l0-1.192-1.631.007-.005-1.369,5.918-.024.01,2.56C374.068,196.851,373.251,197.843,371.925,197.849Zm-.005-1.387c.651,0,1.03-.427,1.027-1.263l-.005-1.116-2.054.007,0,1.116C370.9,196.044,371.277,196.464,371.92,196.462Z" transform="translate(-362.574 -155.499)" fill="#263238"/>
          </g>
        </g>
        <g id="Grupo_897873" data-name="Grupo 897873" transform="translate(74.061 180.046)">
          <g id="Grupo_897871" data-name="Grupo 897871">
            <g id="Grupo_897868" data-name="Grupo 897868" transform="translate(0 25.212)">
              <g id="Grupo_897867" data-name="Grupo 897867">
                <path id="Trazado_617937" data-name="Trazado 617937" d="M229.431,326.276H125.872V293.824H229.431a95.358,95.358,0,0,0,76.3-37.743l25.779,19.712A127.571,127.571,0,0,1,229.431,326.276Z" transform="translate(-125.872 -256.081)" fill="#fb8c00"/>
              </g>
            </g>
            <g id="Grupo_897869" data-name="Grupo 897869" transform="translate(163.453)">
              <path id="Trazado_617938" data-name="Trazado 617938" d="M312.233,244.433,367.3,281.091l-3.949-53.755Z" transform="translate(-312.233 -227.336)" fill="#fb8c00"/>
            </g>
            <g id="Grupo_897870" data-name="Grupo 897870" transform="translate(0 0)" opacity="0.3">
              <path id="Trazado_617939" data-name="Trazado 617939" d="M344.389,281.09l-3.949-53.754-51.116,17.1,14.956,9.956a95.311,95.311,0,0,1-74.85,35.9H125.872v32.452H229.431a127.565,127.565,0,0,0,101.947-50.315Z" transform="translate(-125.872 -227.336)" fill="#fb8c00"/>
            </g>
          </g>
          <g id="Grupo_897872" data-name="Grupo 897872" transform="translate(157.285 48.06)">
            <path id="Trazado_617940" data-name="Trazado 617940" d="M310.592,296.339c.795,1.053.5,2.3-.766,3.257l-.954.718.983,1.3-1.095.824-3.561-4.729,2.047-1.542C308.509,295.219,309.794,295.279,310.592,296.339Zm-1.108.835c-.393-.52-.96-.569-1.628-.067l-.892.673,1.237,1.641.892-.672C309.762,298.246,309.871,297.688,309.485,297.174Z" transform="translate(-305.2 -283.774)" fill="#263238"/>
            <path id="Trazado_617941" data-name="Trazado 617941" d="M310.758,293.72l1.095-.824,2.89,3.836,2.371-1.785.674.892-3.465,2.609Z" transform="translate(-305.883 -283.454)" fill="#263238"/>
            <path id="Trazado_617942" data-name="Trazado 617942" d="M321.578,291.4l-2.194,1.653.343,1.33-1.121.845-1.454-6.317,1.081-.814,5.677,3.136-1.15.866Zm-.97-.571-2.114-1.247.613,2.376Z" transform="translate(-306.669 -282.864)" fill="#263238"/>
            <path id="Trazado_617943" data-name="Trazado 617943" d="M325.693,282.131l3.562,4.73-.9.676-4.52-1.1L326,289.313l-1.081.814-3.562-4.728.9-.682,4.514,1.1-2.162-2.871Z" transform="translate(-307.186 -282.131)" fill="#263238"/>
          </g>
        </g>
        <g id="Grupo_897878" data-name="Grupo 897878" transform="translate(0 222.96)">
          <g id="Grupo_897874" data-name="Grupo 897874" transform="translate(65.439)">
            <path id="Trazado_617944" data-name="Trazado 617944" d="M116.041,276.264V348.8l46.665-36.267Z" transform="translate(-116.041 -276.264)" fill="#e0e0e0"/>
          </g>
          <g id="Grupo_897876" data-name="Grupo 897876" transform="translate(0 20.041)">
            <g id="Grupo_897875" data-name="Grupo 897875">
              <rect id="Rectángulo_303807" data-name="Rectángulo 303807" width="74.061" height="32.452" fill="#e0e0e0"/>
            </g>
          </g>
          <g id="Grupo_897877" data-name="Grupo 897877" transform="translate(31.11 33.019)">
            <path id="Trazado_617945" data-name="Trazado 617945" d="M82.035,316.06c0,1.319-.99,2.139-2.572,2.139H78.271v1.632H76.9v-5.92h2.563C81.045,313.911,82.035,314.731,82.035,316.06Zm-1.388,0c0-.652-.423-1.032-1.26-1.032H78.271v2.056h1.117C80.225,317.083,80.648,316.7,80.648,316.06Z" transform="translate(-76.901 -313.911)" fill="#263238"/>
            <path id="Trazado_617946" data-name="Trazado 617946" d="M83.861,313.911h1.37v4.8H88.2v1.117H83.861Z" transform="translate(-77.757 -313.911)" fill="#263238"/>
            <path id="Trazado_617947" data-name="Trazado 617947" d="M93.532,318.563H90.784l-.525,1.268h-1.4l2.638-5.92h1.353l2.648,5.92H94.056Zm-.432-1.04-.938-2.266-.938,2.266Z" transform="translate(-78.37 -313.911)" fill="#263238"/>
            <path id="Trazado_617948" data-name="Trazado 617948" d="M102.556,313.911v5.92h-1.124l-2.951-3.594v3.594H97.127v-5.92H98.26l2.943,3.594v-3.594Z" transform="translate(-79.387 -313.911)" fill="#263238"/>
          </g>
        </g>
      </g>
      <g id="Character" transform="translate(138.322 150.371)">
        <g id="Grupo_898043" data-name="Grupo 898043" transform="translate(0)">
          <g id="Grupo_897906" data-name="Grupo 897906" transform="translate(51.749 288.102)">
            <g id="Grupo_897883" data-name="Grupo 897883">
              <g id="Grupo_897882" data-name="Grupo 897882">
                <g id="Grupo_897881" data-name="Grupo 897881">
                  <g id="Grupo_897880" data-name="Grupo 897880">
                    <g id="Grupo_897879" data-name="Grupo 897879">
                      <path id="Trazado_617949" data-name="Trazado 617949" d="M228.4,497.952l-2.5,26.474-14.31-1.063,2.45-26.53Z" transform="translate(-211.59 -496.833)" fill="#455a64"/>
                    </g>
                  </g>
                </g>
              </g>
            </g>
            <g id="Grupo_897889" data-name="Grupo 897889" transform="translate(7.318 0.214)">
              <g id="Grupo_897888" data-name="Grupo 897888">
                <g id="Grupo_897887" data-name="Grupo 897887">
                  <g id="Grupo_897886" data-name="Grupo 897886">
                    <g id="Grupo_897885" data-name="Grupo 897885">
                      <g id="Grupo_897884" data-name="Grupo 897884">
                        <path id="Trazado_617950" data-name="Trazado 617950" d="M219.951,522.932c-.119-.012.4-5.812,1.168-12.95s1.481-12.918,1.6-12.905-.4,5.811-1.168,12.952S220.07,522.946,219.951,522.932Z" transform="translate(-219.934 -497.077)" fill="#263238"/>
                      </g>
                    </g>
                  </g>
                </g>
              </g>
            </g>
            <g id="Grupo_897894" data-name="Grupo 897894" transform="translate(0 24.657)">
              <g id="Grupo_897893" data-name="Grupo 897893">
                <g id="Grupo_897892" data-name="Grupo 897892">
                  <g id="Grupo_897891" data-name="Grupo 897891">
                    <g id="Grupo_897890" data-name="Grupo 897890">
                      <path id="Trazado_617951" data-name="Trazado 617951" d="M226.072,526.056l-14.309-1.11-.173,1.873,14.31,1.063Z" transform="translate(-211.59 -524.946)" fill="#263238"/>
                    </g>
                  </g>
                </g>
              </g>
            </g>
            <g id="Grupo_897900" data-name="Grupo 897900" transform="translate(0.781 14.471)">
              <g id="Grupo_897899" data-name="Grupo 897899">
                <g id="Grupo_897898" data-name="Grupo 897898">
                  <g id="Grupo_897897" data-name="Grupo 897897">
                    <g id="Grupo_897896" data-name="Grupo 897896">
                      <g id="Grupo_897895" data-name="Grupo 897895">
                        <path id="Trazado_617952" data-name="Trazado 617952" d="M212.483,516.912c-.02-.018.123-.217.422-.542a10.012,10.012,0,0,1,1.407-1.236,9.733,9.733,0,0,1,2.458-1.32,7.64,7.64,0,0,1,8.733,2.525,6.573,6.573,0,0,1,.892,1.656,1.884,1.884,0,0,1,.164.668,15,15,0,0,0-1.3-2.136,7.634,7.634,0,0,0-5.134-2.724,8.776,8.776,0,0,0-5.639,1.583C213.2,516.243,212.537,516.968,212.483,516.912Z" transform="translate(-212.481 -513.332)" fill="#263238"/>
                      </g>
                    </g>
                  </g>
                </g>
              </g>
            </g>
            <g id="Grupo_897905" data-name="Grupo 897905" transform="translate(1.483 7.551)" opacity="0.3">
              <g id="Grupo_897904" data-name="Grupo 897904">
                <g id="Grupo_897903" data-name="Grupo 897903">
                  <g id="Grupo_897902" data-name="Grupo 897902">
                    <g id="Grupo_897901" data-name="Grupo 897901">
                      <path id="Trazado_617953" data-name="Trazado 617953" d="M213.55,505.442l-.269,2.917,14.349,1,.207-2.2Z" transform="translate(-213.281 -505.442)"/>
                    </g>
                  </g>
                </g>
              </g>
            </g>
          </g>
          <g id="Grupo_897934" data-name="Grupo 897934" transform="translate(111.739 287.369)">
            <g id="Grupo_897911" data-name="Grupo 897911" transform="translate(0 0)">
              <g id="Grupo_897910" data-name="Grupo 897910">
                <g id="Grupo_897909" data-name="Grupo 897909">
                  <g id="Grupo_897908" data-name="Grupo 897908">
                    <g id="Grupo_897907" data-name="Grupo 897907">
                      <path id="Trazado_617954" data-name="Trazado 617954" d="M294.343,496l1.72,26.536-14.3,1.214-1.778-26.584Z" transform="translate(-279.987 -495.997)" fill="#455a64"/>
                    </g>
                  </g>
                </g>
              </g>
            </g>
            <g id="Grupo_897917" data-name="Grupo 897917" transform="translate(7.558 0.168)">
              <g id="Grupo_897916" data-name="Grupo 897916">
                <g id="Grupo_897915" data-name="Grupo 897915">
                  <g id="Grupo_897914" data-name="Grupo 897914">
                    <g id="Grupo_897913" data-name="Grupo 897913">
                      <g id="Grupo_897912" data-name="Grupo 897912">
                        <path id="Trazado_617955" data-name="Trazado 617955" d="M290,522.156c-.12.006-.521-5.8-.9-12.972s-.582-12.989-.461-13,.52,5.8.895,12.974S290.114,522.15,290,522.156Z" transform="translate(-288.604 -496.188)" fill="#263238"/>
                      </g>
                    </g>
                  </g>
                </g>
              </g>
            </g>
            <g id="Grupo_897922" data-name="Grupo 897922" transform="translate(1.653 24.706)">
              <g id="Grupo_897921" data-name="Grupo 897921">
                <g id="Grupo_897920" data-name="Grupo 897920">
                  <g id="Grupo_897919" data-name="Grupo 897919">
                    <g id="Grupo_897918" data-name="Grupo 897918">
                      <path id="Trazado_617956" data-name="Trazado 617956" d="M296.177,524.166l-14.3,1.167L282,527.21,296.3,526Z" transform="translate(-281.872 -524.166)" fill="#263238"/>
                    </g>
                  </g>
                </g>
              </g>
            </g>
            <g id="Grupo_897928" data-name="Grupo 897928" transform="translate(1.207 14.529)">
              <g id="Grupo_897927" data-name="Grupo 897927">
                <g id="Grupo_897926" data-name="Grupo 897926">
                  <g id="Grupo_897925" data-name="Grupo 897925">
                    <g id="Grupo_897924" data-name="Grupo 897924">
                      <g id="Grupo_897923" data-name="Grupo 897923">
                        <path id="Trazado_617957" data-name="Trazado 617957" d="M281.367,517.288a1.921,1.921,0,0,1,.332-.6,9.89,9.89,0,0,1,1.194-1.442,9.724,9.724,0,0,1,2.218-1.693,7.638,7.638,0,0,1,9.022,1.112,6.564,6.564,0,0,1,1.143,1.494,1.853,1.853,0,0,1,.267.634,15.067,15.067,0,0,0-1.62-1.9,7.644,7.644,0,0,0-5.5-1.878,8.78,8.78,0,0,0-5.318,2.456C281.965,516.514,281.43,517.334,281.367,517.288Z" transform="translate(-281.364 -512.562)" fill="#263238"/>
                      </g>
                    </g>
                  </g>
                </g>
              </g>
            </g>
            <g id="Grupo_897933" data-name="Grupo 897933" transform="translate(0.506 8.173)" opacity="0.3">
              <g id="Grupo_897932" data-name="Grupo 897932">
                <g id="Grupo_897931" data-name="Grupo 897931">
                  <g id="Grupo_897930" data-name="Grupo 897930">
                    <g id="Grupo_897929" data-name="Grupo 897929">
                      <path id="Trazado_617958" data-name="Trazado 617958" d="M280.564,505.876l.2,2.923,14.327-1.282-.143-2.2Z" transform="translate(-280.564 -505.315)"/>
                    </g>
                  </g>
                </g>
              </g>
            </g>
          </g>
          <g id="Grupo_898006" data-name="Grupo 898006" transform="translate(55.476)">
            <g id="Grupo_897944" data-name="Grupo 897944" transform="translate(3.227 8.192)">
              <g id="Grupo_897943" data-name="Grupo 897943">
                <g id="Grupo_897942" data-name="Grupo 897942">
                  <g id="Grupo_897941" data-name="Grupo 897941">
                    <g id="Grupo_897940" data-name="Grupo 897940">
                      <g id="Grupo_897939" data-name="Grupo 897939">
                        <g id="Grupo_897938" data-name="Grupo 897938">
                          <g id="Grupo_897937" data-name="Grupo 897937">
                            <g id="Grupo_897936" data-name="Grupo 897936">
                              <g id="Grupo_897935" data-name="Grupo 897935">
                                <path id="Trazado_617959" data-name="Trazado 617959" d="M246.415,222.3l-19.705,2.94-.923-16.86s-1.423-.061-2.683-7.254-3.585-19.385-3.585-19.385h0a27.057,27.057,0,0,1,26.585-1.058l1.239.644Z" transform="translate(-219.519 -177.694)" fill="#ffbe9d"/>
                              </g>
                            </g>
                          </g>
                        </g>
                      </g>
                    </g>
                  </g>
                </g>
              </g>
            </g>
            <g id="Grupo_897952" data-name="Grupo 897952" transform="translate(30.147 20.507)">
              <g id="Grupo_897951" data-name="Grupo 897951">
                <g id="Grupo_897950" data-name="Grupo 897950">
                  <g id="Grupo_897949" data-name="Grupo 897949">
                    <g id="Grupo_897948" data-name="Grupo 897948">
                      <g id="Grupo_897947" data-name="Grupo 897947">
                        <g id="Grupo_897946" data-name="Grupo 897946">
                          <g id="Grupo_897945" data-name="Grupo 897945">
                            <path id="Trazado_617960" data-name="Trazado 617960" d="M250.212,192.3c.118-.075,4.893-2.3,5.528,2.658s-4.647,4.6-4.674,4.463S250.212,192.3,250.212,192.3Z" transform="translate(-250.212 -191.735)" fill="#ffbe9d"/>
                          </g>
                        </g>
                      </g>
                    </g>
                  </g>
                </g>
              </g>
            </g>
            <g id="Grupo_897960" data-name="Grupo 897960" transform="translate(1.963 23.895)">
              <g id="Grupo_897959" data-name="Grupo 897959">
                <g id="Grupo_897958" data-name="Grupo 897958">
                  <g id="Grupo_897957" data-name="Grupo 897957">
                    <g id="Grupo_897956" data-name="Grupo 897956">
                      <g id="Grupo_897955" data-name="Grupo 897955">
                        <g id="Grupo_897954" data-name="Grupo 897954">
                          <g id="Grupo_897953" data-name="Grupo 897953">
                            <path id="Trazado_617961" data-name="Trazado 617961" d="M222.122,195.623c-.135-.032-4.877-.481-3.916,4.421s5.862,2.9,5.843,2.76S222.122,195.623,222.122,195.623Z" transform="translate(-218.077 -195.598)" fill="#ffbe9d"/>
                          </g>
                        </g>
                      </g>
                    </g>
                  </g>
                </g>
              </g>
            </g>
            <g id="Grupo_897964" data-name="Grupo 897964" transform="translate(2.242 7.017)">
              <g id="Grupo_897963" data-name="Grupo 897963">
                <g id="Grupo_897962" data-name="Grupo 897962">
                  <g id="Grupo_897961" data-name="Grupo 897961">
                    <path id="Trazado_617962" data-name="Trazado 617962" d="M247.867,189.587c-.094,4.253.408,6.4.149,9.271a14.764,14.764,0,0,1-5.833,11.094c-3.72,2.839-9.235,3.693-13.214,1.291-2.76-1.666-4.858-3.714-5.72-6.757s-2.111-8.473-2.64-11.59c-.952-5.62-2.213-10.935-2.213-10.935l16.178-5.605,10.356,3.906Z" transform="translate(-218.396 -176.355)" fill="#263238"/>
                  </g>
                </g>
              </g>
            </g>
            <g id="Grupo_897969" data-name="Grupo 897969" transform="translate(18.01 42.92)">
              <g id="Grupo_897968" data-name="Grupo 897968">
                <g id="Grupo_897967" data-name="Grupo 897967">
                  <g id="Grupo_897966" data-name="Grupo 897966">
                    <g id="Grupo_897965" data-name="Grupo 897965">
                      <path id="Trazado_617963" data-name="Trazado 617963" d="M236.374,218.836a7.787,7.787,0,0,0,5.611-1.532c-.068-.116-1.239.456-2.777.869S236.372,218.7,236.374,218.836Z" transform="translate(-236.374 -217.289)" fill="#263238"/>
                    </g>
                  </g>
                </g>
              </g>
            </g>
            <g id="Grupo_898005" data-name="Grupo 898005">
              <g id="Grupo_897972" data-name="Grupo 897972">
                <g id="Grupo_897971" data-name="Grupo 897971">
                  <g id="Grupo_897970" data-name="Grupo 897970">
                    <path id="Trazado_617964" data-name="Trazado 617964" d="M247.886,195.754c-.2-4.312-.665-9.2-.7-13.775-.014-1.716.213-4.229-.215-5.89a13.739,13.739,0,0,0-1.9-4.779,7.39,7.39,0,0,0-5.67-2.952,7.616,7.616,0,0,0-5.918,2.591,5.716,5.716,0,0,0-6.069-1.261,5.5,5.5,0,0,0-3.429,5.057,4.024,4.024,0,0,0-4.613.262,3.721,3.721,0,0,0-.993,4.373,3.763,3.763,0,0,0-2.42,2.511,3.543,3.543,0,0,0,.824,3.311c.957,1.022,2.451,1.428,3.478,2.384a4.046,4.046,0,0,1,.976,4.407" transform="translate(-215.84 -168.354)" fill="#263238"/>
                  </g>
                </g>
              </g>
              <g id="Grupo_897976" data-name="Grupo 897976" transform="translate(6.448 10.704)">
                <g id="Grupo_897975" data-name="Grupo 897975">
                  <g id="Grupo_897974" data-name="Grupo 897974">
                    <g id="Grupo_897973" data-name="Grupo 897973">
                      <path id="Trazado_617965" data-name="Trazado 617965" d="M223.193,185.706c-.015.008.054.172.26.432a3.355,3.355,0,0,0,1.138.894,3.614,3.614,0,0,0,2.273.311,3.819,3.819,0,0,0,2.472-1.639l-.367-.036a3.43,3.43,0,0,0,2.626,2.105,4.147,4.147,0,0,0,3.679-1.064,5.536,5.536,0,0,0,1.68-3.014l-.4.109a4.8,4.8,0,0,0,4.093,1.386,4.47,4.47,0,0,0,2.969-1.765,4.274,4.274,0,0,0,.843-2.071,1.807,1.807,0,0,0-.029-.8c-.036,0-.027.282-.127.775a4.5,4.5,0,0,1-.919,1.924,4.229,4.229,0,0,1-2.785,1.553,4.422,4.422,0,0,1-3.7-1.3l-.306-.329-.09.439a5.162,5.162,0,0,1-1.55,2.761,3.7,3.7,0,0,1-3.262.965,3.046,3.046,0,0,1-2.337-1.806l-.142-.4-.225.361a3.5,3.5,0,0,1-2.192,1.526,3.452,3.452,0,0,1-2.1-.2A4.733,4.733,0,0,1,223.193,185.706Z" transform="translate(-223.191 -180.558)" fill="#455a64"/>
                    </g>
                  </g>
                </g>
              </g>
              <g id="Grupo_897980" data-name="Grupo 897980" transform="translate(6.021 5.289)">
                <g id="Grupo_897979" data-name="Grupo 897979">
                  <g id="Grupo_897978" data-name="Grupo 897978">
                    <g id="Grupo_897977" data-name="Grupo 897977">
                      <path id="Trazado_617966" data-name="Trazado 617966" d="M222.846,182.988a4.422,4.422,0,0,1,.421-1.909,3.079,3.079,0,0,1,1.566-1.42,3.3,3.3,0,0,1,2.615.057l.45.216-.12-.475a3.629,3.629,0,0,1-.059-1.444,3.959,3.959,0,0,1,1.675-2.633,4.1,4.1,0,0,1,2.559-.64,5.564,5.564,0,0,1,2.355.828c.018-.017-.132-.218-.5-.482a4.152,4.152,0,0,0-1.815-.667,4.2,4.2,0,0,0-4.739,3.528,3.976,3.976,0,0,0,.075,1.626l.33-.26a3.668,3.668,0,0,0-2.985-.015,3.3,3.3,0,0,0-1.68,1.657,3.057,3.057,0,0,0-.28,1.5C222.743,182.813,222.823,182.993,222.846,182.988Z" transform="translate(-222.704 -174.384)" fill="#455a64"/>
                    </g>
                  </g>
                </g>
              </g>
              <g id="Grupo_897984" data-name="Grupo 897984" transform="translate(16.297 8.234)">
                <g id="Grupo_897983" data-name="Grupo 897983">
                  <g id="Grupo_897982" data-name="Grupo 897982">
                    <g id="Grupo_897981" data-name="Grupo 897981">
                      <path id="Trazado_617967" data-name="Trazado 617967" d="M234.926,181.826c.061-.038-.059-.279-.1-.68a3.185,3.185,0,0,1,.285-1.54,15.6,15.6,0,0,1,.751-1.461c.215-.3.483-.158.515-.188.025-.013.01-.114-.141-.181a.6.6,0,0,0-.618.151,3.707,3.707,0,0,0-.484.655,5.807,5.807,0,0,0-.459.856,2.662,2.662,0,0,0-.176,1.772C234.64,181.665,234.881,181.861,234.926,181.826Z" transform="translate(-234.421 -177.742)" fill="#455a64"/>
                    </g>
                  </g>
                </g>
              </g>
              <g id="Grupo_897988" data-name="Grupo 897988" transform="translate(20.735 2.867)">
                <g id="Grupo_897987" data-name="Grupo 897987">
                  <g id="Grupo_897986" data-name="Grupo 897986">
                    <g id="Grupo_897985" data-name="Grupo 897985">
                      <path id="Trazado_617968" data-name="Trazado 617968" d="M244.422,173.279c.05-.027-.06-.384-.457-.849a2.459,2.459,0,0,0-.884-.649,2.063,2.063,0,0,0-1.4-.067,3.294,3.294,0,0,0-1.823,1.55c-.3.516-.417.856-.366.887s.286-.259.642-.709a3.577,3.577,0,0,1,1.68-1.292,2,2,0,0,1,1.911.507C244.144,173.023,244.36,173.316,244.422,173.279Z" transform="translate(-239.481 -171.623)" fill="#455a64"/>
                    </g>
                  </g>
                </g>
              </g>
              <g id="Grupo_897992" data-name="Grupo 897992" transform="translate(26.448 18.79)">
                <g id="Grupo_897991" data-name="Grupo 897991">
                  <g id="Grupo_897990" data-name="Grupo 897990">
                    <g id="Grupo_897989" data-name="Grupo 897989">
                      <path id="Trazado_617969" data-name="Trazado 617969" d="M246.013,196.829a8.06,8.06,0,0,0,1.25-3.429,7.865,7.865,0,0,0,.046-3.623c-.139.006-.148,1.612-.51,3.549S245.884,196.78,246.013,196.829Z" transform="translate(-245.995 -189.777)" fill="#455a64"/>
                    </g>
                  </g>
                </g>
              </g>
              <g id="Grupo_897996" data-name="Grupo 897996" transform="translate(24.391 22.378)">
                <g id="Grupo_897995" data-name="Grupo 897995">
                  <g id="Grupo_897994" data-name="Grupo 897994">
                    <g id="Grupo_897993" data-name="Grupo 897993">
                      <path id="Trazado_617970" data-name="Trazado 617970" d="M243.683,198.875a6.012,6.012,0,0,0,.872-2.439,5.857,5.857,0,0,0,.207-2.567,9.2,9.2,0,0,0-.668,2.479A9.081,9.081,0,0,0,243.683,198.875Z" transform="translate(-243.649 -193.869)" fill="#455a64"/>
                    </g>
                  </g>
                </g>
              </g>
              <g id="Grupo_898000" data-name="Grupo 898000" transform="translate(10.417 29.991)">
                <g id="Grupo_897999" data-name="Grupo 897999">
                  <g id="Grupo_897998" data-name="Grupo 897998">
                    <g id="Grupo_897997" data-name="Grupo 897997">
                      <path id="Trazado_617971" data-name="Trazado 617971" d="M227.752,202.549a7.64,7.64,0,0,0,1.276,4.238,7.906,7.906,0,0,0,3.122,3.2,27.447,27.447,0,0,1-2.712-3.435A26.845,26.845,0,0,1,227.752,202.549Z" transform="translate(-227.716 -202.549)" fill="#455a64"/>
                    </g>
                  </g>
                </g>
              </g>
              <g id="Grupo_898004" data-name="Grupo 898004" transform="translate(7.452 26.758)">
                <g id="Grupo_898003" data-name="Grupo 898003">
                  <g id="Grupo_898002" data-name="Grupo 898002">
                    <g id="Grupo_898001" data-name="Grupo 898001">
                      <path id="Trazado_617972" data-name="Trazado 617972" d="M224.518,198.863a6.168,6.168,0,0,0,.306,3.955,6.3,6.3,0,0,0,2.3,3.261,21.579,21.579,0,0,1-1.856-3.416A21.36,21.36,0,0,1,224.518,198.863Z" transform="translate(-224.336 -198.862)" fill="#455a64"/>
                    </g>
                  </g>
                </g>
              </g>
            </g>
          </g>
          <g id="Grupo_898007" data-name="Grupo 898007" transform="translate(65.034 43.744)">
            <path id="Trazado_617973" data-name="Trazado 617973" d="M226.737,226.807l.174-4.228,20.6-4.35.728,3.481Z" transform="translate(-226.737 -218.229)" fill="#fff"/>
          </g>
          <g id="Grupo_898032" data-name="Grupo 898032" transform="translate(0 15.309)">
            <g id="Grupo_898008" data-name="Grupo 898008" transform="translate(0 77.748)">
              <path id="Trazado_617974" data-name="Trazado 617974" d="M153.148,284.864s-1.017.522-.308,1.267,10.077,9.063,11.342,9.879a26.741,26.741,0,0,0,5.055,1.8l2.475-.46,1.449-5.966,1.747-2.87-.446-.66,1.645-6.378s-1.429-.579-2.081.449c-.921,1.45-2.194,3.793-2.194,3.793s-2.576.393-3.513-.725-6.4-10.332-7.059-10.492-1.664.041-1.129,1.507,4.027,6.69,3.893,6.976-.663.679-.919.425-5.827-7.61-6.71-7.736c-.94-.134-1.616.625-.751,2.044s5.4,6.59,5.19,6.921-.81-.069-.81-.069-5.184-5.412-5.911-5.316c-.808.107-.934.92-.525,1.592s5.662,5.75,5.755,6.154c.061.264-.162,1.309-.585.952S153.559,284.519,153.148,284.864Z" transform="translate(-152.588 -274.452)" fill="#ffbe9d"/>
            </g>
            <g id="Grupo_898009" data-name="Grupo 898009" transform="translate(50.018 128.465)">
              <path id="Trazado_617975" data-name="Trazado 617975" d="M213.109,345.842l-1.09,70.758-2.4,73.455,19.939,1.442,6.727-74.9,7.656-53.142,1.686-.1,15.062,55.327,9.387,71C271.24,489.391,288.9,488,288.9,488L276.647,344.232l-2.041-11.955-52.49,1.167Z" transform="translate(-209.616 -332.277)" fill="#263238"/>
            </g>
            <g id="Grupo_898010" data-name="Grupo 898010" transform="translate(44.048 30.446)">
              <path id="Trazado_617976" data-name="Trazado 617976" d="M271.285,294l-1.518-40.927-2.524-28.262h-17.21l-4.394-4.285-22.073,4.285-2.044,6.165s-17.728,5.644-18.711,7.365c0,0,6.218,24.541,9.146,38.292,2.008,9.436,4.125,19.106,4.125,19.106l-5.6,45.273c-.222,0,34.1-1.51,34.1-1.51l33.159-3.586Z" transform="translate(-202.81 -220.521)" fill="#455a64"/>
            </g>
            <g id="Grupo_898011" data-name="Grupo 898011" transform="translate(115.126)">
              <path id="Trazado_617977" data-name="Trazado 617977" d="M299.171,207.672s-5.052.4-5.351.4-5.5.478-5.5.478a2.663,2.663,0,0,1,1.435-1.793c1.2-.539,3.475-1.371,3.714-1.789s.768-1.021.29-1.678-9.19-9.5-9.489-9.979-.777-1.375,0-1.554,1.734.657,2.391,1.2,4.05,3.4,4.408,3.224.061-.478.061-.478-5.762-5.93-5.821-6.109-.739-1.928.9-1.64c.786.137,6.772,6.254,7.011,6.015s-5.021-6.993-4.543-7.531,1.017-1.075,1.973,0,5.076,6.575,5.377,6.635a.5.5,0,0,0,.54-.658c-.119-.418-2.566-4.68-2.566-5.158s.481-.6.959-.656,5.612,7.368,5.612,7.368,3.964,6.376,4.363,7.113a24.152,24.152,0,0,1,1.136,3.228Z" transform="translate(-283.849 -185.808)" fill="#ffbe9d"/>
            </g>
            <g id="Grupo_898012" data-name="Grupo 898012" transform="translate(107.796 17.767)">
              <path id="Trazado_617978" data-name="Trazado 617978" d="M296.882,210.491l3.443,13.276-7.868,2.951-16.965-3.688v25.077l2.4,6.521s35.5-17.134,37.859-19.019c4.408-3.525-2.589-15.667-2.589-15.667l-6.445-13.876Z" transform="translate(-275.492 -206.065)" fill="#455a64"/>
            </g>
            <g id="Grupo_898013" data-name="Grupo 898013" transform="translate(16.724 48.261)">
              <path id="Trazado_617979" data-name="Trazado 617979" d="M198.981,240.833l-3.971,7.95L184.976,282l-11.213,2.992-2.108,10.248s17.534,4.111,20.786,2.7c5.523-2.4,14.74-25.267,14.74-25.267l-1.247-19.551Z" transform="translate(-171.656 -240.833)" fill="#455a64"/>
            </g>
            <g id="Grupo_898015" data-name="Grupo 898015" transform="translate(132.53 35.177)">
              <g id="Grupo_898014" data-name="Grupo 898014">
                <path id="Trazado_617980" data-name="Trazado 617980" d="M314.926,231.634a23.6,23.6,0,0,0-11.235-5.692,5.692,5.692,0,0,1,1.886.176,16.96,16.96,0,0,1,8.091,4.1A5.7,5.7,0,0,1,314.926,231.634Z" transform="translate(-303.692 -225.915)" fill="#263238"/>
              </g>
            </g>
            <g id="Grupo_898017" data-name="Grupo 898017" transform="translate(131.931 34.587)">
              <g id="Grupo_898016" data-name="Grupo 898016">
                <path id="Trazado_617981" data-name="Trazado 617981" d="M311.5,226.052a15.321,15.321,0,0,0-8.485.538,9.072,9.072,0,0,1,8.485-.538Z" transform="translate(-303.009 -225.243)" fill="#263238"/>
              </g>
            </g>
            <g id="Grupo_898019" data-name="Grupo 898019" transform="translate(62.699 34.729)">
              <g id="Grupo_898018" data-name="Grupo 898018">
                <path id="Trazado_617982" data-name="Trazado 617982" d="M252.646,225.407a5.777,5.777,0,0,1-.964.669c-.315.209-.712.446-1.187.7s-1,.56-1.618.841a40.609,40.609,0,0,1-4.385,1.82,54.567,54.567,0,0,1-5.594,1.581,59.575,59.575,0,0,1-10.459,1.338c-1.348.052-2.441.054-3.2.025a5.886,5.886,0,0,1-1.169-.085,5.732,5.732,0,0,1,1.168-.092c.752-.025,1.839-.077,3.179-.17a70.8,70.8,0,0,0,10.377-1.46c2-.451,3.872-.982,5.557-1.533,1.673-.582,3.17-1.145,4.385-1.714.618-.261,1.158-.539,1.637-.774s.889-.441,1.217-.626A5.727,5.727,0,0,1,252.646,225.407Z" transform="translate(-224.074 -225.404)" fill="#263238"/>
              </g>
            </g>
            <g id="Grupo_898021" data-name="Grupo 898021" transform="translate(63.822 103.216)">
              <g id="Grupo_898020" data-name="Grupo 898020">
                <path id="Trazado_617983" data-name="Trazado 617983" d="M258.006,305.972a7.022,7.022,0,0,1-1.266.323c-.82.187-2.02.394-3.51.594a57.352,57.352,0,0,1-23.293-1.767c-1.443-.423-2.6-.81-3.38-1.117a7.1,7.1,0,0,1-1.2-.51,7.113,7.113,0,0,1,1.259.342c.8.255,1.963.593,3.409.974a64.045,64.045,0,0,0,23.168,1.758c1.488-.157,2.69-.316,3.517-.447A7.206,7.206,0,0,1,258.006,305.972Z" transform="translate(-225.355 -303.49)" fill="#263238"/>
              </g>
            </g>
            <g id="Grupo_898023" data-name="Grupo 898023" transform="translate(29.412 72.111)">
              <g id="Grupo_898022" data-name="Grupo 898022">
                <path id="Trazado_617984" data-name="Trazado 617984" d="M186.131,288.384c-.121-.035,1.11-4.621,2.749-10.243s3.067-10.15,3.188-10.115-1.109,4.62-2.75,10.243S186.252,288.419,186.131,288.384Z" transform="translate(-186.123 -268.026)" fill="#263238"/>
              </g>
            </g>
            <g id="Grupo_898025" data-name="Grupo 898025" transform="translate(83.166 118.963)">
              <g id="Grupo_898024" data-name="Grupo 898024">
                <path id="Trazado_617985" data-name="Trazado 617985" d="M247.49,321.443c.126,0,.356,5.1.513,11.4s.182,11.407.056,11.411-.355-5.1-.512-11.4S247.364,321.446,247.49,321.443Z" transform="translate(-247.41 -321.443)" fill="#263238"/>
              </g>
            </g>
            <g id="Grupo_898027" data-name="Grupo 898027" transform="translate(75.819 157.748)">
              <g id="Grupo_898026" data-name="Grupo 898026">
                <path id="Trazado_617986" data-name="Trazado 617986" d="M259.036,365.678c.023.124-4.437,1.045-9.959,2.057s-10.021,1.732-10.043,1.609,4.436-1.045,9.961-2.058S259.013,365.553,259.036,365.678Z" transform="translate(-239.033 -365.664)" fill="#455a64"/>
              </g>
            </g>
            <g id="Grupo_898029" data-name="Grupo 898029" transform="translate(104.888 211.254)">
              <g id="Grupo_898028" data-name="Grupo 898028">
                <path id="Trazado_617987" data-name="Trazado 617987" d="M283.349,426.858a41.35,41.35,0,0,0-5.737.742,41.291,41.291,0,0,0-5.435,1.985,5.037,5.037,0,0,1,1.434-.956,17.054,17.054,0,0,1,8.025-1.959A4.988,4.988,0,0,1,283.349,426.858Z" transform="translate(-272.176 -426.669)" fill="#455a64"/>
              </g>
            </g>
            <g id="Grupo_898031" data-name="Grupo 898031" transform="translate(60.734 214.311)">
              <g id="Grupo_898030" data-name="Grupo 898030">
                <path id="Trazado_617988" data-name="Trazado 617988" d="M229.149,430.726c-.03.134-1.654-.2-3.668-.1-2.016.079-3.6.554-3.646.423a9.661,9.661,0,0,1,7.314-.318Z" transform="translate(-221.834 -430.154)" fill="#455a64"/>
              </g>
            </g>
          </g>
          <g id="Grupo_898034" data-name="Grupo 898034" transform="translate(47.176 75.97)">
            <g id="Grupo_898033" data-name="Grupo 898033">
              <path id="Trazado_617989" data-name="Trazado 617989" d="M216.519,299.969a1.782,1.782,0,0,1-.144-.448c-.087-.348-.195-.779-.326-1.3-.279-1.2-.658-2.831-1.119-4.815-.928-4.131-2.184-9.727-3.571-15.91s-2.631-11.784-3.553-15.916l-1.079-4.822-.28-1.315a1.8,1.8,0,0,1-.067-.467,1.869,1.869,0,0,1,.156.444c.1.346.218.774.363,1.295.307,1.127.723,2.765,1.22,4.791.995,4.055,2.3,9.672,3.685,15.891s2.593,11.854,3.442,15.941c.4,2,.733,3.636.978,4.846.1.532.177.969.242,1.323A1.866,1.866,0,0,1,216.519,299.969Z" transform="translate(-206.376 -254.971)" fill="#263238"/>
            </g>
          </g>
          <g id="Grupo_898036" data-name="Grupo 898036" transform="translate(110.155 64.219)">
            <g id="Grupo_898035" data-name="Grupo 898035">
              <path id="Trazado_617990" data-name="Trazado 617990" d="M278.181,241.573a1.04,1.04,0,0,1,.039.249l.068.736c.056.647.132,1.6.211,2.833.168,2.461.362,6.026.584,10.429.439,8.809.955,20.982,1.459,34.43.08,2.166.158,4.3.232,6.325l0-.026c1.792,11.83,3.378,22.3,4.522,29.851.546,3.738.987,6.752,1.3,8.867.139,1.017.249,1.816.329,2.394.031.253.055.458.075.623a.858.858,0,0,1,.011.214.816.816,0,0,1-.053-.208l-.117-.616-.407-2.383c-.342-2.11-.829-5.117-1.432-8.846-1.181-7.546-2.82-18.007-4.67-29.828l0-.013v-.013c-.075-2.025-.155-4.158-.236-6.325C279.048,263.719,278.278,244.06,278.181,241.573Z" transform="translate(-278.181 -241.573)" fill="#263238"/>
            </g>
          </g>
          <g id="Grupo_898038" data-name="Grupo 898038" transform="translate(63.596 51.589)" opacity="0.3">
            <g id="Grupo_898037" data-name="Grupo 898037">
              <path id="Trazado_617991" data-name="Trazado 617991" d="M250.492,227.173c-8.3,3.344-16.494,5.407-25.395,5.414a7.193,7.193,0,0,0,4.643,2.044,18.628,18.628,0,0,0,5.208-.445,78.707,78.707,0,0,0,12.669-3.559C249.031,230.1,250.686,228.574,250.492,227.173Z" transform="translate(-225.097 -227.173)"/>
            </g>
          </g>
          <g id="Grupo_898040" data-name="Grupo 898040" transform="translate(47.673 77.4)" opacity="0.3">
            <g id="Grupo_898039" data-name="Grupo 898039">
              <path id="Trazado_617992" data-name="Trazado 617992" d="M206.942,256.6c.136,3.2-.218,7.035.451,10.161a19.045,19.045,0,0,0,3.993,8.592C209.84,269.334,208.533,262.738,206.942,256.6Z" transform="translate(-206.942 -256.601)"/>
            </g>
          </g>
          <g id="Grupo_898042" data-name="Grupo 898042" transform="translate(73.135 125.517)" opacity="0.3">
            <g id="Grupo_898041" data-name="Grupo 898041">
              <path id="Trazado_617993" data-name="Trazado 617993" d="M236.245,311.5l-.272-.041c2.685,3.051,7.141,3.368,11.2,3.4s8.479-.234,11.2-3.248A54.991,54.991,0,0,1,236.245,311.5Z" transform="translate(-235.973 -311.462)"/>
            </g>
          </g>
        </g>
      </g>
      <g id="Speech_Bubble" data-name="Speech Bubble" transform="translate(137.889 106.715)">
        <g id="Grupo_898061" data-name="Grupo 898061" transform="translate(0)">
          <g id="Grupo_898052" data-name="Grupo 898052">
            <g id="Grupo_898051" data-name="Grupo 898051">
              <g id="Grupo_898046" data-name="Grupo 898046" transform="translate(0.149 0.161)">
                <g id="Grupo_898045" data-name="Grupo 898045">
                  <g id="Grupo_898044" data-name="Grupo 898044">
                    <path id="Trazado_617994" data-name="Trazado 617994" d="M202.231,159.222l-9.664-2.163a23.069,23.069,0,1,1,4.27-7.079l.007-.011Z" transform="translate(-152.264 -118.763)" fill="#fff"/>
                  </g>
                </g>
              </g>
              <g id="Grupo_898050" data-name="Grupo 898050">
                <g id="Grupo_898049" data-name="Grupo 898049">
                  <g id="Grupo_898048" data-name="Grupo 898048">
                    <g id="Grupo_898047" data-name="Grupo 898047">
                      <path id="Trazado_617995" data-name="Trazado 617995" d="M202.21,159.2l-5.311-9.3a.086.086,0,0,0-.118-.032.084.084,0,0,0-.027.025l-.008.011.152.082a23.022,23.022,0,0,0,1.242-11.946,20.843,20.843,0,0,0-.887-3.548c-.217-.59-.418-1.2-.658-1.8l-.849-1.779a23.277,23.277,0,0,0-13.055-11.1,23,23,0,0,0-9.664-1.132,23.531,23.531,0,0,0-9.74,3.253,22.774,22.774,0,0,0-7.636,7.5,23.181,23.181,0,0,0-3.479,10.357,23.53,23.53,0,0,0,1.5,10.357,22.767,22.767,0,0,0,5.453,8.262,23.407,23.407,0,0,0,16.086,6.541,24.914,24.914,0,0,0,7.468-1.232,22.951,22.951,0,0,0,9.934-6.634l-.081.026,9.68,2.081-9.644-2.244a.084.084,0,0,0-.081.026A22.91,22.91,0,0,1,182.6,163.5a24.773,24.773,0,0,1-7.391,1.188,23.155,23.155,0,0,1-15.862-6.5,22.47,22.47,0,0,1-5.363-8.152,23.227,23.227,0,0,1-1.466-10.207,22.861,22.861,0,0,1,3.43-10.2,22.453,22.453,0,0,1,7.518-7.388,23.219,23.219,0,0,1,9.594-3.215,22.719,22.719,0,0,1,9.528,1.1,23.023,23.023,0,0,1,12.914,10.92l.845,1.755c.239.593.44,1.193.657,1.776a20.615,20.615,0,0,1,.893,3.506,22.959,22.959,0,0,1-1.162,11.843.087.087,0,0,0,.152.082l.008-.011-.146-.007C200.2,155.814,201.895,158.667,202.21,159.2Z" transform="translate(-152.094 -118.579)" fill="#263238"/>
                    </g>
                  </g>
                </g>
              </g>
            </g>
          </g>
          <g id="Grupo_898060" data-name="Grupo 898060" transform="translate(10.46 13.98)">
            <g id="Grupo_898059" data-name="Grupo 898059">
              <g id="Grupo_898058" data-name="Grupo 898058">
                <g id="Grupo_898057" data-name="Grupo 898057">
                  <g id="Grupo_898056" data-name="Grupo 898056">
                    <g id="Grupo_898055" data-name="Grupo 898055">
                      <g id="Grupo_898054" data-name="Grupo 898054">
                        <g id="Grupo_898053" data-name="Grupo 898053">
                          <path id="Trazado_617996" data-name="Trazado 617996" d="M164.02,144.212l3.31-3.31,6.383,5.674,12.53-12.058,3.073,3.31L173.24,152.96Z" transform="translate(-164.02 -134.519)" fill="#fb8c00"/>
                        </g>
                      </g>
                    </g>
                  </g>
                </g>
              </g>
            </g>
          </g>
        </g>
      </g>
    </g>
  </g>
</svg>
