<svg xmlns="http://www.w3.org/2000/svg" xmlns:xlink="http://www.w3.org/1999/xlink" width="108.419" height="108.419" viewBox="0 0 108.419 108.419">
  <defs>
    <linearGradient id="linear-gradient" x1="0.5" x2="0.5" y2="1" gradientUnits="objectBoundingBox">
      <stop offset="0" stop-color="#fdbe41"/>
      <stop offset="1" stop-color="#d09f40"/>
    </linearGradient>
  </defs>
  <g id="Grupo_900004" data-name="Grupo 900004" transform="translate(-897.348 -5842.418)">
    <circle id="Elipse_6021" data-name="Elipse 6021" cx="54.209" cy="54.209" r="54.209" transform="translate(897.348 5842.418)" fill="url(#linear-gradient)"/>
    <g id="emmf59" transform="translate(1467.612 6248.646)">
      <g id="Grupo_892598" data-name="Grupo 892598" transform="translate(-548.597 -387.139)">
        <path id="Trazado_612190" data-name="Trazado 612190" d="M-498.069-359.2h14.955v10.7h-14.964v4.284h14.95v10.748h-14.937v4.308h8.425a28.173,28.173,0,0,1-.04,4.33,5.15,5.15,0,0,1-5.186,4.271q-21.511.008-43.021,0a5.319,5.319,0,0,1-5.332-5.4q-.007-22.819.012-45.639a.982.982,0,0,0-.744-1.1,7.481,7.481,0,0,1-4.488-8.516,7.519,7.519,0,0,1,7.329-5.923q24.631-.011,49.263.008a1.871,1.871,0,0,1,.93.268q3.654,2.247,7.282,4.538a3.021,3.021,0,0,1-.008,5.4q-3.652,2.312-7.336,4.575a1.772,1.772,0,0,1-.875.228c-2.056.019-4.112.01-6.216.01Zm-43.008-12.876v.777q0,22.452,0,44.9c0,.2-.006.4.007.6a3.225,3.225,0,0,0,4.063,2.959,3.247,3.247,0,0,0,2.372-3.134c.021-1.043,0-2.087,0-3.2h34.336v-4.285h-2.142v-4.308h-6.416v-7.514a4.6,4.6,0,0,0-2.129,3.472c-.055.667-.018,1.342-.025,2.013a6.435,6.435,0,0,1-8.112,6.126,6.25,6.25,0,0,1-4.738-6.3,6.588,6.588,0,0,0-2.364-5.592,12.214,12.214,0,0,1-3.931-11.6,12.986,12.986,0,0,1,11.719-10.635,12.875,12.875,0,0,1,13.305,9.117c.351,1.2.485,2.473.721,3.722h2.007v-4.29h2.1v-12.834Zm27.892,30.024c.127-.525.214-1.011.362-1.478a7.638,7.638,0,0,1,2.4-3.32,10.373,10.373,0,0,0,3.506-10.021,10.757,10.757,0,0,0-11.927-8.7A10.868,10.868,0,0,0-528-352.953a11.06,11.06,0,0,0,3.854,6.417,6.667,6.667,0,0,1,2.216,3.514c.082.318.134.643.2.95h2.044c-.214-3.224-.426-6.4-.64-9.631-.513,0-.958,0-1.4,0a3.2,3.2,0,0,1-3.233-3.092,3.209,3.209,0,0,1,2.979-3.343,3.245,3.245,0,0,1,3.595,3c.028.418.079.835.12,1.252h1.648c.042-.465.085-.887.116-1.31a3.244,3.244,0,0,1,3.582-2.937,3.21,3.21,0,0,1,2.99,3.267,3.2,3.2,0,0,1-3.159,3.167c-.482.007-.964,0-1.48,0l-.635,9.65ZM-533.552-322.7h.671q18.859,0,37.718,0a3.348,3.348,0,0,0,3.409-4.251H-532.5A6.037,6.037,0,0,1-533.552-322.7Zm40.256-56.941a2.234,2.234,0,0,0-2.08-1.086q-19.723.058-39.446.026h-.833v2.153h.852q19.622,0,39.244.021A2.214,2.214,0,0,0-493.3-379.639Zm-.157-5.309h-42.2v2.106h33.746c2.282,0,4.564.007,6.846-.011a.9.9,0,0,0,.67-.252C-494.044-383.67-493.78-384.286-493.453-384.948Zm.014,10.667c-.277-.556-.56-1.035-.759-1.547a.857.857,0,0,0-.965-.586q-19.9.021-39.8.012h-.687v2.122Zm-6.776,17.238v6.365h14.953v-6.365Zm0,15.038v6.366h14.956v-6.366Zm-37.662-42.979c-1.192,0-2.31-.046-3.424.009a5.353,5.353,0,0,0-5.016,4.272,5.354,5.354,0,0,0,3.1,5.988c1.729.748,3.544.385,5.336.464Zm35.446,36.521v-4.311c-.652,0-1.232.019-1.81-.007-.385-.018-.488.136-.617.5-.479,1.36-1.047,2.688-1.566,4.034a3,3,0,0,0-.271,1c-.024,2.235-.012,4.471-.012,6.706v.625h4.313v-4.289h2.1v-4.258Zm11.2-26.27c2.234-1.4,4.4-2.734,6.547-4.1a.849.849,0,0,0,.036-1.562c-2.166-1.377-4.351-2.724-6.579-4.115-.369.73-.705,1.431-1.077,2.113a.519.519,0,0,0,.125.74c.7.649,1.366,1.328,2.1,2.051l-2.435,2.31Zm-21.95,34.884h-8.532a4.3,4.3,0,0,0,4.231,4.26A4.3,4.3,0,0,0-513.18-339.849Zm-4.968-11.852.619,9.245.168-.006.614-9.24h-1.4Zm-2.392-2.146a10.285,10.285,0,0,0-.008-1.161,1.114,1.114,0,0,0-1.22-.984,1.129,1.129,0,0,0-1.042,1.037,1.108,1.108,0,0,0,1.109,1.1C-521.328-353.828-520.953-353.847-520.54-353.847Zm6.184,0c.393,0,.767.017,1.139,0a1.11,1.11,0,0,0,1.134-1.08,1.127,1.127,0,0,0-1.084-1.063,1.108,1.108,0,0,0-1.182,1.027C-514.386-354.619-514.356-354.266-514.356-353.847Z" transform="translate(548.597 387.139)" fill="#12263f"/>
        <path id="Trazado_612191" data-name="Trazado 612191" d="M-465.757-83.334v2.06h-10.672v-2.06Z" transform="translate(486.135 124.194)" fill="#12263f"/>
        <path id="Trazado_612192" data-name="Trazado 612192" d="M-465.752-51.387v2.059h-10.672v-2.059Z" transform="translate(486.131 96.544)" fill="#12263f"/>
        <path id="Trazado_612193" data-name="Trazado 612193" d="M-476.448-17.48v-2.06h10.672v2.06Z" transform="translate(486.152 68.98)" fill="#12263f"/>
        <path id="Trazado_612194" data-name="Trazado 612194" d="M-476.393,12.376h2.056v2.067h-2.056Z" transform="translate(486.104 41.356)" fill="#12263f"/>
        <path id="Trazado_612195" data-name="Trazado 612195" d="M-442.3,12.448V14.5h-2.083V12.448Z" transform="translate(458.396 41.294)" fill="#12263f"/>
        <path id="Trazado_612196" data-name="Trazado 612196" d="M-412.372,12.247h2.036V14.33h-2.036Z" transform="translate(430.694 41.468)" fill="#12263f"/>
        <path id="Trazado_612197" data-name="Trazado 612197" d="M-170.782-145.135h-2.048v-2.083h2.048Z" transform="translate(223.369 179.486)" fill="#12263f"/>
        <path id="Trazado_612198" data-name="Trazado 612198" d="M-140.9-147.381h2.051v2.083H-140.9Z" transform="translate(195.732 179.627)" fill="#12263f"/>
        <path id="Trazado_612199" data-name="Trazado 612199" d="M-106.928-145.188h-2.059v-2.071h2.059Z" transform="translate(168.112 179.521)" fill="#12263f"/>
        <path id="Trazado_612200" data-name="Trazado 612200" d="M-170.811-33.356h-2.036v-2.083h2.036Z" transform="translate(223.383 82.741)" fill="#12263f"/>
        <path id="Trazado_612201" data-name="Trazado 612201" d="M-141.065-33.363v-2.06h2.072v2.06Z" transform="translate(195.876 82.727)" fill="#12263f"/>
        <path id="Trazado_612202" data-name="Trazado 612202" d="M-106.927-33.356h-2.036v-2.083h2.036Z" transform="translate(168.091 82.741)" fill="#12263f"/>
      </g>
    </g>
  </g>
</svg>
