<svg xmlns="http://www.w3.org/2000/svg" width="64.84" height="26.666" viewBox="0 0 64.84 26.666">
  <path id="Trazado_618668" data-name="Trazado 618668" d="M23.757,0h-5.42V-11.273H7.769V0H2.349V-26.3h5.42v10.659H18.337V-26.3h5.42ZM40.613,0H35.392V-20.126l-6.233,1.933v-4.246l10.894-3.9h.56ZM67.189,0H49.159V-3.577l8.509-9.069a20.992,20.992,0,0,0,2.593-3.342,5.37,5.37,0,0,0,.84-2.71,4.018,4.018,0,0,0-.885-2.755,3.2,3.2,0,0,0-2.529-1,3.446,3.446,0,0,0-2.791,1.219,4.831,4.831,0,0,0-1.021,3.207H48.635a8.624,8.624,0,0,1,1.147-4.39,8.086,8.086,0,0,1,3.243-3.116,9.857,9.857,0,0,1,4.751-1.129,9.333,9.333,0,0,1,6.314,1.951A6.9,6.9,0,0,1,66.34-19.2a8.845,8.845,0,0,1-1.012,3.975,22.087,22.087,0,0,1-3.469,4.715l-5.98,6.305h11.31Z" transform="translate(-2.349 26.666)" fill="#ccc"/>
</svg>
