<svg xmlns="http://www.w3.org/2000/svg" width="64.714" height="26.702" viewBox="0 0 64.714 26.702">
  <path id="Trazado_618671" data-name="Trazado 618671" d="M23.757,0h-5.42V-11.273H7.769V0H2.349V-26.3h5.42v10.659H18.337V-26.3h5.42ZM40.613,0H35.392V-20.126l-6.233,1.933v-4.246l10.894-3.9h.56Zm9.322-12.936L51.453-26.3H66.2v4.354H55.735l-.65,5.655a8.278,8.278,0,0,1,3.957-.994,7.582,7.582,0,0,1,5.89,2.331,9.309,9.309,0,0,1,2.132,6.522,9.537,9.537,0,0,1-1.075,4.562A7.587,7.587,0,0,1,62.907-.75,9.616,9.616,0,0,1,58.174.361a10.211,10.211,0,0,1-4.426-.967,7.851,7.851,0,0,1-3.225-2.719,7.41,7.41,0,0,1-1.256-3.993h5.167A3.859,3.859,0,0,0,55.581-4.76a3.637,3.637,0,0,0,2.574.912,3.21,3.21,0,0,0,2.728-1.274,5.9,5.9,0,0,0,.958-3.6,4.879,4.879,0,0,0-1.1-3.433,4.044,4.044,0,0,0-3.125-1.192,4.52,4.52,0,0,0-3.017.976l-.506.47Z" transform="translate(-2.349 26.341)" fill="#ccc"/>
</svg>
