<svg xmlns="http://www.w3.org/2000/svg" width="64.949" height="26.937" viewBox="0 0 64.949 26.937">
  <path id="Trazado_618672" data-name="Trazado 618672" d="M23.757,0h-5.42V-11.273H7.769V0H2.349V-26.3h5.42v10.659H18.337V-26.3h5.42ZM40.613,0H35.392V-20.126l-6.233,1.933v-4.246l10.894-3.9h.56ZM63.323-26.576v4.3h-.506a8.87,8.87,0,0,0-5.7,1.843,7.487,7.487,0,0,0-2.593,4.968A7.111,7.111,0,0,1,59.818-17.6a6.7,6.7,0,0,1,5.456,2.457A9.849,9.849,0,0,1,67.3-8.672a9.688,9.688,0,0,1-1.111,4.643A7.968,7.968,0,0,1,63.043-.795a9.133,9.133,0,0,1-4.6,1.156,8.53,8.53,0,0,1-6.712-2.891,11.22,11.22,0,0,1-2.556-7.714v-1.879a16.886,16.886,0,0,1,1.617-7.561,11.856,11.856,0,0,1,4.643-5.077,13.606,13.606,0,0,1,7.019-1.816ZM58.228-13.387a4.172,4.172,0,0,0-2.294.658,3.965,3.965,0,0,0-1.518,1.74V-9.4a7.03,7.03,0,0,0,1.03,4.084,3.328,3.328,0,0,0,2.891,1.47,3.291,3.291,0,0,0,2.719-1.325,5.405,5.405,0,0,0,1.039-3.435,5.4,5.4,0,0,0-1.048-3.462A3.415,3.415,0,0,0,58.228-13.387Z" transform="translate(-2.349 26.576)" fill="#ccc"/>
</svg>
