<svg xmlns="http://www.w3.org/2000/svg" xmlns:xlink="http://www.w3.org/1999/xlink" width="482.973" height="339.128" viewBox="0 0 482.973 339.128">
  <defs>
    <clipPath id="clip-path">
      <rect id="Rectángulo_58051" data-name="Rectángulo 58051" width="434.388" height="329.753" fill="none"/>
    </clipPath>
    <clipPath id="clip-path-2">
      <rect id="Rectángulo_58011" data-name="Rectángulo 58011" width="434.388" height="428.883" fill="none"/>
    </clipPath>
    <clipPath id="clip-path-4">
      <rect id="Rectángulo_58023" data-name="Rectángulo 58023" width="5.701" height="5.701" fill="none"/>
    </clipPath>
    <linearGradient id="linear-gradient" x1="0.5" x2="0.5" y2="1" gradientUnits="objectBoundingBox">
      <stop offset="0" stop-color="#4adbd1"/>
      <stop offset="1" stop-color="#5573c6"/>
    </linearGradient>
    <clipPath id="clip-path-6">
      <rect id="Rectángulo_59564" data-name="Rectángulo 59564" width="43.104" height="35.419" fill="#f4a338"/>
    </clipPath>
  </defs>
  <g id="Grupo_899997" data-name="Grupo 899997" transform="translate(-202.027 -6395.731)">
    <rect id="Rectángulo_303222" data-name="Rectángulo 303222" width="443" height="275.316" transform="translate(242 6405.488)" fill="#fff7ee"/>
    <g id="Grupo_899989" data-name="Grupo 899989">
      <g id="Grupo_888580" data-name="Grupo 888580" transform="translate(202.027 6395.731)">
        <g id="Grupo_181180" data-name="Grupo 181180" transform="translate(18.099)">
          <g id="Grupo_180166" data-name="Grupo 180166" clip-path="url(#clip-path)">
            <g id="Grupo_180096" data-name="Grupo 180096">
              <g id="Grupo_180095" data-name="Grupo 180095" clip-path="url(#clip-path-2)">
                <path id="Trazado_231172" data-name="Trazado 231172" d="M46.849,97.685l-4.344.006a3.343,3.343,0,0,0-1.308.142,2.048,2.048,0,0,0-1.034.917,2.173,2.173,0,0,0-.244.694,4.405,4.405,0,0,0-.032.767c0,.262,0,.528,0,.8a3.715,3.715,0,0,1-.053.825,2.183,2.183,0,0,1-.969,1.395,2.027,2.027,0,0,1-.852.3c-.31.028-.61.009-.922.015H33.2l-8.831,0H21.336a2.423,2.423,0,0,1-.63-.061,2.092,2.092,0,0,1-1.083-.667,2.217,2.217,0,0,1-.528-1.176,4.929,4.929,0,0,1-.024-.651v-.649a3.463,3.463,0,0,0-.13-1.278,2.09,2.09,0,0,0-.777-1.013,2.024,2.024,0,0,0-1.25-.344H6.894a6.911,6.911,0,0,0-2.922.553,6.833,6.833,0,0,0-2.431,1.814,6.682,6.682,0,0,0-1.376,2.769c-.068.254-.087.519-.133.779-.012.221-.024.442-.031.664v43.383c0,.58,0,1.146,0,1.729,0,1.752,0,3.539,0,5.319V211.1a6.946,6.946,0,0,0,.268,2.1,6.639,6.639,0,0,0,2.58,3.551A6.9,6.9,0,0,0,7.1,217.916l4.522,0,8.952.005,17.5.012,8.528.005c1.407-.007,2.816.023,4.2-.017a6.611,6.611,0,0,0,3.765-1.454,7.079,7.079,0,0,0,1.358-1.5,6.578,6.578,0,0,0,.834-1.83,6.938,6.938,0,0,0,.25-1.988q0-1.014,0-2.023,0-4.034,0-7.977c.012-21.014.023-39.939.031-55.833s.029-28.756.038-37.646q0-1.667.005-3.146a6.861,6.861,0,0,0-.488-2.689,6.648,6.648,0,0,0-1.258-1.98,6.694,6.694,0,0,0-4.008-2.111,5.223,5.223,0,0,0-.676-.061c-.152-.01-.23-.017-.23-.017s-.308.006-.91.01l-2.671.008" transform="translate(0 7.115)" fill="#fafafa"/>
                <path id="Trazado_231173" data-name="Trazado 231173" d="M398.526,97.685l-4.344.006a3.343,3.343,0,0,0-1.308.142,2.048,2.048,0,0,0-1.034.917,2.175,2.175,0,0,0-.244.694,4.534,4.534,0,0,0-.032.767c0,.262,0,.528,0,.8a3.714,3.714,0,0,1-.053.825,2.182,2.182,0,0,1-.969,1.395,2.028,2.028,0,0,1-.852.3c-.31.028-.611.009-.922.015h-3.893l-8.831,0h-3.034a2.424,2.424,0,0,1-.63-.061,2.092,2.092,0,0,1-1.083-.667,2.218,2.218,0,0,1-.528-1.176,4.934,4.934,0,0,1-.024-.651v-.649a3.465,3.465,0,0,0-.13-1.278,2.09,2.09,0,0,0-.777-1.013,2.024,2.024,0,0,0-1.25-.344H358.571a6.911,6.911,0,0,0-2.922.553,6.834,6.834,0,0,0-2.431,1.814,6.681,6.681,0,0,0-1.377,2.769c-.068.254-.087.519-.133.779-.012.221-.024.442-.031.664v43.383c0,.58,0,1.146,0,1.729,0,1.752,0,3.539,0,5.319V211.1a6.909,6.909,0,0,0,.268,2.1,6.644,6.644,0,0,0,2.58,3.551,6.9,6.9,0,0,0,4.254,1.166l4.522,0,8.952.005,17.5.012,8.529.005c1.405-.007,2.815.023,4.2-.017a6.612,6.612,0,0,0,3.765-1.454,7.079,7.079,0,0,0,1.358-1.5,6.579,6.579,0,0,0,.834-1.83,6.938,6.938,0,0,0,.251-1.988v-2.023q0-4.034,0-7.977c.012-21.014.022-39.939.031-55.833s.029-28.756.038-37.646q0-1.667.005-3.146a6.859,6.859,0,0,0-.488-2.689,6.65,6.65,0,0,0-1.258-1.98,6.694,6.694,0,0,0-4.008-2.111,5.206,5.206,0,0,0-.676-.061c-.152-.01-.229-.017-.229-.017s-.308.006-.91.01l-2.671.008" transform="translate(25.62 7.115)" fill="#fafafa"/>
              </g>
            </g>
            <g id="Grupo_180152" data-name="Grupo 180152">
              <g id="Grupo_180151" data-name="Grupo 180151" clip-path="url(#clip-path-2)">
                <path id="Trazado_231174" data-name="Trazado 231174" d="M103.664,55.673l-6.929.011a5.31,5.31,0,0,0-2.086.225A3.264,3.264,0,0,0,93,57.371a3.521,3.521,0,0,0-.388,1.108,7.178,7.178,0,0,0-.052,1.223c0,.418,0,.843,0,1.273a5.964,5.964,0,0,1-.084,1.316,3.492,3.492,0,0,1-1.546,2.225,3.261,3.261,0,0,1-1.359.48c-.495.044-.973.013-1.469.023l-6.211,0-14.085,0H62.967a3.824,3.824,0,0,1-1.005-.1,3.342,3.342,0,0,1-1.726-1.064,3.543,3.543,0,0,1-.842-1.875,7.691,7.691,0,0,1-.036-1.039V59.915a5.538,5.538,0,0,0-.209-2.038,3.331,3.331,0,0,0-1.237-1.616,3.231,3.231,0,0,0-1.994-.549H39.931a11.019,11.019,0,0,0-4.662.882,10.9,10.9,0,0,0-3.878,2.895A10.637,10.637,0,0,0,29.2,63.9c-.108.406-.139.827-.214,1.241-.018.353-.038.7-.048,1.06V236.579a11.065,11.065,0,0,0,.427,3.353,10.594,10.594,0,0,0,4.117,5.666,11.009,11.009,0,0,0,6.786,1.86l7.212,0,14.281.01,27.92.018,13.6.01c2.242-.013,4.491.035,6.7-.028a10.54,10.54,0,0,0,6-2.32,11.264,11.264,0,0,0,2.167-2.395,10.482,10.482,0,0,0,1.329-2.919,11.087,11.087,0,0,0,.4-3.17q0-1.619,0-3.227,0-6.437,0-12.724c.019-33.52.037-63.709.05-89.063s.046-45.869.06-60.052q0-2.659.008-5.017a10.914,10.914,0,0,0-.779-4.288,10.56,10.56,0,0,0-2.007-3.16,10.672,10.672,0,0,0-6.393-3.368,8.834,8.834,0,0,0-1.079-.1c-.242-.014-.365-.026-.365-.026s-.492.01-1.453.014l-4.26.013" transform="translate(2.108 4.054)" fill="#fafafa"/>
                <path id="Trazado_231175" data-name="Trazado 231175" d="M109.487,55.794s.122,0,.365.011a8.028,8.028,0,0,1,1.078.084,10.012,10.012,0,0,1,3.993,1.379,10.216,10.216,0,0,1,2.428,1.968,10.664,10.664,0,0,1,2.028,3.178,11.021,11.021,0,0,1,.8,4.321q0,2.356.006,5.017c.009,14.183.02,34.7.036,60.052s.009,55.542.014,89.063q0,6.286,0,12.723v3.228a11.382,11.382,0,0,1-.409,3.248,10.712,10.712,0,0,1-1.359,3,11.509,11.509,0,0,1-2.217,2.461,10.778,10.778,0,0,1-6.146,2.386c-2.233.064-4.448.016-6.689.03l-13.555-.006-27.819-.014-14.227-.008-7.186,0a11.254,11.254,0,0,1-6.933-1.914,10.908,10.908,0,0,1-4.22-5.828,11.754,11.754,0,0,1-.444-3.6q0-1.8,0-3.588,0-7.166,0-14.232,0-14.133.006-27.827c.008-18.243.013-35.84.019-52.6s.017-32.692.023-47.6q.008-11.181.014-21.572,0-1.3,0-2.581c.006-.429.036-.863.06-1.292.075-.423.108-.854.219-1.268a10.882,10.882,0,0,1,2.238-4.51,10.8,10.8,0,0,1,8.678-3.845l9.278.011,4.464.005,2.186,0a3.412,3.412,0,0,1,2.1.586,3.525,3.525,0,0,1,1.3,1.71,5.7,5.7,0,0,1,.217,2.1q0,.52,0,1.036a7.72,7.72,0,0,0,.033,1.015,3.359,3.359,0,0,0,.794,1.781,3.138,3.138,0,0,0,1.626,1.01,3.624,3.624,0,0,0,.959.1h.981l3.842.005,14.035.02,6.187.01c.488-.009.986.023,1.449-.018a3.12,3.12,0,0,0,1.3-.458,3.371,3.371,0,0,0,1.491-2.144,5.929,5.929,0,0,0,.084-1.293q0-.645,0-1.273a7.257,7.257,0,0,1,.056-1.241,3.585,3.585,0,0,1,.4-1.139,3.352,3.352,0,0,1,1.7-1.5,5.337,5.337,0,0,1,2.114-.226l6.9.019,4.246.017c.956.005,1.446.016,1.446.016s-.49.01-1.446.015l-4.246.012-6.9.011a5.271,5.271,0,0,0-2.078.225,3.262,3.262,0,0,0-1.645,1.463,3.5,3.5,0,0,0-.386,1.107,7.072,7.072,0,0,0-.05,1.223q0,.628,0,1.273a6.04,6.04,0,0,1-.083,1.317,3.5,3.5,0,0,1-1.541,2.224,3.243,3.243,0,0,1-1.355.48c-.492.044-.969.013-1.463.023l-6.187,0-14.035,0H63.247a3.8,3.8,0,0,1-1-.1,3.317,3.317,0,0,1-1.72-1.064,3.547,3.547,0,0,1-.839-1.875,7.692,7.692,0,0,1-.036-1.039V60.063a5.561,5.561,0,0,0-.208-2.038,3.331,3.331,0,0,0-1.234-1.616,3.213,3.213,0,0,0-1.986-.549H40.293a10.586,10.586,0,0,0-8.508,3.776A10.653,10.653,0,0,0,29.6,64.053c-.109.406-.139.827-.214,1.241-.021.422-.051.841-.058,1.268q0,1.284,0,2.581,0,10.38.005,21.572c0,14.907,0,30.837,0,47.6s0,34.36,0,52.6q0,13.682,0,27.827,0,7.065,0,14.232,0,1.791,0,3.588a11.415,11.415,0,0,0,.432,3.517,10.6,10.6,0,0,0,4.1,5.665,10.933,10.933,0,0,0,6.762,1.86l7.185.005,14.228.009,27.818.018,13.555.01c2.234-.013,4.475.035,6.671-.028a10.481,10.481,0,0,0,5.983-2.319,11.253,11.253,0,0,0,2.159-2.395,10.47,10.47,0,0,0,1.325-2.919,11.124,11.124,0,0,0,.4-3.17q0-1.619,0-3.228,0-6.435.005-12.723c.018-33.52.035-63.709.049-89.063s.046-45.869.06-60.052q0-2.659.008-5.017a10.924,10.924,0,0,0-.777-4.287,10.556,10.556,0,0,0-2-3.161,10.624,10.624,0,0,0-6.371-3.368,8.517,8.517,0,0,0-1.075-.1c-.241-.015-.364-.027-.364-.027" transform="translate(2.115 4.054)" fill="#263238"/>
                <path id="Trazado_231176" data-name="Trazado 231176" d="M106.476,71.856c0,.046-1.758.1-3.928.116s-3.93-.005-3.93-.05,1.757-.1,3.928-.116,3.93,0,3.93.05" transform="translate(7.184 5.231)" fill="#263238"/>
                <path id="Trazado_231177" data-name="Trazado 231177" d="M106.492,73.73c0,.046-1.758.1-3.929.116s-3.929-.005-3.93-.05,1.758-.1,3.929-.116,3.93,0,3.93.05" transform="translate(7.185 5.367)" fill="#263238"/>
                <path id="Trazado_231178" data-name="Trazado 231178" d="M106.507,75.6c0,.046-1.758.1-3.929.116s-3.929-.005-3.93-.05,1.758-.1,3.929-.116,3.93.005,3.93.05" transform="translate(7.187 5.504)" fill="#263238"/>
                <path id="Trazado_231179" data-name="Trazado 231179" d="M39.33,78.186a1.27,1.27,0,0,1,.163-.011l.455-.015,1.678-.04-.047.047c-.005-.372-.012-.779-.019-1.217,0-.226-.019-.44,0-.7a.643.643,0,0,1,.562-.517c.27-.005.509-.018.8,0a.652.652,0,0,1,.55.648c.005.568.013,1.16.019,1.774l-.077-.076,2.116-.021-.079.082c-.009-.853-.016-1.734-.024-2.637l-.006-.673a.686.686,0,0,0-.3-.5l-.926-.912-.893-.881-.432-.427c-.149-.143-.265-.292-.438-.327a.572.572,0,0,0-.485.093c-.129.108-.265.262-.395.387l-.76.766c-.477.5-.975.949-1.337,1.379a1.5,1.5,0,0,0-.106.79c0,.262,0,.511,0,.746,0,.457,0,.858-.006,1.2,0,.307-.006.56-.01.768a2.456,2.456,0,0,1-.01.277,1.943,1.943,0,0,1-.015-.254c-.005-.2-.012-.454-.02-.756-.009-.347-.017-.75-.028-1.211,0-.239-.009-.493-.014-.761,0-.135,0-.274-.006-.416a.881.881,0,0,1,.117-.443c.392-.48.858-.9,1.34-1.415.244-.249.5-.506.753-.771.136-.133.248-.266.409-.406a.721.721,0,0,1,.614-.12,1.132,1.132,0,0,1,.509.364c.143.139.288.282.435.425q.439.431.9.878l.927.911a1.778,1.778,0,0,1,.236.255.7.7,0,0,1,.112.357c0,.224,0,.448.005.675.008.9.014,1.785.02,2.638v.08h-.08l-2.117.013h-.077v-.077q0-.922-.01-1.775a.509.509,0,0,0-.427-.514c-.244-.013-.531,0-.768,0a.518.518,0,0,0-.456.411c-.02.213-.005.461-.01.677,0,.438,0,.844,0,1.217v.047h-.047l-1.7-.012-.445-.007a.866.866,0,0,1-.146-.009" transform="translate(2.859 5.217)" fill="#263238"/>
                <path id="Trazado_231180" data-name="Trazado 231180" d="M91.611,143.417c0,.3-8.418.551-18.8.551s-18.8-.247-18.8-.551,8.417-.551,18.8-.551,18.8.247,18.8.551" transform="translate(3.935 10.408)" fill="#263238"/>
                <rect id="Rectángulo_58012" data-name="Rectángulo 58012" width="36.501" height="48.562" transform="translate(52.423 141.08) rotate(-89.681)" fill="#afafaf"/>
                <path id="Trazado_231181" data-name="Trazado 231181" d="M48.863,133.034,65.951,110.44l10.427,14.254,7.169-7.549L97.424,133.3Z" transform="translate(3.56 8.046)" fill="#636363"/>
                <path id="Trazado_231182" data-name="Trazado 231182" d="M79.274,108.188a3.824,3.824,0,1,1-3.8-3.845,3.824,3.824,0,0,1,3.8,3.845" transform="translate(5.218 7.601)" fill="#636363"/>
                <path id="Trazado_231185" data-name="Trazado 231185" d="M107.226,155.939c0,.3-14.926.551-33.334.551s-33.337-.247-33.337-.551,14.922-.551,33.337-.551,33.334.247,33.334.551" transform="translate(2.955 11.32)" fill="#263238"/>
                <path id="Trazado_231186" data-name="Trazado 231186" d="M107.226,164.6c0,.3-14.926.551-33.334.551s-33.337-.247-33.337-.551,14.922-.551,33.337-.551,33.334.247,33.334.551" transform="translate(2.955 11.951)" fill="#263238"/>
                <path id="Trazado_231187" data-name="Trazado 231187" d="M107.226,173.264c0,.3-14.926.551-33.334.551s-33.337-.247-33.337-.551,14.922-.551,33.337-.551,33.334.247,33.334.551" transform="translate(2.955 12.582)" fill="#263238"/>
                <path id="Trazado_231188" data-name="Trazado 231188" d="M107.226,181.926c0,.3-14.926.551-33.334.551s-33.337-.247-33.337-.551,14.922-.551,33.337-.551,33.334.247,33.334.551" transform="translate(2.955 13.213)" fill="#263238"/>
                <path id="Trazado_231189" data-name="Trazado 231189" d="M107.226,190.59c0,.3-14.926.551-33.334.551s-33.337-.247-33.337-.551,14.922-.552,33.337-.552,33.334.247,33.334.552" transform="translate(2.955 13.844)" fill="#263238"/>
                <path id="Trazado_231190" data-name="Trazado 231190" d="M91.932,198.5c0,.152-2.142.29-5.606.391s-8.247.161-13.531.161-10.07-.061-13.533-.161-5.6-.238-5.6-.391,2.141-.291,5.6-.391,8.248-.161,13.533-.161,10.068.061,13.531.161,5.606.238,5.606.391" transform="translate(3.909 14.42)" fill="#263238"/>
                <path id="Trazado_231191" data-name="Trazado 231191" d="M166.347,41.128l-7.7.012a5.865,5.865,0,0,0-2.318.251,3.641,3.641,0,0,0-1.833,1.632,3.913,3.913,0,0,0-.431,1.235,7.952,7.952,0,0,0-.057,1.365q0,.7,0,1.42a6.692,6.692,0,0,1-.091,1.469,3.9,3.9,0,0,1-1.719,2.481,3.648,3.648,0,0,1-1.511.534c-.549.048-1.08.014-1.633.025l-6.9,0L126.5,51.56h-5.377a4.264,4.264,0,0,1-1.118-.11,3.7,3.7,0,0,1-1.918-1.187,3.961,3.961,0,0,1-.937-2.092,8.76,8.76,0,0,1-.04-1.158q0-.576,0-1.155a6.174,6.174,0,0,0-.232-2.273,3.712,3.712,0,0,0-1.375-1.8,3.578,3.578,0,0,0-2.215-.613H95.524a11.811,11.811,0,0,0-9.489,4.211,11.9,11.9,0,0,0-2.44,4.927c-.12.453-.155.924-.236,1.385-.02.394-.042.786-.054,1.182V242.89a12.371,12.371,0,0,0,.473,3.74,11.826,11.826,0,0,0,4.576,6.318,12.2,12.2,0,0,0,7.54,2.075l8.014.005,15.869.01,31.026.02,15.118.011c2.491-.014,4.991.04,7.441-.031a11.7,11.7,0,0,0,6.672-2.587,12.579,12.579,0,0,0,2.409-2.67,11.735,11.735,0,0,0,1.476-3.256,12.359,12.359,0,0,0,.444-3.536q0-1.8,0-3.6,0-7.179.005-14.191c.02-37.385.04-71.054.056-99.331s.05-51.157.066-66.974q0-2.966.009-5.6a12.228,12.228,0,0,0-.866-4.782,11.82,11.82,0,0,0-2.23-3.524,11.844,11.844,0,0,0-7.1-3.755,9.578,9.578,0,0,0-1.2-.111c-.269-.016-.406-.029-.406-.029s-.546.011-1.614.016l-4.735.014" transform="translate(6.069 2.994)" fill="#fafafa"/>
                <path id="Trazado_231192" data-name="Trazado 231192" d="M172.8,41.035s.136,0,.407.012a8.8,8.8,0,0,1,1.2.093,11.179,11.179,0,0,1,4.452,1.538,11.365,11.365,0,0,1,2.709,2.194,11.867,11.867,0,0,1,2.261,3.544,12.278,12.278,0,0,1,.888,4.819q0,2.63.006,5.6c.01,15.817.024,38.7.041,66.974s.011,61.946.016,99.331q0,7.01,0,14.191v3.6a12.726,12.726,0,0,1-.455,3.622,12.006,12.006,0,0,1-1.517,3.345,12.845,12.845,0,0,1-2.472,2.744,12.022,12.022,0,0,1-6.856,2.661c-2.489.073-4.961.018-7.461.033l-15.118-.006-31.026-.016-15.869-.009-8.014,0a12.544,12.544,0,0,1-7.731-2.135,12.162,12.162,0,0,1-4.707-6.5,13.079,13.079,0,0,1-.5-4.016q0-2.005,0-4,0-7.99,0-15.873,0-15.761.009-31.034c.008-20.346.014-39.971.021-58.667s.017-36.461.026-53.088q.007-12.469.014-24.058,0-1.448,0-2.88c.006-.478.041-.962.067-1.44.084-.473.12-.954.243-1.415a12.14,12.14,0,0,1,2.5-5.031,12.044,12.044,0,0,1,9.679-4.288l10.348.012,4.978.006,2.439,0a3.8,3.8,0,0,1,2.337.652,3.924,3.924,0,0,1,1.453,1.908,6.347,6.347,0,0,1,.24,2.344q0,.581,0,1.155a8.556,8.556,0,0,0,.038,1.132,3.752,3.752,0,0,0,.886,1.987,3.5,3.5,0,0,0,1.813,1.126,4.043,4.043,0,0,0,1.071.105h1.093l4.285.006,15.652.023,6.9.012c.545-.01,1.1.025,1.617-.02a3.491,3.491,0,0,0,1.454-.512,3.753,3.753,0,0,0,1.663-2.391,6.546,6.546,0,0,0,.093-1.441q0-.721,0-1.42a7.938,7.938,0,0,1,.062-1.384,3.978,3.978,0,0,1,.447-1.271,3.747,3.747,0,0,1,1.9-1.676,5.948,5.948,0,0,1,2.357-.251l7.7.02,4.736.019c1.066.006,1.612.018,1.612.018s-.546.011-1.612.016l-4.736.014-7.7.012a5.839,5.839,0,0,0-2.317.252A3.632,3.632,0,0,0,154.6,42.96a3.913,3.913,0,0,0-.431,1.235,8.05,8.05,0,0,0-.057,1.365q0,.7,0,1.42a6.7,6.7,0,0,1-.091,1.469A3.9,3.9,0,0,1,152.3,50.93a3.643,3.643,0,0,1-1.511.534c-.549.048-1.08.014-1.633.025l-6.9,0L126.6,51.5h-5.378a4.213,4.213,0,0,1-1.117-.109,3.7,3.7,0,0,1-1.918-1.187,3.965,3.965,0,0,1-.937-2.091,8.779,8.779,0,0,1-.04-1.159c0-.383,0-.768,0-1.155a6.175,6.175,0,0,0-.232-2.273,3.7,3.7,0,0,0-1.375-1.8,3.587,3.587,0,0,0-2.215-.613H95.624a11.811,11.811,0,0,0-9.489,4.211,11.9,11.9,0,0,0-2.44,4.928c-.12.452-.154.922-.236,1.384-.025.47-.058.938-.064,1.414q0,1.432,0,2.88,0,11.576,0,24.058c0,16.627,0,34.392.005,53.088s0,38.321,0,58.667q0,15.261,0,31.034,0,7.881,0,15.874,0,2,0,4a12.732,12.732,0,0,0,.483,3.921,11.82,11.82,0,0,0,4.575,6.318,12.2,12.2,0,0,0,7.54,2.075l8.014.005,15.869.01L150.9,255l15.118.011c2.491-.014,4.991.04,7.441-.031a11.692,11.692,0,0,0,6.672-2.587,12.579,12.579,0,0,0,2.409-2.67,11.7,11.7,0,0,0,1.476-3.256,12.357,12.357,0,0,0,.444-3.536q0-1.8,0-3.6,0-7.179.005-14.191c.021-37.384.04-71.054.056-99.331s.05-51.157.065-66.974q.006-2.966.01-5.6a12.225,12.225,0,0,0-.866-4.782,11.8,11.8,0,0,0-2.23-3.524,11.844,11.844,0,0,0-7.1-3.755,9.578,9.578,0,0,0-1.2-.111c-.269-.016-.406-.029-.406-.029" transform="translate(6.051 2.977)" fill="#263238"/>
                <path id="Trazado_231193" data-name="Trazado 231193" d="M169.436,58.948c0,.051-1.961.108-4.382.129s-4.383-.005-4.383-.056,1.961-.109,4.381-.129,4.383,0,4.383.056" transform="translate(11.705 4.29)" fill="#263238"/>
                <path id="Trazado_231194" data-name="Trazado 231194" d="M169.454,61.039c0,.052-1.961.108-4.382.129s-4.384-.005-4.384-.056,1.962-.109,4.382-.129,4.384,0,4.384.056" transform="translate(11.706 4.442)" fill="#263238"/>
                <path id="Trazado_231195" data-name="Trazado 231195" d="M169.471,63.129c0,.052-1.961.108-4.381.129s-4.383-.005-4.383-.056,1.961-.109,4.382-.129,4.383,0,4.383.056" transform="translate(11.708 4.594)" fill="#263238"/>
                <path id="Trazado_231196" data-name="Trazado 231196" d="M94.548,66.008A1.389,1.389,0,0,1,94.731,66l.506-.017,1.872-.045-.053.054q-.01-.623-.021-1.357c0-.252-.021-.49,0-.781a.719.719,0,0,1,.628-.577c.3-.006.566-.019.894,0a.726.726,0,0,1,.614.722q.011.949.023,1.979l-.087-.085,2.36-.025-.089.091c-.009-.951-.017-1.933-.027-2.941l-.006-.75a.758.758,0,0,0-.331-.557l-1.032-1.018-1-.982-.482-.476c-.166-.16-.3-.325-.488-.365a.634.634,0,0,0-.542.1c-.144.121-.3.292-.44.432l-.848.855c-.532.553-1.087,1.058-1.49,1.536a1.662,1.662,0,0,0-.119.881c0,.293,0,.57,0,.833q0,.764-.008,1.339c0,.342-.007.625-.011.857a2.811,2.811,0,0,1-.011.309,2.237,2.237,0,0,1-.016-.284c-.006-.227-.014-.506-.024-.843q-.013-.579-.03-1.351-.008-.4-.016-.848c0-.151-.005-.306-.008-.465a.972.972,0,0,1,.131-.494c.436-.535.957-1.01,1.494-1.579l.84-.86c.151-.149.276-.3.456-.452a.8.8,0,0,1,.684-.135,1.277,1.277,0,0,1,.566.406c.16.157.322.314.484.475l1,.978,1.034,1.015a1.87,1.87,0,0,1,.264.286.767.767,0,0,1,.123.4q0,.373.007.752c.008,1.007.015,1.991.021,2.942v.09h-.09l-2.36.015h-.087v-.087c0-.686-.008-1.346-.011-1.978a.569.569,0,0,0-.477-.573c-.271-.015-.591-.005-.856,0a.579.579,0,0,0-.509.459c-.023.237-.005.514-.011.754q0,.734,0,1.357v.053h-.053l-1.9-.014-.5-.007a.972.972,0,0,1-.163-.01" transform="translate(6.881 4.274)" fill="#263238"/>
                <path id="Trazado_231197" data-name="Trazado 231197" d="M140.1,77.491a7.912,7.912,0,1,1-7.912-7.912,7.912,7.912,0,0,1,7.912,7.912" transform="translate(9.053 5.069)" fill="#4adbd1"/>
                <path id="Trazado_231198" data-name="Trazado 231198" d="M134.547,80.158h-5.429V79.49a2.714,2.714,0,0,1,5.429,0Z" transform="translate(9.406 5.593)" fill="#fff"/>
                <path id="Trazado_231199" data-name="Trazado 231199" d="M133.352,75.575a1.6,1.6,0,1,1-1.6-1.6,1.6,1.6,0,0,1,1.6,1.6" transform="translate(9.482 5.389)" fill="#fff"/>
                <path id="Trazado_231200" data-name="Trazado 231200" d="M152.857,96.489c0,.34-9.387.616-20.966.616s-20.968-.276-20.968-.616,9.386-.615,20.968-.615,20.966.275,20.966.615" transform="translate(8.081 6.984)" fill="#263238"/>
                <rect id="Rectángulo_58015" data-name="Rectángulo 58015" width="27.211" height="36.204" transform="translate(97.046 151.52) rotate(-89.681)" fill="#afafaf"/>
                <path id="Trazado_231201" data-name="Trazado 231201" d="M90.456,142.375,103.2,125.531l7.774,10.625,5.344-5.627,10.347,12.047Z" transform="translate(6.59 9.145)" fill="#636363"/>
                <path id="Trazado_231202" data-name="Trazado 231202" d="M113.129,123.853a2.851,2.851,0,1,1-2.836-2.867,2.852,2.852,0,0,1,2.836,2.867" transform="translate(7.826 8.814)" fill="#636363"/>
                <rect id="Rectángulo_58018" data-name="Rectángulo 58018" width="62.906" height="83.694" transform="matrix(0.006, -1, 1, 0.006, 96.717, 222.82)" fill="#afafaf"/>
                <path id="Trazado_231205" data-name="Trazado 231205" d="M90.149,210.334,119.6,171.4,137.57,195.96l12.354-13.009,23.918,27.85Z" transform="translate(6.567 12.486)" fill="#636363"/>
                <path id="Trazado_231206" data-name="Trazado 231206" d="M142.562,167.515a6.59,6.59,0,1,1-6.553-6.627,6.59,6.59,0,0,1,6.553,6.627" transform="translate(9.426 11.721)" fill="#636363"/>
                <rect id="Rectángulo_58021" data-name="Rectángulo 58021" width="27.211" height="36.204" transform="translate(144.842 151.52) rotate(-89.681)" fill="#afafaf"/>
                <path id="Trazado_231209" data-name="Trazado 231209" d="M135.006,142.375l12.739-16.844,7.774,10.625,5.345-5.627,10.345,12.047Z" transform="translate(9.835 9.145)" fill="#707070"/>
                <path id="Trazado_231210" data-name="Trazado 231210" d="M157.679,123.853a2.851,2.851,0,1,1-2.836-2.867,2.852,2.852,0,0,1,2.836,2.867" transform="translate(11.072 8.814)" fill="#e8505b"/>
                <g id="Grupo_180120" data-name="Grupo 180120" transform="translate(163.05 129.8)" opacity="0.2">
                  <g id="Grupo_180119" data-name="Grupo 180119">
                    <g id="Grupo_180118" data-name="Grupo 180118" clip-path="url(#clip-path-4)">
                      <path id="Trazado_231212" data-name="Trazado 231212" d="M157.679,123.853a2.851,2.851,0,1,1-2.836-2.867,2.852,2.852,0,0,1,2.836,2.867" transform="translate(-151.978 -120.986)"/>
                    </g>
                  </g>
                </g>
                <path id="Trazado_231213" data-name="Trazado 231213" d="M375.322,51.016l-6.9.011a5.271,5.271,0,0,0-2.078.225,3.261,3.261,0,0,0-1.645,1.462,3.492,3.492,0,0,0-.386,1.108,7.192,7.192,0,0,0-.052,1.223q0,.628,0,1.273a5.977,5.977,0,0,1-.083,1.317,3.488,3.488,0,0,1-1.541,2.224,3.233,3.233,0,0,1-1.354.48c-.492.044-.969.013-1.464.023l-6.187,0-14.035,0h-4.821a3.792,3.792,0,0,1-1-.1,3.32,3.32,0,0,1-1.72-1.064,3.547,3.547,0,0,1-.84-1.875,7.848,7.848,0,0,1-.035-1.039q0-.517,0-1.036a5.513,5.513,0,0,0-.208-2.038,3.328,3.328,0,0,0-1.233-1.616,3.214,3.214,0,0,0-1.987-.549H311.82a10.583,10.583,0,0,0-8.508,3.776,10.665,10.665,0,0,0-2.189,4.417c-.107.406-.138.827-.211,1.241-.018.353-.038.7-.048,1.06V231.922a11.07,11.07,0,0,0,.425,3.354,10.6,10.6,0,0,0,4.1,5.665,10.935,10.935,0,0,0,6.761,1.86l7.186.005,14.228.009,27.819.018,13.554.01c2.234-.013,4.475.035,6.672-.028a10.478,10.478,0,0,0,5.982-2.32,11.2,11.2,0,0,0,2.16-2.395,10.5,10.5,0,0,0,1.324-2.919,11.126,11.126,0,0,0,.4-3.17q0-1.619,0-3.227,0-6.437.005-12.724c.018-33.52.035-63.709.049-89.063s.045-45.869.059-60.052q0-2.659.009-5.017a10.951,10.951,0,0,0-.777-4.288,10.565,10.565,0,0,0-2-3.16,10.608,10.608,0,0,0-6.37-3.367,8.633,8.633,0,0,0-1.075-.1c-.242-.014-.365-.026-.365-.026s-.489.01-1.446.015l-4.245.012" transform="translate(21.918 3.715)" fill="#fafafa"/>
                <rect id="Rectángulo_58024" data-name="Rectángulo 58024" width="59.911" height="12.237" transform="translate(337.695 126.916)" fill="#ebebeb"/>
                <path id="Trazado_231214" data-name="Trazado 231214" d="M381.222,50.932s.122,0,.365.011a8.03,8.03,0,0,1,1.078.084,10.03,10.03,0,0,1,3.993,1.379,10.22,10.22,0,0,1,2.428,1.968,10.663,10.663,0,0,1,2.028,3.178,11.04,11.04,0,0,1,.8,4.321q0,2.358.005,5.017c.009,14.183.02,34.7.036,60.052s.009,55.543.014,89.063q0,6.286,0,12.724v3.227a11.38,11.38,0,0,1-.409,3.247,10.716,10.716,0,0,1-1.359,3,11.509,11.509,0,0,1-2.217,2.461,10.779,10.779,0,0,1-6.146,2.386c-2.233.064-4.448.016-6.689.03l-13.556-.006-27.819-.014-14.227-.008-7.187,0a11.249,11.249,0,0,1-6.932-1.914,10.909,10.909,0,0,1-4.22-5.828,11.749,11.749,0,0,1-.444-3.6q0-1.8,0-3.589,0-7.166,0-14.232,0-14.133.008-27.827c.006-18.243.013-35.84.019-52.6s.016-32.692.024-47.6q.006-11.181.013-21.572,0-1.3,0-2.581c.006-.429.038-.863.06-1.292.075-.423.108-.854.218-1.268a10.885,10.885,0,0,1,2.239-4.51,10.8,10.8,0,0,1,8.678-3.845l9.278.011,4.464.005,2.186,0a3.417,3.417,0,0,1,2.1.586,3.518,3.518,0,0,1,1.3,1.71,5.7,5.7,0,0,1,.217,2.1c0,.347,0,.691,0,1.035a7.723,7.723,0,0,0,.033,1.015,3.359,3.359,0,0,0,.794,1.781,3.138,3.138,0,0,0,1.627,1.01,3.579,3.579,0,0,0,.959.1h.981l3.842.005,14.035.02,6.187.01c.488-.008.986.023,1.449-.018a3.134,3.134,0,0,0,1.3-.457,3.376,3.376,0,0,0,1.491-2.145,5.932,5.932,0,0,0,.084-1.293q0-.645,0-1.273a7.266,7.266,0,0,1,.056-1.241,3.594,3.594,0,0,1,.4-1.139,3.352,3.352,0,0,1,1.7-1.5,5.356,5.356,0,0,1,2.114-.226l6.9.019,4.246.017c.956.005,1.446.016,1.446.016s-.49.01-1.446.014l-4.246.013-6.9.011a5.271,5.271,0,0,0-2.078.225,3.263,3.263,0,0,0-1.645,1.463,3.5,3.5,0,0,0-.386,1.107,7.052,7.052,0,0,0-.05,1.223q0,.628,0,1.273a6.027,6.027,0,0,1-.083,1.316,3.491,3.491,0,0,1-1.541,2.225,3.244,3.244,0,0,1-1.354.48c-.494.044-.97.013-1.465.023l-6.187,0-14.035,0h-4.823a3.8,3.8,0,0,1-1-.1,3.31,3.31,0,0,1-1.719-1.064,3.539,3.539,0,0,1-.84-1.875,7.854,7.854,0,0,1-.037-1.039V55.2a5.568,5.568,0,0,0-.208-2.039,3.331,3.331,0,0,0-1.234-1.616A3.213,3.213,0,0,0,327.956,51H312.027a10.583,10.583,0,0,0-8.508,3.776,10.664,10.664,0,0,0-2.188,4.417c-.107.406-.138.827-.212,1.241-.022.422-.052.841-.058,1.268q0,1.284,0,2.581,0,10.38,0,21.572c0,14.907,0,30.837,0,47.6s0,34.36,0,52.6q0,13.684,0,27.827,0,7.065,0,14.232V231.7a11.409,11.409,0,0,0,.431,3.516,10.6,10.6,0,0,0,4.1,5.665,10.931,10.931,0,0,0,6.761,1.86l7.186.005,14.228.009,27.818.018,13.556.01c2.234-.013,4.475.035,6.671-.028a10.481,10.481,0,0,0,5.983-2.32,11.226,11.226,0,0,0,2.159-2.395,10.471,10.471,0,0,0,1.325-2.919,11.125,11.125,0,0,0,.4-3.17q0-1.619,0-3.227,0-6.437.005-12.724c.019-33.52.035-63.709.049-89.063s.046-45.869.06-60.052q0-2.659.007-5.017a10.923,10.923,0,0,0-.777-4.287,10.574,10.574,0,0,0-2-3.161,10.181,10.181,0,0,0-2.4-1.967,10.078,10.078,0,0,0-3.966-1.4,8.368,8.368,0,0,0-1.075-.1c-.241-.015-.364-.027-.364-.027" transform="translate(21.911 3.7)" fill="#263238"/>
                <path id="Trazado_231215" data-name="Trazado 231215" d="M378.21,66.994c0,.046-1.758.1-3.928.116s-3.93-.005-3.93-.05,1.757-.1,3.928-.116,3.93,0,3.93.05" transform="translate(26.98 4.876)" fill="#263238"/>
                <path id="Trazado_231216" data-name="Trazado 231216" d="M378.226,68.868c0,.046-1.759.1-3.929.116s-3.929-.005-3.93-.05,1.758-.1,3.929-.116,3.93,0,3.93.05" transform="translate(26.982 5.013)" fill="#263238"/>
                <path id="Trazado_231217" data-name="Trazado 231217" d="M378.241,70.742c0,.046-1.758.1-3.929.116s-3.929-.005-3.929-.05,1.757-.1,3.928-.116,3.93,0,3.93.05" transform="translate(26.983 5.149)" fill="#263238"/>
                <path id="Trazado_231218" data-name="Trazado 231218" d="M311.064,73.324a1.264,1.264,0,0,1,.163-.011l.455-.015,1.678-.04-.047.047c-.005-.372-.012-.779-.019-1.217,0-.226-.019-.44,0-.7a.642.642,0,0,1,.562-.517c.27-.005.509-.018.8,0a.652.652,0,0,1,.55.648c.005.568.013,1.16.019,1.774l-.077-.077,2.117-.02-.08.082c-.009-.853-.016-1.735-.024-2.637l-.006-.673a.685.685,0,0,0-.3-.5q-.47-.462-.925-.912t-.894-.881l-.433-.427c-.148-.144-.265-.292-.438-.327a.568.568,0,0,0-.485.093c-.129.108-.265.262-.395.387l-.76.766c-.477.5-.975.949-1.337,1.377a1.5,1.5,0,0,0-.106.791c0,.262,0,.511,0,.746,0,.457-.005.858-.008,1.2,0,.307-.006.56-.01.768a2.437,2.437,0,0,1-.01.277,1.963,1.963,0,0,1-.015-.254c-.005-.2-.012-.455-.02-.756q-.013-.52-.028-1.211c0-.239-.009-.494-.014-.761,0-.135,0-.274-.006-.416a.882.882,0,0,1,.117-.443c.392-.48.859-.9,1.34-1.415.244-.249.5-.506.753-.771.136-.133.248-.266.409-.406a.721.721,0,0,1,.614-.12,1.139,1.139,0,0,1,.508.363l.434.426.895.878.928.911a1.785,1.785,0,0,1,.236.255.7.7,0,0,1,.112.357c0,.223,0,.448.005.675.007.9.014,1.785.02,2.638v.08h-.081l-2.117.013h-.077V73.29q0-.922-.009-1.775a.511.511,0,0,0-.428-.514c-.243-.013-.531,0-.768,0a.517.517,0,0,0-.456.411c-.02.213,0,.461-.009.677v1.264h-.047l-1.7-.012-.445-.007a.866.866,0,0,1-.146-.009" transform="translate(22.655 4.862)" fill="#263238"/>
                <rect id="Rectángulo_58025" data-name="Rectángulo 58025" width="59.911" height="12.237" transform="translate(337.821 145.168)" fill="#ebebeb"/>
                <rect id="Rectángulo_58026" data-name="Rectángulo 58026" width="59.911" height="12.237" transform="translate(337.821 162.924)" fill="#ebebeb"/>
                <path id="Trazado_231219" data-name="Trazado 231219" d="M359.76,186.766H329.688a6.118,6.118,0,0,1,0-12.237H359.76a6.118,6.118,0,1,1,0,12.237" transform="translate(23.572 12.714)" fill="#12263f"/>
                <path id="Trazado_231220" data-name="Trazado 231220" d="M363.226,106.547c0,.3-8.417.551-18.8.551s-18.8-.247-18.8-.551,8.417-.551,18.8-.551,18.8.247,18.8.551" transform="translate(23.722 7.722)" fill="#263238"/>
                <path id="Trazado_231221" data-name="Trazado 231221" d="M330.128,39.209l-7.7.012a5.858,5.858,0,0,0-2.317.252,3.633,3.633,0,0,0-1.835,1.631,3.908,3.908,0,0,0-.431,1.236,8.033,8.033,0,0,0-.057,1.364q0,.7,0,1.42a6.749,6.749,0,0,1-.092,1.469,3.894,3.894,0,0,1-1.719,2.482,3.648,3.648,0,0,1-1.511.534c-.549.048-1.08.014-1.632.025l-6.9,0-15.653.005H284.9a4.212,4.212,0,0,1-1.117-.109,3.692,3.692,0,0,1-1.918-1.187,3.961,3.961,0,0,1-.937-2.091,8.785,8.785,0,0,1-.04-1.159c0-.383,0-.769,0-1.155a6.176,6.176,0,0,0-.232-2.273,3.713,3.713,0,0,0-1.375-1.8,3.585,3.585,0,0,0-2.215-.613H259.3a11.811,11.811,0,0,0-9.489,4.211,11.9,11.9,0,0,0-2.44,4.927c-.119.453-.154.924-.236,1.385-.02.394-.042.786-.054,1.182V240.97a12.344,12.344,0,0,0,.474,3.741,11.819,11.819,0,0,0,4.575,6.318,12.2,12.2,0,0,0,7.54,2.075l8.014.005,15.869.01,31.026.02,15.118.011c2.491-.014,4.991.04,7.441-.031a11.692,11.692,0,0,0,6.672-2.587,12.575,12.575,0,0,0,2.409-2.67,11.7,11.7,0,0,0,1.476-3.256,12.36,12.36,0,0,0,.444-3.536q0-1.8,0-3.6,0-7.179.005-14.191c.02-37.385.04-71.053.056-99.33s.051-51.158.066-66.975q.005-2.966.009-5.6a12.229,12.229,0,0,0-.866-4.782,11.838,11.838,0,0,0-2.23-3.524,11.843,11.843,0,0,0-7.1-3.755,9.574,9.574,0,0,0-1.2-.111c-.269-.016-.406-.029-.406-.029s-.546.011-1.614.016l-4.735.014" transform="translate(18 2.854)" fill="#fafafa"/>
                <path id="Trazado_231222" data-name="Trazado 231222" d="M336.576,39.344s.136,0,.407.012a8.768,8.768,0,0,1,1.2.093,11.177,11.177,0,0,1,4.453,1.538,11.361,11.361,0,0,1,2.708,2.194,11.869,11.869,0,0,1,2.262,3.544,12.315,12.315,0,0,1,.888,4.819q0,2.63.006,5.6c.01,15.817.024,38.7.041,66.974s.01,61.946.016,99.331q0,7.01,0,14.191,0,1.794,0,3.6a12.727,12.727,0,0,1-.454,3.622,12.005,12.005,0,0,1-1.517,3.345,12.839,12.839,0,0,1-2.472,2.744,12.02,12.02,0,0,1-6.855,2.661c-2.49.073-4.961.018-7.461.033l-15.117-.006-31.026-.016-15.868-.009-8.014,0a12.541,12.541,0,0,1-7.731-2.135,12.156,12.156,0,0,1-4.707-6.5,13.084,13.084,0,0,1-.5-4.016q0-2.005,0-4,0-7.99,0-15.873,0-15.761.009-31.034c.006-20.346.014-39.971.02-58.667s.018-36.461.027-53.088q.006-12.469.014-24.058,0-1.448,0-2.88c.006-.479.041-.962.066-1.44.084-.473.12-.954.244-1.415a12.126,12.126,0,0,1,2.5-5.031,12.044,12.044,0,0,1,9.679-4.288l10.348.012,4.978.006,2.439,0a3.8,3.8,0,0,1,2.337.652,3.93,3.93,0,0,1,1.453,1.908,6.371,6.371,0,0,1,.24,2.344c0,.387,0,.772,0,1.155a8.554,8.554,0,0,0,.038,1.132,3.75,3.75,0,0,0,.885,1.987,3.507,3.507,0,0,0,1.814,1.126,4.089,4.089,0,0,0,1.071.105H286.1l4.284.006,15.653.023,6.9.012c.545-.01,1.1.025,1.617-.02a3.491,3.491,0,0,0,1.454-.512,3.753,3.753,0,0,0,1.663-2.391,6.547,6.547,0,0,0,.093-1.441q0-.721,0-1.42a8.151,8.151,0,0,1,.062-1.384,4,4,0,0,1,.448-1.271,3.743,3.743,0,0,1,1.9-1.676,5.948,5.948,0,0,1,2.357-.251l7.7.02,4.734.019c1.068.006,1.614.018,1.614.018s-.546.011-1.614.016l-4.734.014-7.7.012a5.84,5.84,0,0,0-2.317.252,3.632,3.632,0,0,0-1.835,1.631,3.89,3.89,0,0,0-.431,1.235,7.933,7.933,0,0,0-.057,1.365q0,.7,0,1.42a6.622,6.622,0,0,1-.092,1.469,3.9,3.9,0,0,1-1.718,2.482,3.648,3.648,0,0,1-1.511.534c-.549.048-1.081.014-1.633.025l-6.9,0-15.653.005H285a4.213,4.213,0,0,1-1.117-.109,3.7,3.7,0,0,1-1.918-1.187,3.957,3.957,0,0,1-.937-2.091,8.957,8.957,0,0,1-.041-1.159V44.106a6.174,6.174,0,0,0-.232-2.273,3.713,3.713,0,0,0-1.375-1.8,3.587,3.587,0,0,0-2.215-.613H259.405a11.81,11.81,0,0,0-9.489,4.211,11.9,11.9,0,0,0-2.44,4.928c-.12.452-.155.922-.237,1.384-.024.47-.058.938-.063,1.414v2.88q0,11.575.005,24.058c0,16.627,0,34.392.005,53.088s0,38.321,0,58.667q0,15.261,0,31.034,0,7.881,0,15.874,0,2,0,4a12.763,12.763,0,0,0,.482,3.921,11.821,11.821,0,0,0,4.576,6.318,12.2,12.2,0,0,0,7.54,2.075l8.014.005,15.868.01,31.026.02,15.117.011c2.491-.014,4.991.04,7.441-.031a11.7,11.7,0,0,0,6.672-2.587,12.545,12.545,0,0,0,2.407-2.67,11.677,11.677,0,0,0,1.477-3.256,12.359,12.359,0,0,0,.444-3.536q0-1.8,0-3.6,0-7.179.006-14.191c.021-37.385.04-71.053.056-99.331s.05-51.157.066-66.974q0-2.966.01-5.6a12.206,12.206,0,0,0-.867-4.782,11.8,11.8,0,0,0-2.229-3.524,11.844,11.844,0,0,0-7.1-3.755,9.569,9.569,0,0,0-1.2-.111c-.269-.016-.406-.029-.406-.029" transform="translate(17.983 2.854)" fill="#263238"/>
                <path id="Trazado_231223" data-name="Trazado 231223" d="M333.217,57.257c0,.051-1.961.108-4.38.129s-4.383-.005-4.384-.056,1.961-.109,4.382-.129,4.383,0,4.383.056" transform="translate(23.637 4.167)" fill="#263238"/>
                <path id="Trazado_231224" data-name="Trazado 231224" d="M333.235,59.347c0,.051-1.961.108-4.382.129s-4.383-.005-4.383-.056,1.961-.109,4.382-.129,4.383,0,4.383.056" transform="translate(23.638 4.319)" fill="#263238"/>
                <path id="Trazado_231225" data-name="Trazado 231225" d="M333.252,61.437c0,.051-1.961.108-4.382.129s-4.383-.005-4.383-.056,1.961-.109,4.382-.129,4.382,0,4.383.056" transform="translate(23.639 4.471)" fill="#263238"/>
                <path id="Trazado_231226" data-name="Trazado 231226" d="M258.329,64.316a1.393,1.393,0,0,1,.183-.012l.507-.017,1.871-.044-.052.053q-.01-.623-.021-1.357c0-.252-.022-.49,0-.781a.719.719,0,0,1,.628-.577c.3-.005.566-.019.894,0a.727.727,0,0,1,.614.722q.011.949.023,1.979l-.087-.085,2.361-.025-.09.091c-.009-.951-.017-1.933-.027-2.941l-.006-.75a.755.755,0,0,0-.332-.557q-.523-.517-1.032-1.017t-1-.983l-.482-.476c-.166-.16-.3-.325-.488-.365a.634.634,0,0,0-.542.1c-.144.121-.3.292-.44.432l-.846.855c-.533.553-1.088,1.058-1.491,1.536a1.671,1.671,0,0,0-.119.881c0,.293,0,.571,0,.833,0,.51-.005.957-.008,1.339,0,.343-.008.625-.01.857a2.874,2.874,0,0,1-.012.309,2.251,2.251,0,0,1-.016-.283c-.006-.228-.014-.507-.024-.844q-.013-.579-.031-1.351c0-.267-.01-.549-.015-.848,0-.151-.006-.306-.008-.465a.976.976,0,0,1,.131-.493c.436-.535.957-1.01,1.494-1.579l.84-.86c.151-.149.276-.3.456-.452a.8.8,0,0,1,.684-.135,1.278,1.278,0,0,1,.567.406l.485.475,1,.978,1.033,1.015a1.911,1.911,0,0,1,.264.286.765.765,0,0,1,.123.4q0,.373.008.752c.008,1.007.015,1.991.021,2.942v.09h-.09l-2.361.015h-.086v-.087c0-.684-.008-1.345-.011-1.978a.569.569,0,0,0-.477-.573c-.271-.015-.592-.005-.856,0a.577.577,0,0,0-.508.459c-.024.237-.005.514-.011.754q0,.734,0,1.357v.053h-.052l-1.9-.013-.5-.009a.969.969,0,0,1-.163-.01" transform="translate(18.813 4.151)" fill="#263238"/>
                <path id="Trazado_231227" data-name="Trazado 231227" d="M316.689,106.4A19.821,19.821,0,1,1,296.868,86.58,19.821,19.821,0,0,1,316.689,106.4" transform="translate(20.183 6.307)" fill="#1565c0"/>
                <path id="Trazado_231228" data-name="Trazado 231228" d="M302.782,113.081h-13.6V111.41a6.8,6.8,0,1,1,13.6,0Z" transform="translate(21.067 7.621)" fill="#fff"/>
                <path id="Trazado_231229" data-name="Trazado 231229" d="M299.79,101.6a4,4,0,1,1-4-4,4,4,0,0,1,4,4" transform="translate(21.258 7.11)" fill="#fff"/>
                <rect id="Rectángulo_58027" data-name="Rectángulo 58027" width="66.818" height="13.648" transform="translate(281.719 155.235)" fill="#ebebeb"/>
                <rect id="Rectángulo_58028" data-name="Rectángulo 58028" width="66.818" height="13.648" transform="translate(281.719 175.038)" fill="#ebebeb"/>
                <path id="Trazado_231230" data-name="Trazado 231230" d="M312.642,202.081H279.1a6.824,6.824,0,0,1,0-13.648h33.54a6.824,6.824,0,1,1,0,13.648" transform="translate(19.836 13.727)" fill="url(#linear-gradient)"/>
                <path id="Trazado_231231" data-name="Trazado 231231" d="M316.638,137.069c0,.34-9.387.615-20.966.615s-20.968-.275-20.968-.615,9.386-.616,20.968-.616,20.966.277,20.966.616" transform="translate(20.012 9.941)" fill="#263238"/>
                <path id="Trazado_231232" data-name="Trazado 231232" d="M271.427,154.024h-2.951a.524.524,0,0,1-.524-.524,1.967,1.967,0,0,1,1.967-1.968h.065a1.966,1.966,0,0,1,1.966,1.968.524.524,0,0,1-.524.524" transform="translate(19.521 11.039)" fill="#e0e0e0"/>
                <path id="Trazado_231233" data-name="Trazado 231233" d="M271.071,150.648a1.175,1.175,0,1,1-1.176-1.176,1.176,1.176,0,0,1,1.176,1.176" transform="translate(19.576 10.889)" fill="#e0e0e0"/>
                <rect id="Rectángulo_58029" data-name="Rectángulo 58029" width="3.523" height="2.491" transform="translate(287.71 182.079)" fill="#e0e0e0"/>
                <path id="Trazado_231234" data-name="Trazado 231234" d="M272.119,170.408h-1.181v-.767a1,1,0,0,0-1.995,0v.767h-1.182v-.767a2.179,2.179,0,0,1,4.358,0Z" transform="translate(19.507 12.2)" fill="#e0e0e0"/>
                <path id="Trazado_231235" data-name="Trazado 231235" d="M266.929.173,255.462.19a8.744,8.744,0,0,0-3.451.374,5.42,5.42,0,0,0-2.733,2.428,5.831,5.831,0,0,0-.642,1.839,11.826,11.826,0,0,0-.085,2.031q0,1.041,0,2.114a9.88,9.88,0,0,1-.137,2.185,5.789,5.789,0,0,1-2.559,3.693,5.415,5.415,0,0,1-2.25.8c-.817.071-1.61.02-2.431.036l-10.278.005-23.312.006h-8.01a6.279,6.279,0,0,1-1.664-.163,5.511,5.511,0,0,1-2.857-1.766,5.891,5.891,0,0,1-1.395-3.113,13.126,13.126,0,0,1-.06-1.724q0-.856,0-1.719a9.174,9.174,0,0,0-.344-3.384,5.522,5.522,0,0,0-2.049-2.682,5.33,5.33,0,0,0-3.3-.912H161.451A18.21,18.21,0,0,0,153.736,1.7a18.024,18.024,0,0,0-6.418,4.8,17.679,17.679,0,0,0-3.634,7.332c-.179.673-.23,1.373-.353,2.061-.03.585-.061,1.17-.079,1.759V132.526c0,1.537,0,3.033,0,4.579,0,4.638,0,9.369,0,14.082V300.461a18.382,18.382,0,0,0,.706,5.566,17.587,17.587,0,0,0,6.814,9.4A18.178,18.178,0,0,0,162,318.519l11.937.008,23.633.015,46.208.031,22.516.015c3.71-.021,7.433.06,11.082-.046a17.409,17.409,0,0,0,9.937-3.851,18.65,18.65,0,0,0,3.587-3.974,17.4,17.4,0,0,0,2.2-4.846,18.4,18.4,0,0,0,.662-5.262q0-2.686,0-5.358,0-10.684.008-21.12c.031-55.64.059-105.751.083-147.837.042-42.08.076-76.137.1-99.679q.008-4.414.014-8.329a18.139,18.139,0,0,0-1.291-7.117,17.537,17.537,0,0,0-3.32-5.245,16.921,16.921,0,0,0-3.993-3.265A16.756,16.756,0,0,0,278.775.336a14.118,14.118,0,0,0-1.786-.164c-.4-.025-.6-.044-.6-.044s-.814.017-2.4.025l-7.052.02" transform="translate(10.436 0.009)" fill="#fafafa"/>
                <path id="Trazado_231236" data-name="Trazado 231236" d="M276.558.246s.2,0,.6.018A12.961,12.961,0,0,1,278.949.4a16.6,16.6,0,0,1,6.615,2.284,16.917,16.917,0,0,1,4.023,3.26,17.625,17.625,0,0,1,3.358,5.264,18.268,18.268,0,0,1,1.322,7.159q0,3.906.01,8.314c.013,23.5.033,57.492.059,99.5.008,42.007.016,92.025.025,147.563v26.429a18.825,18.825,0,0,1-.676,5.379,17.83,17.83,0,0,1-2.252,4.971,19.083,19.083,0,0,1-3.674,4.076,17.843,17.843,0,0,1-10.183,3.953c-3.7.107-7.369.027-11.084.049l-22.458-.01-46.091-.023-23.574-.013-11.907-.006a18.636,18.636,0,0,1-11.485-3.171,18.054,18.054,0,0,1-6.991-9.656,19.412,19.412,0,0,1-.737-5.966q0-2.977,0-5.946,0-11.87.005-23.58.006-23.415.013-46.1c.011-30.225.021-59.38.031-87.154s.027-54.165.039-78.865q.011-18.524.021-35.74,0-2.15,0-4.279c.01-.71.06-1.429.1-2.139.124-.7.179-1.415.362-2.1a18.034,18.034,0,0,1,3.709-7.472,18.365,18.365,0,0,1,6.54-4.888A18.51,18.51,0,0,1,161.914,0l15.372.017,7.4.01,3.623,0a5.647,5.647,0,0,1,3.472.97,5.834,5.834,0,0,1,2.157,2.833,9.447,9.447,0,0,1,.357,3.482q0,.863,0,1.717a12.782,12.782,0,0,0,.055,1.681,5.577,5.577,0,0,0,1.316,2.951,5.2,5.2,0,0,0,2.695,1.674,5.985,5.985,0,0,0,1.589.157l1.624,0,6.365.009,23.253.034,10.252.017c.809-.015,1.633.036,2.4-.031A5.176,5.176,0,0,0,246,14.771a5.58,5.58,0,0,0,2.472-3.553,9.74,9.74,0,0,0,.138-2.141q0-1.07,0-2.109a12.066,12.066,0,0,1,.093-2.057,5.968,5.968,0,0,1,.665-1.889A5.563,5.563,0,0,1,252.186.533a8.827,8.827,0,0,1,3.5-.373l11.439.03,7.035.029c1.585.009,2.4.027,2.4.027s-.812.017-2.4.025l-7.035.02L255.688.308a8.722,8.722,0,0,0-3.443.373A5.405,5.405,0,0,0,249.52,3.1a5.808,5.808,0,0,0-.639,1.836,11.8,11.8,0,0,0-.085,2.027q0,1.04,0,2.109a9.983,9.983,0,0,1-.137,2.182,5.781,5.781,0,0,1-2.552,3.686,5.387,5.387,0,0,1-2.244.794c-.815.072-1.6.021-2.425.038l-10.252,0-23.253.008h-7.989a6.335,6.335,0,0,1-1.66-.162,5.5,5.5,0,0,1-2.849-1.764,5.874,5.874,0,0,1-1.392-3.107,13.08,13.08,0,0,1-.06-1.721q0-.855,0-1.717a9.166,9.166,0,0,0-.343-3.377A5.515,5.515,0,0,0,191.6,1.265,5.308,5.308,0,0,0,188.3.355h-26.39a18.148,18.148,0,0,0-7.694,1.46,18,18,0,0,0-6.4,4.795,17.67,17.67,0,0,0-3.625,7.32c-.178.671-.23,1.37-.351,2.057-.036.7-.087,1.393-.1,2.1q0,2.129,0,4.279,0,17.2.008,35.74c0,24.7,0,51.091.008,78.865s0,56.929,0,87.154q0,22.67-.005,46.1,0,11.707,0,23.581,0,2.967,0,5.945a18.912,18.912,0,0,0,.717,5.826,17.554,17.554,0,0,0,6.8,9.386,18.128,18.128,0,0,0,11.2,3.082l11.907.008,23.574.015,46.091.03,22.459.016c3.7-.021,7.413.06,11.054-.046a17.361,17.361,0,0,0,9.912-3.843,18.628,18.628,0,0,0,3.577-3.967,17.35,17.35,0,0,0,2.194-4.836,18.377,18.377,0,0,0,.661-5.253q0-2.681,0-5.348,0-10.665.009-21.08c.03-55.538.059-105.556.081-147.563.042-42,.076-76,.1-99.5q.006-4.4.012-8.314a18.081,18.081,0,0,0-1.286-7.1A17.54,17.54,0,0,0,289.5,6.032a16.846,16.846,0,0,0-3.984-3.258,16.7,16.7,0,0,0-6.57-2.321A14,14,0,0,0,277.161.29c-.4-.025-.6-.044-.6-.044" transform="translate(10.436 0)" fill="#263238"/>
                <path id="Trazado_231237" data-name="Trazado 231237" d="M271.568,26.856c0,.076-2.914.161-6.508.191s-6.511-.007-6.512-.084,2.913-.161,6.509-.191,6.51.008,6.511.084" transform="translate(18.835 1.95)" fill="#263238"/>
                <path id="Trazado_231238" data-name="Trazado 231238" d="M271.594,29.961c0,.076-2.914.161-6.509.191s-6.51-.008-6.511-.084,2.913-.161,6.509-.191,6.51.008,6.511.084" transform="translate(18.837 2.176)" fill="#263238"/>
                <path id="Trazado_231239" data-name="Trazado 231239" d="M271.619,33.066c0,.076-2.914.161-6.508.191s-6.511-.008-6.512-.084,2.913-.161,6.509-.191,6.51.008,6.511.084" transform="translate(18.839 2.402)" fill="#263238"/>
                <path id="Trazado_231240" data-name="Trazado 231240" d="M160.316,37.344a2.269,2.269,0,0,1,.27-.017l.753-.026,2.78-.067-.076.078c-.011-.616-.021-1.29-.033-2.016,0-.374-.032-.727,0-1.16a1.069,1.069,0,0,1,.933-.857c.447-.009.842-.029,1.328-.006a1.079,1.079,0,0,1,.911,1.073c.011.94.022,1.923.034,2.941l-.13-.127,3.507-.036-.133.136c-.013-1.413-.026-2.873-.04-4.37q0-.56-.009-1.113a1.132,1.132,0,0,0-.493-.828l-1.533-1.512-1.478-1.459q-.362-.359-.718-.708c-.246-.238-.439-.483-.725-.542a.938.938,0,0,0-.8.154c-.213.179-.439.432-.653.642l-1.258,1.269c-.791.822-1.616,1.573-2.215,2.283a2.489,2.489,0,0,0-.176,1.309q0,.652,0,1.236-.008,1.136-.013,1.99c-.005.509-.011.929-.014,1.273-.005.293-.011.452-.017.458a3.357,3.357,0,0,1-.024-.422c-.01-.339-.021-.752-.035-1.253q-.019-.861-.046-2.006-.01-.6-.023-1.261c0-.224-.008-.454-.011-.689a1.456,1.456,0,0,1,.193-.734c.649-.795,1.424-1.5,2.221-2.345l1.249-1.279c.224-.221.409-.441.676-.671a1.194,1.194,0,0,1,1.017-.2,1.887,1.887,0,0,1,.842.6l.72.7,1.484,1.455,1.536,1.508a2.86,2.86,0,0,1,.392.424,1.146,1.146,0,0,1,.183.592q0,.555.01,1.118c.012,1.5.024,2.957.034,4.37v.135H170.6l-3.507.023h-.128v-.128c-.005-1.018-.011-2-.016-2.941a.844.844,0,0,0-.708-.851c-.4-.021-.879-.008-1.271,0a.86.86,0,0,0-.756.682c-.034.352-.009.764-.015,1.12v2.1h-.076l-2.827-.019-.736-.013a1.314,1.314,0,0,1-.242-.014" transform="translate(11.669 1.927)" fill="#263238"/>
                <path id="Trazado_231241" data-name="Trazado 231241" d="M268.966,75.382h-104.1a9.431,9.431,0,0,1-9.431-9.43v-3.5a9.433,9.433,0,0,1,9.431-9.433h104.1a9.433,9.433,0,0,1,9.431,9.433v3.5a9.431,9.431,0,0,1-9.431,9.43" transform="translate(11.323 3.862)" fill="#f5f5f5"/>
                <path id="Trazado_231242" data-name="Trazado 231242" d="M268.981,75.4s.24-.027.706-.058a10.1,10.1,0,0,0,2.03-.395,9.743,9.743,0,0,0,2.958-1.556,9.256,9.256,0,0,0,2.8-3.555,9.005,9.005,0,0,0,.74-2.607,23.944,23.944,0,0,0,.085-3.013,20.231,20.231,0,0,0-.146-3.276,9.307,9.307,0,0,0-7.426-7.59,25.722,25.722,0,0,0-4.275-.163l-4.544.008-97.03.068a9.221,9.221,0,0,0-9.172,8.439c-.077,1.114-.021,2.292-.039,3.428a10.684,10.684,0,0,0,.349,3.326,9.274,9.274,0,0,0,3.81,5.212,8.873,8.873,0,0,0,2.978,1.27,13.58,13.58,0,0,0,3.236.244l6.512,0,12.61.007,43.622.049,29.408.073c3.463.018,6.154.033,8,.042l2.079.024c.468.009.708.023.708.023s-.24.017-.708.024l-2.079.024c-1.842.009-4.533.025-8,.043l-29.408.072-43.622.05-12.61.008-6.512,0a14.022,14.022,0,0,1-3.335-.251,9.334,9.334,0,0,1-3.125-1.33,9.725,9.725,0,0,1-4-5.463,11.163,11.163,0,0,1-.367-3.449c.017-1.153-.041-2.277.039-3.465a9.675,9.675,0,0,1,9.626-8.859l97.03.068q2.329,0,4.544.008a25.836,25.836,0,0,1,4.33.183,9.559,9.559,0,0,1,7.607,7.838,20.343,20.343,0,0,1,.129,3.315,23.8,23.8,0,0,1-.106,3.039,9.164,9.164,0,0,1-.775,2.653,9.338,9.338,0,0,1-2.884,3.59,9.682,9.682,0,0,1-3.014,1.536,9.552,9.552,0,0,1-2.053.353c-.469.016-.709.012-.709.012" transform="translate(11.307 3.847)" fill="#263238"/>
                <path id="Trazado_231243" data-name="Trazado 231243" d="M263.591,63.23c-.044,0-.04-.36-.214-.968a4.04,4.04,0,0,0-1.485-2.124,3.855,3.855,0,1,0,0,6.184,4.044,4.044,0,0,0,1.485-2.124c.174-.607.17-.97.214-.968.016,0,.027.089.033.261a3.023,3.023,0,0,1-.073.75,4.033,4.033,0,0,1-1.462,2.338,4.2,4.2,0,0,1-4,.656,4.248,4.248,0,0,1,0-8.008,4.2,4.2,0,0,1,4,.654,4.03,4.03,0,0,1,1.461,2.339,2.985,2.985,0,0,1,.074.75c-.006.172-.017.261-.033.261" transform="translate(18.596 4.297)" fill="#263238"/>
                <path id="Trazado_231244" data-name="Trazado 231244" d="M265.351,69.72a8,8,0,0,1-1.983-1.809,8.054,8.054,0,0,1-1.647-2.119A7.974,7.974,0,0,1,263.7,67.6a8.035,8.035,0,0,1,1.647,2.119" transform="translate(19.066 4.793)" fill="#263238"/>
                <path id="Trazado_231245" data-name="Trazado 231245" d="M171.052,61.392H168.86v-.571h5.047v.571h-2.194v5.671h-.66Z" transform="translate(12.302 4.431)" fill="#e0e0e0"/>
                <path id="Trazado_231246" data-name="Trazado 231246" d="M178.078,64.812h-3.923A1.737,1.737,0,0,0,176,66.444a1.847,1.847,0,0,0,1.437-.616l.356.411a2.48,2.48,0,0,1-4.271-1.623,2.259,2.259,0,0,1,2.292-2.381,2.235,2.235,0,0,1,2.273,2.381c0,.054-.009.124-.009.2m-3.923-.473h3.326a1.666,1.666,0,0,0-3.326,0" transform="translate(12.641 4.534)" fill="#e0e0e0"/>
                <path id="Trazado_231247" data-name="Trazado 231247" d="M181.893,66.958,180.4,65l-1.5,1.962h-.712l1.854-2.407-1.765-2.283H179L180.4,64.1l1.409-1.837h.7l-1.765,2.283,1.872,2.407Z" transform="translate(12.981 4.536)" fill="#e0e0e0"/>
                <path id="Trazado_231248" data-name="Trazado 231248" d="M185.815,66.743a1.507,1.507,0,0,1-.99.329,1.242,1.242,0,0,1-1.373-1.364V62.873h-.838v-.535h.838V61.312h.633v1.026h1.427v.535h-1.427v2.8a.751.751,0,0,0,.812.856,1.05,1.05,0,0,0,.7-.24Z" transform="translate(13.304 4.467)" fill="#e0e0e0"/>
                <path id="Trazado_231249" data-name="Trazado 231249" d="M236.345,93.734c0,.127-9,.229-20.1.229s-20.1-.1-20.1-.229,9-.229,20.1-.229,20.1.1,20.1.229" transform="translate(14.289 6.812)" fill="#e8505b"/>
                <path id="Trazado_231250" data-name="Trazado 231250" d="M268.4,101.424c0,.127-16.176.229-36.126.229s-36.13-.1-36.13-.229,16.173-.228,36.13-.228,36.126.1,36.126.228" transform="translate(14.289 7.372)" fill="#263238"/>
                <path id="Trazado_231251" data-name="Trazado 231251" d="M267.55,106.916c0,.127-15.987.229-35.7.229s-35.7-.1-35.7-.229,15.982-.229,35.7-.229,35.7.1,35.7.229" transform="translate(14.289 7.772)" fill="#263238"/>
                <path id="Trazado_231252" data-name="Trazado 231252" d="M238.3,112.154c0,.128-9.439.23-21.079.23s-21.081-.1-21.081-.23,9.437-.227,21.081-.227,21.079.1,21.079.227" transform="translate(14.289 8.154)" fill="#263238"/>
                <path id="Trazado_231253" data-name="Trazado 231253" d="M236.345,135.531c0,.127-9,.229-20.1.229s-20.1-.1-20.1-.229,9-.229,20.1-.229,20.1.1,20.1.229" transform="translate(14.289 9.857)" fill="#12263f"/>
                <path id="Trazado_231254" data-name="Trazado 231254" d="M268.4,143.222c0,.127-16.176.229-36.126.229s-36.13-.1-36.13-.229,16.173-.228,36.13-.228,36.126.1,36.126.228" transform="translate(14.289 10.417)" fill="#263238"/>
                <path id="Trazado_231255" data-name="Trazado 231255" d="M267.55,148.713c0,.127-15.987.229-35.7.229s-35.7-.1-35.7-.229,15.982-.228,35.7-.228,35.7.1,35.7.228" transform="translate(14.289 10.817)" fill="#263238"/>
                <path id="Trazado_231256" data-name="Trazado 231256" d="M238.3,153.952c0,.127-9.439.229-21.079.229s-21.081-.1-21.081-.229,9.437-.228,21.081-.228,21.079.1,21.079.228" transform="translate(14.289 11.199)" fill="#263238"/>
                <path id="Trazado_231257" data-name="Trazado 231257" d="M236.345,177.329c0,.127-9,.228-20.1.228s-20.1-.1-20.1-.228,9-.228,20.1-.228,20.1.1,20.1.228" transform="translate(14.289 12.902)" fill="#12263f"/>
                <path id="Trazado_231258" data-name="Trazado 231258" d="M268.4,185.02c0,.127-16.176.23-36.126.23s-36.13-.1-36.13-.23,16.173-.228,36.13-.228,36.126.1,36.126.228" transform="translate(14.289 13.462)" fill="#263238"/>
                <path id="Trazado_231259" data-name="Trazado 231259" d="M267.55,190.512c0,.127-15.987.229-35.7.229s-35.7-.1-35.7-.229,15.982-.229,35.7-.229,35.7.1,35.7.229" transform="translate(14.289 13.862)" fill="#263238"/>
                <path id="Trazado_231260" data-name="Trazado 231260" d="M238.3,195.751c0,.127-9.439.23-21.079.23s-21.081-.1-21.081-.23,9.437-.229,21.081-.229,21.079.1,21.079.229" transform="translate(14.289 14.244)" fill="#263238"/>
                <path id="Trazado_231261" data-name="Trazado 231261" d="M236.345,219.127c0,.127-9,.229-20.1.229s-20.1-.1-20.1-.229,9-.229,20.1-.229,20.1.1,20.1.229" transform="translate(14.289 15.947)" fill="#12263f"/>
                <path id="Trazado_231262" data-name="Trazado 231262" d="M268.4,226.818c0,.127-16.176.228-36.126.228s-36.13-.1-36.13-.228,16.173-.229,36.13-.229,36.126.1,36.126.229" transform="translate(14.289 16.507)" fill="#263238"/>
                <path id="Trazado_231263" data-name="Trazado 231263" d="M267.55,232.31c0,.127-15.987.229-35.7.229s-35.7-.1-35.7-.229,15.982-.228,35.7-.228,35.7.1,35.7.228" transform="translate(14.289 16.907)" fill="#263238"/>
                <path id="Trazado_231264" data-name="Trazado 231264" d="M238.3,237.549c0,.127-9.439.229-21.079.229s-21.081-.1-21.081-.229,9.437-.228,21.081-.228,21.079.1,21.079.228" transform="translate(14.289 17.289)" fill="#263238"/>
                <path id="Trazado_231265" data-name="Trazado 231265" d="M236.345,260.632c0,.127-9,.228-20.1.228s-20.1-.1-20.1-.228,9-.229,20.1-.229,20.1.1,20.1.229" transform="translate(14.289 18.97)" fill="#12263f"/>
                <path id="Trazado_231266" data-name="Trazado 231266" d="M268.4,268.322c0,.127-16.176.229-36.126.229s-36.13-.1-36.13-.229,16.173-.229,36.13-.229,36.126.1,36.126.229" transform="translate(14.289 19.531)" fill="#263238"/>
                <path id="Trazado_231267" data-name="Trazado 231267" d="M267.55,273.814c0,.127-15.987.229-35.7.229s-35.7-.1-35.7-.229,15.982-.229,35.7-.229,35.7.1,35.7.229" transform="translate(14.289 19.931)" fill="#263238"/>
                <path id="Trazado_231268" data-name="Trazado 231268" d="M238.3,279.054c0,.126-9.439.228-21.079.228s-21.081-.1-21.081-.228,9.437-.229,21.081-.229,21.079.1,21.079.229" transform="translate(14.289 20.312)" fill="#263238"/>
                <rect id="Rectángulo_58030" data-name="Rectángulo 58030" width="24.613" height="32.746" transform="translate(167.243 124.825) rotate(-89.681)" fill="#afafaf"/>
                <path id="Trazado_231269" data-name="Trazado 231269" d="M155.886,117.384l11.522-15.234,7.031,9.611,4.834-5.09,9.357,10.9Z" transform="translate(11.356 7.442)" fill="#636363"/>
                <path id="Trazado_231270" data-name="Trazado 231270" d="M176.393,100.63a2.578,2.578,0,1,1-2.564-2.592,2.579,2.579,0,0,1,2.564,2.592" transform="translate(12.475 7.142)" fill="#636363"/>
                <rect id="Rectángulo_58033" data-name="Rectángulo 58033" width="24.613" height="32.746" transform="translate(167.243 169.098) rotate(-89.681)" fill="#afafaf"/>
                <path id="Trazado_231273" data-name="Trazado 231273" d="M155.886,158.65l11.522-15.236,7.031,9.612,4.834-5.091,9.357,10.9Z" transform="translate(11.356 10.448)" fill="#636363"/>
                <path id="Trazado_231274" data-name="Trazado 231274" d="M176.393,141.9a2.578,2.578,0,1,1-2.564-2.593,2.578,2.578,0,0,1,2.564,2.593" transform="translate(12.475 10.148)" fill="#707070"/>
                <rect id="Rectángulo_58036" data-name="Rectángulo 58036" width="24.613" height="32.746" transform="translate(167.243 213.369) rotate(-89.681)" fill="#afafaf"/>
                <path id="Trazado_231277" data-name="Trazado 231277" d="M155.886,199.915l11.522-15.234,7.031,9.611,4.834-5.09,9.357,10.9Z" transform="translate(11.356 13.454)" fill="#636363"/>
                <path id="Trazado_231278" data-name="Trazado 231278" d="M176.393,183.162a2.578,2.578,0,1,1-2.564-2.593,2.579,2.579,0,0,1,2.564,2.593" transform="translate(12.475 13.154)" fill="#636363"/>
                <rect id="Rectángulo_58039" data-name="Rectángulo 58039" width="24.613" height="32.746" transform="translate(167.243 257.642) rotate(-89.681)" fill="#afafaf"/>
                <path id="Trazado_231281" data-name="Trazado 231281" d="M155.886,241.182l11.522-15.236,7.031,9.612,4.834-5.091,9.357,10.9Z" transform="translate(11.356 16.46)" fill="#636363"/>
                <path id="Trazado_231282" data-name="Trazado 231282" d="M176.393,224.428a2.578,2.578,0,1,1-2.564-2.593,2.579,2.579,0,0,1,2.564,2.593" transform="translate(12.475 16.161)" fill="#636363"/>
                <rect id="Rectángulo_58042" data-name="Rectángulo 58042" width="24.613" height="32.746" transform="translate(167.243 301.698) rotate(-89.681)" fill="#afafaf"/>
                <path id="Trazado_231285" data-name="Trazado 231285" d="M155.886,282.246l11.522-15.234,7.031,9.611,4.834-5.09,9.357,10.9Z" transform="translate(11.356 19.452)" fill="#636363"/>
                <path id="Trazado_231286" data-name="Trazado 231286" d="M176.393,265.493a2.578,2.578,0,1,1-2.564-2.592,2.579,2.579,0,0,1,2.564,2.592" transform="translate(12.475 19.152)" fill="#636363"/>
                <path id="Trazado_231289" data-name="Trazado 231289" d="M397.908,54.889a11.676,11.676,0,1,1-11.677-11.676,11.677,11.677,0,0,1,11.677,11.676" transform="translate(27.287 3.148)" fill="#afafaf"/>
                <path id="Trazado_231290" data-name="Trazado 231290" d="M385.089,58.151a.533.533,0,0,1-.34-.122l-3.93-3.235a.536.536,0,1,1,.68-.828l3.516,2.892,4.988-6.1a.536.536,0,1,1,.829.679L385.5,57.953a.539.539,0,0,1-.363.2l-.053,0" transform="translate(27.729 3.683)" fill="#fff"/>
                <path id="Trazado_231291" data-name="Trazado 231291" d="M355.579,40.265a16,16,0,1,1-16-16,16,16,0,0,1,16,16" transform="translate(23.572 1.767)" fill="#f4a338"/>
                <path id="Trazado_231292" data-name="Trazado 231292" d="M338.033,45.1a1.076,1.076,0,0,1-.682-.245l-5.386-4.434a1.073,1.073,0,1,1,1.364-1.656l4.554,3.75,6.624-8.1a1.073,1.073,0,0,1,1.662,1.357L338.863,44.7a1.067,1.067,0,0,1-.724.388c-.035,0-.072.005-.106.005" transform="translate(24.156 2.478)" fill="#fff"/>
              </g>
            </g>
            <g id="Grupo_180154" data-name="Grupo 180154">
              <g id="Grupo_180153" data-name="Grupo 180153" clip-path="url(#clip-path-2)">
                <g id="Grupo_891396" data-name="Grupo 891396" transform="translate(317.638 192.051)">
                  <path id="Trazado_231293" data-name="Trazado 231293" d="M264.84,226.186a17.623,17.623,0,0,1-12.46-20.409c-.162.435-.312.877-.441,1.331a17.626,17.626,0,1,0,33.909,9.638c.129-.454.233-.909.325-1.364a17.624,17.624,0,0,1-21.332,10.8" transform="translate(-251.262 -191.422)" fill="#263238"/>
                  <path id="Trazado_231294" data-name="Trazado 231294" d="M274.24,184.242a17.624,17.624,0,0,1,12.46,20.409c.161-.435.312-.877.441-1.331a17.626,17.626,0,0,0-33.909-9.638c-.129.454-.233.909-.325,1.364a17.624,17.624,0,0,1,21.332-10.8" transform="translate(-251.975 -180.635)" fill="#455a64"/>
                  <path id="Trazado_231295" data-name="Trazado 231295" d="M287.128,203.025s.012-.1.049-.282l.174-.82.132-.6c.038-.223.058-.472.092-.738a12.851,12.851,0,0,0,.142-1.849,16.836,16.836,0,0,0-.6-5.026,17.606,17.606,0,0,0-9.131-11.156,16.342,16.342,0,0,0-2.059-.85c-.359-.115-.715-.254-1.086-.353l-1.13-.259c-.19-.04-.379-.095-.573-.123l-.586-.073c-.392-.044-.785-.109-1.184-.138a18.528,18.528,0,0,0-2.43.022,18.194,18.194,0,0,0-2.468.341c-.41.092-.815.219-1.226.328a8.921,8.921,0,0,0-1.213.411,15.984,15.984,0,0,0-4.57,2.561,16.937,16.937,0,0,0-3.72,3.949,17.321,17.321,0,0,0-3.018,10.611,16.946,16.946,0,0,0,1.086,5.317,15.995,15.995,0,0,0,2.54,4.583,8.9,8.9,0,0,0,.816.988c.292.309.569.63.869.924a18.243,18.243,0,0,0,1.92,1.588,18.558,18.558,0,0,0,2.056,1.3c.355.185.723.337,1.08.506l.537.246c.18.078.369.13.552.2l1.1.375c.367.111.743.179,1.109.27a16.336,16.336,0,0,0,2.2.36,17.6,17.6,0,0,0,13.634-4.686,16.818,16.818,0,0,0,3.157-3.956,12.866,12.866,0,0,0,.851-1.647c.111-.244.225-.466.31-.676s.143-.407.205-.582l.283-.788c.066-.177.107-.266.107-.266s-.022.095-.078.275l-.256.8-.192.589c-.081.213-.191.437-.3.685a12.516,12.516,0,0,1-.833,1.668,16.7,16.7,0,0,1-3.143,4.019,17.727,17.727,0,0,1-13.77,4.81,16.523,16.523,0,0,1-2.231-.357c-.372-.091-.753-.16-1.126-.271l-1.115-.376c-.185-.066-.378-.12-.56-.2l-.545-.248c-.363-.17-.737-.324-1.1-.511a19.407,19.407,0,0,1-4.045-2.921c-.306-.3-.587-.624-.885-.937a9.2,9.2,0,0,1-.831-1,16.282,16.282,0,0,1-2.588-4.654,17.213,17.213,0,0,1-1.109-5.405A17.59,17.59,0,0,1,255.5,188.2a17.2,17.2,0,0,1,3.786-4.012,16.25,16.25,0,0,1,4.648-2.6,9.02,9.02,0,0,1,1.234-.416c.418-.11.829-.239,1.245-.331a18.416,18.416,0,0,1,2.507-.342,18.7,18.7,0,0,1,2.468-.015c.4.03.8.1,1.2.142l.594.076c.2.03.388.086.581.126l1.146.266c.375.1.736.244,1.1.362a16.393,16.393,0,0,1,2.085.87,17.724,17.724,0,0,1,9.181,11.333,16.691,16.691,0,0,1,.559,5.072,12.475,12.475,0,0,1-.169,1.857c-.039.267-.064.516-.107.74l-.146.6-.2.815c-.048.183-.079.274-.079.274" transform="translate(-251.761 -180.455)" fill="#263238"/>
                  <path id="Trazado_231296" data-name="Trazado 231296" d="M301.836,235.12c.222.151,16.914,15.546,23.058,21.3a2.679,2.679,0,1,0,3.659-3.913l-22.908-21.161Z" transform="translate(-273.167 -202.497)" fill="#263238"/>
                </g>
              </g>
            </g>
          </g>
        </g>
        <g id="Grupo_888578" data-name="Grupo 888578" transform="translate(85.532 40.114)">
          <rect id="Rectángulo_299819" data-name="Rectángulo 299819" width="72.989" height="18.848" transform="translate(3.865)" fill="#1565c0"/>
          <path id="Trazado_605119" data-name="Trazado 605119" d="M38.193,141.858,33.648,154.4h-3.5l-2.82-7.785L24.417,154.4h-3.5L16.4,141.858h3.426l2.961,8.484,3.076-8.484H28.94l2.983,8.484,3.053-8.484Z" transform="translate(-8.646 -138.848)" fill="#fff"/>
          <path id="Trazado_605120" data-name="Trazado 605120" d="M55.331,141.858,50.786,154.4h-3.5l-2.82-7.785L41.556,154.4h-3.5l-4.522-12.541h3.426l2.961,8.484L43,141.858h3.078l2.983,8.484,3.054-8.484Z" transform="translate(-4.246 -138.848)" fill="#fff"/>
          <path id="Trazado_605121" data-name="Trazado 605121" d="M72.47,141.858,67.925,154.4h-3.5l-2.82-7.785L58.694,154.4H55.2l-4.522-12.541H54.1l2.961,8.484,3.076-8.484h3.076l2.983,8.484,3.054-8.484Z" transform="translate(0.154 -138.848)" fill="#fff"/>
          <line id="Línea_2084" data-name="Línea 2084" x2="7.73" transform="translate(0)" fill="none" stroke="#38356e" stroke-miterlimit="10" stroke-width="1"/>
          <line id="Línea_2085" data-name="Línea 2085" x2="7.73" transform="translate(0 18.848)" fill="none" stroke="#38356e" stroke-miterlimit="10" stroke-width="1"/>
          <line id="Línea_2086" data-name="Línea 2086" y2="18.848" transform="translate(3.865)" fill="none" stroke="#38356e" stroke-miterlimit="10" stroke-width="1"/>
        </g>
        <g id="Grupo_888579" data-name="Grupo 888579" transform="translate(0 85.987)">
          <path id="Trazado_605122" data-name="Trazado 605122" d="M136.7,126.956H11.208a2.54,2.54,0,0,1-2.541-2.54V46.739a2.54,2.54,0,0,1,2.541-2.54H136.7a2.539,2.539,0,0,1,2.54,2.54v77.678a2.539,2.539,0,0,1-2.54,2.54" transform="translate(1.324 -34.278)" fill="#12263f"/>
          <path id="Trazado_605123" data-name="Trazado 605123" d="M10.229,121.965V52.034a2,2,0,0,1,2-2H135.2a2,2,0,0,1,2,2v69.931a2,2,0,0,1-2,2H12.23a2,2,0,0,1-2-2" transform="translate(1.563 -33.387)" fill="#fff"/>
          <path id="Trazado_605124" data-name="Trazado 605124" d="M120.076,47.337a1.654,1.654,0,1,1-1.653-1.653,1.653,1.653,0,0,1,1.653,1.653" transform="translate(17.844 -34.051)" fill="#fff"/>
          <path id="Trazado_605125" data-name="Trazado 605125" d="M115.337,47.337a1.654,1.654,0,1,1-1.653-1.653,1.653,1.653,0,0,1,1.653,1.653" transform="translate(17.12 -34.051)" fill="#fff"/>
          <path id="Trazado_605126" data-name="Trazado 605126" d="M110.6,47.337a1.654,1.654,0,1,1-1.653-1.653,1.653,1.653,0,0,1,1.653,1.653" transform="translate(16.396 -34.051)" fill="#fff"/>
          <path id="Trazado_605127" data-name="Trazado 605127" d="M27.542,62.4a6.685,6.685,0,1,1-6.685-6.685A6.685,6.685,0,0,1,27.542,62.4" transform="translate(2.166 -32.518)" fill="#1565c0"/>
          <rect id="Rectángulo_299820" data-name="Rectángulo 299820" width="99.678" height="3.158" transform="translate(32.779 23.249)" fill="#e8e8e8"/>
          <rect id="Rectángulo_299821" data-name="Rectángulo 299821" width="67.841" height="3.158" transform="translate(32.779 28.302)" fill="#e8e8e8"/>
          <rect id="Rectángulo_299822" data-name="Rectángulo 299822" width="35.277" height="3.158" transform="translate(32.779 33.667)" fill="#e8e8e8"/>
          <path id="Trazado_605128" data-name="Trazado 605128" d="M27.542,80.866a6.685,6.685,0,1,1-6.685-6.685,6.685,6.685,0,0,1,6.685,6.685" transform="translate(2.166 -29.697)" fill="#fb8c00"/>
          <rect id="Rectángulo_299823" data-name="Rectángulo 299823" width="99.678" height="3.158" transform="translate(32.779 44.538)" fill="#e8e8e8"/>
          <rect id="Rectángulo_299824" data-name="Rectángulo 299824" width="67.841" height="3.158" transform="translate(32.779 49.591)" fill="#e8e8e8"/>
          <rect id="Rectángulo_299825" data-name="Rectángulo 299825" width="35.277" height="3.158" transform="translate(32.779 54.956)" fill="#e8e8e8"/>
          <path id="Trazado_605129" data-name="Trazado 605129" d="M27.542,99.333a6.685,6.685,0,1,1-6.685-6.685,6.685,6.685,0,0,1,6.685,6.685" transform="translate(2.166 -26.875)" fill="#26aab7"/>
          <rect id="Rectángulo_299826" data-name="Rectángulo 299826" width="99.678" height="3.158" transform="translate(32.779 65.827)" fill="#e8e8e8"/>
          <rect id="Rectángulo_299827" data-name="Rectángulo 299827" width="67.841" height="3.158" transform="translate(32.779 70.88)" fill="#e8e8e8"/>
          <rect id="Rectángulo_299828" data-name="Rectángulo 299828" width="35.277" height="3.158" transform="translate(32.779 76.245)" fill="#e8e8e8"/>
          <path id="Trazado_605130" data-name="Trazado 605130" d="M127.532,121.336v1.729H125.8" transform="translate(19.225 -22.49)" fill="none" stroke="#38356e" stroke-linejoin="round" stroke-width="0.5"/>
          <line id="Línea_2087" data-name="Línea 2087" x1="135.341" transform="translate(6.261 100.575)" fill="none" stroke="#12263f" stroke-linejoin="round" stroke-width="0.5" stroke-dasharray="2.972 2.972"/>
          <path id="Trazado_605131" data-name="Trazado 605131" d="M4.174,123.066H2.445v-1.729" transform="translate(0.373 -22.49)" fill="none" stroke="#38356e" stroke-linejoin="round" stroke-width="0.5"/>
          <line id="Línea_2088" data-name="Línea 2088" y1="89.06" transform="translate(2.819 6.294)" fill="none" stroke="#12263f" stroke-linejoin="round" stroke-width="0.5" stroke-dasharray="3.03 3.03"/>
          <path id="Trazado_605132" data-name="Trazado 605132" d="M2.445,39.768V38.038H4.174" transform="translate(0.373 -35.219)" fill="none" stroke="#38356e" stroke-linejoin="round" stroke-width="0.5"/>
          <line id="Línea_2089" data-name="Línea 2089" x2="135.341" transform="translate(7.974 2.819)" fill="none" stroke="#12263f" stroke-linejoin="round" stroke-width="0.5" stroke-dasharray="2.972 2.972"/>
          <path id="Trazado_605133" data-name="Trazado 605133" d="M125.8,38.038h1.729v1.729" transform="translate(19.225 -35.219)" fill="none" stroke="#38356e" stroke-linejoin="round" stroke-width="0.5"/>
          <line id="Línea_2090" data-name="Línea 2090" y2="89.06" transform="translate(146.757 8.04)" fill="none" stroke="#12263f" stroke-linejoin="round" stroke-width="0.5" stroke-dasharray="3.03 3.03"/>
          <rect id="Rectángulo_299829" data-name="Rectángulo 299829" width="5.637" height="5.637" fill="#12263f"/>
          <rect id="Rectángulo_299830" data-name="Rectángulo 299830" width="5.637" height="5.637" transform="translate(143.939)" fill="#12263f"/>
          <rect id="Rectángulo_299831" data-name="Rectángulo 299831" width="5.637" height="5.637" transform="translate(143.939 97.756)" fill="#12263f"/>
          <rect id="Rectángulo_299832" data-name="Rectángulo 299832" width="5.637" height="5.637" transform="translate(0.864 97.756)" fill="#12263f"/>
          <path id="Trazado_605134" data-name="Trazado 605134" d="M84.209,103.47v-1.729h1.729" transform="translate(12.868 -25.485)" fill="none" stroke="#38356e" stroke-linejoin="round" stroke-width="0.5"/>
        </g>
        <path id="Trazado_236852" data-name="Trazado 236852" d="M413.484,279.652v30.467a3.433,3.433,0,0,1-2.931,3.4,2.659,2.659,0,0,1-.516.044H370.9a3.447,3.447,0,0,1-3.447-3.447V279.652a3.3,3.3,0,0,1,.351-1.5,3.436,3.436,0,0,1,3.1-1.954h15.338a3.478,3.478,0,0,0,2.031-.659,3.374,3.374,0,0,0,1.252-1.713,3.454,3.454,0,0,1,3.283-2.383h8.169a3.445,3.445,0,0,1,3.283,2.383,3.448,3.448,0,0,0,3.283,2.372h2.5a3.455,3.455,0,0,1,3.447,3.458" transform="translate(34.139 -143.025)" fill="#c17d23"/>
        <g id="Grupo_182229" data-name="Grupo 182229" transform="translate(401.587 135.123)" style="isolation: isolate">
          <g id="Grupo_182228" data-name="Grupo 182228">
            <g id="Grupo_182227" data-name="Grupo 182227" clip-path="url(#clip-path-6)">
              <path id="Trazado_236853" data-name="Trazado 236853" d="M410.552,281.105v32.432c-.017.017-.027.026-.044.044H370.894a3.447,3.447,0,0,1-3.447-3.448V279.667a3.3,3.3,0,0,1,.351-1.5h39.81a2.944,2.944,0,0,1,2.943,2.943" transform="translate(-367.448 -278.162)" fill="#f4a338"/>
            </g>
          </g>
        </g>
      </g>
      <g id="Grupo_897539" data-name="Grupo 897539" transform="translate(285 6645.699)">
        <g id="Grupo_892909" data-name="Grupo 892909">
          <g id="Grupo_892906" data-name="Grupo 892906" transform="translate(0.287 0.286)">
            <rect id="Rectángulo_303249" data-name="Rectángulo 303249" width="74.086" height="63.654" rx="3.922" fill="#fff"/>
          </g>
          <g id="Grupo_892908" data-name="Grupo 892908">
            <g id="Grupo_892907" data-name="Grupo 892907">
              <path id="Trazado_612426" data-name="Trazado 612426" d="M141.618,108.177c0-.021.236-.007.683-.089a4.284,4.284,0,0,0,1.826-.793,4.2,4.2,0,0,0,1.648-2.706,15.247,15.247,0,0,0,.053-2.088q-.007-1.129-.013-2.4c-.022-6.8-.053-16.613-.091-28.726-.01-6.066-.022-12.708-.035-19.837-.087-1.768.343-3.706-.8-5.111a4.067,4.067,0,0,0-2.109-1.485,10.505,10.505,0,0,0-2.74-.167l-11.716.012-52.168.023a4.005,4.005,0,0,0-2.9,1.227,4.067,4.067,0,0,0-1.134,2.922q0,3.427,0,6.807,0,6.761,0,13.312c-.005,8.725-.011,17.143-.016,25.163l-.005,5.937,0,2.911a4.991,4.991,0,0,0,.466,2.67,4.078,4.078,0,0,0,1.9,1.8,4.265,4.265,0,0,0,1.264.35c.425.034.9.02,1.361.024l5.439.007,19.837.035,28.725.091,7.809.054,2.031.029c.457.01.692.029.692.029s-.235.02-.692.03l-2.031.029-7.809.054-28.725.09-19.837.035-5.439.008c-.465,0-.911.014-1.413-.023a4.688,4.688,0,0,1-1.419-.39,4.577,4.577,0,0,1-2.138-2.015,5.517,5.517,0,0,1-.531-2.906l0-2.911-.007-5.937c-.005-8.019-.011-16.437-.016-25.163q0-6.547,0-13.312,0-3.38,0-6.807a4.642,4.642,0,0,1,1.294-3.32,4.579,4.579,0,0,1,3.307-1.4l52.168.022,11.716.012,1.419,0a4.956,4.956,0,0,1,1.462.192,4.57,4.57,0,0,1,3.247,4.375q0,1.359,0,2.7c-.012,7.129-.024,13.771-.035,19.837-.038,12.113-.069,21.923-.09,28.726q-.008,1.27-.013,2.4a15.147,15.147,0,0,1-.082,2.118,4.3,4.3,0,0,1-1.747,2.768,4.2,4.2,0,0,1-1.884.759A2.732,2.732,0,0,1,141.618,108.177Z" transform="translate(-71.553 -44.237)" fill="#263238"/>
            </g>
          </g>
        </g>
        <g id="Grupo_892910" data-name="Grupo 892910" transform="translate(12.012 13.135)">
          <path id="Trazado_612427" data-name="Trazado 612427" d="M116.61,63.245H86.027a3.514,3.514,0,0,1-3.514-3.513h0a3.515,3.515,0,0,1,3.514-3.514H116.61a3.515,3.515,0,0,1,3.514,3.514h0A3.514,3.514,0,0,1,116.61,63.245Z" transform="translate(-82.486 -56.192)" fill="#26aab7"/>
          <path id="Trazado_612428" data-name="Trazado 612428" d="M116.612,63.276H86.03a3.541,3.541,0,1,1,0-7.082h30.583a3.541,3.541,0,0,1,0,7.082ZM86.03,56.249a3.486,3.486,0,1,0,0,6.972h30.583a3.486,3.486,0,1,0,0-6.972Z" transform="translate(-82.488 -56.194)" fill="#fff"/>
        </g>
        <g id="Grupo_892911" data-name="Grupo 892911" transform="translate(12.012 29.658)">
          <path id="Trazado_612429" data-name="Trazado 612429" d="M133.753,78.287H86.027a3.514,3.514,0,0,1-3.514-3.513h0a3.514,3.514,0,0,1,3.514-3.514h47.726a3.514,3.514,0,0,1,3.513,3.514h0A3.513,3.513,0,0,1,133.753,78.287Z" transform="translate(-82.486 -71.233)" fill="#263238"/>
          <path id="Trazado_612430" data-name="Trazado 612430" d="M133.756,78.317H86.03a3.541,3.541,0,1,1,0-7.082h47.726a3.541,3.541,0,0,1,0,7.082ZM86.03,71.29a3.486,3.486,0,1,0,0,6.972h47.726a3.486,3.486,0,0,0,0-6.972Z" transform="translate(-82.488 -71.235)" fill="#fff"/>
        </g>
        <g id="Grupo_892915" data-name="Grupo 892915" transform="translate(63.339 8.377)">
          <g id="Grupo_892912" data-name="Grupo 892912">
            <path id="Trazado_612431" data-name="Trazado 612431" d="M132.844,53.692a1.8,1.8,0,1,1-1.8-1.8A1.8,1.8,0,0,1,132.844,53.692Z" transform="translate(-129.21 -51.861)" fill="#263238"/>
            <path id="Trazado_612432" data-name="Trazado 612432" d="M131.043,55.524a1.831,1.831,0,1,1,1.83-1.83A1.832,1.832,0,0,1,131.043,55.524Zm0-3.606a1.776,1.776,0,1,0,1.776,1.776A1.778,1.778,0,0,0,131.043,51.918Z" transform="translate(-129.212 -51.863)" fill="#fff"/>
          </g>
          <g id="Grupo_892913" data-name="Grupo 892913" transform="translate(0 4.597)">
            <circle id="Elipse_8178" data-name="Elipse 8178" cx="1.804" cy="1.804" r="1.804" transform="translate(0.027 0.028)" fill="#263238"/>
            <path id="Trazado_612433" data-name="Trazado 612433" d="M131.043,59.71a1.831,1.831,0,1,1,1.83-1.831A1.833,1.833,0,0,1,131.043,59.71Zm0-3.608a1.776,1.776,0,1,0,1.776,1.776A1.778,1.778,0,0,0,131.043,56.1Z" transform="translate(-129.212 -56.048)" fill="#fff"/>
          </g>
          <g id="Grupo_892914" data-name="Grupo 892914" transform="translate(0 9.196)">
            <path id="Trazado_612434" data-name="Trazado 612434" d="M132.844,62.063a1.8,1.8,0,1,1-1.8-1.8A1.8,1.8,0,0,1,132.844,62.063Z" transform="translate(-129.21 -60.232)" fill="#263238"/>
            <path id="Trazado_612435" data-name="Trazado 612435" d="M131.043,63.9a1.831,1.831,0,1,1,1.83-1.831A1.832,1.832,0,0,1,131.043,63.9Zm0-3.606a1.776,1.776,0,1,0,1.776,1.775A1.778,1.778,0,0,0,131.043,60.289Z" transform="translate(-129.212 -60.234)" fill="#fff"/>
          </g>
        </g>
        <g id="Grupo_892916" data-name="Grupo 892916" transform="translate(12.012 44.5)">
          <circle id="Elipse_8179" data-name="Elipse 8179" cx="5.152" cy="5.152" r="5.152" transform="translate(0.028 0.027)" fill="#1565c0"/>
          <path id="Trazado_612436" data-name="Trazado 612436" d="M87.669,95.1a5.179,5.179,0,1,1,5.178-5.179A5.187,5.187,0,0,1,87.669,95.1Zm0-10.305a5.125,5.125,0,1,0,5.125,5.126A5.131,5.131,0,0,0,87.669,84.8Z" transform="translate(-82.488 -84.746)" fill="#fff"/>
        </g>
        <g id="Grupo_892917" data-name="Grupo 892917" transform="translate(25.183 44.5)">
          <circle id="Elipse_8180" data-name="Elipse 8180" cx="5.152" cy="5.152" r="5.152" transform="translate(0.028 0.027)" fill="#455a64"/>
          <path id="Trazado_612437" data-name="Trazado 612437" d="M99.656,95.1a5.179,5.179,0,1,1,5.179-5.179A5.186,5.186,0,0,1,99.656,95.1Zm0-10.305a5.125,5.125,0,1,0,5.126,5.126A5.131,5.131,0,0,0,99.656,84.8Z" transform="translate(-94.477 -84.746)" fill="#fff"/>
        </g>
      </g>
      <g id="Window_2" data-name="Window 2" transform="translate(514.03 6626.749)">
        <g id="Grupo_892905" data-name="Grupo 892905">
          <g id="Grupo_892883" data-name="Grupo 892883">
            <g id="Grupo_892880" data-name="Grupo 892880" transform="translate(0.245 0.218)">
              <rect id="Rectángulo_303247" data-name="Rectángulo 303247" width="140.04" height="107.646" rx="3.358" fill="#fff"/>
            </g>
            <g id="Grupo_892882" data-name="Grupo 892882">
              <g id="Grupo_892881" data-name="Grupo 892881">
                <path id="Trazado_612408" data-name="Trazado 612408" d="M388.19,379.51a4.348,4.348,0,0,0-.241-1.229,3.674,3.674,0,0,0-2.642-2.318,17.315,17.315,0,0,0-2.712-.08l-3.3.011-8.222.023-52.4.078-36.187.03-20.16.012-10.539.008a3.487,3.487,0,0,0-3.4,3.127c-.034,1.762-.008,3.61-.015,5.429.007,29.252.013,61.411.02,95.166a3.455,3.455,0,0,0,1.183,2.606,3.365,3.365,0,0,0,1.279.705,4.752,4.752,0,0,0,1.49.145h18.692l24.283,0,45.9.014,41.536.023a20.006,20.006,0,0,0,2.388-.061,3.495,3.495,0,0,0,2.829-3.131c.031-.758.01-1.571.017-2.348q0-4.708.008-9.237.008-9.056.015-17.364c.033-22.119.059-40.019.078-52.4.02-6.179.035-10.981.046-14.245.011-1.623.019-2.862.024-3.705s.025-1.262.025-1.262.016.427.025,1.262.013,2.083.024,3.705c.01,3.265.025,8.066.046,14.245.018,12.381.045,30.282.078,52.4q.007,8.3.015,17.364,0,4.528.007,9.237c-.007.792.018,1.557-.014,2.381a3.893,3.893,0,0,1-3.148,3.494,19.636,19.636,0,0,1-2.463.07l-41.536.023-45.9.014-24.283,0H252.346a5.223,5.223,0,0,1-1.629-.164,3.861,3.861,0,0,1-1.461-.806,3.947,3.947,0,0,1-1.351-2.975c.007-33.755.013-65.914.019-95.166.01-1.838-.018-3.624.022-5.472a3.918,3.918,0,0,1,3.837-3.525l10.546,0,20.16.012,36.187.03,52.4.078,8.222.023,3.3.011a17.126,17.126,0,0,1,2.734.108,3.711,3.711,0,0,1,2.667,2.4,3.562,3.562,0,0,1,.19.927C388.194,379.4,388.19,379.51,388.19,379.51Z" transform="translate(-247.905 -375.604)" fill="#263238"/>
              </g>
            </g>
          </g>
          <g id="Grupo_892884" data-name="Grupo 892884" transform="translate(10.048 37.49)">
            <path id="Trazado_612409" data-name="Trazado 612409" d="M263.09,412.763v52.7a3.008,3.008,0,0,1-3.008,3.008h0a3.008,3.008,0,0,1-3.009-3.008v-52.7a3.008,3.008,0,0,1,3.009-3.009h0A3.008,3.008,0,0,1,263.09,412.763Z" transform="translate(-257.05 -409.73)" fill="#fb8c00"/>
            <path id="Trazado_612410" data-name="Trazado 612410" d="M260.084,468.494a3.035,3.035,0,0,1-3.032-3.032v-52.7a3.032,3.032,0,1,1,6.064,0v52.7A3.035,3.035,0,0,1,260.084,468.494Zm0-58.713a2.988,2.988,0,0,0-2.985,2.985v52.7a2.984,2.984,0,0,0,5.968,0v-52.7A2.987,2.987,0,0,0,260.084,409.78Z" transform="translate(-257.052 -409.732)" fill="#fff"/>
          </g>
          <g id="Grupo_892885" data-name="Grupo 892885" transform="translate(108.174 50.979)">
            <path id="Trazado_612411" data-name="Trazado 612411" d="M352.417,425.041V464.25a3.008,3.008,0,0,1-3.008,3.008h0a3.008,3.008,0,0,1-3.009-3.008V425.041a3.008,3.008,0,0,1,3.009-3.009h0A3.008,3.008,0,0,1,352.417,425.041Z" transform="translate(-346.376 -422.009)" fill="#e0e0e0"/>
            <path id="Trazado_612412" data-name="Trazado 612412" d="M349.411,467.284a3.035,3.035,0,0,1-3.033-3.032V425.043a3.032,3.032,0,0,1,6.065,0v39.209A3.035,3.035,0,0,1,349.411,467.284Zm0-45.226a2.988,2.988,0,0,0-2.985,2.985v39.209a2.985,2.985,0,0,0,5.969,0V425.043A2.988,2.988,0,0,0,349.411,422.058Z" transform="translate(-346.378 -422.011)" fill="#fff"/>
          </g>
          <g id="Grupo_892889" data-name="Grupo 892889" transform="translate(7.575 10.127)">
            <g id="Grupo_892886" data-name="Grupo 892886">
              <circle id="Elipse_8176" data-name="Elipse 8176" cx="1.544" cy="1.544" r="1.544" transform="translate(0.023 0.024)" fill="#263238"/>
              <path id="Trazado_612413" data-name="Trazado 612413" d="M256.369,387.959a1.568,1.568,0,1,1,1.568-1.568A1.569,1.569,0,0,1,256.369,387.959Zm0-3.089a1.521,1.521,0,1,0,1.52,1.521A1.522,1.522,0,0,0,256.369,384.87Z" transform="translate(-254.801 -384.823)" fill="#fff"/>
            </g>
            <g id="Grupo_892887" data-name="Grupo 892887" transform="translate(3.936)">
              <path id="Trazado_612414" data-name="Trazado 612414" d="M259.951,384.845a1.545,1.545,0,1,1-1.545,1.545A1.544,1.544,0,0,1,259.951,384.845Z" transform="translate(-258.382 -384.821)" fill="#263238"/>
              <path id="Trazado_612415" data-name="Trazado 612415" d="M259.953,387.959a1.568,1.568,0,1,1,1.568-1.568A1.57,1.57,0,0,1,259.953,387.959Zm0-3.089a1.521,1.521,0,1,0,1.52,1.521A1.522,1.522,0,0,0,259.953,384.87Z" transform="translate(-258.384 -384.823)" fill="#fff"/>
            </g>
            <g id="Grupo_892888" data-name="Grupo 892888" transform="translate(7.873)">
              <circle id="Elipse_8177" data-name="Elipse 8177" cx="1.544" cy="1.544" r="1.544" transform="translate(0.024 0.024)" fill="#263238"/>
              <path id="Trazado_612416" data-name="Trazado 612416" d="M263.537,387.959a1.568,1.568,0,1,1,1.568-1.568A1.57,1.57,0,0,1,263.537,387.959Zm0-3.089a1.521,1.521,0,1,0,1.519,1.521A1.523,1.523,0,0,0,263.537,384.87Z" transform="translate(-261.968 -384.823)" fill="#fff"/>
            </g>
          </g>
          <g id="Grupo_892890" data-name="Grupo 892890" transform="translate(122.422 87.381)">
            <path id="Trazado_612417" data-name="Trazado 612417" d="M363.782,455.17a4.412,4.412,0,1,1-4.412,4.412A4.411,4.411,0,0,1,363.782,455.17Z" transform="translate(-359.346 -455.147)" fill="#1565c0"/>
            <path id="Trazado_612418" data-name="Trazado 612418" d="M363.784,464.019a4.435,4.435,0,1,1,4.435-4.436A4.441,4.441,0,0,1,363.784,464.019Zm0-8.822a4.387,4.387,0,1,0,4.386,4.386A4.392,4.392,0,0,0,363.784,455.2Z" transform="translate(-359.348 -455.149)" fill="#fff"/>
          </g>
          <g id="Grupo_892891" data-name="Grupo 892891" transform="translate(122.422 76.104)">
            <path id="Trazado_612419" data-name="Trazado 612419" d="M363.782,444.9a4.412,4.412,0,1,1-4.412,4.412A4.411,4.411,0,0,1,363.782,444.9Z" transform="translate(-359.346 -444.881)" fill="#263238"/>
            <path id="Trazado_612420" data-name="Trazado 612420" d="M363.784,453.755a4.436,4.436,0,1,1,4.435-4.436A4.441,4.441,0,0,1,363.784,453.755Zm0-8.823a4.388,4.388,0,1,0,4.386,4.387A4.393,4.393,0,0,0,363.784,444.931Z" transform="translate(-359.348 -444.883)" fill="#fff"/>
          </g>
          <g id="Grupo_892892" data-name="Grupo 892892" transform="translate(122.422 64.828)">
            <path id="Trazado_612421" data-name="Trazado 612421" d="M363.782,434.64a4.412,4.412,0,1,1-4.412,4.412A4.411,4.411,0,0,1,363.782,434.64Z" transform="translate(-359.346 -434.616)" fill="#455a64"/>
            <path id="Trazado_612422" data-name="Trazado 612422" d="M363.784,443.488a4.435,4.435,0,1,1,4.435-4.435A4.441,4.441,0,0,1,363.784,443.488Zm0-8.822a4.387,4.387,0,1,0,4.386,4.388A4.392,4.392,0,0,0,363.784,434.666Z" transform="translate(-359.348 -434.618)" fill="#fff"/>
          </g>
          <g id="Grupo_892900" data-name="Grupo 892900" transform="translate(24.924 13.24)">
            <g id="Grupo_892895" data-name="Grupo 892895" transform="translate(0)">
              <g id="Grupo_892894" data-name="Grupo 892894">
                <g id="Grupo_892893" data-name="Grupo 892893">
                  <rect id="Rectángulo_303248" data-name="Rectángulo 303248" width="83.839" height="76.911" rx="3.99" transform="translate(0 83.839) rotate(-90)" fill="#fff"/>
                </g>
              </g>
            </g>
            <g id="Grupo_892897" data-name="Grupo 892897" transform="translate(28.233 0)">
              <g id="Grupo_892896" data-name="Grupo 892896">
                <path id="Trazado_612423" data-name="Trazado 612423" d="M323.157,471.5h14.366c4.114,0,7.45-2.289,7.45-6.773V394.43c0-4.568-3.4-6.773-7.587-6.773h-23.1l-16.673,19.551a5.721,5.721,0,0,0,.37,7.717l16.086,15.3L307.536,445.3a8.134,8.134,0,0,0,1.081,8.275Z" transform="translate(-296.295 -387.657)" fill="#455a64"/>
              </g>
            </g>
            <g id="Grupo_892899" data-name="Grupo 892899" transform="translate(13.435 37.567)">
              <g id="Grupo_892898" data-name="Grupo 892898">
                <path id="Trazado_612424" data-name="Trazado 612424" d="M289.767,421.855a6.764,6.764,0,1,1-6.943,6.761A6.854,6.854,0,0,1,289.767,421.855Z" transform="translate(-282.824 -421.855)" fill="#455a64"/>
              </g>
            </g>
          </g>
          <g id="Grupo_892904" data-name="Grupo 892904" transform="translate(24.679 13.03)">
            <g id="Grupo_892903" data-name="Grupo 892903">
              <g id="Grupo_892902" data-name="Grupo 892902">
                <g id="Grupo_892901" data-name="Grupo 892901">
                  <path id="Trazado_612425" data-name="Trazado 612425" d="M347.527,395.487a8.715,8.715,0,0,0-.662-3.029,8.029,8.029,0,0,0-2.261-2.968,7.743,7.743,0,0,0-4.729-1.711l-33.01.069-22.8.031c-2.041.015-4.149-.026-6.233.036a7.585,7.585,0,0,0-6.768,5.734,12.784,12.784,0,0,0-.231,3.27q0,3.368,0,6.824c.007,18.429.012,38.687.02,59.951a7.747,7.747,0,0,0,.958,3.689,7.6,7.6,0,0,0,2.616,2.737,7.365,7.365,0,0,0,3.586,1.128c1.278.042,2.6.011,3.885.021l15.3,0,28.917.014,13.467.01a7.579,7.579,0,0,0,5.628-2.356,7.713,7.713,0,0,0,2.11-5.544c.011-8.194.021-15.827.03-22.8.033-13.929.059-25.2.078-33.01.02-3.888.035-6.909.046-8.975q.016-1.524.024-2.333c.009-.526.025-.8.025-.8s.016.269.025.8.013,1.317.024,2.333c.01,2.066.026,5.087.046,8.975.018,7.807.045,19.081.078,33.01.009,6.97.019,14.6.03,22.8a8.128,8.128,0,0,1-2.214,5.833,8.006,8.006,0,0,1-5.931,2.5l-13.467.01-28.917.014-15.3,0c-1.3-.01-2.583.022-3.911-.021a7.86,7.86,0,0,1-3.82-1.2,8.094,8.094,0,0,1-2.784-2.914,8.242,8.242,0,0,1-1.02-3.927c.007-21.264.013-41.523.019-59.951q0-3.455.005-6.824a13.177,13.177,0,0,1,.249-3.376A8.009,8.009,0,0,1,277.8,387.5c2.148-.061,4.21-.013,6.265-.025l22.8.03,33.014.086a7.885,7.885,0,0,1,4.818,1.789,8.063,8.063,0,0,1,2.259,3.042,8.269,8.269,0,0,1,.557,2.271C347.53,395.218,347.527,395.487,347.527,395.487Z" transform="translate(-270.371 -387.466)" fill="#263238"/>
                </g>
              </g>
            </g>
          </g>
        </g>
      </g>
    </g>
  </g>
</svg>
