<svg xmlns="http://www.w3.org/2000/svg" xmlns:xlink="http://www.w3.org/1999/xlink" width="108.419" height="108.419" viewBox="0 0 108.419 108.419">
  <defs>
    <linearGradient id="linear-gradient" x1="0.5" x2="0.5" y2="1" gradientUnits="objectBoundingBox">
      <stop offset="0" stop-color="#fdbe41"/>
      <stop offset="1" stop-color="#d09f40"/>
    </linearGradient>
  </defs>
  <g id="Grupo_900005" data-name="Grupo 900005" transform="translate(-1213.545 -5842.418)">
    <path id="Trazado_197541" data-name="Trazado 197541" d="M54.209,0A54.209,54.209,0,1,1,0,54.209,54.209,54.209,0,0,1,54.209,0Z" transform="translate(1213.545 5842.418)" fill="url(#linear-gradient)"/>
    <g id="q9jnnq" transform="translate(559.083 5580.737)">
      <g id="Grupo_892599" data-name="Grupo 892599" transform="translate(678.381 283.758)">
        <path id="Trazado_612203" data-name="Trazado 612203" d="M738.291,333.687c.367,0,.674-.015.979,0a.982.982,0,0,1,1.013,1.034c.01,2.122.045,4.244-.013,6.365a4.942,4.942,0,0,1-4.5,4.567c-.311.019-.623.034-.935.034q-25.491,0-50.982.009a5.325,5.325,0,0,1-3.889-1.362,4.812,4.812,0,0,1-1.581-3.6c0-1.872,0-3.744,0-5.616,0-1.145.278-1.423,1.433-1.433.163,0,.326,0,.526,0v-9.969c-.309,0-.615.016-.918,0a.978.978,0,0,1-1.041-1.063c0-.125,0-.25,0-.374q0-18.533,0-37.066c0-1.177.279-1.451,1.478-1.451h44.992c1.176,0,1.456.284,1.456,1.474q0,5.866,0,11.731v.774H727c2.371,0,4.743,0,7.114,0a3.993,3.993,0,0,1,4.18,4.2q0,15.476,0,30.951Zm-57.916,2.058c0,1.553,0,3.067,0,4.582a4.974,4.974,0,0,0,.025.685,2.97,2.97,0,0,0,3.035,2.655q25.9.007,51.8,0a2.865,2.865,0,0,0,3.012-2.656c.118-1.735.027-3.484.027-5.266Zm43.9-19.887V293.813H680.414v27.862h40.615c-.066-.235-.117-.433-.176-.629-.463-1.549-.923-3.1-1.393-4.647a1.238,1.238,0,0,1,.17-1.393,1.216,1.216,0,0,1,1.341-.145C722.057,315.193,723.145,315.518,724.274,315.859Zm2.085-12.074a1.087,1.087,0,0,0-.045.184c0,4.035,0,8.069-.014,12.1,0,.351.155.446.455.532,1.2.342,2.38.725,3.574,1.072.519.151.929.384.966.983.04.635-.377.915-.895,1.119-1.293.509-2.59,1.009-3.868,1.555a1.269,1.269,0,0,0-.606.615c-.569,1.335-1.092,2.69-1.634,4.037a1,1,0,0,1-1.049.714.984.984,0,0,1-.924-.791c-.158-.515-.346-1.024-.465-1.548-.107-.474-.3-.653-.832-.652q-16.971.03-33.942.015H686.4v5.929h45.865V303.784ZM682.392,333.64H736.3V319.686q0-8.83,0-17.66a2,2,0,0,0-1.973-2.252c-2.62-.035-5.241,0-7.861.006-.035,0-.07.039-.118.067v1.885h6.512c1.145,0,1.439.292,1.44,1.428q0,13.572,0,27.145c0,.125,0,.25,0,.374a.961.961,0,0,1-.957,1.015c-.227.022-.457.017-.686.017H686.038c-.166,0-.333,0-.5,0-.833-.032-1.163-.364-1.164-1.2q-.006-3.026,0-6.053v-.693h-1.981Zm41.891-41.924v-5.9H696.4v5.9Zm-29.944-5.887H680.417V291.7H694.34Zm32.9,33.03-5.411-1.62,1.625,5.4c.325-.8.59-1.407.814-2.028a1.434,1.434,0,0,1,.922-.93C725.83,319.449,726.455,319.175,727.238,318.858Z" transform="translate(-678.381 -283.758)" fill="#12263f"/>
        <path id="Trazado_612204" data-name="Trazado 612204" d="M1079.944,725.265h-1.9v-1.953h1.9Z" transform="translate(-1028.07 -668.345)" fill="#12263f"/>
        <path id="Trazado_612205" data-name="Trazado 612205" d="M1109.8,725.227v-1.934h1.928v1.934Z" transform="translate(-1055.854 -668.329)" fill="#12263f"/>
        <path id="Trazado_612206" data-name="Trazado 612206" d="M721.779,395.577q-4.993,0-9.985,0c-1.211,0-1.464-.256-1.464-1.46q0-6.615,0-13.23c0-.972.335-1.308,1.308-1.308q10.172,0,20.344,0c.973,0,1.309.337,1.309,1.308q0,6.708,0,13.417c0,.939-.32,1.269-1.278,1.271Q726.9,395.585,721.779,395.577Zm9.481-4.441v-9.493H717.335a5.054,5.054,0,0,1-4.957,4.957v5.5c1.357-1.362,2.632-2.644,3.91-3.923.83-.831,1.233-.83,2.078.016.64.642,1.271,1.294,1.932,1.968,1.383-1.385,2.688-2.693,4-4,.807-.806,1.224-.805,2.033.007C727.939,387.792,729.548,389.414,731.259,391.136Zm-.733,2.421-5.284-5.284-3.418,3.412c.534.522,1.106,1.1,1.7,1.648a.789.789,0,0,0,.478.215C726.22,393.561,728.442,393.557,730.526,393.557Zm-9.869,0-3.283-3.284-3.287,3.284h6.57Zm-8.3-9.017a2.885,2.885,0,0,0,2.914-2.9h-2.914Z" transform="translate(-706.334 -367.595)" fill="#12263f"/>
        <path id="Trazado_612207" data-name="Trazado 612207" d="M728.263,523.308H744.8c1.142,0,1.433.292,1.433,1.434s.005,2.288,0,3.432a1,1,0,0,1-1.091,1.143c-.166.009-.333,0-.5,0H711.879c-.208,0-.417,0-.623-.015a.943.943,0,0,1-.96-1.009q-.021-1.966,0-3.931c.008-.711.425-1.056,1.243-1.057q4.587,0,9.174,0ZM712.3,527.261h31.9v-1.888H712.3Z" transform="translate(-706.295 -493.352)" fill="#12263f"/>
        <path id="Trazado_612208" data-name="Trazado 612208" d="M917.407,387.585c-2.038,0-4.077,0-6.116,0-1.038,0-1.338-.309-1.339-1.335q0-2.715,0-5.429c0-.887.354-1.244,1.246-1.244q6.24,0,12.481,0c.891,0,1.244.358,1.245,1.245q0,2.746,0,5.491c0,.939-.32,1.266-1.278,1.27C921.567,387.591,919.487,387.585,917.407,387.585Zm-5.416-5.959v3.89h10.895v-3.89Z" transform="translate(-880.993 -367.591)" fill="#12263f"/>
        <path id="Trazado_612209" data-name="Trazado 612209" d="M925.15,461.651H910.265V459.7H925.15Z" transform="translate(-881.268 -437.694)" fill="#12263f"/>
        <path id="Trazado_612210" data-name="Trazado 612210" d="M925.245,491.719v1.935H910.35v-1.935Z" transform="translate(-881.342 -465.713)" fill="#12263f"/>
        <path id="Trazado_612211" data-name="Trazado 612211" d="M838.33,317.894V315.96h23.881v1.934Z" transform="translate(-818.328 -311.933)" fill="#12263f"/>
        <path id="Trazado_612212" data-name="Trazado 612212" d="M712.588,316.016v1.943h-1.917v-1.943Z" transform="translate(-706.633 -311.982)" fill="#12263f"/>
        <path id="Trazado_612213" data-name="Trazado 612213" d="M742.537,315.935h1.915v1.941h-1.915Z" transform="translate(-734.514 -311.911)" fill="#12263f"/>
        <path id="Trazado_612214" data-name="Trazado 612214" d="M776.417,317.925h-1.906v-1.954h1.906Z" transform="translate(-762.49 -311.943)" fill="#12263f"/>
      </g>
    </g>
  </g>
</svg>
