<svg xmlns="http://www.w3.org/2000/svg" width="64.515" height="27.027" viewBox="0 0 64.515 27.027">
  <path id="Trazado_618674" data-name="Trazado 618674" d="M23.757,0h-5.42V-11.273H7.769V0H2.349V-26.3h5.42v10.659H18.337V-26.3h5.42ZM40.613,0H35.392V-20.126l-6.233,1.933v-4.246l10.894-3.9h.56ZM66.3-19.313a6.118,6.118,0,0,1-.958,3.4,6.892,6.892,0,0,1-2.638,2.367,7.628,7.628,0,0,1,3.035,2.538,6.511,6.511,0,0,1,1.12,3.8,6.9,6.9,0,0,1-2.385,5.537A9.674,9.674,0,0,1,57.993.361a9.717,9.717,0,0,1-6.5-2.042,6.878,6.878,0,0,1-2.4-5.528,6.553,6.553,0,0,1,1.12-3.812,7.49,7.49,0,0,1,3.017-2.529,6.821,6.821,0,0,1-2.629-2.367,6.162,6.162,0,0,1-.948-3.4,6.818,6.818,0,0,1,2.24-5.357,8.82,8.82,0,0,1,6.088-2,8.879,8.879,0,0,1,6.079,1.978A6.792,6.792,0,0,1,66.3-19.313ZM61.625-7.588a3.788,3.788,0,0,0-.994-2.746,3.543,3.543,0,0,0-2.674-1.03A3.536,3.536,0,0,0,55.3-10.343a3.781,3.781,0,0,0-.994,2.755,3.778,3.778,0,0,0,.976,2.71,3.553,3.553,0,0,0,2.71,1.03,3.545,3.545,0,0,0,2.665-.994A3.772,3.772,0,0,0,61.625-7.588ZM61.083-19.06a3.614,3.614,0,0,0-.813-2.466,2.885,2.885,0,0,0-2.294-.93,2.905,2.905,0,0,0-2.276.9,3.592,3.592,0,0,0-.813,2.493,3.775,3.775,0,0,0,.813,2.529,2.845,2.845,0,0,0,2.294.958,2.818,2.818,0,0,0,2.285-.958A3.8,3.8,0,0,0,61.083-19.06Z" transform="translate(-2.349 26.666)" fill="#ccc"/>
</svg>
