<svg xmlns="http://www.w3.org/2000/svg" width="64.443" height="27.027" viewBox="0 0 64.443 27.027">
  <path id="Trazado_618669" data-name="Trazado 618669" d="M23.757,0h-5.42V-11.273H7.769V0H2.349V-26.3h5.42v10.659H18.337V-26.3h5.42ZM40.613,0H35.392V-20.126l-6.233,1.933v-4.246l10.894-3.9h.56ZM54.47-15.465h2.782a3.92,3.92,0,0,0,2.945-.994,3.641,3.641,0,0,0,.958-2.638,3.219,3.219,0,0,0-.948-2.475,3.676,3.676,0,0,0-2.611-.885,3.853,3.853,0,0,0-2.511.822,2.628,2.628,0,0,0-1.012,2.141H48.852a6.421,6.421,0,0,1,1.111-3.695,7.4,7.4,0,0,1,3.107-2.556,10.371,10.371,0,0,1,4.4-.921,9.835,9.835,0,0,1,6.54,2,6.811,6.811,0,0,1,2.367,5.5,5.535,5.535,0,0,1-1.1,3.324,7.16,7.16,0,0,1-2.891,2.331A6.536,6.536,0,0,1,65.7-11.129a6.469,6.469,0,0,1,1.093,3.758,6.924,6.924,0,0,1-2.556,5.619A10.279,10.279,0,0,1,57.469.361a9.746,9.746,0,0,1-6.441-2.078,6.785,6.785,0,0,1-2.5-5.492h5.221a3.025,3.025,0,0,0,1.111,2.421,4.094,4.094,0,0,0,2.737.939,4.114,4.114,0,0,0,2.918-.985A3.4,3.4,0,0,0,61.57-7.443q0-3.938-4.336-3.938H54.47Z" transform="translate(-2.349 26.666)" fill="#ccc"/>
</svg>
