<svg xmlns="http://www.w3.org/2000/svg" width="64.316" height="26.919" viewBox="0 0 64.316 26.919">
  <path id="Trazado_618675" data-name="Trazado 618675" d="M23.757,0h-5.42V-11.273H7.769V0H2.349V-26.3h5.42v10.659H18.337V-26.3h5.42ZM40.613,0H35.392V-20.126l-6.233,1.933v-4.246l10.894-3.9h.56ZM61.372-10.515A6.593,6.593,0,0,1,56.6-8.509,7.051,7.051,0,0,1,51.02-10.9a9.46,9.46,0,0,1-2.1-6.459A10.076,10.076,0,0,1,50.053-22.1a8.283,8.283,0,0,1,3.153-3.36,8.747,8.747,0,0,1,4.553-1.2,8.365,8.365,0,0,1,4.625,1.3,8.552,8.552,0,0,1,3.144,3.74,13.427,13.427,0,0,1,1.138,5.583v1.933q0,6.576-3.27,10.334T54.127.235L52.844.253V-4.1L54-4.119Q60.812-4.426,61.372-10.515ZM57.885-12.5a3.652,3.652,0,0,0,2.177-.65,4.345,4.345,0,0,0,1.382-1.572v-2.15a7.179,7.179,0,0,0-1.012-4.119,3.14,3.14,0,0,0-2.71-1.463,3.048,3.048,0,0,0-2.583,1.436,6.107,6.107,0,0,0-1.012,3.6,5.943,5.943,0,0,0,.985,3.532A3.207,3.207,0,0,0,57.885-12.5Z" transform="translate(-2.349 26.666)" fill="#ccc"/>
</svg>
