<svg xmlns="http://www.w3.org/2000/svg" width="110.376" height="110.403" viewBox="0 0 110.376 110.403">
  <g id="s52dgn" transform="translate(500.829 -320.179)">
    <g id="Grupo_899967" data-name="Grupo 899967" transform="translate(-500.829 320.178)">
      <path id="Trazado_618624" data-name="Trazado 618624" d="M-401.077,398.523v10.694c.6,0,1.15-.018,1.7,0a1.672,1.672,0,0,1,1.794,1.712q.034,8.958,0,17.917a1.67,1.67,0,0,1-1.676,1.719c-.332.025-.667.008-1,.008h-94.351c-2.224,0-2.65-.426-2.65-2.655q0-6.9,0-13.8v-1.355c-.646,0-1.226.023-1.8,0A1.675,1.675,0,0,1-500.814,411q-.028-8.9,0-17.806a1.688,1.688,0,0,1,1.837-1.783c.516-.018,1.034,0,1.714,0v-1.221q0-7.067,0-14.133c0-1.94.5-2.453,2.4-2.454,3.3,0,6.6,0,10.058,0v-1.222c0-4.6-.02-9.2.019-13.8a1.646,1.646,0,0,0-.932-1.645c-5.826-3.586-8.531-8.888-7.892-15.646a15.785,15.785,0,0,1,11.511-13.82c1.653-.47,2.619.23,2.623,1.935.01,3.932-.01,7.864.011,11.8.009,1.664,1.443,2.7,2.6,1.815a2.83,2.83,0,0,0,.917-1.963c.086-3.819.039-7.641.043-11.462,0-1.941.93-2.671,2.762-2.07,6.694,2.2,10.614,6.881,11.357,13.807.724,6.751-2.092,12.045-7.9,15.64a1.562,1.562,0,0,0-.907,1.54c.037,4.97.019,9.94.019,15h16.031v-1.25q0-24.817,0-49.634c0-1.936.5-2.447,2.411-2.447h59.3c1.842,0,2.369.53,2.369,2.379q0,36.781,0,73.561c0,1.9-.52,2.4-2.457,2.4C-395.61,398.524-398.309,398.523-401.077,398.523Zm6.993-3.6v-71.1h-46.157v71.1Zm-74.651,32.026H-411.9V412.827h-56.838Zm-3.535-31.931V409.13h56.845V398.523h-36.4c-.334,0-.669.016-1-.007a1.7,1.7,0,0,1-1.7-1.7c-.033-.581-.006-1.165-.006-1.8Zm28.337-.1v-71.1h-6.991v71.1Zm-30.186-21.374V372.3c0-4.971.057-9.942-.033-14.911a3.005,3.005,0,0,1,1.936-3.178,11.858,11.858,0,0,0,6.941-10.725,12.186,12.186,0,0,0-5.948-11.232c-.317-.206-.671-.354-1.125-.59,0,3.467.017,6.73-.006,9.993a5.347,5.347,0,0,1-4.48,5.191,5.366,5.366,0,0,1-5.922-3.634,6.922,6.922,0,0,1-.253-1.967c-.025-3.138-.011-6.276-.011-9.585-.5.267-.862.427-1.189.642a12.148,12.148,0,0,0-5.881,11.263,11.948,11.948,0,0,0,7.1,10.741,2.7,2.7,0,0,1,1.769,2.827c-.075,5.081-.029,10.163-.029,15.245v1.167Zm-5.421,17.813V377.244h-14.111v14.115Zm24.925,0V377.243h-14.112v14.115Zm-42.61,17.8h14.137v-14.12h-14.137Zm17.684,17.815V412.858h-14.111v14.115Zm71.335-.03h6.991V412.829h-6.991Zm3.44-17.778V398.612h-6.992v10.553Zm-67.653-17.807V377.245h-3.43v14.114Zm-3.5,3.7h-3.471v14.074h3.471Zm3.5,31.918V412.859h-3.43v14.114Z" transform="translate(500.829 -320.178)"/>
      <path id="Trazado_618625" data-name="Trazado 618625" d="M-182.89,407.62h-46.157v-71.1h46.157Zm-33.76-44.643a6.314,6.314,0,0,0-1.3.742q-2.633,2.556-5.2,5.185a1.765,1.765,0,0,0,.01,2.744c.66.7,1.4,1.33,2.012,2.072a1.432,1.432,0,0,1,.261,1.2,1.522,1.522,0,0,1-1.018.67,8.964,8.964,0,0,1-1.662.03,1.755,1.755,0,0,0-1.991,1.97c-.016,1.668.023,3.337-.01,5.005-.062,3.114-.119,3.892,3.611,3.7.511-.026.882.025,1.121.622a1.042,1.042,0,0,1-.321,1.347c-.681.628-1.328,1.293-1.966,1.965a1.779,1.779,0,0,0-.006,2.822q2.488,2.544,5.033,5.033a1.827,1.827,0,0,0,2.913-.04c.642-.615,1.277-1.24,1.883-1.891a1.052,1.052,0,0,1,1.341-.348c.669.258.656.691.642,1.221-.013.482-.008.964,0,1.446.019,1.46.629,2.062,2.117,2.07,1.594.008,3.188-.019,4.782.006,3.108.049,3.96.229,3.805-3.65a1.316,1.316,0,0,1,.654-1.018,1.411,1.411,0,0,1,1.2.235c.743.607,1.371,1.351,2.071,2.013a1.762,1.762,0,0,0,2.744.033q2.629-2.56,5.189-5.191a1.748,1.748,0,0,0-.007-2.667c-.655-.706-1.339-1.388-2.045-2.043a1.045,1.045,0,0,1-.328-1.348c.242-.6.618-.635,1.127-.62.63.019,1.262.03,1.89,0a1.66,1.66,0,0,0,1.7-1.687q.054-3.614,0-7.229a1.675,1.675,0,0,0-1.762-1.744,17.129,17.129,0,0,1-2-.037,1.336,1.336,0,0,1-.9-.672,1.311,1.311,0,0,1,.185-1.118c.64-.764,1.408-1.42,2.092-2.15a1.767,1.767,0,0,0,0-2.746q-2.523-2.588-5.111-5.112a1.808,1.808,0,0,0-2.832.05c-.644.614-1.267,1.249-1.888,1.886-.373.383-.674.672-1.327.4a.99.99,0,0,1-.691-1.186c.021-.258,0-.519,0-.778,0-2.4-.38-2.791-2.735-2.791-1.446,0-2.892.028-4.337-.006-3.05-.072-3.77-.054-3.632,3.6a1.673,1.673,0,0,1-.6,1.085c-.474.423-.916.192-1.323-.256a23.439,23.439,0,0,0-1.97-1.959A9.387,9.387,0,0,0-216.65,362.977ZM-205.9,340q-8.67,0-17.341,0c-1.753,0-2.294.553-2.295,2.336q0,6.615,0,13.231c0,1.635.578,2.23,2.178,2.23q17.4,0,34.793,0c1.6,0,2.184-.6,2.185-2.225q.006-6.56,0-13.12c0-1.935-.506-2.452-2.4-2.452Q-197.342,340-205.9,340Z" transform="translate(289.634 -332.879)" fill="#b2ebf2"/>
      <path id="Trazado_618626" data-name="Trazado 618626" d="M-356.864,749.9V735.78h56.838V749.9Z" transform="translate(388.957 -643.132)" fill="#e8e8e8"/>
      <path id="Trazado_618627" data-name="Trazado 618627" d="M-372.723,655.881h17.738c0,.634-.027,1.219.006,1.8a1.7,1.7,0,0,0,1.7,1.7c.332.023.667.007,1,.007h36.4V670h-56.845Z" transform="translate(401.281 -581.044)" fill="#e8e8e8"/>
      <path id="Trazado_618628" data-name="Trazado 618628" d="M-269.976,407.623h-6.991v-71.1h6.991Z" transform="translate(326.871 -332.882)" fill="#636363"/>
      <path id="Trazado_618629" data-name="Trazado 618629" d="M-436.751,413.571h-7.13V412.4c0-5.082-.046-10.164.029-15.245a2.705,2.705,0,0,0-1.769-2.827,11.948,11.948,0,0,1-7.1-10.741,12.148,12.148,0,0,1,5.881-11.263c.327-.215.69-.375,1.189-.642,0,3.308-.014,6.447.011,9.585a6.922,6.922,0,0,0,.253,1.967,5.367,5.367,0,0,0,5.922,3.634,5.347,5.347,0,0,0,4.48-5.191c.023-3.263.006-6.526.006-9.993.454.236.808.384,1.125.59a12.186,12.186,0,0,1,5.948,11.232,11.858,11.858,0,0,1-6.941,10.725,3.005,3.005,0,0,0-1.936,3.178c.09,4.969.033,9.94.033,14.911Z" transform="translate(463.46 -360.204)" fill="#b2ebf2"/>
      <path id="Trazado_618630" data-name="Trazado 618630" d="M-454.523,590.277h-14.111V576.162h14.111Z" transform="translate(475.811 -519.097)" fill="#e8e8e8"/>
      <path id="Trazado_618631" data-name="Trazado 618631" d="M-342.718,590.274H-356.83V576.159h14.112Z" transform="translate(388.931 -519.094)" fill="#e8e8e8"/>
      <path id="Trazado_618632" data-name="Trazado 618632" d="M-484.664,670.105v-14.12h14.137v14.12Z" transform="translate(488.267 -581.125)" fill="#e8e8e8"/>
      <path id="Trazado_618633" data-name="Trazado 618633" d="M-454.523,750.038h-14.111V735.923h14.111Z" transform="translate(475.811 -643.243)" fill="#e8e8e8"/>
      <path id="Trazado_618634" data-name="Trazado 618634" d="M-85.342,749.9V735.79h6.991V749.9Z" transform="translate(177.965 -643.14)" fill="#fff"/>
      <path id="Trazado_618635" data-name="Trazado 618635" d="M-94.28,682.569h-6.992V672.016h6.992Z" transform="translate(190.343 -593.583)" fill="#fff"/>
      <path id="Trazado_618636" data-name="Trazado 618636" d="M-385.344,590.28h-3.43V576.166h3.43Z" transform="translate(413.754 -519.1)" fill="#fff"/>
      <path id="Trazado_618637" data-name="Trazado 618637" d="M-401.207,656.062v14.074h-3.47V656.062Z" transform="translate(426.112 -581.185)" fill="#fff"/>
      <path id="Trazado_618638" data-name="Trazado 618638" d="M-385.344,750.04h-3.43V735.926h3.43Z" transform="translate(413.754 -643.245)" fill="#fff"/>
      <path id="Trazado_618639" data-name="Trazado 618639" d="M-204.494,449.518a9.384,9.384,0,0,1,1.43.854,23.437,23.437,0,0,1,1.97,1.959c.407.448.849.679,1.323.256a1.673,1.673,0,0,0,.6-1.085c-.138-3.65.581-3.668,3.632-3.6,1.445.034,2.891.006,4.337.006,2.355,0,2.734.388,2.735,2.791,0,.259.017.52,0,.778a.99.99,0,0,0,.691,1.186c.653.269.954-.02,1.327-.4.621-.637,1.244-1.273,1.888-1.886a1.808,1.808,0,0,1,2.832-.05q2.588,2.522,5.111,5.112a1.767,1.767,0,0,1,0,2.746c-.684.73-1.452,1.385-2.092,2.15a1.311,1.311,0,0,0-.185,1.118,1.336,1.336,0,0,0,.9.672,17.135,17.135,0,0,0,2,.037,1.675,1.675,0,0,1,1.762,1.744q.046,3.614,0,7.229a1.66,1.66,0,0,1-1.7,1.687c-.628.034-1.26.024-1.89,0-.508-.015-.885.023-1.127.62a1.045,1.045,0,0,0,.328,1.348c.706.655,1.39,1.337,2.045,2.043a1.748,1.748,0,0,1,.007,2.667q-2.557,2.632-5.189,5.191a1.762,1.762,0,0,1-2.744-.033c-.7-.662-1.329-1.406-2.071-2.013a1.411,1.411,0,0,0-1.2-.235,1.316,1.316,0,0,0-.654,1.018c.154,3.879-.7,3.7-3.805,3.65-1.593-.025-3.188,0-4.782-.006-1.488-.008-2.1-.611-2.117-2.07-.006-.482-.011-.964,0-1.446.014-.53.028-.963-.642-1.221a1.052,1.052,0,0,0-1.341.348c-.606.65-1.241,1.276-1.883,1.891a1.827,1.827,0,0,1-2.913.04q-2.542-2.49-5.033-5.033a1.78,1.78,0,0,1,.006-2.823c.638-.672,1.285-1.337,1.966-1.965a1.042,1.042,0,0,0,.321-1.347c-.239-.6-.61-.648-1.121-.621-3.73.194-3.672-.583-3.611-3.7.033-1.668-.006-3.337.01-5.005a1.755,1.755,0,0,1,1.991-1.97,8.961,8.961,0,0,0,1.662-.03,1.522,1.522,0,0,0,1.018-.67,1.432,1.432,0,0,0-.261-1.2c-.608-.742-1.352-1.37-2.012-2.072a1.765,1.765,0,0,1-.01-2.744q2.563-2.627,5.2-5.185A6.313,6.313,0,0,1-204.494,449.518Zm24.062,7.589-2.818-3.129c-.724.781-1.4,1.519-2.081,2.243a1.922,1.922,0,0,1-2.423.415c-.939-.43-1.9-.81-2.876-1.158a1.826,1.826,0,0,1-1.39-1.9c.012-.688,0-1.377,0-2.026h-3.569c0,.648,0,1.2,0,1.759-.009,1.379-.33,1.776-1.665,2.246a21.967,21.967,0,0,0-2.457,1.011,2.045,2.045,0,0,1-2.7-.475c-.642-.705-1.313-1.384-1.96-2.063l-2.875,2.846c.748.736,1.486,1.455,2.215,2.182a1.92,1.92,0,0,1,.388,2.339c-.431.979-.815,1.98-1.195,2.981a1.8,1.8,0,0,1-1.831,1.329c-.693-.007-1.385,0-2.089,0v3.57c.589,0,1.1,0,1.617,0,1.555,0,1.939.294,2.427,1.724a20.388,20.388,0,0,0,.855,2.164c.71,1.5.676,1.951-.555,3.122-.634.6-1.368,1.1-1.841,1.476l2.9,3.233c.752-.805,1.447-1.573,2.17-2.315a1.843,1.843,0,0,1,2.24-.376c.983.424,1.971.84,2.977,1.2a1.831,1.831,0,0,1,1.382,1.9c-.012.687,0,1.375,0,2.055h3.57c0-.637.028-1.222-.006-1.8a1.947,1.947,0,0,1,1.569-2.212,16.339,16.339,0,0,0,2.562-1.044,2.04,2.04,0,0,1,2.694.481c.643.7,1.317,1.381,1.907,2l2.929-2.8c-.74-.725-1.478-1.443-2.211-2.166a1.9,1.9,0,0,1-.4-2.334c.433-.978.819-1.979,1.2-2.981a1.8,1.8,0,0,1,1.826-1.333c.693.007,1.387,0,2.1,0v-3.571c-.622,0-1.173,0-1.724,0-1.441-.007-1.838-.324-2.322-1.717a19.024,19.024,0,0,0-.966-2.356,2.017,2.017,0,0,1,.414-2.7C-181.731,458.295-181.025,457.646-180.432,457.107Z" transform="translate(277.478 -419.419)"/>
      <path id="Trazado_618640" data-name="Trazado 618640" d="M-193.675,352.129q8.559,0,17.119,0c1.9,0,2.4.517,2.4,2.452q0,6.56,0,13.12c0,1.629-.583,2.225-2.185,2.225q-17.4,0-34.793,0c-1.6,0-2.177-.595-2.178-2.23q-.005-6.616,0-13.231c0-1.783.542-2.335,2.295-2.336Q-202.346,352.127-193.675,352.129Zm15.92,3.633h-31.914v10.553h31.914Z" transform="translate(277.407 -345.006)"/>
      <path id="Trazado_618641" data-name="Trazado 618641" d="M-167.713,469.89c-.592.538-1.3,1.188-2.014,1.828a2.017,2.017,0,0,0-.414,2.7,19.024,19.024,0,0,1,.966,2.356c.484,1.393.881,1.71,2.322,1.717.551,0,1.1,0,1.724,0v3.571c-.713,0-1.406.006-2.1,0a1.8,1.8,0,0,0-1.826,1.333c-.377,1-.763,2-1.2,2.981a1.9,1.9,0,0,0,.4,2.334c.733.723,1.471,1.441,2.211,2.166l-2.929,2.8c-.591-.616-1.264-1.292-1.907-2a2.04,2.04,0,0,0-2.694-.481,16.338,16.338,0,0,1-2.562,1.044,1.947,1.947,0,0,0-1.569,2.212c.034.581.006,1.166.006,1.8h-3.569c0-.68-.01-1.368,0-2.055a1.831,1.831,0,0,0-1.382-1.9c-1.006-.365-1.994-.78-2.977-1.2a1.843,1.843,0,0,0-2.24.376c-.722.742-1.417,1.51-2.17,2.315l-2.9-3.233c.473-.375,1.207-.873,1.841-1.476,1.231-1.17,1.265-1.624.555-3.122a20.384,20.384,0,0,1-.855-2.164c-.487-1.43-.872-1.721-2.427-1.724-.514,0-1.029,0-1.617,0v-3.57c.7,0,1.4-.006,2.089,0a1.8,1.8,0,0,0,1.831-1.329c.379-1,.764-2,1.195-2.981a1.92,1.92,0,0,0-.388-2.339c-.729-.727-1.467-1.446-2.215-2.182l2.875-2.846c.647.679,1.318,1.358,1.96,2.063a2.045,2.045,0,0,0,2.7.475,21.977,21.977,0,0,1,2.457-1.011c1.335-.47,1.656-.867,1.665-2.246,0-.556,0-1.111,0-1.759h3.569c0,.649.01,1.338,0,2.026a1.826,1.826,0,0,0,1.39,1.9c.973.349,1.937.728,2.876,1.158a1.922,1.922,0,0,0,2.423-.415c.686-.724,1.358-1.462,2.081-2.243Zm-13.354,19.287a8.865,8.865,0,0,0,8.88-8.917,8.86,8.86,0,0,0-8.914-8.881,8.86,8.86,0,0,0-8.88,8.914A8.867,8.867,0,0,0-181.067,489.177Z" transform="translate(264.759 -432.202)" fill="#fb8c00"/>
      <path id="Trazado_618643" data-name="Trazado 618643" d="M-156.474,513.717a8.867,8.867,0,0,1-8.913-8.883,8.86,8.86,0,0,1,8.88-8.914,8.86,8.86,0,0,1,8.914,8.881A8.865,8.865,0,0,1-156.474,513.717Zm-.061-3.559a5.425,5.425,0,0,0,5.382-5.27,5.422,5.422,0,0,0-5.24-5.411,5.425,5.425,0,0,0-5.438,5.323A5.426,5.426,0,0,0-156.534,510.158Z" transform="translate(240.165 -456.742)"/>
      <path id="Trazado_618644" data-name="Trazado 618644" d="M-144.133,522.558a5.426,5.426,0,0,1-5.295-5.357,5.425,5.425,0,0,1,5.438-5.323,5.422,5.422,0,0,1,5.24,5.411A5.424,5.424,0,0,1-144.133,522.558Z" transform="translate(227.764 -469.142)" fill="#fff"/>
    </g>
  </g>
</svg>
