<svg xmlns="http://www.w3.org/2000/svg" xmlns:xlink="http://www.w3.org/1999/xlink" width="108.419" height="108.419" viewBox="0 0 108.419 108.419">
  <defs>
    <linearGradient id="linear-gradient" x1="0.5" x2="0.5" y2="1" gradientUnits="objectBoundingBox">
      <stop offset="0" stop-color="#fdbe41"/>
      <stop offset="1" stop-color="#d09f40"/>
    </linearGradient>
  </defs>
  <g id="Grupo_900000" data-name="Grupo 900000" transform="translate(-1214.255 -1584.125)">
    <path id="Trazado_197541" data-name="Trazado 197541" d="M54.209,0A54.209,54.209,0,1,1,0,54.209,54.209,54.209,0,0,1,54.209,0Z" transform="translate(1214.255 1584.125)" fill="url(#linear-gradient)"/>
    <g id="Grupo_897522" data-name="Grupo 897522" transform="translate(1233 1609.693)">
      <path id="Trazado_617738" data-name="Trazado 617738" d="M118.485,2117.224a5.715,5.715,0,0,1-1.818,2.983,4.892,4.892,0,0,1-3.1,1.113q-28.9,0-57.808,0a4.9,4.9,0,0,1-4.935-4.958q-.007-21.739,0-43.479a4.9,4.9,0,0,1,5-4.957q28.772-.005,57.543,0a4.905,4.905,0,0,1,5,3.867,1.165,1.165,0,0,0,.119.228Zm-65.669-37.5h1q27.127,0,54.254,0a4.315,4.315,0,0,1,.853.052.916.916,0,0,1,.777.938.9.9,0,0,1-.737.966,4.182,4.182,0,0,1-.915.077q-27.16.005-54.319,0H52.8v.757q0,16.722,0,33.443a3.055,3.055,0,0,0,3.4,3.376h56.9a3.057,3.057,0,0,0,3.406-3.375q0-16.722,0-33.444v-.758c-.429,0-.777,0-1.125,0-.683,0-1.367.02-2.048-.02a.966.966,0,0,1-.993-.959.921.921,0,0,1,.774-1.005,3.325,3.325,0,0,1,.721-.052c.872-.006,1.745,0,2.671,0,0-2.154,0-4.22,0-6.287,0-2.41-1.141-3.541-3.57-3.541H56.368c-.2,0-.4,0-.595,0a2.883,2.883,0,0,0-2.931,2.679C52.74,2074.928,52.816,2077.284,52.816,2079.726Z" transform="translate(-50.817 -2067.92)" fill="#12263f"/>
      <path id="Trazado_617739" data-name="Trazado 617739" d="M137.782,2220.922c0,2.093.064,4.188-.015,6.278-.128,3.391,1.5,5.695,4.341,7.267a9.079,9.079,0,0,0,11.353-2.626,7.067,7.067,0,0,0,1.261-4.226q0-7.17,0-14.34c0-.088,0-.177-.006-.265-.056-.694-.42-1.056-1.031-1.027-.575.027-.9.4-.907,1.07-.01,1.454,0,2.907,0,4.361q0,4.923,0,9.846a6.134,6.134,0,0,1-5.518,6.178,6.923,6.923,0,0,1-5.73-1.753,4.92,4.92,0,0,1-1.793-3.818c-.018-2.247-.009-4.494,0-6.741,0-.756.384-1.231.979-1.256.621-.026,1.03.449,1.034,1.257.01,2.092,0,4.185.005,6.278a4.125,4.125,0,0,0,3.792,4.061,5.366,5.366,0,0,0,3.005-.555,3.764,3.764,0,0,0,2.236-3.7c-.068-4.647-.026-9.3-.021-13.943a3.041,3.041,0,0,1,2.2-3.215,2.963,2.963,0,0,1,3.763,2.815c.041,5.11.108,10.223-.023,15.33-.1,3.98-2.431,6.578-5.884,8.244a10.81,10.81,0,0,1-13.381-3.413,8.606,8.606,0,0,1-1.662-5.125q-.034-7.434,0-14.868a2.983,2.983,0,1,1,5.963-.133c.045,1.078.028,2.159.006,3.238a1.013,1.013,0,0,1-.977,1.11,1.047,1.047,0,0,1-1.028-1.138c-.017-.991,0-1.983-.007-2.974-.005-.767-.33-1.151-.956-1.156s-.978.376-.981,1.142C137.775,2215.723,137.782,2218.323,137.782,2220.922Z" transform="translate(-124.51 -2191.133)" fill="#12263f"/>
      <path id="Trazado_617740" data-name="Trazado 617740" d="M316.423,2223.062c-1.9-2.709-3.794-5.412-5.7-8.1a3.036,3.036,0,0,1-.555-2.678,2.978,2.978,0,0,1,5.287-.963c1.392,1.927,2.744,3.882,4.112,5.826.152.215.305.429.5.7.138-.174.262-.314.37-.466,1.422-2.013,2.834-4.034,4.266-6.04a2.833,2.833,0,0,1,2.812-1.233,2.8,2.8,0,0,1,2.425,1.965,2.923,2.923,0,0,1-.436,2.81c-1.791,2.534-3.559,5.085-5.375,7.6a.836.836,0,0,0,.02,1.2c.449.569.851,1.177,1.259,1.778a1.02,1.02,0,0,1-.144,1.516.99.99,0,0,1-1.475-.347c-.568-.784-1.12-1.58-1.673-2.375a1.767,1.767,0,0,1,0-2.359q2.735-3.888,5.477-7.771c.614-.871.651-1.466.118-1.849s-1.1-.17-1.7.693q-2.206,3.131-4.415,6.259a1.682,1.682,0,0,1-3.015,0c-1.5-2.118-2.99-4.247-4.486-6.369a2.694,2.694,0,0,0-.412-.512.907.907,0,0,0-1.21-.052.866.866,0,0,0-.305,1.164,4.3,4.3,0,0,0,.35.557q2.75,3.918,5.5,7.834a1.742,1.742,0,0,1,0,2.46q-3.362,4.779-6.733,9.553c-.306.433-.491.918-.1,1.315a1.417,1.417,0,0,0,1.036.333c.26-.028.536-.353.718-.609,1.864-2.617,3.709-5.248,5.56-7.874.981-1.392,2.186-1.387,3.173.015q2.679,3.807,5.352,7.617c.1.144.2.29.308.43a1.019,1.019,0,0,0,1.435.322,1,1,0,0,0,.147-1.466c-.7-1.015-1.414-2.019-2.121-3.027a5.059,5.059,0,0,1-.3-.437.962.962,0,0,1,.28-1.34.884.884,0,0,1,1.3.17,49.156,49.156,0,0,1,2.81,4.071,2.872,2.872,0,0,1-1.137,3.794,2.956,2.956,0,0,1-3.986-.841c-1.427-1.982-2.815-3.993-4.221-5.99-.467-.664-.938-1.325-1.448-2.046-.155.2-.287.359-.406.526-1.778,2.517-3.541,5.044-5.336,7.548a2.976,2.976,0,0,1-5.243-.869,2.985,2.985,0,0,1,.5-2.747q3.15-4.443,6.276-8.9C316.06,2223.593,316.232,2223.339,316.423,2223.062Z" transform="translate(-274.786 -2191.253)" fill="#12263f"/>
      <path id="Trazado_617741" data-name="Trazado 617741" d="M292.393,2097.173q6.834,0,13.669,0a3.008,3.008,0,0,1,3.177,2.794,2.953,2.953,0,0,1-2.455,3.118,5.694,5.694,0,0,1-.983.085q-13.405.007-26.81,0a3.125,3.125,0,0,1-3.282-2.128,3,3,0,0,1,3.081-3.872C283.325,2097.166,287.859,2097.173,292.393,2097.173Zm.029,2.039H279.083c-1.051,0-1.485.284-1.48.965s.446.961,1.495.961q13.306,0,26.612,0a5.44,5.44,0,0,0,.659-.021.935.935,0,0,0,.862-.987.909.909,0,0,0-.876-.907c-.219-.017-.44-.01-.66-.01Z" transform="translate(-245.813 -2093.297)" fill="#12263f"/>
      <path id="Trazado_617742" data-name="Trazado 617742" d="M214.64,2100.218a2.992,2.992,0,0,1-2.985,2.977,2.994,2.994,0,0,1,.036-5.988A2.989,2.989,0,0,1,214.64,2100.218Zm-2-.044a.932.932,0,0,0-.986-.927.953.953,0,1,0,.053,1.906A.933.933,0,0,0,212.637,2100.173Z" transform="translate(-187.783 -2093.328)" fill="#12263f"/>
      <path id="Trazado_617743" data-name="Trazado 617743" d="M151.749,2100.188a2.99,2.99,0,0,1-2.955,3.005,2.994,2.994,0,0,1-.021-5.989A2.99,2.99,0,0,1,151.749,2100.188Zm-2.946-.941a.953.953,0,1,0-.034,1.906.953.953,0,1,0,.034-1.906Z" transform="translate(-133.219 -2093.327)" fill="#12263f"/>
      <path id="Trazado_617744" data-name="Trazado 617744" d="M86.987,2100.182a3.011,3.011,0,0,1-2.96,3.012,2.994,2.994,0,0,1-.035-5.988A3.011,3.011,0,0,1,86.987,2100.182Zm-2.023.071a.92.92,0,0,0-.9-1.005.953.953,0,1,0,.9,1.005Z" transform="translate(-77.019 -2093.328)" fill="#12263f"/>
    </g>
  </g>
</svg>
