<svg id="Grupo_179411" data-name="Grupo 179411" xmlns="http://www.w3.org/2000/svg" xmlns:xlink="http://www.w3.org/1999/xlink" width="98.754" height="98.753" viewBox="0 0 98.754 98.753">
  <defs>
    <clipPath id="clip-path">
      <rect id="Rectángulo_52564" data-name="Rectángulo 52564" width="98.754" height="98.753" fill="#12263f"/>
    </clipPath>
    <linearGradient id="linear-gradient" x1="0.5" x2="0.5" y2="1" gradientUnits="objectBoundingBox">
      <stop offset="0" stop-color="#278d7e"/>
      <stop offset="1" stop-color="#4fc1b1"/>
    </linearGradient>
  </defs>
  <g id="Grupo_171273" data-name="Grupo 171273" clip-path="url(#clip-path)">
    <path id="Trazado_212301" data-name="Trazado 212301" d="M105.18,0a2.374,2.374,0,0,1,1.043,2.274c-.05,2.913-.016,5.828-.019,8.743,0,1.635-.51,2.146-2.141,2.146H33.812V32.857H30.542V27.977c-.851,0-1.595.036-2.334-.01s-1.05.225-1.021,1c.047,1.264.013,2.531.013,3.873H23.945c0-1.7-.109-3.416.031-5.106a3.549,3.549,0,0,1,3.5-3.034c.957-.022,1.915,0,3.025,0v-1.13c0-7.1.015-14.195-.017-21.292A2.389,2.389,0,0,1,31.523,0H93.041V3.316H33.846V9.807h68.99V3.245h-6.5V0Z" transform="translate(-18.976)" fill="#12263f"/>
    <path id="Trazado_212302" data-name="Trazado 212302" d="M134.611,0V3.245h6.5V9.807H72.125V3.316H131.32V0ZM75.382,8.16H78.57V5.026H75.382Zm6.632-.012h3.164V4.991H82.014Zm6.536.012h3.188V5.026H88.55Zm49.306-3.144H134.7V8.17h3.157Z" transform="translate(-57.255)" fill="url(#linear-gradient)"/>
    <path id="Trazado_212303" data-name="Trazado 212303" d="M352.142,101.8a2.406,2.406,0,0,1-2.273,1.043c-7.3-.032-14.6-.017-21.9-.018-1.643,0-2.151-.5-2.153-2.132,0-2.16-.032-4.32.017-6.479a1.086,1.086,0,0,0-.853-1.264c-1.49-.5-2.959-1.067-4.421-1.644-1.616-.638-1.819-2.1-.444-3.149,1.661-1.269,3.328-2.531,5.022-3.754a1.477,1.477,0,0,0,.692-1.353c0-3.212.062-3.261,3.271-3.261,6.924,0,13.849.015,20.773-.018a2.4,2.4,0,0,1,2.272,1.042Zm-3.324-18.651h-19.8a3.189,3.189,0,0,1-1.739,3.818c-1.013.619-1.917,1.414-2.954,2.194l2.972,1.129c1.66.632,1.8.834,1.8,2.636q0,3.27,0,6.547h19.723Z" transform="translate(-253.388 -63.321)" fill="#12263f"/>
    <path id="Trazado_212304" data-name="Trazado 212304" d="M58.512,247.36H37.164v-3.284H108.1c1.432,0,1.433,0,1.434-1.387,0-1.679,0-3.358,0-5.121H27.245c0,1.969-.025,3.976.041,5.981.006.185.585.495.9.5,1.841.048,3.683.024,5.574.024v3.216c-2.322,0-4.647.138-6.947-.047a3.361,3.361,0,0,1-2.855-3.311c-.03-5.382-.011-10.764-.011-16.232h3.258v6.443H109.48V207.937h3.341v1.113q0,17.074,0,34.149c0,2.735-1.435,4.16-4.187,4.161H78.164a28.832,28.832,0,0,0,.375,4.391,4.073,4.073,0,0,0,3.317,3.018c.665.154,1.352.222,2.011.4a5.655,5.655,0,0,1,4.264,5.5c.032,2.971-.149,3.156-3.087,3.156H50.9c-1.786,0-2.257-.468-2.26-2.232-.006-4.005,1.566-5.919,5.471-6.659,3.124-.592,4.4-2.131,4.4-5.3,0-.714,0-1.427,0-2.264m3.284,0c0,1.1-.011,2.053,0,3.008a7.544,7.544,0,0,1-1.668,4.851,8.271,8.271,0,0,1-5.739,3.036c-1.52.206-2.179.859-2.342,2.2H84.768a2.394,2.394,0,0,0-2.39-2.2,7.946,7.946,0,0,1-7.415-8.606c.063-.736.009-1.482.009-2.291H61.8Z" transform="translate(-19.009 -165.066)" fill="#12263f"/>
    <path id="Trazado_212305" data-name="Trazado 212305" d="M151.691,113.885a18.1,18.1,0,1,1,18.142,18.136,18.059,18.059,0,0,1-18.142-18.136m19.8-9.771c5.242,1.523,8.169,5.033,8.177,9.755.008,4.812-2.9,8.331-8.176,9.86V128.5c6.474.265,13.146-7.084,13.106-14.524-.049-9.307-7.748-14.47-13.107-14.632Zm-1.738,3.222a6.585,6.585,0,1,0,6.626,6.49,6.659,6.659,0,0,0-6.626-6.49m-14.555,8.275a14.459,14.459,0,0,0,12.9,12.906v-4.81a10.121,10.121,0,0,1-8.091-8.1Zm4.81-3.377a10.118,10.118,0,0,1,8.093-8.1V99.33c-7.205.438-12.861,7.386-12.815,12.9Z" transform="translate(-120.416 -76.065)" fill="#12263f"/>
    <path id="Trazado_212306" data-name="Trazado 212306" d="M128.345,227.572V207.834h3.216c.016.33.045.66.045.989q0,9.926,0,19.853c0,1.633-.51,2.142-2.145,2.143H58.8c-2.735,0-3.039-.335-2.84-3.247Z" transform="translate(-44.38 -164.984)" fill="#12263f"/>
    <path id="Trazado_212307" data-name="Trazado 212307" d="M13.19,175.649q5.552,0,11.1,0c1.492,0,2.03.545,2.033,2.044,0,2.227.024,4.456-.013,6.682a.972.972,0,0,0,.77,1.107c1.517.524,3.019,1.1,4.512,1.687,1.607.637,1.8,2.1.427,3.156C30.364,191.6,28.7,192.86,27,194.081a1.472,1.472,0,0,0-.688,1.353c.006,3.195-.068,3.252-3.284,3.252q-10.435,0-20.871,0c-1.646,0-2.158-.5-2.158-2.126q0-9.407,0-18.815c0-1.572.519-2.092,2.085-2.094q5.552,0,11.1,0m9.822,19.716a4.491,4.491,0,0,0,.026-.706,2.662,2.662,0,0,1,1.4-2.824c1.146-.734,2.191-1.625,3.387-2.527-1.163-.44-2.194-.871-3.251-1.218a2,2,0,0,1-1.547-2.21c.059-2.283.017-4.569.017-6.886H3.351v16.372Z" transform="translate(0 -139.435)" fill="#12263f"/>
    <path id="Trazado_212308" data-name="Trazado 212308" d="M110.391,83.548l-2.463,2.432c-.737-.788-1.441-1.617-2.232-2.351a2.028,2.028,0,0,0-1.233-.51c-2.77-.045-5.54-.023-8.369-.023V79.888a7.477,7.477,0,0,1,.751-.072c2.915-.005,5.83-.041,8.743.028a2.971,2.971,0,0,1,1.713.695c1.064.908,2.016,1.947,3.091,3.01" transform="translate(-76.281 -63.349)" fill="#12263f"/>
    <path id="Trazado_212309" data-name="Trazado 212309" d="M313.359,260.163l2.531-2.4c.7.74,1.411,1.564,2.208,2.294a2.041,2.041,0,0,0,1.235.506c2.769.044,5.538.023,8.363.023v3.21c-.244.024-.5.071-.763.071-2.914.005-5.83.041-8.743-.029a3.007,3.007,0,0,1-1.71-.7c-1.072-.9-2.038-1.924-3.121-2.97" transform="translate(-248.753 -204.616)" fill="#12263f"/>
    <rect id="Rectángulo_52555" data-name="Rectángulo 52555" width="8.091" height="3.161" transform="translate(19.835 23.118)" fill="#12263f"/>
    <rect id="Rectángulo_52556" data-name="Rectángulo 52556" width="8.054" height="3.196" transform="translate(70.858 49.451)" fill="#12263f"/>
    <rect id="Rectángulo_52557" data-name="Rectángulo 52557" width="3.188" height="3.134" transform="translate(18.127 5.026)" fill="#12263f"/>
    <rect id="Rectángulo_52558" data-name="Rectángulo 52558" width="3.164" height="3.157" transform="translate(24.759 4.991)" fill="#12263f"/>
    <rect id="Rectángulo_52559" data-name="Rectángulo 52559" width="3.188" height="3.134" transform="translate(31.295 5.026)" fill="#12263f"/>
    <rect id="Rectángulo_52560" data-name="Rectángulo 52560" width="3.157" height="3.154" transform="translate(77.444 5.016)" fill="#12263f"/>
    <path id="Trazado_212310" data-name="Trazado 212310" d="M368.558,96.147v16.325H348.836q0-3.282,0-6.548c0-1.8-.139-2-1.8-2.636l-2.972-1.129c1.037-.78,1.942-1.576,2.954-2.194a3.189,3.189,0,0,0,1.738-3.818Zm-8.468,7.376c-.677-.75-1.214-1.419-1.83-2.006a1.554,1.554,0,0,0-2.305-.06c-1.668,1.62-3.283,3.294-4.959,4.986l2.432,2.339,3.682-3.891c.71.77,1.286,1.446,1.918,2.065a1.669,1.669,0,0,0,2.8-.189c.983-1.275,1.936-2.573,2.9-3.863.628-.839,1.253-1.68,1.91-2.56l-2.649-1.978-3.895,5.157" transform="translate(-273.129 -76.324)" fill="#b2ebf2"/>
    <path id="Trazado_212311" data-name="Trazado 212311" d="M170.006,399.15h13.175c0,.809.054,1.555-.009,2.291a7.946,7.946,0,0,0,7.415,8.606,2.394,2.394,0,0,1,2.39,2.2H160.26c.162-1.345.822-2,2.342-2.2a8.271,8.271,0,0,0,5.739-3.036,7.544,7.544,0,0,0,1.668-4.851c-.014-.955,0-1.91,0-3.008" transform="translate(-127.219 -316.856)" fill="#d2e1f1"/>
    <path id="Trazado_212312" data-name="Trazado 212312" d="M247.7,117.667v-4.773c5.359.163,13.058,5.326,13.107,14.633.039,7.439-6.633,14.788-13.107,14.524v-4.769c5.281-1.529,8.185-5.048,8.176-9.86-.008-4.722-2.936-8.231-8.177-9.755" transform="translate(-196.634 -89.618)" fill="#d8dbf7"/>
    <path id="Trazado_212313" data-name="Trazado 212313" d="M214.087,151.672a6.585,6.585,0,1,1-6.541,6.574,6.662,6.662,0,0,1,6.541-6.574" transform="translate(-164.756 -120.401)" fill="#12263f"/>
    <path id="Trazado_212314" data-name="Trazado 212314" d="M168.674,191.81h4.811a10.121,10.121,0,0,0,8.091,8.1v4.81a14.459,14.459,0,0,1-12.9-12.906" transform="translate(-133.898 -152.264)" fill="#d8dbf7"/>
    <path id="Trazado_212315" data-name="Trazado 212315" d="M173.822,125.746H169.1c-.046-5.518,5.61-12.466,12.815-12.9v4.806a10.118,10.118,0,0,0-8.093,8.1" transform="translate(-134.237 -89.577)" fill="#d8dbf7"/>
    <path id="Trazado_212316" data-name="Trazado 212316" d="M35.914,208.244H16.252V191.872H35.945c0,2.317.042,4.6-.018,6.886a2,2,0,0,0,1.548,2.211c1.058.347,2.088.778,3.251,1.218-1.2.9-2.241,1.793-3.387,2.527a2.662,2.662,0,0,0-1.4,2.824,4.491,4.491,0,0,1-.026.706m-8.257-13.067H24.494v9.757h3.163Zm4.918,3.311H29.415v6.446h3.159Zm-13.031,6.425h3.152V200.1H19.543Z" transform="translate(-12.901 -152.313)" fill="#eeac3a"/>
    <path id="Trazado_212317" data-name="Trazado 212317" d="M386.777,112.063l3.895-5.157,2.649,1.978c-.657.881-1.282,1.721-1.91,2.56-.965,1.289-1.918,2.588-2.9,3.863a1.669,1.669,0,0,1-2.8.189c-.632-.619-1.207-1.3-1.918-2.065l-3.682,3.891-2.432-2.339c1.676-1.692,3.291-3.366,4.959-4.986a1.554,1.554,0,0,1,2.305.06c.615.587,1.152,1.256,1.83,2.006" transform="translate(-299.815 -84.865)" fill="#12263f"/>
    <rect id="Rectángulo_52561" data-name="Rectángulo 52561" width="3.163" height="9.757" transform="translate(11.592 42.863)" fill="#12263f"/>
    <rect id="Rectángulo_52562" data-name="Rectángulo 52562" width="3.159" height="6.446" transform="translate(16.514 46.174)" fill="#12263f"/>
    <rect id="Rectángulo_52563" data-name="Rectángulo 52563" width="3.152" height="4.813" transform="translate(6.642 47.786)" fill="#12263f"/>
  </g>
</svg>
