<svg xmlns="http://www.w3.org/2000/svg" xmlns:xlink="http://www.w3.org/1999/xlink" width="108.419" height="108.419" viewBox="0 0 108.419 108.419">
  <defs>
    <linearGradient id="linear-gradient" x1="0.5" x2="0.5" y2="1" gradientUnits="objectBoundingBox">
      <stop offset="0" stop-color="#fdbe41"/>
      <stop offset="1" stop-color="#d09f40"/>
    </linearGradient>
  </defs>
  <g id="Grupo_899998" data-name="Grupo 899998" transform="translate(-272.882 -4708.222)">
    <circle id="Elipse_6019" data-name="Elipse 6019" cx="54.209" cy="54.209" r="54.209" transform="translate(272.882 4708.222)" fill="url(#linear-gradient)"/>
    <g id="_7Acnb9" data-name="7Acnb9" transform="translate(528.75 4365.515)">
      <g id="Grupo_897726" data-name="Grupo 897726" transform="translate(-244.75 371.303)">
        <path id="Trazado_617804" data-name="Trazado 617804" d="M-21.859,595.057q-6.047,0-12.094,0c-1.942,0-2.983-.988-2.954-2.917a26.01,26.01,0,0,1,.281-4.874,10.278,10.278,0,0,1,9.836-8.048c3.223-.063,6.448-.1,9.672-.079A10.447,10.447,0,0,1-6.8,589.352c.018.851.017,1.7.023,2.553A2.586,2.586,0,0,1-9.7,594.848c-4.054.011-8.108,0-12.161,0Zm12-3.162c0-1,.033-1.846-.006-2.69a7.43,7.43,0,0,0-7.417-7.043c-3,.019-5.995.14-8.989.075-4.348-.095-8.593,3.57-7.512,9.658Z" transform="translate(64.861 -551.18)" fill="#12263f"/>
        <path id="Trazado_617805" data-name="Trazado 617805" d="M-232.14,616.22q-4.971,0-9.942,0a2.4,2.4,0,0,1-2.637-2.557,13.928,13.928,0,0,1,.416-4.923,8.886,8.886,0,0,1,8.41-6.082q3.694-.043,7.389-.043a8.814,8.814,0,0,1,9.069,8.823c.018.649.02,1.3.025,1.948a2.424,2.424,0,0,1-2.655,2.677c-3.359.009-6.718,0-10.076,0Zm9.67-3.157c0-.576.005-1,0-1.42a5.818,5.818,0,0,0-6.117-5.989c-2.33.014-4.659.044-6.989.052a5.98,5.98,0,0,0-6.039,7.357Z" transform="translate(244.75 -571.505)" fill="#12263f"/>
        <path id="Trazado_617806" data-name="Trazado 617806" d="M219.354,602.944a40.369,40.369,0,0,1,5.231.038,8.635,8.635,0,0,1,7.315,7.977c.064.938.077,1.882.07,2.822a2.364,2.364,0,0,1-2.448,2.476q-10.186.093-20.373.158a2.263,2.263,0,0,1-2.45-2.3,19.979,19.979,0,0,1,.259-4.6,8.672,8.672,0,0,1,8.294-6.643c1.366-.045,2.734-.007,4.1-.007Zm9.553,10.309c0-.588,0-1.011,0-1.434a5.8,5.8,0,0,0-6-5.965c-2.419,0-4.838.079-7.256.042a5.953,5.953,0,0,0-5.876,7.358Z" transform="translate(-145.971 -571.704)" fill="#12263f"/>
        <path id="Trazado_617807" data-name="Trazado 617807" d="M7.046,434.916a9.835,9.835,0,0,1,4.019-7.79A8.565,8.565,0,0,1,23.1,428.864a10.66,10.66,0,0,1-.489,13.606,8.707,8.707,0,0,1-14.2-1.869A11.162,11.162,0,0,1,7.046,434.916Zm15.223.528.187-.054a22.956,22.956,0,0,0-.953-3.319,5.682,5.682,0,0,0-9.529-1.707,7.592,7.592,0,0,0-.074,9.914,5.578,5.578,0,0,0,8.689-.124A7.217,7.217,0,0,0,22.269,435.444Z" transform="translate(26.818 -418.116)" fill="#12263f"/>
        <path id="Trazado_617808" data-name="Trazado 617808" d="M242.738,478.323a8.64,8.64,0,0,1,2.026-5.7,7.351,7.351,0,0,1,11.4-.1,9.011,9.011,0,0,1-.507,12.151,7.449,7.449,0,0,1-11.964-2.269A8.928,8.928,0,0,1,242.738,478.323Zm12.5.152a6.032,6.032,0,0,0-1.123-3.629,4.339,4.339,0,0,0-7.079-.2,5.976,5.976,0,0,0,.212,7.606,4.3,4.3,0,0,0,6.476.037A5.7,5.7,0,0,0,255.242,478.475Z" transform="translate(-177.175 -456.608)" fill="#12263f"/>
        <path id="Trazado_617809" data-name="Trazado 617809" d="M-193.2,478.347a8.455,8.455,0,0,1-3.453,7.017,7.317,7.317,0,0,1-10.754-2.317,8.638,8.638,0,0,1,.259-9.82c3.316-4.9,10.286-4.316,12.987,1.038A8.8,8.8,0,0,1-193.2,478.347Zm-7.6,5.4a4.065,4.065,0,0,0,2.641-1.055,5.905,5.905,0,0,0,.341-8.375,4.3,4.3,0,0,0-6.384.063,5.96,5.96,0,0,0-.126,7.76A4.38,4.38,0,0,0-200.8,483.743Z" transform="translate(213.646 -456.617)" fill="#12263f"/>
        <path id="Trazado_617810" data-name="Trazado 617810" d="M-88.177,374.325v.861q0,6.823,0,13.646a1.458,1.458,0,0,1-1.711,1.639,1.359,1.359,0,0,1-1.3-1.366c-.025-.514-.012-1.03-.012-1.546q0-7.159,0-14.318c0-1.46.468-1.934,1.929-1.935q5.646-.006,11.293,0a1.437,1.437,0,0,1,1.619,1.663,1.383,1.383,0,0,1-1.526,1.352c-3.137.008-6.274,0-9.411,0Z" transform="translate(111.861 -371.303)" fill="#12263f"/>
        <path id="Trazado_617811" data-name="Trazado 617811" d="M142.574,374.335H141.7c-3.137,0-6.274.006-9.411,0a1.431,1.431,0,0,1-1.528-1.686,1.334,1.334,0,0,1,1.35-1.318q6.016-.026,12.033,0a1.432,1.432,0,0,1,1.452,1.455c0,.067.005.134.005.2q0,7.966,0,15.932a1.511,1.511,0,1,1-3.018.131c-.018-.425-.007-.851-.007-1.277q0-6.285,0-12.571Z" transform="translate(-80.252 -371.313)" fill="#12263f"/>
        <path id="Trazado_617812" data-name="Trazado 617812" d="M-88.209,719.653h9.068c.426,0,.852-.008,1.277,0a1.4,1.4,0,0,1,1.472,1.481,1.392,1.392,0,0,1-1.488,1.53c-3.518.013-7.036.007-10.555.008-.426,0-.852.01-1.277,0a1.44,1.44,0,0,1-1.517-1.459q-.044-2.117,0-4.235a1.377,1.377,0,0,1,1.464-1.351,1.4,1.4,0,0,1,1.536,1.345c.033.446.014.9.015,1.344C-88.208,718.736-88.209,719.155-88.209,719.653Z" transform="translate(111.894 -669.318)" fill="#12263f"/>
        <path id="Trazado_617813" data-name="Trazado 617813" d="M142.588,719.572c0-.894-.019-1.717,0-2.539a1.459,1.459,0,0,1,1.867-1.457,1.344,1.344,0,0,1,1.143,1.308c.027,1.411.032,2.824,0,4.235a1.417,1.417,0,0,1-1.507,1.466q-5.95.018-11.9,0a1.5,1.5,0,0,1,.032-3.005c3.16-.012,6.32-.005,9.48-.006Z" transform="translate(-80.265 -669.237)" fill="#12263f"/>
      </g>
    </g>
  </g>
</svg>
