<svg xmlns="http://www.w3.org/2000/svg" xmlns:xlink="http://www.w3.org/1999/xlink" width="108.419" height="108.419" viewBox="0 0 108.419 108.419">
  <defs>
    <linearGradient id="linear-gradient" x1="0.5" x2="0.5" y2="1" gradientUnits="objectBoundingBox">
      <stop offset="0" stop-color="#fdbe41"/>
      <stop offset="1" stop-color="#d09f40"/>
    </linearGradient>
  </defs>
  <g id="Grupo_899999" data-name="Grupo 899999" transform="translate(-588.096 -4705.942)">
    <circle id="Elipse_6020" data-name="Elipse 6020" cx="54.209" cy="54.209" r="54.209" transform="translate(588.096 4705.942)" fill="url(#linear-gradient)"/>
    <g id="xwYW38" transform="translate(716.679 5543.513)">
      <g id="Grupo_897727" data-name="Grupo 897727" transform="translate(-95.187 -821.44)">
        <path id="Trazado_617814" data-name="Trazado 617814" d="M-72.994-821.44c.978.239,1.981.405,2.931.729a13.033,13.033,0,0,1,7.655,6.68.955.955,0,0,0,.989.61,12.981,12.981,0,0,1,2.734.2,6.593,6.593,0,0,1,5.145,6.739q.014,13.379,0,26.758c0,2.393.009,4.786-.009,7.179a.791.791,0,0,0,.5.838A12.768,12.768,0,0,1-45.952-758.7a12.661,12.661,0,0,1-10.493,11.267A12.478,12.478,0,0,1-69.073-752.3a1.548,1.548,0,0,0-1.382-.659q-8.847.029-17.694.008a6.657,6.657,0,0,1-6.8-4.993,7.237,7.237,0,0,1-.231-1.787q-.024-9.717-.009-19.434c0-.987.439-1.576,1.23-1.687a1.4,1.4,0,0,1,1.661,1.385c.037.893.013,1.788.014,2.683q0,8.375,0,16.751a3.806,3.806,0,0,0,4.119,4.175q8.194.012,16.389,0h.688c-1.747-4.746-.738-8.938,2.429-12.643,3.188-3.729,7.332-4.984,12.21-4.411v-.711q0-16.425,0-32.849c0-2.683-1.91-4.335-4.671-3.988.051.68.127,1.365.147,2.051.037,1.243-.492,1.79-1.723,1.791q-11.675.006-23.35,0a1.492,1.492,0,0,1-1.7-1.749c.023-.7.11-1.388.168-2.079a3.827,3.827,0,0,0-4.7,3.816c-.016,5.1,0,10.2-.007,15.3,0,1.117-.656,1.816-1.578,1.719a1.461,1.461,0,0,1-1.323-1.614c-.01-1.813,0-3.626,0-5.439,0-3.263-.006-6.526,0-9.79a6.664,6.664,0,0,1,6.988-6.96,2.178,2.178,0,0,0,2.283-1.28,12.883,12.883,0,0,1,9.835-6.628,1.609,1.609,0,0,0,.327-.123ZM-58.765-770.1a10.063,10.063,0,0,0-10.1,9.754A10.143,10.143,0,0,0-58.748-750.11a10.046,10.046,0,0,0,9.957-9.985A9.972,9.972,0,0,0-58.765-770.1Zm-5.312-39.5c-.481-5.1-5.726-9.334-10.955-8.887-4.976.425-9.833,4.952-9.524,8.887Z" transform="translate(95.187 821.44)" fill="#12263f"/>
        <path id="Trazado_617815" data-name="Trazado 617815" d="M-30.614-534.593H-41.851c-.242,0-.485.009-.724-.014A1.469,1.469,0,0,1-44-536.065a1.465,1.465,0,0,1,1.439-1.436c.24-.021.483-.015.724-.015q11.238,0,22.476,0a5.427,5.427,0,0,1,1.01.063,1.416,1.416,0,0,1,1.133,1.4,1.422,1.422,0,0,1-1.081,1.374,4.221,4.221,0,0,1-.935.077Q-24.922-534.589-30.614-534.593Z" transform="translate(51.436 578.777)" fill="#12263f"/>
        <path id="Trazado_617816" data-name="Trazado 617816" d="M-30.621-672.128q-5.655,0-11.311,0a4.35,4.35,0,0,1-.865-.057,1.442,1.442,0,0,1-1.184-1.512,1.436,1.436,0,0,1,1.378-1.335c.216-.017.435-.01.652-.01h22.694c1.38,0,2.073.5,2.051,1.471-.022.957-.732,1.446-2.105,1.446Z" transform="translate(51.426 696.32)" fill="#12263f"/>
        <path id="Trazado_617817" data-name="Trazado 617817" d="M-30.624-580.4H-41.789c-.218,0-.436.009-.652-.006a1.5,1.5,0,0,1-1.553-1.486,1.454,1.454,0,0,1,1.6-1.421c3.093-.014,6.187-.006,9.28-.006h13.993c1.244.005,1.929.532,1.912,1.469s-.715,1.449-1.955,1.45Q-24.9-580.394-30.624-580.4Z" transform="translate(51.434 617.923)" fill="#12263f"/>
        <path id="Trazado_617818" data-name="Trazado 617818" d="M-30.646-626.3q-5.655,0-11.31,0a4.147,4.147,0,0,1-.934-.079,1.419,1.419,0,0,1-1.1-1.434,1.434,1.434,0,0,1,1.261-1.372,6.046,6.046,0,0,1,.8-.031q11.347,0,22.693,0c1.335,0,2.014.481,2.03,1.428.016.965-.706,1.491-2.056,1.491Z" transform="translate(51.428 657.151)" fill="#12263f"/>
        <path id="Trazado_617819" data-name="Trazado 617819" d="M-36.562-491.613c1.957,0,3.913-.016,5.869.007a1.443,1.443,0,0,1,1.548,1.394,1.481,1.481,0,0,1-1.518,1.51c-.216.016-.435.009-.652.009q-3.551,0-7.1,0c-1.377,0-2.755.025-4.13-.024a1.431,1.431,0,0,1-1.442-1.5,1.465,1.465,0,0,1,1.483-1.391c.216-.015.435-.008.652-.009h5.29Z" transform="translate(51.429 539.548)" fill="#12263f"/>
        <path id="Trazado_617820" data-name="Trazado 617820" d="M-93.65-582.2a1.431,1.431,0,0,1,1.4,1.442,1.458,1.458,0,0,1-1.489,1.438,1.467,1.467,0,0,1-1.406-1.454A1.441,1.441,0,0,1-93.65-582.2Z" transform="translate(95.15 616.968)" fill="#12263f"/>
        <path id="Trazado_617821" data-name="Trazado 617821" d="M110.778-429a4.682,4.682,0,0,1,.484-.739q2.884-2.91,5.789-5.8c.834-.831,1.675-.9,2.344-.226.647.656.577,1.5-.218,2.3q-3.608,3.622-7.229,7.23a1.545,1.545,0,0,1-2.56,0q-1.724-1.711-3.434-3.436a1.489,1.489,0,0,1-.187-2.238,1.529,1.529,0,0,1,2.3.166C108.918-430.9,109.757-430.035,110.778-429Z" transform="translate(-76.201 492.202)" fill="#12263f"/>
      </g>
    </g>
  </g>
</svg>
