<svg xmlns="http://www.w3.org/2000/svg" xmlns:xlink="http://www.w3.org/1999/xlink" width="108.419" height="108.419" viewBox="0 0 108.419 108.419">
  <defs>
    <linearGradient id="linear-gradient" x1="0.5" x2="0.5" y2="1" gradientUnits="objectBoundingBox">
      <stop offset="0" stop-color="#fdbe41"/>
      <stop offset="1" stop-color="#d09f40"/>
    </linearGradient>
  </defs>
  <g id="Grupo_900001" data-name="Grupo 900001" transform="translate(-1214.255 -4705.942)">
    <path id="Trazado_197541" data-name="Trazado 197541" d="M54.209,0A54.209,54.209,0,1,1,0,54.209,54.209,54.209,0,0,1,54.209,0Z" transform="translate(1214.255 4705.942)" fill="url(#linear-gradient)"/>
    <g id="FJhs35" transform="translate(46.559 4710.059)">
      <g id="Grupo_897729" data-name="Grupo 897729" transform="translate(1191.394 16.849)">
        <path id="Trazado_617831" data-name="Trazado 617831" d="M1193.113,79.016a2.761,2.761,0,0,1-1.719-2.934q.042-28.318.019-56.635a2.3,2.3,0,0,1,1.722-2.519,3.03,3.03,0,0,1,.72-.071c3.48,0,6.961.006,10.441-.008a2.4,2.4,0,0,1,2.39,1.523c.467,1.03.974,2.044,1.414,3.085a.929.929,0,0,0,1.006.644q13.294-.022,26.588-.01c.2,0,.406-.012.607.006a.945.945,0,0,1,.923,1.005.851.851,0,0,1-.856.851,4.6,4.6,0,0,1-.544.036q-13.325,0-26.648.011a2.76,2.76,0,0,1-2.868-1.873c-.2-.507-.451-.993-.681-1.488a10.716,10.716,0,0,0-.689-1.415,1.094,1.094,0,0,0-.745-.47c-3.419-.036-6.839-.028-10.258-.038-.458,0-.677.2-.659.659.005.121,0,.243,0,.364V76.13c0,.991.033,1.023,1.02,1.024h1.94v-.776q0-5.767,0-11.534c0-.9.577-1.373,1.29-1.073a.977.977,0,0,1,.587,1.029c-.009,1.942,0,3.885,0,5.828v6.565h.691l52.022-.007c.87,0,.92-.045.92-.868q0-23.552,0-47.105v-.559c-.232-.01-.444-.028-.656-.028q-25.768-.006-51.536-.009c-1.148,0-1.441.29-1.441,1.428q0,15.267,0,30.533c0,.478,0,.941-.5,1.2a.9.9,0,0,1-1.36-.695,3.959,3.959,0,0,1-.016-.606q0-15.267,0-30.533a2.909,2.909,0,0,1,3.056-3.225c.283-.015.566-.009.85-.009q23.461,0,46.923,0c1.355,0,2.71-.042,4.065-.043.405,0,.6-.119.574-.556s0-.849-.007-1.274c-.008-.7-.1-.792-.823-.8q-5.1-.029-10.2-.054a7.752,7.752,0,0,1-.847-.045.865.865,0,0,1-.831-.82.98.98,0,0,1,.855-1.019,3.825,3.825,0,0,1,.546-.014c3.46,0,6.921.029,10.38-.015a2.566,2.566,0,0,1,2.795,1.82V77.316a3.069,3.069,0,0,1-1.7,1.7Z" transform="translate(-1191.394 -16.849)" fill="#12263f"/>
        <path id="Trazado_617832" data-name="Trazado 617832" d="M1291.364,301.238h19.361a1.867,1.867,0,0,1,2.15,2.149q.006,5.311,0,10.621a1.891,1.891,0,0,1-2.162,2.153q-19.391,0-38.783,0a1.9,1.9,0,0,1-2.158-2.165q-.007-5.311,0-10.621c0-1.463.693-2.137,2.17-2.138Zm-19.75,1.863v.7c0,3.256.016,6.512-.014,9.768-.005.612.153.772.773.771q18.961-.032,37.921-.019h.694V303.1Z" transform="translate(-1260.235 -266.643)" fill="#12263f"/>
        <path id="Trazado_617833" data-name="Trazado 617833" d="M1271.607,220.459v4.562h39.328v-4.557h-.664c-1.8,0-3.6,0-5.4-.006-.732,0-1.126-.324-1.126-.893s.405-.934,1.1-.936c2.023-.008,4.047-.017,6.07,0a1.811,1.811,0,0,1,1.906,1.916c.022,1.375.008,2.752.006,4.127,0,1.563-.654,2.219-2.206,2.219h-35.689c-1.072,0-2.145.008-3.217,0a1.824,1.824,0,0,1-1.987-1.955q-.029-2.154,0-4.309a1.851,1.851,0,0,1,2.018-2q14.476-.008,28.952,0c.785,0,1.225.356,1.213.955-.011.572-.422.877-1.208.877q-14.142,0-28.284,0Z" transform="translate(-1260.187 -194.074)" fill="#12263f"/>
        <path id="Trazado_617834" data-name="Trazado 617834" d="M1279.72,136.438q3.944,0,7.888,0a1.849,1.849,0,0,1,2.128,2.1c0,1.375.007,2.751,0,4.126a1.85,1.85,0,0,1-2.031,2.035q-7.978.009-15.957,0a1.854,1.854,0,0,1-2.019-2q-.025-2.154,0-4.308a1.816,1.816,0,0,1,1.982-1.956C1274.38,136.432,1277.05,136.438,1279.72,136.438Zm-8.153,1.861c0,1.333.024,2.6-.011,3.874-.015.546.133.715.7.712,4.992-.025,9.985-.016,14.978-.019.2,0,.394-.017.6-.027V138.3Z" transform="translate(-1260.187 -121.888)" fill="#12263f"/>
        <path id="Trazado_617835" data-name="Trazado 617835" d="M1469.663,136.44q3.944,0,7.887,0a1.845,1.845,0,0,1,2.1,2.079c.008,1.375.01,2.75,0,4.126a1.862,1.862,0,0,1-2.072,2.059q-7.917.007-15.835,0a1.871,1.871,0,0,1-2.095-2.1c-.006-1.4-.01-2.791,0-4.186a1.811,1.811,0,0,1,2.008-1.981C1464.324,136.436,1466.994,136.44,1469.663,136.44Zm8.088,6.4v-4.525H1461.52v4.525Z" transform="translate(-1427.008 -121.891)" fill="#12263f"/>
        <path id="Trazado_617836" data-name="Trazado 617836" d="M1308.685,250.2h-15.9a4.362,4.362,0,0,1-.546-.009.881.881,0,0,1-.844-.875.9.9,0,0,1,.838-.942,4.506,4.506,0,0,1,.546-.012H1324.7q1.43,0,1.4.949c-.02.611-.454.889-1.392.889Z" transform="translate(-1279.228 -220.193)" fill="#12263f"/>
        <path id="Trazado_617837" data-name="Trazado 617837" d="M1550.953,439.957c1.638,0,3.276,0,4.914,0a1.887,1.887,0,0,1,2.045,2.039c.011,1.112.013,2.224,0,3.336a1.9,1.9,0,0,1-2.013,2.023q-4.944.016-9.888,0a1.9,1.9,0,0,1-2.013-2.023c-.013-1.112-.011-2.224,0-3.336a1.886,1.886,0,0,1,2.044-2.039C1547.677,439.953,1549.315,439.957,1550.953,439.957Zm5.1,1.89h-10.213c0,1.137-.016,2.227.021,3.315,0,.123.3.333.469.339.99.032,1.981.017,2.972.016,2.063,0,4.125,0,6.188-.017.189,0,.535-.169.539-.269C1556.069,444.106,1556.055,442.979,1556.055,441.848Z" transform="translate(-1501.096 -388.486)" fill="#12263f"/>
        <path id="Trazado_617838" data-name="Trazado 617838" d="M1230.633,54.614c.789,0,1.578-.01,2.366,0,.7.012,1.162.41,1.171.973a1.035,1.035,0,0,1-1.147,1q-2.427.023-4.853,0a.965.965,0,0,1-1.084-.971c-.006-.606.4-.983,1.121-1C1229.015,54.6,1229.824,54.614,1230.633,54.614Z" transform="translate(-1222.744 -50.016)" fill="#12263f"/>
        <path id="Trazado_617839" data-name="Trazado 617839" d="M1392.339,379.1h6c.161,0,.324-.007.485.006a.915.915,0,1,1-.028,1.829c-.121.008-.242,0-.363,0h-12.24c-.141,0-.284.007-.424-.006a.914.914,0,0,1,.028-1.827c.161-.012.323,0,.485,0Z" transform="translate(-1361.347 -335.03)" fill="#12263f"/>
        <path id="Trazado_617840" data-name="Trazado 617840" d="M1348.966,355.006c1.719,0,3.437,0,5.155,0,.769,0,1.169.323,1.166.916s-.425.922-1.175.923q-5.186,0-10.372,0c-.546,0-1.021-.193-1.066-.756a1.549,1.549,0,0,1,.449-.954c.118-.139.451-.126.687-.128C1345.529,355,1347.247,355.006,1348.966,355.006Z" transform="translate(-1324.27 -313.869)" fill="#12263f"/>
        <path id="Trazado_617841" data-name="Trazado 617841" d="M1297,330.819c1.536,0,3.071-.012,4.607.006a.878.878,0,0,1,.942.894.926.926,0,0,1-.918.937,1.007,1.007,0,0,1-.121.006c-3.031,0-6.062.007-9.093-.006a.934.934,0,0,1-1.039-.943c.01-.539.411-.89,1.076-.894,1.515-.01,3.031,0,4.546,0Z" transform="translate(-1279.214 -292.621)" fill="#12263f"/>
        <path id="Trazado_617842" data-name="Trazado 617842" d="M1296.509,379.1c1.314,0,2.627,0,3.941,0,.749,0,1.163.345,1.151.935-.011.57-.411.9-1.127.9q-3.971.006-7.942,0c-.738,0-1.171-.359-1.159-.936.011-.557.429-.9,1.135-.9C1293.841,379.1,1295.175,379.1,1296.509,379.1Z" transform="translate(-1279.21 -335.036)" fill="#12263f"/>
        <path id="Trazado_617843" data-name="Trazado 617843" d="M1520.854,380.934c-.93,0-1.86.006-2.79,0-.687-.006-1.113-.376-1.1-.934.01-.538.422-.9,1.075-.9q2.85-.011,5.7,0c.688,0,1.115.375,1.1.933s-.432.9-1.136.9C1522.754,380.939,1521.8,380.934,1520.854,380.934Z" transform="translate(-1477.357 -335.027)" fill="#12263f"/>
        <path id="Trazado_617844" data-name="Trazado 617844" d="M1462.908,354.995c.748,0,1.5-.012,2.245,0a.915.915,0,1,1,.039,1.826q-2.275.03-4.551,0a.9.9,0,0,1-.946-.96.88.88,0,0,1,.968-.866C1461.411,354.982,1462.16,354.995,1462.908,354.995Z" transform="translate(-1427.056 -313.856)" fill="#12263f"/>
        <path id="Trazado_617845" data-name="Trazado 617845" d="M1293.9,354.993c.5,0,1.009-.014,1.513,0a.912.912,0,1,1,.022,1.823q-1.573.041-3.147,0a.912.912,0,1,1,.038-1.823C1292.852,354.978,1293.377,354.992,1293.9,354.993Z" transform="translate(-1279.213 -313.853)" fill="#12263f"/>
        <path id="Trazado_617846" data-name="Trazado 617846" d="M1297.026,167.753q-2.122,0-4.243,0a3.065,3.065,0,0,1-.6-.038.846.846,0,0,1-.74-.9.832.832,0,0,1,.7-.865,3.407,3.407,0,0,1,.722-.053q4.153-.005,8.305,0a4.608,4.608,0,0,1,.545.013.9.9,0,0,1,.886.958.878.878,0,0,1-.907.872c-.3.023-.606.012-.909.012Z" transform="translate(-1279.269 -147.765)" fill="#12263f"/>
        <path id="Trazado_617847" data-name="Trazado 617847" d="M1487.14,167.748c-1.536,0-3.072.03-4.606-.026a1.335,1.335,0,0,1-.9-.547.95.95,0,0,1,.1-.871,1.162,1.162,0,0,1,.823-.39c3.031-.027,6.062-.024,9.092-.012.67,0,1.044.372,1.039.931s-.375.9-1.056.91C1490.13,167.759,1488.635,167.749,1487.14,167.748Z" transform="translate(-1446.264 -147.763)" fill="#12263f"/>
      </g>
    </g>
  </g>
</svg>
