<svg xmlns="http://www.w3.org/2000/svg" width="164.404" height="130.754" viewBox="0 0 164.404 130.754">
  <path id="Trazado_618684" data-name="Trazado 618684" d="M94.307-52.616q0,26.4-10.925,40.38T51.393,1.748q-20.8,0-31.814-13.722T8.3-51.305V-74.729q0-26.658,11.056-40.467t31.858-13.81q20.8,0,31.814,13.678T94.307-76.04ZM69.048-78.37q0-15.836-4.326-23.054t-13.5-7.218q-8.915,0-13.154,6.868T33.563-80.3v30.97q0,15.573,4.239,23.14t13.591,7.568q9.265,0,13.373-7.261T69.048-48.1ZM172.707,0H147.448V-97.366l-30.154,9.352v-20.54L170-127.433h2.709Z" transform="translate(-8.303 129.006)" fill="#12263f" opacity="0.089"/>
</svg>
