<svg xmlns="http://www.w3.org/2000/svg" width="188.352" height="130.754" viewBox="0 0 188.352 130.754">
  <path id="Trazado_618685" data-name="Trazado 618685" d="M94.307-52.616q0,26.4-10.925,40.38T51.393,1.748q-20.8,0-31.814-13.722T8.3-51.305V-74.729q0-26.658,11.056-40.467t31.858-13.81q20.8,0,31.814,13.678T94.307-76.04ZM69.048-78.37q0-15.836-4.326-23.054t-13.5-7.218q-8.915,0-13.154,6.868T33.563-80.3v30.97q0,15.573,4.239,23.14t13.591,7.568q9.265,0,13.373-7.261T69.048-48.1Zm68,3.553h13.46q9.614,0,14.247-4.807t4.632-12.761q0-7.691-4.589-11.974t-12.63-4.283a18.64,18.64,0,0,0-12.149,3.977,12.716,12.716,0,0,0-4.895,10.357H109.865a31.064,31.064,0,0,1,5.375-17.874,35.819,35.819,0,0,1,15.033-12.367,50.172,50.172,0,0,1,21.282-4.458q20.19,0,31.64,9.658t11.45,26.614a26.777,26.777,0,0,1-5.332,16.082,34.638,34.638,0,0,1-13.984,11.275q10.75,3.846,16.038,11.537a31.3,31.3,0,0,1,5.288,18.18q0,16.956-12.367,27.182T151.556,1.748Q132.5,1.748,120.4-8.3t-12.105-26.57h25.259a14.634,14.634,0,0,0,5.375,11.712,19.808,19.808,0,0,0,13.241,4.545q9,0,14.115-4.763T171.4-36.01q0-19.054-20.977-19.054H137.047Z" transform="translate(-8.303 129.006)" fill="#12263f" opacity="0.089"/>
</svg>
