<svg xmlns="http://www.w3.org/2000/svg" xmlns:xlink="http://www.w3.org/1999/xlink" width="280.073" height="232.236" viewBox="0 0 280.073 232.236">
  <defs>
    <linearGradient id="linear-gradient" x1="0.5" x2="0.5" y2="1" gradientUnits="objectBoundingBox">
      <stop offset="0" stop-color="#fff"/>
      <stop offset="1" stop-color="#d3d3d3"/>
    </linearGradient>
    <linearGradient id="linear-gradient-9" y1="0.5" x2="1" y2="0.5" gradientUnits="objectBoundingBox">
      <stop offset="0" stop-color="#ff928e"/>
      <stop offset="1" stop-color="#feb3b1"/>
    </linearGradient>
    <linearGradient id="linear-gradient-12" x1="294.087" y1="1.605" x2="296.088" y2="4.278" xlink:href="#linear-gradient-9"/>
    <linearGradient id="linear-gradient-13" x1="0.439" y1="-3.503" x2="0.505" y2="0.689" xlink:href="#linear-gradient-9"/>
    <linearGradient id="linear-gradient-14" x1="0.511" y1="0.146" x2="0.456" y2="1.705" xlink:href="#linear-gradient-9"/>
    <linearGradient id="linear-gradient-15" x1="-47.545" y1="17.427" x2="-48.867" y2="15.942" xlink:href="#linear-gradient-9"/>
    <linearGradient id="linear-gradient-16" x1="-155.484" y1="82.575" x2="-159.791" y2="75.375" xlink:href="#linear-gradient-9"/>
    <linearGradient id="linear-gradient-29" x1="1.66" y1="1.186" x2="0.085" y2="0.256" xlink:href="#linear-gradient-9"/>
    <linearGradient id="linear-gradient-30" x1="0.892" y1="0.928" x2="-0.916" y2="-1.638" xlink:href="#linear-gradient-9"/>
  </defs>
  <g id="Grupo_899953" data-name="Grupo 899953" transform="translate(-756.929 -275.695)">
    <g id="Grupo_47036" data-name="Grupo 47036" transform="translate(792.555 321.129)">
      <path id="Trazado_97779" data-name="Trazado 97779" d="M1515.639,555.094s15.19-11.207,42.629,4.066c0,0,14.2,5.4,17.451,19.218a25.007,25.007,0,0,0,4.853,10.023,31.3,31.3,0,0,1,6.919,17.154,29.286,29.286,0,0,0,3.606,11.841c2.376,4.268,4.847,11.267,3.939,21.163,0,0,8.78,9.47,3.842,30.575a29.992,29.992,0,0,1-5.052,25.163s2.26,15.225-10.862,20.329c0,0-6.925,15.833-27.547,16.8a26.686,26.686,0,0,0-8.691,1.93c-3.926,1.576-10.978,3.113-21.108.449-16.463-4.329-14.811-14.32-14.811-14.32V557.522Z" transform="translate(-1422.038 -551.129)" fill="#fb8c00"/>
      <path id="Trazado_97780" data-name="Trazado 97780" d="M1057.647,555.094s-15.19-11.207-42.629,4.066c0,0-14.873,5.655-17.662,20.208a18.026,18.026,0,0,1-4.048,8.321,31.332,31.332,0,0,0-7.6,19.354,18.666,18.666,0,0,1-2.831,9.186,33.884,33.884,0,0,0-4.815,17.638,18.6,18.6,0,0,1-1.988,8.092c-2.221,4.426-4.917,13.278-1.665,27.175a30.237,30.237,0,0,0,2.348,20.886,24.516,24.516,0,0,1,2.654,9.075c.363,4.11,1.9,9.936,7.293,13.636a25.867,25.867,0,0,1,6.089,5.916c3.439,4.623,10.778,11.709,23.9,12.7a39.349,39.349,0,0,1,10.54,2.26c4.035,1.474,10.859,2.709,20.434.191,16.463-4.329,14.811-14.32,14.811-14.32V557.522Z" transform="translate(-972.902 -551.129)" fill="#fb8c00"/>
      <path id="Trazado_97781" data-name="Trazado 97781" d="M1235.553,1058.58c-7.331-.893-13.217-5.078-17.493-12.439l-.051-.088a7.517,7.517,0,0,1,2.557-10.1,6.477,6.477,0,0,0,1.673-1.443,34.17,34.17,0,0,1-16.325-2.6,24.526,24.526,0,0,1-8.787-6.639,15.509,15.509,0,0,0,4.853,8.882,16.95,16.95,0,0,0,6.369,3.111c2.209.485,3.146,2.676,3.961,4.758a42.275,42.275,0,0,0,2.731,5.7,31.686,31.686,0,0,0,6.781,8.325,19.632,19.632,0,0,0-9.24,8.295,18.207,18.207,0,0,0-2.24,6.338,27.381,27.381,0,0,1,5.727-7.011,17.766,17.766,0,0,1,12.6-4.391A30.16,30.16,0,0,0,1235.553,1058.58Z" transform="translate(-1160.14 -947.061)" fill="#12263f"/>
      <g id="Grupo_47029" data-name="Grupo 47029" transform="translate(26.774 109.285)">
        <path id="Trazado_97782" data-name="Trazado 97782" d="M1152.634,1237.638q-.569,0-1.14-.033a16.759,16.759,0,0,1-12.724-6.928c-4.953-6.587-3.824-12.579-2.006-16.446l.064-.134c.754-1.569,1.176,1.367,1.085,3.1-.194,3.719,2.737,9.46,6.384,12.571,4.222,3.6,11.059,3.519,16.27,3.693,1.952.065,3.6.194,1.856,1.361A18.784,18.784,0,0,1,1152.634,1237.638Z" transform="translate(-1135.217 -1213.651)" fill="#12263f"/>
      </g>
      <g id="Grupo_47030" data-name="Grupo 47030" transform="translate(13.878 134.302)">
        <path id="Trazado_97783" data-name="Trazado 97783" d="M1076.781,1383.967a3.848,3.848,0,0,1-5.056-1.344,83.338,83.338,0,0,0-14.693-17.312h0c.522.239,12.871,5.994,19.748,18.656Z" transform="translate(-1057.033 -1365.311)" fill="#12263f"/>
      </g>
      <path id="Trazado_97784" data-name="Trazado 97784" d="M1032.575,1104.619c1.482-2.822,5.373-3.872,8.39-4.255a42.424,42.424,0,0,1,8.62.175c-.473-.055-7.9-6.92-16.333-1.574-.529-5.068-6.765-7.282-6.765-7.282a18.87,18.87,0,0,1,1.9,3.386,12.2,12.2,0,0,1,1.06,7.12c-.517,2.439-2.193,4.474-4.982,6.046C1024.464,1108.235,1030.375,1109.392,1032.575,1104.619Z" transform="translate(-1015.959 -1002.517)" fill="#12263f"/>
      <path id="Trazado_97785" data-name="Trazado 97785" d="M1295.382,932.127c3.056-.9,6.522,1.153,8.9,3.048a42.429,42.429,0,0,1,5.884,6.3c-.29-.377-.55-10.492-10.258-12.807,3.265-3.913.5-9.927.5-9.927a18.866,18.866,0,0,1-1.1,3.722,12.2,12.2,0,0,1-4.366,5.724c-2.109,1.33-4.736,1.547-7.808.643C1287.135,928.833,1290.427,933.878,1295.382,932.127Z" transform="translate(-1235.301 -858.105)" fill="#12263f"/>
      <g id="Grupo_47034" data-name="Grupo 47034" transform="translate(102.151 36.497)">
        <path id="Trazado_97786" data-name="Trazado 97786" d="M1611.1,1003.141c7.942-.967,14.318-5.5,18.951-13.475l.055-.1a8.143,8.143,0,0,0-2.771-10.939,7.02,7.02,0,0,1-1.812-1.563,37.019,37.019,0,0,0,17.685-2.819,26.567,26.567,0,0,0,9.519-7.192,16.8,16.8,0,0,1-5.257,9.622,18.363,18.363,0,0,1-6.9,3.369c-2.393.526-3.407,2.9-4.291,5.154a45.824,45.824,0,0,1-2.959,6.179,34.317,34.317,0,0,1-7.346,9.018,21.269,21.269,0,0,1,10.01,8.986,19.725,19.725,0,0,1,2.427,6.866,29.661,29.661,0,0,0-6.2-7.6,19.246,19.246,0,0,0-13.649-4.757A32.671,32.671,0,0,1,1611.1,1003.141Z" transform="translate(-1607.979 -934.947)" fill="#12263f"/>
        <g id="Grupo_47031" data-name="Grupo 47031" transform="translate(21.343 72.788)">
          <path id="Trazado_97787" data-name="Trazado 97787" d="M1732.089,1237.638q.569,0,1.14-.033a16.759,16.759,0,0,0,12.724-6.928c4.952-6.587,3.825-12.579,2.006-16.446l-.064-.134c-.754-1.569-1.176,1.367-1.085,3.1.194,3.719-2.736,9.46-6.383,12.571-4.221,3.6-11.059,3.519-16.27,3.693-1.952.065-3.6.194-1.857,1.361A18.785,18.785,0,0,0,1732.089,1237.638Z" transform="translate(-1721.564 -1213.651)" fill="#12263f"/>
        </g>
        <g id="Grupo_47032" data-name="Grupo 47032" transform="translate(0 13.248)">
          <path id="Trazado_97788" data-name="Trazado 97788" d="M1600.821,874.164q.415-.146.824-.316a12.823,12.823,0,0,0,7.469-8.314c1.884-6.077-.516-10.164-2.862-12.523l-.082-.081c-.964-.953-.5,1.3.023,2.542,1.12,2.666.491,7.609-1.354,10.813-2.135,3.709-7.15,5.4-10.909,6.86-1.408.547-2.576,1.062-1,1.469A14.606,14.606,0,0,0,1600.821,874.164Z" transform="translate(-1592.176 -852.701)" fill="#12263f"/>
        </g>
        <g id="Grupo_47033" data-name="Grupo 47033" transform="translate(34.585 104.175)">
          <path id="Trazado_97789" data-name="Trazado 97789" d="M1801.839,1415.385a3.856,3.856,0,0,0,5.226.32,84.439,84.439,0,0,1,19.535-11.771h0c-.572.062-14.138,1.622-24.76,11.451Z" transform="translate(-1801.839 -1403.934)" fill="#12263f"/>
        </g>
        <path id="Trazado_97790" data-name="Trazado 97790" d="M1738.575,785.324c-1.482-2.822-5.373-3.872-8.39-4.255a42.429,42.429,0,0,0-8.62.176c.473-.055,7.9-6.92,16.332-1.575.529-5.069,6.765-7.282,6.765-7.282a18.882,18.882,0,0,0-1.9,3.386,12.2,12.2,0,0,0-1.06,7.121c.517,2.44,2.193,4.474,4.983,6.046C1746.686,788.94,1740.774,790.1,1738.575,785.324Z" transform="translate(-1700.222 -772.388)" fill="#12263f"/>
        <path id="Trazado_97791" data-name="Trazado 97791" d="M1866.432,1104.619c-1.482-2.822-5.373-3.872-8.39-4.255a42.424,42.424,0,0,0-8.62.175c.473-.055,7.9-6.92,16.332-1.574.529-5.068,6.765-7.282,6.765-7.282a18.865,18.865,0,0,0-1.9,3.386,12.2,12.2,0,0,0-1.06,7.12c.517,2.439,2.193,4.474,4.982,6.046C1874.543,1108.235,1868.631,1109.392,1866.432,1104.619Z" transform="translate(-1806.989 -1039.014)" fill="#12263f"/>
      </g>
      <g id="Grupo_47035" data-name="Grupo 47035" transform="translate(87.33 6.388)">
        <rect id="Rectángulo_28323" data-name="Rectángulo 28323" width="165.548" height="3.704" transform="translate(0 165.547) rotate(-89.865)" fill="url(#linear-gradient)"/>
      </g>
    </g>
    <g id="Grupo_47040" data-name="Grupo 47040" transform="translate(934.977 372.373)">
      <path id="Trazado_97792" data-name="Trazado 97792" d="M2098.127,1199.462s-.467-1.048-.769-1.545-1.592-1.951-1.811-1.622-1.1,2.547-.632,3.167-.03,1.7,2.291,2.355Z" transform="translate(-2043.258 -1167.741)" fill="#ffb27d"/>
      <path id="Trazado_97793" data-name="Trazado 97793" d="M2135.711,1175.6s-11.879,9.916-16.51,9a91.3,91.3,0,0,1-9.181-2.624l-1.112,2.844s4.985,6.762,10.182,6.806a29.607,29.607,0,0,0,14.126-3.517Z" transform="translate(-2055.055 -1150.5)" fill="#1565c0"/>
      <path id="Trazado_97794" data-name="Trazado 97794" d="M2328.518,1800.6s-.344,5.563-1.421,5.642c-.143.011-5.459.011-5.459.011l-6.785-.04a2.2,2.2,0,0,1,2.028-1.98c1.983-.345,5.3-1.739,6.5-4.361C2324.649,1797.114,2328.518,1800.6,2328.518,1800.6Z" transform="translate(-2227.028 -1670.91)" fill="#1565c0"/>
      <path id="Trazado_97795" data-name="Trazado 97795" d="M2283.531,1464.339a14.147,14.147,0,0,1-3.673.69,13.49,13.49,0,0,1-3.429-.489,93.907,93.907,0,0,0-2.525-12.03c-1.121-4.337-2.721-9.914-5-16.843-6.294-19.151-8.208-30.354-8.383-31.415-.01-.056-.013-.083-.013-.083l.02-.009,19.35-8.5s-2.392,26.394.66,36.525a42.757,42.757,0,0,1,1.107,4.854C2283.576,1448.046,2283.531,1464.339,2283.531,1464.339Z" transform="translate(-2181.651 -1334.263)" fill="#00223d"/>
      <path id="Trazado_97796" data-name="Trazado 97796" d="M2273.97,1452.51c-1.121-4.337-2.721-9.914-5-16.843-6.294-19.151-8.208-30.354-8.382-31.415,0-.031,0-.061.007-.093l19.35-8.5s-2.391,26.394.66,36.525C2281.035,1433.6,2273.97,1452.51,2273.97,1452.51Z" transform="translate(-2181.717 -1334.263)" fill="#073458"/>
      <path id="Trazado_97797" data-name="Trazado 97797" d="M2236.9,1800.6s-.345,5.563-1.421,5.642c-.143.011-5.458.011-5.458.011l-6.785-.04a2.2,2.2,0,0,1,2.028-1.98c1.984-.345,5.3-1.739,6.5-4.361C2233.028,1797.114,2236.9,1800.6,2236.9,1800.6Z" transform="translate(-2150.52 -1670.91)" fill="#1565c0"/>
      <path id="Trazado_97798" data-name="Trazado 97798" d="M2239.539,1399.434a275.485,275.485,0,0,0,2.708,38.1c2.959,21,1.956,29.915,1.956,29.915a20.162,20.162,0,0,0,2.854.726,12.951,12.951,0,0,0,4.234-.49s4.236-21.008,3.021-31.52,5.8-36.068,5.8-36.068Z" transform="translate(-2164.133 -1337.412)" fill="#00223d"/>
      <path id="Trazado_97799" data-name="Trazado 97799" d="M2280.7,1109.027l-2.641,3.405-5.543.3c-.031-.446-.112-2.305-.184-3.99,0-.1-.007-.2-.012-.3-.059-1.434-.083-3.006-.083-3.006l4.4-3.05,1.649-1.264c0,.03.258,1.55.259,1.774C2278.559,1107.278,2280.7,1109.027,2280.7,1109.027Z" transform="translate(-2191.441 -1088.312)" fill="#ffb27d"/>
      <path id="Trazado_97800" data-name="Trazado 97800" d="M2232.69,1190.288c.078,9.027.679,30.147,1.122,30.576,4.7,4.539,25.384-1.244,26.481-6.245s-4.167-64.116-12.2-66.476c-1.666-.489-10.576,2.391-10.576,2.391a56.513,56.513,0,0,0-2.313,8.313c-.34,1.726-1.449,14.039-2.1,22.267-.171,2.193-.311,4.1-.393,5.43C2232.683,1187.1,2232.675,1188.439,2232.69,1190.288Z" transform="translate(-2158.412 -1127.525)" fill="#1565c0"/>
      <path id="Trazado_97801" data-name="Trazado 97801" d="M2278.053,1108.728c-.64,2.107-4.305,4.686-5.853,5.683,0-.1-.007-.2-.012-.3-.06-1.434-.109-4.331-.109-4.331l4.421-1.725C2277.592,1107.777,2278.318,1107.86,2278.053,1108.728Z" transform="translate(-2191.31 -1093.979)" fill="#fca56b"/>
      <path id="Trazado_97802" data-name="Trazado 97802" d="M2258.081,1053.955s8.211,2.561,9.727-2.576,3.6-8.267-1.581-10.12-6.78-.194-7.7,1.4S2255.984,1053.156,2258.081,1053.955Z" transform="translate(-2178.764 -1037.636)" fill="#ffb27d"/>
      <path id="Trazado_97803" data-name="Trazado 97803" d="M2264.009,1027.96s.523,5.979,1.76,5.719,2.868-.3,2.687,1.5,1.523,4.86,2.659,4.853c3.824-.024,8.034-10.309,6.988-12.17C2275.082,1022.494,2259.643,1021.411,2264.009,1027.96Z" transform="translate(-2183.927 -1023.434)" fill="#00223d"/>
      <path id="Trazado_97804" data-name="Trazado 97804" d="M2264.186,1136.453c.106-.045,6.112-2.739,6.815-2.507s1.578,2.377,1.578,2.377L2262,1138.715A5.253,5.253,0,0,1,2264.186,1136.453Z" transform="translate(-2182.895 -1115.705)" fill="#635986"/>
      <g id="Grupo_47038" data-name="Grupo 47038" transform="translate(0 3.787)">
        <path id="Trazado_97805" data-name="Trazado 97805" d="M2038,1309.327l30.881,32.8a1.621,1.621,0,0,0,2.285.024l2.1-1.976a1.621,1.621,0,0,0,.115-2.282l-30.941-32.856c-.6-.634-1.115-.135-1.776.486l-2.1,1.976C2037.9,1308.115,2037.4,1308.693,2038,1309.327Z" transform="translate(-1995.618 -1262.123)" fill="#00223d"/>
        <path id="Trazado_97806" data-name="Trazado 97806" d="M2141.984,1420.045l13.906,14.78a1.653,1.653,0,0,0,2.33.071l2.1-1.976a1.653,1.653,0,0,0,.071-2.33l-13.906-14.78Z" transform="translate(-2082.674 -1354.873)" fill="#d5f2e8"/>
        <path id="Trazado_97807" data-name="Trazado 97807" d="M1789.6,1090.863a26.39,26.39,0,1,0,1.138-37.3c-.139.132-.278.264-.413.4A26.386,26.386,0,0,0,1789.6,1090.863Zm2.264-36.107a24.753,24.753,0,1,1-1.066,34.98A24.637,24.637,0,0,1,1791.863,1054.756Z" transform="translate(-1782.43 -1046.391)" fill="#00223d"/>
        <g id="Grupo_47037" data-name="Grupo 47037" transform="translate(1.644 1.644)" opacity="0.3">
          <path id="Trazado_97808" data-name="Trazado 97808" d="M1799.119,1098.056a24.759,24.759,0,1,0,1.066-34.98A24.626,24.626,0,0,0,1799.119,1098.056Z" transform="translate(-1792.396 -1056.355)" fill="#b3cff9"/>
        </g>
      </g>
      <path id="Trazado_97809" data-name="Trazado 97809" d="M2232.69,1244.12c19.624-13.289,18.024-31.567,18.024-31.567-7.657,4.319-15.246,14.544-17.605,22.393-.171,2.193-.311,4.1-.393,5.43C2232.683,1240.928,2232.675,1242.271,2232.69,1244.12Z" transform="translate(-2158.412 -1181.358)" fill="#104a8d"/>
      <g id="Grupo_47039" data-name="Grupo 47039" transform="translate(51.653 23.01)">
        <path id="Trazado_97810" data-name="Trazado 97810" d="M2100.9,1355.736a5.066,5.066,0,0,1-2.369-1.464s-.558.038.092,1.228c.054.1.175.355.266.536a.116.116,0,0,1-.1.166,12.353,12.353,0,0,0-2.968.062c-.2.042-.259.522-.251.727a1.855,1.855,0,0,0,.391,1.267,6.484,6.484,0,0,0,2.344,1.228,7.088,7.088,0,0,0,3.627-.456l1.188-.55-.368-2.208-.3.063C2101.978,1356.435,2101.391,1355.857,2100.9,1355.736Z" transform="translate(-2095.568 -1322.709)" fill="#ffb27d"/>
        <path id="Trazado_97811" data-name="Trazado 97811" d="M2164.325,1162.926s16.67,3.174-4.9,27.314c-3.45,3.861-22.092,8.888-22.092,8.888s-1.89-1.609-.938-2.911c0,0,12.836-9.321,15.66-10.8,1.271-.667,4.931-14.877,7-18.3A9.336,9.336,0,0,1,2164.325,1162.926Z" transform="translate(-2129.433 -1162.926)" fill="#1565c0"/>
      </g>
      <path id="Trazado_97812" data-name="Trazado 97812" d="M2100.881,1196.945a8.491,8.491,0,0,1-.652-1.592,8.8,8.8,0,0,0-1.076-2.435c-.114-.113-.487.033-.531.519a2.824,2.824,0,0,0,.268,1.054,11.894,11.894,0,0,1,.353,2.1C2099.5,1197.426,2100.881,1196.945,2100.881,1196.945Z" transform="translate(-2046.464 -1164.931)" fill="#ffb27d"/>
    </g>
    <g id="Grupo_47043" data-name="Grupo 47043" transform="translate(872.84 275.695)">
      <g id="Grupo_47041" data-name="Grupo 47041" transform="translate(0)">
        <path id="Trazado_97813" data-name="Trazado 97813" d="M1650.884,693.21a.969.969,0,0,1,.173,1.036.009.009,0,0,1,0,.005,6.442,6.442,0,0,1-2.035,2.232c-.123.1-.232.189-.327.272-.025.022-.05.044-.073.066l-.057.051c-.894.824-.558,1.013-2.164,2.686-1.832,1.906-3.093,1.94-3.452,1.767-.3-.148.313-1.159,1-2.3.033-.055.066-.11.1-.166.091-.151.181-.3.272-.456.8-1.367.6-2.009.405-4.044-.154-1.654-2.573-9.239-2.573-9.239l3.511-.6s1.057,6.04,2.222,6.97c.623.5,1.32.5,1.919.87.043.026.084.052.125.079A4.608,4.608,0,0,1,1650.884,693.21Z" transform="translate(-1612.039 -617.082)" fill="#ffb27d"/>
        <path id="Trazado_97814" data-name="Trazado 97814" d="M1654.529,733.3a.968.968,0,0,1,.173,1.036.009.009,0,0,1,0,.005,7.459,7.459,0,0,1-2.038,2.225c-.121.1-.228.193-.323.279-.025.022-.05.044-.073.066l-.057.051c-.894.824-.558,1.013-2.164,2.686-1.832,1.906-3.093,1.94-3.452,1.767-.3-.148.313-1.159,1-2.3a7.808,7.808,0,0,0,3.266-2.406c1.063-1.357,1.785-3.085,2.508-4.147l.207-.039A4.606,4.606,0,0,1,1654.529,733.3Z" transform="translate(-1615.684 -657.17)" fill="#233862"/>
        <path id="Trazado_97815" data-name="Trazado 97815" d="M1470.158,685.609c-.217,1.084-1.762.9-3.487.481s-1.316.079-3.772-.192-3.2-1.188-3.275-1.553c-.067-.324,1.147-.438,2.448-.588.164-.018.328-.039.492-.059,1.47-.184,2.546-1.133,3.881-1.912,1.264-.738,3.151-3.744,3.151-3.744l3.369.267s-1.768,2.685-2.451,3.852a4.074,4.074,0,0,0-.331,2.3A4.314,4.314,0,0,1,1470.158,685.609Z" transform="translate(-1459.621 -611.674)" fill="#ffb27d"/>
        <path id="Trazado_97816" data-name="Trazado 97816" d="M1466.67,715.017c-1.726-.422-1.316.08-3.772-.192s-3.2-1.188-3.275-1.553c-.067-.324,1.147-.438,2.448-.588l.012.025a6.923,6.923,0,0,0,3.517,1.093c1.666.04,3.432-.437,4.582-.418a4.315,4.315,0,0,1-.026,1.152C1469.941,715.619,1468.4,715.438,1466.67,715.017Z" transform="translate(-1459.621 -640.601)" fill="#233862"/>
        <path id="Trazado_97817" data-name="Trazado 97817" d="M1601.755,566.005l3.149,8.473,4.111,11.063a6.659,6.659,0,0,0,2.184-.2,9.464,9.464,0,0,0,2.112-1.028s-1.141-11.879-3.271-18.7a12.134,12.134,0,0,0-1.832-3.963C1604.906,557.752,1601.755,566.005,1601.755,566.005Z" transform="translate(-1578.309 -513.609)" fill="#dbdada"/>
        <path id="Trazado_97818" data-name="Trazado 97818" d="M1526.9,503.2c1.792-.578,6.469-.009,11.542.909a3.441,3.441,0,0,0,3.553-1.6h0l12.766-1s5.086,10.109,1.293,15.244c-2.216,3-9.684,2.57-11.946,2.106-6.219-1.275-13.29-4.97-14.207-5.153-1.5-.3-2.1,2.7-3.6,5.853s-14.106,13.956-14.106,13.956a11.1,11.1,0,0,1-2.738-.281,2.7,2.7,0,0,1-1.176-.742S1522.248,504.7,1526.9,503.2Z" transform="translate(-1500.254 -464.255)" fill="#eff4ef"/>
        <path id="Trazado_97819" data-name="Trazado 97819" d="M1698.043,460.1c-.055,7.336-1.948,10.706-1.948,10.706-16.436-2.2-20.072-17.32-20.072-17.32a5.924,5.924,0,0,0,4.81-2.174l13.834-8.826.841-.537.865-.552s.259,1.4.574,3.652a115.2,115.2,0,0,1,1.066,12.259C1698.039,458.237,1698.051,459.171,1698.043,460.1Z" transform="translate(-1640.327 -414.067)" fill="#00223d"/>
        <path id="Trazado_97820" data-name="Trazado 97820" d="M1696.331,296.359c4.546,2.5,13.769,7.692,13.816,7.659,0,0,3.39,1.277,5.313,0,3.2-2.129,4.924-7.857-.938-12.788-2.923-2.459-5-3.057-5.316-6.983-.172-2.138-3.106-9.216-7.979-8.5a6.776,6.776,0,0,1-1.177.071,4.527,4.527,0,0,0-2.438.634C1694.875,278.082,1689.516,295.39,1696.331,296.359Z" transform="translate(-1654.515 -275.695)" fill="#00223d"/>
        <path id="Trazado_97821" data-name="Trazado 97821" d="M1733.292,351.863a6.01,6.01,0,0,0,3.746.115c1.42-.627,2.5-2.963,2.474-2.964-.646-.03-1.383-1.063-1.9-4.3l-.275.1-4.623,1.664s.335,1.484.552,2.9C1733.447,350.559,1733.545,351.7,1733.292,351.863Z" transform="translate(-1687.666 -333.33)" fill="#ffb27d"/>
        <path id="Trazado_97822" data-name="Trazado 97822" d="M1732.713,346.977s.184.8.453,2.3a5.22,5.22,0,0,0,4.17-3.959Z" transform="translate(-1687.666 -333.829)" fill="#ed975d"/>
        <path id="Trazado_97823" data-name="Trazado 97823" d="M1712.1,308s6.326-.849,5.737-4.78-.17-6.689-4.234-6.313-4.622,1.993-4.744,3.353S1710.436,308.115,1712.1,308Z" transform="translate(-1667.738 -293.376)" fill="#ffb27d"/>
        <path id="Trazado_97824" data-name="Trazado 97824" d="M1710.284,296.342s4.05,3.49,6.8,3.771,3.8-.6,3.8-.6a10.756,10.756,0,0,1-2.6-3.523,1.938,1.938,0,0,0-1.6-1.142C1714.721,294.675,1710.993,294.6,1710.284,296.342Z" transform="translate(-1668.936 -291.616)" fill="#00223d"/>
        <path id="Trazado_97825" data-name="Trazado 97825" d="M1709.073,298.616a9.971,9.971,0,0,0-1.781,2.281,7.659,7.659,0,0,0-.208,4.071s-2.111-4.1-.916-6.1C1707.436,296.755,1709.073,298.616,1709.073,298.616Z" transform="translate(-1665.194 -294.203)" fill="#00223d"/>
        <path id="Trazado_97826" data-name="Trazado 97826" d="M1703.928,382.056c.191,12.805.052,10.129,1.453,11.345a5.379,5.379,0,0,0,2.535.549c3.927.261,10.829-.386,11.091-1.112.906-2.511.266-3.291,1.022-7.135.079-.409.176-.851.291-1.333.63-2.64,1.243-3.538-.992-7.78-2.027-3.842-4.093-6.987-4.283-6.874-5.348,3.175-5.818.533-5.818.533S1703.834,375.81,1703.928,382.056Z" transform="translate(-1663.628 -354.205)" fill="#00223d"/>
        <path id="Trazado_97827" data-name="Trazado 97827" d="M1620.844,599.843l4.111,11.063a6.661,6.661,0,0,0,2.184-.2,9.462,9.462,0,0,0,2.112-1.028s-1.141-11.879-3.271-18.7Z" transform="translate(-1594.25 -538.974)" fill="#eff4ef"/>
        <path id="Trazado_97828" data-name="Trazado 97828" d="M1693.725,372.955s-4.851.71-5.544,3.387c-.615,2.377-2.818,15.85-2.818,15.85s.992,2.33,2.284,1.038,4.067-13.455,4.067-13.455Z" transform="translate(-1648.126 -356.912)" fill="#00223d"/>
        <path id="Trazado_97829" data-name="Trazado 97829" d="M1719.3,504.895a7.487,7.487,0,0,1-1.078,1.172.793.793,0,0,1-.438.094l.547-.984Z" transform="translate(-1675.202 -467.088)" fill="#ffb27d"/>
        <path id="Trazado_97830" data-name="Trazado 97830" d="M1716.167,498.359l-2.36,1.146a.42.42,0,0,0,.391.151,5.615,5.615,0,0,0,1.023-.281Z" transform="translate(-1671.878 -461.63)" fill="#ffb27d"/>
        <path id="Trazado_97831" data-name="Trazado 97831" d="M1751.3,457.222c-3.65-.289-12.858-3.392-11.284-5.583.729-1.014,5.605-1.464,8.123-4.676.679-.865-.085-3.227-.185-4.564-.042-.576-.013-.994.185-1.088s.416.155.656.552a19.959,19.959,0,0,1,1.318,3.128l.121-.028A115.212,115.212,0,0,1,1751.3,457.222Z" transform="translate(-1693.617 -413.978)" fill="#344966"/>
        <path id="Trazado_97832" data-name="Trazado 97832" d="M1720.665,498.468s-3.874-.862-4.5-.519a9.1,9.1,0,0,0-2.344,2.031c-.191.436,1.391-.331,1.906-.469a4.584,4.584,0,0,1,1.645.36,5.467,5.467,0,0,0,2.948.3Z" transform="translate(-1671.878 -461.22)" fill="#ffb27d"/>
        <path id="Trazado_97833" data-name="Trazado 97833" d="M1753.787,369.731s5.165.344,6.966,2.855c2.535,3.535,5.255,18.652,2.374,20.662-3.245,2.263-12.462.541-12.462.541s-.864-2.563.15-2.66c2.746-.262,8.112-1.4,8.062-2.6-.077-1.822-3.459-7.869-3.459-9.07S1753.787,369.731,1753.787,369.731Z" transform="translate(-1702.37 -354.219)" fill="#00223d"/>
      </g>
      <g id="Grupo_47042" data-name="Grupo 47042" transform="translate(18.741 26.003)">
        <path id="Trazado_97834" data-name="Trazado 97834" d="M1605.951,514.69h24.65v.544H1606.17Z" transform="translate(-1600.555 -501.271)" fill="#00223d"/>
        <path id="Trazado_97835" data-name="Trazado 97835" d="M1597.518,447.3h-18.667l-5.615-13.964h18.638Z" transform="translate(-1573.235 -433.335)" fill="#00223d"/>
        <path id="Trazado_97836" data-name="Trazado 97836" d="M1635.661,471.163a.647.647,0,0,1,.634-.889,1.273,1.273,0,0,1,1.143.889.647.647,0,0,1-.634.889A1.273,1.273,0,0,1,1635.661,471.163Z" transform="translate(-1625.334 -464.181)" fill="#fff"/>
      </g>
    </g>
    <g id="Grupo_47063" data-name="Grupo 47063" transform="translate(756.929 310.597)">
      <rect id="Rectángulo_28324" data-name="Rectángulo 28324" width="104.6" height="70.041" rx="2" fill="#12263f" opacity="0.8"/>
      <g id="Grupo_47053" data-name="Grupo 47053" transform="translate(9.029 6.8)">
        <path id="Trazado_97837" data-name="Trazado 97837" d="M920.235,529.309s3.039-2.274,8.528.825a6.062,6.062,0,0,1,3.491,3.9,5.1,5.1,0,0,0,.971,2.033,6.4,6.4,0,0,1,1.384,3.48,6,6,0,0,0,.721,2.4,7.4,7.4,0,0,1,.788,4.293s1.756,1.921.768,6.2a6.156,6.156,0,0,1-1.011,5.1s.452,3.089-2.173,4.124a6.287,6.287,0,0,1-5.511,3.407,5.274,5.274,0,0,0-1.739.391,6.57,6.57,0,0,1-4.222.091c-3.294-.878-2.963-2.9-2.963-2.9V529.8Z" transform="translate(-901.511 -528.505)" fill="url(#linear-gradient)"/>
        <path id="Trazado_97838" data-name="Trazado 97838" d="M828.619,529.309s-3.039-2.274-8.527.825a6.007,6.007,0,0,0-3.533,4.1,3.678,3.678,0,0,1-.81,1.688,6.4,6.4,0,0,0-1.52,3.926,3.826,3.826,0,0,1-.566,1.864,6.945,6.945,0,0,0-.963,3.578,3.817,3.817,0,0,1-.4,1.642,8.134,8.134,0,0,0-.333,5.513,6.213,6.213,0,0,0,.47,4.237,5.025,5.025,0,0,1,.531,1.841,3.657,3.657,0,0,0,1.459,2.766,5.206,5.206,0,0,1,1.218,1.2,6.368,6.368,0,0,0,4.782,2.577,7.788,7.788,0,0,1,2.109.458,6.679,6.679,0,0,0,4.087.039c3.293-.878,2.963-2.9,2.963-2.9V529.8Z" transform="translate(-811.666 -528.505)" fill="url(#linear-gradient)"/>
        <g id="Grupo_47052" data-name="Grupo 47052" transform="translate(1.701 1.296)">
          <path id="Trazado_97839" data-name="Trazado 97839" d="M857.964,620.2a5.006,5.006,0,0,1-3.791-2.734l-.011-.019a1.665,1.665,0,0,1,.554-2.219,1.416,1.416,0,0,0,.363-.317,7.31,7.31,0,0,1-3.538-.572,5.329,5.329,0,0,1-1.9-1.459,3.426,3.426,0,0,0,1.052,1.952,3.652,3.652,0,0,0,1.38.684c.479.107.682.588.858,1.046a9.364,9.364,0,0,0,.592,1.254,6.947,6.947,0,0,0,1.47,1.829,4.28,4.28,0,0,0-2,1.823,4.036,4.036,0,0,0-.485,1.393,6.006,6.006,0,0,1,1.241-1.541,3.817,3.817,0,0,1,2.73-.965A6.445,6.445,0,0,0,857.964,620.2Z" transform="translate(-845.075 -600.258)" fill="#00223d" opacity="0.8"/>
          <g id="Grupo_47044" data-name="Grupo 47044" transform="translate(3.655 20.874)">
            <path id="Trazado_97840" data-name="Trazado 97840" d="M847.62,667.771c-.076,0-.152,0-.228-.007a3.341,3.341,0,0,1-2.545-1.405,3.12,3.12,0,0,1-.4-3.336l.013-.027c.151-.318.235.277.217.629a3.78,3.78,0,0,0,1.277,2.55c.845.73,2.212.714,3.255.749.39.013.72.039.371.276A3.718,3.718,0,0,1,847.62,667.771Z" transform="translate(-844.136 -662.905)" fill="#00223d" opacity="0.8"/>
          </g>
          <g id="Grupo_47045" data-name="Grupo 47045" transform="translate(9.99 8.796)">
            <path id="Trazado_97841" data-name="Trazado 97841" d="M884.337,594.036q-.083-.03-.165-.064a2.589,2.589,0,0,1-1.494-1.687,2.418,2.418,0,0,1,.572-2.54l.016-.017c.193-.193.1.264,0,.516a2.929,2.929,0,0,0,.271,2.194,4.1,4.1,0,0,0,2.182,1.392c.282.111.515.215.2.3A2.884,2.884,0,0,1,884.337,594.036Z" transform="translate(-882.543 -589.682)" fill="#00223d" opacity="0.8"/>
          </g>
          <g id="Grupo_47046" data-name="Grupo 47046" transform="translate(1.075 25.949)">
            <path id="Trazado_97842" data-name="Trazado 97842" d="M832.446,697.456a.764.764,0,0,1-1.011-.273,16.839,16.839,0,0,0-2.939-3.512h0a9.427,9.427,0,0,1,3.95,3.785Z" transform="translate(-828.496 -693.671)" fill="#00223d" opacity="0.8"/>
          </g>
          <path id="Trazado_97843" data-name="Trazado 97843" d="M889.563,689.235a2.154,2.154,0,0,1-.647-1.773,8.364,8.364,0,0,1,.251-1.706,2.844,2.844,0,0,0-.725,3.2c-1.033-.024-1.635,1.158-1.635,1.158a3.841,3.841,0,0,1,.729-.291,2.506,2.506,0,0,1,1.46-.03,1.874,1.874,0,0,1,1.092,1.142A1.5,1.5,0,0,0,889.563,689.235Z" transform="translate(-876.114 -661.113)" fill="#00223d" opacity="0.8"/>
          <path id="Trazado_97844" data-name="Trazado 97844" d="M849.179,576.014a2.154,2.154,0,0,1,1.678-.863,8.368,8.368,0,0,1,1.724.036,2.844,2.844,0,0,0-3.267-.32c-.106-1.028-1.353-1.477-1.353-1.477a3.831,3.831,0,0,1,.38.687,2.507,2.507,0,0,1,.212,1.445,1.874,1.874,0,0,1-1,1.227A1.5,1.5,0,0,0,849.179,576.014Z" transform="translate(-843.338 -567.282)" fill="#00223d" opacity="0.8"/>
          <path id="Trazado_97845" data-name="Trazado 97845" d="M823.6,640.786a2.155,2.155,0,0,1,1.678-.863,8.378,8.378,0,0,1,1.724.036,2.845,2.845,0,0,0-3.267-.319c-.106-1.028-1.353-1.477-1.353-1.477a3.855,3.855,0,0,1,.38.687,2.507,2.507,0,0,1,.212,1.445,1.875,1.875,0,0,1-1,1.227A1.5,1.5,0,0,0,823.6,640.786Z" transform="translate(-821.98 -621.37)" fill="#00223d" opacity="0.8"/>
          <path id="Trazado_97846" data-name="Trazado 97846" d="M885.028,540.711a2.689,2.689,0,0,0,.807-2.214,10.45,10.45,0,0,0-.313-2.131c.029.115,1.986,1.74.906,4,1.29-.029,2.042,1.446,2.042,1.446a4.792,4.792,0,0,0-.91-.364,3.129,3.129,0,0,0-1.823-.037,2.34,2.34,0,0,0-1.364,1.426A1.871,1.871,0,0,1,885.028,540.711Z" transform="translate(-873.998 -536.365)" fill="#00223d" opacity="0.8"/>
          <path id="Trazado_97847" data-name="Trazado 97847" d="M860.078,707.919a2.511,2.511,0,0,0,.754-2.067,9.76,9.76,0,0,0-.293-1.989c.027.108,1.854,1.624.846,3.732,1.2-.027,1.906,1.35,1.906,1.35a4.494,4.494,0,0,0-.85-.339,2.921,2.921,0,0,0-1.7-.035,2.185,2.185,0,0,0-1.273,1.331A1.747,1.747,0,0,1,860.078,707.919Z" transform="translate(-853.205 -676.233)" fill="#00223d" opacity="0.8"/>
          <g id="Grupo_47050" data-name="Grupo 47050" transform="translate(17.775 0.001)">
            <path id="Trazado_97848" data-name="Trazado 97848" d="M939.332,620.2a5.006,5.006,0,0,0,3.791-2.734l.011-.019a1.665,1.665,0,0,0-.554-2.219,1.414,1.414,0,0,1-.362-.317,7.308,7.308,0,0,0,3.538-.572,5.33,5.33,0,0,0,1.9-1.459,3.426,3.426,0,0,1-1.052,1.952,3.652,3.652,0,0,1-1.38.684c-.479.107-.682.588-.858,1.046a9.373,9.373,0,0,1-.592,1.254,6.948,6.948,0,0,1-1.47,1.829,4.277,4.277,0,0,1,2,1.823,4.043,4.043,0,0,1,.486,1.393,6.006,6.006,0,0,0-1.241-1.541,3.817,3.817,0,0,0-2.73-.965A6.446,6.446,0,0,1,939.332,620.2Z" transform="translate(-937.75 -600.259)" fill="#00223d" opacity="0.8"/>
            <g id="Grupo_47047" data-name="Grupo 47047" transform="translate(5.227 20.873)">
              <path id="Trazado_97849" data-name="Trazado 97849" d="M963.535,667.771c.076,0,.152,0,.228-.007a3.34,3.34,0,0,0,2.545-1.405,3.121,3.121,0,0,0,.4-3.336L966.7,663c-.151-.318-.235.277-.217.629a3.78,3.78,0,0,1-1.277,2.55c-.844.73-2.212.714-3.255.749-.39.013-.72.039-.371.276A3.718,3.718,0,0,0,963.535,667.771Z" transform="translate(-961.429 -662.905)" fill="#00223d" opacity="0.8"/>
            </g>
            <g id="Grupo_47048" data-name="Grupo 47048" transform="translate(0.958 8.795)">
              <path id="Trazado_97850" data-name="Trazado 97850" d="M937.275,594.036q.083-.03.165-.064a2.589,2.589,0,0,0,1.494-1.687,2.418,2.418,0,0,0-.573-2.54l-.016-.017c-.193-.193-.1.264,0,.516a2.928,2.928,0,0,1-.271,2.194,4.1,4.1,0,0,1-2.182,1.392c-.282.111-.515.215-.2.3A2.884,2.884,0,0,0,937.275,594.036Z" transform="translate(-935.546 -589.682)" fill="#00223d" opacity="0.8"/>
            </g>
            <g id="Grupo_47049" data-name="Grupo 47049" transform="translate(9.001 26.176)">
              <path id="Trazado_97851" data-name="Trazado 97851" d="M984.3,697.377a.764.764,0,0,0,1.045.065,16.834,16.834,0,0,1,3.908-2.388h0a9.426,9.426,0,0,0-4.953,2.323Z" transform="translate(-984.305 -695.054)" fill="#00223d" opacity="0.8"/>
            </g>
            <path id="Trazado_97852" data-name="Trazado 97852" d="M932.877,689.235a2.154,2.154,0,0,0,.646-1.773,8.371,8.371,0,0,0-.251-1.706,2.844,2.844,0,0,1,.725,3.2c1.033-.024,1.635,1.158,1.635,1.158a3.849,3.849,0,0,0-.729-.291,2.506,2.506,0,0,0-1.46-.03,1.874,1.874,0,0,0-1.092,1.142A1.5,1.5,0,0,1,932.877,689.235Z" transform="translate(-931.855 -661.114)" fill="#00223d" opacity="0.8"/>
            <path id="Trazado_97853" data-name="Trazado 97853" d="M964.832,576.014a2.154,2.154,0,0,0-1.678-.863,8.37,8.37,0,0,0-1.724.036,2.844,2.844,0,0,1,3.267-.32c.106-1.028,1.353-1.477,1.353-1.477a3.825,3.825,0,0,0-.38.687,2.508,2.508,0,0,0-.212,1.445,1.874,1.874,0,0,0,1,1.227A1.5,1.5,0,0,1,964.832,576.014Z" transform="translate(-956.202 -567.283)" fill="#00223d" opacity="0.8"/>
            <path id="Trazado_97854" data-name="Trazado 97854" d="M990.409,640.786a2.155,2.155,0,0,0-1.678-.863,8.376,8.376,0,0,0-1.724.036,2.844,2.844,0,0,1,3.267-.319c.106-1.028,1.353-1.477,1.353-1.477a3.844,3.844,0,0,0-.38.687,2.506,2.506,0,0,0-.212,1.445,1.874,1.874,0,0,0,1,1.227A1.5,1.5,0,0,1,990.409,640.786Z" transform="translate(-977.56 -621.37)" fill="#00223d" opacity="0.8"/>
            <path id="Trazado_97855" data-name="Trazado 97855" d="M933.181,540.711a2.689,2.689,0,0,1-.807-2.214,10.446,10.446,0,0,1,.313-2.131c-.028.115-1.986,1.74-.906,4-1.29-.029-2.041,1.446-2.041,1.446a4.78,4.78,0,0,1,.91-.364,3.129,3.129,0,0,1,1.823-.037,2.34,2.34,0,0,1,1.364,1.426A1.871,1.871,0,0,0,933.181,540.711Z" transform="translate(-929.74 -536.366)" fill="#00223d" opacity="0.8"/>
            <path id="Trazado_97856" data-name="Trazado 97856" d="M959.541,707.919a2.511,2.511,0,0,1-.754-2.067,9.77,9.77,0,0,1,.292-1.989c-.027.108-1.854,1.624-.846,3.732-1.2-.027-1.906,1.35-1.906,1.35a4.491,4.491,0,0,1,.85-.339,2.921,2.921,0,0,1,1.7-.035,2.184,2.184,0,0,1,1.273,1.331A1.747,1.747,0,0,0,959.541,707.919Z" transform="translate(-951.942 -676.234)" fill="#00223d" opacity="0.8"/>
          </g>
          <g id="Grupo_47051" data-name="Grupo 47051" transform="translate(15.767 0)">
            <rect id="Rectángulo_28325" data-name="Rectángulo 28325" width="33.583" height="0.741" transform="translate(0 33.583) rotate(-89.862)" fill="#00223d" opacity="0.8"/>
          </g>
        </g>
      </g>
      <g id="Grupo_47054" data-name="Grupo 47054" transform="translate(47.848 5.271)">
        <rect id="Rectángulo_28326" data-name="Rectángulo 28326" width="27.742" height="2.825" fill="#26aab7"/>
        <rect id="Rectángulo_28327" data-name="Rectángulo 28327" width="22.205" height="1.412" transform="translate(0 6.82)" fill="url(#linear-gradient)"/>
        <rect id="Rectángulo_28328" data-name="Rectángulo 28328" width="14.497" height="1.412" transform="translate(0 10.625)" fill="#8ec8c8"/>
        <rect id="Rectángulo_28329" data-name="Rectángulo 28329" width="14.497" height="1.412" transform="translate(16.667 10.625)" fill="url(#linear-gradient)"/>
        <rect id="Rectángulo_28330" data-name="Rectángulo 28330" width="13.393" height="1.412" transform="translate(24.468 6.82)" fill="#8ec8c8"/>
        <rect id="Rectángulo_28331" data-name="Rectángulo 28331" width="12.875" height="2.825" transform="translate(29.402)" fill="#f5ca56"/>
      </g>
      <g id="Grupo_47055" data-name="Grupo 47055" transform="translate(8.424 51.051)">
        <rect id="Rectángulo_28332" data-name="Rectángulo 28332" width="22.157" height="2.256" fill="#26aab7"/>
        <rect id="Rectángulo_28333" data-name="Rectángulo 28333" width="17.735" height="1.128" transform="translate(0 5.447)" fill="url(#linear-gradient)"/>
        <rect id="Rectángulo_28334" data-name="Rectángulo 28334" width="11.579" height="1.128" transform="translate(0 8.486)" fill="url(#linear-gradient)"/>
        <rect id="Rectángulo_28335" data-name="Rectángulo 28335" width="11.579" height="1.128" transform="translate(13.312 8.486)" fill="#8ec8c8"/>
        <rect id="Rectángulo_28336" data-name="Rectángulo 28336" width="10.697" height="1.128" transform="translate(19.543 5.447)" fill="url(#linear-gradient)"/>
        <rect id="Rectángulo_28337" data-name="Rectángulo 28337" width="10.283" height="2.256" transform="translate(23.483)" fill="#f5ca56"/>
      </g>
      <g id="Grupo_47057" data-name="Grupo 47057" transform="translate(50.546 24.766)">
        <path id="Trazado_97857" data-name="Trazado 97857" d="M1201.643,637.9a1.673,1.673,0,1,1-2.366.014A1.673,1.673,0,0,1,1201.643,637.9Z" transform="translate(-1176.453 -637.417)" fill="#8ec8c8"/>
        <path id="Trazado_97858" data-name="Trazado 97858" d="M1159.418,680.342a1.862,1.862,0,1,1-2.632.016A1.862,1.862,0,0,1,1159.418,680.342Z" transform="translate(-1140.926 -672.813)" fill="#8ec8c8"/>
        <path id="Trazado_97859" data-name="Trazado 97859" d="M1111.634,658.288a1.589,1.589,0,1,1-2.247.013A1.589,1.589,0,0,1,1111.634,658.288Z" transform="translate(-1101.411 -654.462)" fill="#8ec8c8"/>
        <path id="Trazado_97860" data-name="Trazado 97860" d="M1066.062,684.409a1.589,1.589,0,1,1-2.247.014A1.589,1.589,0,0,1,1066.062,684.409Z" transform="translate(-1063.357 -676.274)" fill="#8ec8c8"/>
        <g id="Grupo_47056" data-name="Grupo 47056" transform="translate(1.519 1.576)">
          <path id="Trazado_97861" data-name="Trazado 97861" d="M1072.563,654.537l7.582-4.346,8.052,3.885,6.759-7.106.2.195-6.9,7.255-8.1-3.91-7.453,4.272Z" transform="translate(-1072.563 -646.97)" fill="#8ec8c8"/>
        </g>
      </g>
      <g id="Grupo_47059" data-name="Grupo 47059" transform="translate(79.133 24.618)">
        <path id="Trazado_97862" data-name="Trazado 97862" d="M1237.246,694.83a1.387,1.387,0,1,1,1.933-.335A1.387,1.387,0,0,1,1237.246,694.83Z" transform="translate(-1236.657 -683.106)" fill="#8ec8c8"/>
        <path id="Trazado_97863" data-name="Trazado 97863" d="M1264.263,652.919a1.543,1.543,0,1,1,2.15-.373A1.543,1.543,0,0,1,1264.263,652.919Z" transform="translate(-1259.163 -647.872)" fill="#8ec8c8"/>
        <path id="Trazado_97864" data-name="Trazado 97864" d="M1308.805,666.5a1.317,1.317,0,1,1,1.835-.318A1.317,1.317,0,0,1,1308.805,666.5Z" transform="translate(-1296.438 -659.554)" fill="#8ec8c8"/>
        <path id="Trazado_97865" data-name="Trazado 97865" d="M1342.49,638.912a1.317,1.317,0,1,1,1.835-.318A1.317,1.317,0,0,1,1342.49,638.912Z" transform="translate(-1324.566 -636.518)" fill="#8ec8c8"/>
        <g id="Grupo_47058" data-name="Grupo 47058" transform="translate(1.29 1.227)">
          <path id="Trazado_97866" data-name="Trazado 97866" d="M1261.945,644.135l-5.6,4.59-7.115-2.075-4.554,6.733-.194-.131,4.65-6.875,7.16,2.088,5.509-4.511Z" transform="translate(-1244.478 -643.954)" fill="#8ec8c8"/>
        </g>
      </g>
      <g id="Grupo_47061" data-name="Grupo 47061" transform="translate(53.247 47.493)">
        <g id="Grupo_47060" data-name="Grupo 47060">
          <path id="Trazado_97867" data-name="Trazado 97867" d="M1091.579,786.823l-1.616-8.488-.706,3.626h-9.526v-.573h9.054l1.184-6.086,1.69,8.876.76-3h1.645l1.122-5.225,1.437,7.967.755-3.051h3.4l1.25-4.1,1.094,7.179.879-3.079h2.812l.825-4.5,1.775,7.083.643-2.581h3.636l.19,2.15,2-7.828,1.316,5.7h5.913v.573h-6.369l-.888-3.847-2.249,8.795-.44-4.968H1110.5l-1.089,4.373-1.689-6.743-.435,2.37h-2.857l-1.483,5.191-1.11-7.286-.639,2.1h-3.373l-1.292,5.22-1.4-7.751-.61,2.84h-1.662Z" transform="translate(-1079.73 -775.194)" fill="#fff"/>
        </g>
      </g>
      <g id="Grupo_47062" data-name="Grupo 47062" transform="translate(50.388 43.993)">
        <path id="Trazado_97868" data-name="Trazado 97868" d="M1111.3,774.687h-48.9V753.977h48.9Zm-48.586-.316h48.27V754.293h-48.27Z" transform="translate(-1062.398 -753.977)" fill="#fff"/>
      </g>
    </g>
    <g id="Grupo_47064" data-name="Grupo 47064" transform="translate(756.929 374.727)">
      <path id="Trazado_96247" data-name="Trazado 96247" d="M945.021,1485.612s-.458,2.595-.683,5.164a1.77,1.77,0,0,0,1.693,1.917c3.421.143,10.738.42,13.363.3a.576.576,0,0,0,.507-.789h0a1.29,1.29,0,0,0-.659-.695l-12.086-5.555Z" transform="translate(-915.819 -1361.249)" fill="#d5f2e8"/>
      <path id="Trazado_96248" data-name="Trazado 96248" d="M946.042,1475.182l.368,3.1s2.117.986,3.563-.124l-.877-3.459Z" transform="translate(-917.216 -1352.344)" fill="url(#linear-gradient-9)"/>
      <path id="Trazado_96249" data-name="Trazado 96249" d="M904.893,1159.646c-.159.811-.854,40.448,3.383,58.211a.6.6,0,0,1-.354.7,10.5,10.5,0,0,1-3.451.7,1.039,1.039,0,0,1-1.03-.745c-1.211-4.121-7.014-24.77-7.772-44.5-.846-22.041,0-.75,0-.75l.5-13.625Z" transform="translate(-875.79 -1095.16)" fill="#636363"/>
      <path id="Trazado_96250" data-name="Trazado 96250" d="M865.921,1492.981a18.67,18.67,0,0,0-1.436,4.791,1.08,1.08,0,0,0,.95,1.293c1.13.111,2.868.254,4.261.244a1.077,1.077,0,0,0,1.066-1.2,9.081,9.081,0,0,0-2.12-4.98Z" transform="translate(-850.623 -1367.264)" fill="#d5f2e8"/>
      <path id="Trazado_96251" data-name="Trazado 96251" d="M868.912,1470.438l.86,4.694a3.035,3.035,0,0,0,2.534.174l-.411-5.05Z" transform="translate(-854.254 -1348.714)" fill="url(#linear-gradient-9)"/>
      <path id="Trazado_96252" data-name="Trazado 96252" d="M850.329,1156.526c-3.465,20.913.752,51.689,2.174,57.712a.939.939,0,0,0,.758.713,6.3,6.3,0,0,0,2.71-.108.861.861,0,0,0,.619-.793c.191-4.87-.153-34.766,3.076-46.581a2.685,2.685,0,0,1,1.035-1.481l6.267-4.455.48-7.2Z" transform="translate(-837.996 -1090.824)" fill="#636363"/>
      <g id="Grupo_46179" data-name="Grupo 46179" transform="translate(11.039 9.992)">
        <path id="Trazado_96253" data-name="Trazado 96253" d="M872.588,943.015c-10.385-.172-21.843,2.727-21.843,2.727-3.1,18.062-.541,38.9-.541,38.9,8.04,2.108,17.109-1.289,17.109-1.289,1.336-7.55,7.571-28.8,7.571-28.8a34.209,34.209,0,0,0,12.7-4.029,22.268,22.268,0,0,1-4.4-9.205A34.842,34.842,0,0,1,872.588,943.015Z" transform="translate(-849.213 -926.931)" fill="#00223d"/>
        <path id="Trazado_96254" data-name="Trazado 96254" d="M1054.194,863.792a1.987,1.987,0,0,0-2.311-.649c-1.528,6.455-9.541,11.69-17.773,14.248a22.269,22.269,0,0,0,4.4,9.205C1052.172,878.914,1054.194,863.792,1054.194,863.792Z" transform="translate(-1000.144 -863.005)" fill="url(#linear-gradient-9)"/>
      </g>
      <g id="Grupo_46180" data-name="Grupo 46180" transform="translate(62.777)">
        <path id="Trazado_96255" data-name="Trazado 96255" d="M1132.927,819.7c.107.339-1.13.856-1.857-.532-.025-.665-.43-3.515-.032-4.057a53.091,53.091,0,0,1,6.221-6.5.977.977,0,0,1,.122,1.357l-1.991,2.074a9.649,9.649,0,0,1,1.162,2.3,2.789,2.789,0,0,1-.278,2.053c-.349.63-.826,1.448-1.277,2.089A2.754,2.754,0,0,1,1132.927,819.7Z" transform="translate(-1130.864 -808.611)" fill="url(#linear-gradient-12)"/>
        <path id="Trazado_96256" data-name="Trazado 96256" d="M1140.169,834.614l-1.814,1.538-.569,1.531,1.617,1.795a20.87,20.87,0,0,1,.948-3.7C1140.755,835.124,1140.546,834.806,1140.169,834.614Z" transform="translate(-1136.514 -829.837)" fill="url(#linear-gradient-13)"/>
      </g>
      <path id="Trazado_96257" data-name="Trazado 96257" d="M811.341,975.457,807.358,965.4s-9.7,6.591-11.3,14.947a22.066,22.066,0,0,1,8.17,2.291C805.706,979.324,811.341,975.457,811.341,975.457Z" transform="translate(-794.787 -936.599)" fill="#00223d"/>
      <path id="Trazado_96258" data-name="Trazado 96258" d="M904.428,904.663l-3.3,9.556a.344.344,0,0,0,.157.415,7.767,7.767,0,0,0,8.056-.542,1.621,1.621,0,0,0,.747-1.158l1.07-8.271Z" transform="translate(-880.533 -887.018)" fill="url(#linear-gradient-14)"/>
      <g id="Grupo_46181" data-name="Grupo 46181" transform="translate(17.624 3.829)">
        <path id="Trazado_96259" data-name="Trazado 96259" d="M920.7,856.492s3.628,6.83,3.163,9.589-4.962,2.561-8.889.32l-2.744-7.375Z" transform="translate(-907.239 -851.526)" fill="url(#linear-gradient-15)"/>
        <path id="Trazado_96260" data-name="Trazado 96260" d="M892.967,840.711a.281.281,0,0,0,.123-.412,7.347,7.347,0,0,1-1.009-2.143s-.652-.418,1.66-.971,5.761-1.413,6.486-3.381c.707-1.919-1.15-6.745-4.113-2.9a.281.281,0,0,1-.446,0,2.9,2.9,0,0,0-3.535-1.149,2.662,2.662,0,0,0-1.823,2.573.28.28,0,0,1-.332.287,3.246,3.246,0,0,0-3.791,1.767c-.774,1.7-.271,2.663.187,3.134a.281.281,0,0,1-.12.466,1.689,1.689,0,0,0-1.192,1.928c.1,1.785,2.094,1.628,2.663,1.547a.282.282,0,0,1,.25.088c.487.539,2.683,2.829,5.059,3.1a.284.284,0,0,0,.3-.375l-1.028-2.989a.283.283,0,0,1,.153-.351Z" transform="translate(-885.058 -829.457)" fill="#00223d"/>
        <path id="Trazado_96261" data-name="Trazado 96261" d="M918,889.128s-2.583-1.773-2.772-.28,2.327,2.162,3.572,1.606Z" transform="translate(-909.676 -877.45)" fill="url(#linear-gradient-16)"/>
      </g>
      <g id="Grupo_46185" data-name="Grupo 46185" transform="translate(12.76 61.509)">
        <path id="Trazado_96262" data-name="Trazado 96262" d="M1016.5,1233.991a.724.724,0,0,1-.711-.591l-4.71-25.272a.724.724,0,0,1,1.423-.265l4.71,25.272a.725.725,0,0,1-.712.856Z" transform="translate(-983.058 -1195.548)" fill="url(#linear-gradient)"/>
        <path id="Trazado_96263" data-name="Trazado 96263" d="M1007.2,1231.648H968.492a1.447,1.447,0,1,1,0-2.894h37.756l9.781-22.609H960.172a1.447,1.447,0,0,1,0-2.894h58.06a1.447,1.447,0,0,1,1.328,2.022l-11.033,25.5A1.447,1.447,0,0,1,1007.2,1231.648Z" transform="translate(-940.329 -1192.266)" fill="url(#linear-gradient)"/>
        <g id="Grupo_46182" data-name="Grupo 46182">
          <path id="Trazado_96264" data-name="Trazado 96264" d="M922.885,1208.142h-30.5a1.506,1.506,0,0,1-1.443-1.076l-18.164-60.6H860.089a1.506,1.506,0,1,1,0-3.012H873.9a1.506,1.506,0,0,1,1.443,1.076l18.164,60.6h29.377a1.506,1.506,0,1,1,0,3.012Z" transform="translate(-858.583 -1143.45)" fill="url(#linear-gradient)"/>
        </g>
        <g id="Grupo_46183" data-name="Grupo 46183" transform="translate(29.335 62.421)">
          <circle id="Elipse_3881" data-name="Elipse 3881" cx="3.765" cy="3.765" r="3.765" transform="translate(0 7.329) rotate(-76.718)" fill="#00223d"/>
          <circle id="Elipse_3882" data-name="Elipse 3882" cx="2.719" cy="2.719" r="2.719" transform="translate(1.706 1.81)" fill="url(#linear-gradient)"/>
        </g>
        <g id="Grupo_46184" data-name="Grupo 46184" transform="translate(58.036 62.631)">
          <circle id="Elipse_3883" data-name="Elipse 3883" cx="3.765" cy="3.765" r="3.765" transform="translate(0 7.434) rotate(-80.783)" fill="#00223d"/>
          <circle id="Elipse_3884" data-name="Elipse 3884" cx="2.719" cy="2.719" r="2.719" transform="translate(1.496 1.6)" fill="url(#linear-gradient)"/>
        </g>
        <path id="Trazado_96265" data-name="Trazado 96265" d="M1070.226,1235.645a.723.723,0,0,1-.723-.709l-.5-25.041a.723.723,0,0,1,.709-.738.714.714,0,0,1,.738.709l.5,25.041a.724.724,0,0,1-.709.738Z" transform="translate(-1030.348 -1197.087)" fill="url(#linear-gradient)"/>
        <path id="Trazado_96266" data-name="Trazado 96266" d="M1112.475,1235.524a.724.724,0,0,1-.724-.724v-24.928a.723.723,0,0,1,1.447,0V1234.8A.723.723,0,0,1,1112.475,1235.524Z" transform="translate(-1065.245 -1197.08)" fill="url(#linear-gradient)"/>
        <path id="Trazado_96267" data-name="Trazado 96267" d="M1159.376,1235.417h0a.724.724,0,0,1-.719-.728l.171-24.811a.724.724,0,0,1,.723-.718h.005a.723.723,0,0,1,.719.728l-.171,24.811A.724.724,0,0,1,1159.376,1235.417Z" transform="translate(-1103.531 -1197.089)" fill="url(#linear-gradient)"/>
        <path id="Trazado_96268" data-name="Trazado 96268" d="M1189.848,1236.812a.724.724,0,0,1-.711-.861l4.7-24.237a.723.723,0,1,1,1.42.276l-4.7,24.237A.724.724,0,0,1,1189.848,1236.812Z" transform="translate(-1128.404 -1198.696)" fill="url(#linear-gradient)"/>
        <path id="Trazado_96269" data-name="Trazado 96269" d="M1027.69,1242.489H974.273a.723.723,0,0,1,0-1.447h53.417a.723.723,0,0,1,0,1.447Z" transform="translate(-952.431 -1223.115)" fill="url(#linear-gradient)"/>
        <path id="Trazado_96270" data-name="Trazado 96270" d="M1035.192,1282.511H987.4a.723.723,0,1,1,0-1.447h47.788a.723.723,0,1,1,0,1.447Z" transform="translate(-963.15 -1255.785)" fill="url(#linear-gradient)"/>
        <path id="Trazado_96271" data-name="Trazado 96271" d="M1040.144,1319.407H997.411a.723.723,0,1,1,0-1.447h42.733a.723.723,0,1,1,0,1.447Z" transform="translate(-971.318 -1285.903)" fill="url(#linear-gradient)"/>
      </g>
      <path id="Trazado_96272" data-name="Trazado 96272" d="M790.462,1045.076s-6.63,15.1,9.576,17.311l2.21-1.842s-8.1-4.42-3.683-13.26C798.565,1047.286,793.777,1043.234,790.462,1045.076Z" transform="translate(-789.12 -1001.246)" fill="url(#linear-gradient-29)"/>
      <path id="Trazado_96273" data-name="Trazado 96273" d="M850.768,1131.42h5.893s3.683,4.788,3.315,5.893-4.008.227-4.008.227l-1.885-3.173s-5.525.369-5.525-1.1S850.768,1131.42,850.768,1131.42Z" transform="translate(-837.639 -1072.121)" fill="url(#linear-gradient-30)"/>
    </g>
    <g id="Grupo_47065" data-name="Grupo 47065" transform="translate(955.429 289.351)">
      <g id="Grupo_47066" data-name="Grupo 47066" transform="translate(0)">
        <g id="Grupo_47020" data-name="Grupo 47020" transform="translate(3.451 3.465)">
          <path id="Trazado_97743" data-name="Trazado 97743" d="M1385.386,211.6a26.518,26.518,0,0,1-34.636,39.985l-9.4,4.046,4.046-9.395a26.518,26.518,0,0,1,39.985-34.636Z" transform="translate(-1339.676 -203.407)" fill="#fdfdfd" fill-rule="evenodd"/>
          <path id="Trazado_97744" data-name="Trazado 97744" d="M1364.084,254.832a26.931,26.931,0,0,1-15.949-5.217l-9.16,3.945a.444.444,0,0,1-.583-.583l3.945-9.16a26.964,26.964,0,1,1,23.557,10.955Q1364.987,254.831,1364.084,254.832Zm-15.89-6.17a.443.443,0,0,1,.266.089,26.074,26.074,0,1,0-2.817-39.316,26.183,26.183,0,0,0-2.442,34.056.444.444,0,0,1,.052.442l-3.605,8.371,8.371-3.605A.443.443,0,0,1,1348.194,248.662Z" transform="translate(-1337.12 -200.923)" fill="#00223d"/>
        </g>
        <circle id="Elipse_3890" data-name="Elipse 3890" cx="22.538" cy="22.538" r="22.538" transform="translate(7.873 7.875)" fill="#12263f"/>
        <path id="Trazado_97745" data-name="Trazado 97745" d="M1344.183,238.325a30.308,30.308,0,0,1-16.513-4.878.444.444,0,0,1,.483-.745,29.535,29.535,0,0,0,32.027.034.444.444,0,0,1,.481.746A30.407,30.407,0,0,1,1344.183,238.325Zm21.619-9.2a.444.444,0,0,1-.32-.751,29.449,29.449,0,0,0,3.709-36.183.444.444,0,1,1,.751-.473,30.553,30.553,0,0,1,4.522,19.14,30.084,30.084,0,0,1-8.343,18.132A.442.442,0,0,1,1365.8,229.12Zm-46.77-4.481a.443.443,0,0,1-.372-.2,30.441,30.441,0,0,1-4.711-19.679.444.444,0,1,1,.882.092,29.552,29.552,0,0,0,4.573,19.1.444.444,0,0,1-.372.685Zm-3.093-26.269a.444.444,0,0,1-.418-.591,30.416,30.416,0,0,1,37.213-19.06.444.444,0,0,1-.248.852,29.53,29.53,0,0,0-36.128,18.5A.444.444,0,0,1,1315.939,198.37Zm49.287-11.363a.443.443,0,0,1-.312-.128,29.579,29.579,0,0,0-6.143-4.648.444.444,0,1,1,.438-.772,30.466,30.466,0,0,1,6.327,4.788.444.444,0,0,1-.311.76Z" transform="translate(-1313.784 -177.498)" fill="#00223d"/>
      </g>
      <path id="Trazado_97869" data-name="Trazado 97869" d="M1433.859,282.747a14.836,14.836,0,1,0,13.978,9.831l-2.237,2.237a12.07,12.07,0,1,1-4.015-6.484l1.976-1.975a14.789,14.789,0,0,0-9.7-3.608Zm-7.808,13.376a1.856,1.856,0,0,1,2.625-2.624l5.183,5.184L1445.538,287a1.856,1.856,0,1,1,2.624,2.624l-12.991,12.991a1.856,1.856,0,0,1-2.624,0Z" transform="translate(-1403.448 -267.181)" fill="#fff" fill-rule="evenodd"/>
    </g>
    <g id="Grupo_47066-2" data-name="Grupo 47066" transform="translate(891.277 420.045)">
      <g id="Grupo_46129" data-name="Grupo 46129" transform="translate(0 49.646)">
        <path id="Trazado_96115" data-name="Trazado 96115" d="M133.77,93.013h56.351v1.557H135.2a1.713,1.713,0,0,0-1.7,1.716v6.2a1.713,1.713,0,0,0,1.7,1.716h54.921v1.557H133.77a2.28,2.28,0,0,1-2.263-2.263V95.276a2.28,2.28,0,0,1,2.263-2.263Z" transform="translate(-131.281 -67.518)" fill="#00223d" fill-rule="evenodd"/>
        <path id="Trazado_96116" data-name="Trazado 96116" d="M133.71,93.406h54.921v9.63H133.71a1.713,1.713,0,0,1-1.7-1.716v-6.2a1.713,1.713,0,0,1,1.7-1.716Z" transform="translate(-129.791 -66.354)" fill="#eadce4" fill-rule="evenodd"/>
        <path id="Trazado_96117" data-name="Trazado 96117" d="M133.77,89.8h56.351v1.558H135.2a1.713,1.713,0,0,0-1.7,1.716v6.2a1.713,1.713,0,0,0,1.7,1.716h54.921v1.557H133.77a2.28,2.28,0,0,1-2.263-2.263V92.06A2.28,2.28,0,0,1,133.77,89.8Z" transform="translate(-131.281 -77.048)" fill="#f5ca56" fill-rule="evenodd"/>
        <path id="Trazado_96118" data-name="Trazado 96118" d="M133.71,90.19h54.921v9.63H133.71a1.713,1.713,0,0,1-1.7-1.716v-6.2a1.713,1.713,0,0,1,1.7-1.716Z" transform="translate(-129.791 -75.883)" fill="#eadce4" fill-rule="evenodd"/>
        <path id="Trazado_96119" data-name="Trazado 96119" d="M133.713,86.58h56.351v1.558H135.144a1.72,1.72,0,0,0-1.7,1.72v6.194a1.72,1.72,0,0,0,1.7,1.72h54.921v1.558H133.713a2.283,2.283,0,0,1-2.263-2.263V88.843a2.283,2.283,0,0,1,2.263-2.263Z" transform="translate(-131.45 -86.58)" fill="#26aab7" fill-rule="evenodd"/>
        <path id="Trazado_96120" data-name="Trazado 96120" d="M133.656,86.973h54.921v9.634H133.656a1.72,1.72,0,0,1-1.7-1.72V88.693a1.72,1.72,0,0,1,1.7-1.72Z" transform="translate(-129.963 -85.416)" fill="#eadce4" fill-rule="evenodd"/>
      </g>
      <g id="Grupo_46130" data-name="Grupo 46130" transform="translate(15.269)">
        <path id="Trazado_96121" data-name="Trazado 96121" d="M167.164,88.668c2.136,3.9-4.768,25.455-4.768,25.455l-3.638-.079.262-20.184c-9.167,3.452-14.489,0-14.489,0l.262,20.184-3.634.079s-6.9-21.555-4.772-25.455c1.847-3.321,12.492-4.768,15.389-4.478,2.9-.289,13.546,1.157,15.389,4.478Z" transform="translate(-133.302 -44.123)" fill="#00223d" fill-rule="evenodd"/>
        <path id="Trazado_96122" data-name="Trazado 96122" d="M153.029,96.491l-6.9-.159-1.605-.844-.21.844-2.556-.262-.028-4.375,3.638.079S150.211,94.91,152,94.91c1.819,0,1.026,1.581,1.026,1.581Z" transform="translate(-116.27 -21.775)" fill="#167377" fill-rule="evenodd"/>
        <path id="Trazado_96123" data-name="Trazado 96123" d="M135.462,96.491l6.931-.159L144,95.489l.214.844,2.528-.262.052-4.375-3.634.079s-4.851,3.135-6.642,3.135c-1.819,0-1.054,1.581-1.054,1.581Z" transform="translate(-135.303 -21.775)" fill="#167377" fill-rule="evenodd"/>
        <path id="Trazado_96124" data-name="Trazado 96124" d="M142.616,101.849h6.06l-7.827-8.909,7.669-14.885c-6.044-.17-9.468,8.834-12.167,14.774a2.636,2.636,0,0,0,.487,2.893Z" transform="translate(-132.889 -62.202)" fill="#167377" fill-rule="evenodd"/>
        <path id="Trazado_96125" data-name="Trazado 96125" d="M148.281,101.136l-5.029,3.266,5.188-11.2-7.823-15.151c5.917-.166,9.345,8,12.02,13.835a3.722,3.722,0,0,1-.369,3.729Z" transform="translate(-119.559 -62.202)" fill="#167377" fill-rule="evenodd"/>
        <path id="Trazado_96126" data-name="Trazado 96126" d="M139.151,75.869c-.606.079-1,.9-.9,1.847s.686,1.657,1.292,1.577c.606-.052,1.026-.892.9-1.843-.107-.947-.686-1.661-1.292-1.581Z" transform="translate(-126.606 -68.688)" fill="#ffb699" fill-rule="evenodd"/>
        <path id="Trazado_96127" data-name="Trazado 96127" d="M142.325,75.869c.606.079,1,.9.9,1.847s-.686,1.657-1.292,1.577c-.606-.052-1-.892-.9-1.843s.686-1.661,1.292-1.581Z" transform="translate(-118.371 -68.688)" fill="#ffb699" fill-rule="evenodd"/>
        <path id="Trazado_96128" data-name="Trazado 96128" d="M145.977,77.986h1.688a8.344,8.344,0,0,1,8.327,8.326V102.1a6.08,6.08,0,0,1-6.06,6.06h-6.218a6.081,6.081,0,0,1-6.064-6.06V86.312a8.344,8.344,0,0,1,8.327-8.326Z" transform="translate(-128.348 -62.399)" fill="#167377" fill-rule="evenodd"/>
        <path id="Trazado_96129" data-name="Trazado 96129" d="M139.3,77.421h5.061v2.211a2.235,2.235,0,0,1-2.215,2.243h-.606a2.24,2.24,0,0,1-2.239-2.243Z" transform="translate(-123.461 -64.073)" fill="#e58d6e" fill-rule="evenodd"/>
        <path id="Trazado_96130" data-name="Trazado 96130" d="M143.962,74.249c3.083-.051,5.639,3.139,5.719,7.142s-2.37,7.328-5.453,7.379c-3.059.051-5.639-3.163-5.691-7.169-.079-4,2.342-7.3,5.425-7.352Z" transform="translate(-125.727 -73.472)" fill="#ffb699" fill-rule="evenodd"/>
        <path id="Trazado_96131" data-name="Trazado 96131" d="M138.127,81.57h19.982a.912.912,0,0,1,.915.884V96.376a.912.912,0,0,1-.915.884H138.127a.892.892,0,0,1-.915-.884V82.454a.892.892,0,0,1,.915-.884Z" transform="translate(-129.645 -51.779)" fill="#f9eff4" fill-rule="evenodd"/>
        <path id="Trazado_96132" data-name="Trazado 96132" d="M142.127,88.613a2.9,2.9,0,1,0-2.893-2.9,2.913,2.913,0,0,0,2.893,2.9Z" transform="translate(-123.654 -48.066)" fill="#c8c6cc" fill-rule="evenodd"/>
        <path id="Trazado_96133" data-name="Trazado 96133" d="M151.913,77.9s-2.378-3.5-6.147-3.824-6.274,3.5-6.274,3.5a1.781,1.781,0,0,0-1.177,1.827c-.052,1.558,1.423,4.8,1.423,4.8l.3-2.536a3.155,3.155,0,0,0,.793-1.062,2.454,2.454,0,0,0-.162-1.145,11.8,11.8,0,0,0,5.295,1.09,7.118,7.118,0,0,0,2.445-.38,1.228,1.228,0,0,0,.012.436,3.215,3.215,0,0,0,.789,1.062l.3,2.536s1.482-3.242,1.427-4.8a2.152,2.152,0,0,0-.119-.527A8.421,8.421,0,0,0,151.913,77.9Z" transform="translate(-126.378 -74.053)" fill="#00223d"/>
      </g>
    </g>
  </g>
</svg>
