<svg xmlns="http://www.w3.org/2000/svg" width="38.565" height="38.562" viewBox="0 0 38.565 38.562">
  <g id="Grupo_899997" data-name="Grupo 899997" transform="translate(11309.335 11798.99)">
    <path id="Trazado_617711" data-name="Trazado 617711" d="M2041.5,1008.158a1.251,1.251,0,0,1-.266,1.38l-2.309,2.3a1.515,1.515,0,0,0,0,2.143l3.723,3.733a1.516,1.516,0,0,0,2.143,0l2.291-2.286a1.273,1.273,0,0,1,1.438-.236q.44.2.894.372a1.274,1.274,0,0,1,.846,1.185l-.005,3.236a1.515,1.515,0,0,0,1.513,1.518l5.272.009a1.515,1.515,0,0,0,1.518-1.512l.005-3.269a1.246,1.246,0,0,1,.794-1.163c.306-.119.662-.26.991-.4a1.251,1.251,0,0,1,1.379.267l2.3,2.311a1.515,1.515,0,0,0,2.143,0l3.736-3.72a1.516,1.516,0,0,0,0-2.143l-2.284-2.293a1.274,1.274,0,0,1-.234-1.439q.2-.44.373-.893a1.275,1.275,0,0,1,1.186-.845l3.236.008a1.516,1.516,0,0,0,1.519-1.511l.013-5.272a1.515,1.515,0,0,0-1.512-1.519l-3.269-.008a1.245,1.245,0,0,1-1.162-.795c-.119-.307-.26-.662-.4-.991a1.251,1.251,0,0,1,.268-1.379l2.313-2.3a1.516,1.516,0,0,0,.006-2.143l-3.717-3.739a1.515,1.515,0,0,0-2.143-.006l-2.3,2.283a1.272,1.272,0,0,1-1.438.232q-.461-.211-.937-.391a1.273,1.273,0,0,1-.847-1.183v-3.236a1.515,1.515,0,0,0-1.515-1.516H2051.8a1.515,1.515,0,0,0-1.515,1.516v3.267a1.246,1.246,0,0,1-.792,1.165c-.306.119-.661.261-.99.4a1.25,1.25,0,0,1-1.38-.265l-2.3-2.306a1.516,1.516,0,0,0-2.143,0l-3.73,3.727a1.515,1.515,0,0,0,0,2.143l2.287,2.29a1.274,1.274,0,0,1,.237,1.438q-.2.44-.372.894a1.274,1.274,0,0,1-1.185.847l-3.236,0a1.516,1.516,0,0,0-1.517,1.514l0,5.272a1.515,1.515,0,0,0,1.514,1.517l4.134,0C2040.816,1006.431,2041.161,1007.369,2041.5,1008.158Zm15.63,1.042a7.47,7.47,0,1,1,4.653-8.311A7.472,7.472,0,0,1,2057.128,1009.2Z" transform="translate(-13344.486 -12781.946)" fill="#4d5068"/>
  </g>
</svg>
