<svg xmlns="http://www.w3.org/2000/svg" width="190.275" height="130.754" viewBox="0 0 190.275 130.754">
  <path id="Trazado_618683" data-name="Trazado 618683" d="M94.307-52.616q0,26.4-10.925,40.38T51.393,1.748q-20.8,0-31.814-13.722T8.3-51.305V-74.729q0-26.658,11.056-40.467t31.858-13.81q20.8,0,31.814,13.678T94.307-76.04ZM69.048-78.37q0-15.836-4.326-23.054t-13.5-7.218q-8.915,0-13.154,6.868T33.563-80.3v30.97q0,15.573,4.239,23.14t13.591,7.568q9.265,0,13.373-7.261T69.048-48.1ZM198.578,0H111.351V-17.306l41.167-43.876a101.557,101.557,0,0,0,12.542-16.169q4.064-6.9,4.064-13.11,0-8.478-4.283-13.329T152.6-108.641q-8.565,0-13.5,5.9t-4.938,15.514H108.816a41.72,41.72,0,0,1,5.55-21.239,39.117,39.117,0,0,1,15.689-15.077,47.685,47.685,0,0,1,22.987-5.463q19.666,0,30.547,9.439T194.47-92.909a42.788,42.788,0,0,1-4.895,19.229q-4.895,9.789-16.781,22.812l-28.93,30.5h54.714Z" transform="translate(-8.303 129.006)" fill="#12263f" opacity="0.089"/>
</svg>
