<svg xmlns="http://www.w3.org/2000/svg" xmlns:xlink="http://www.w3.org/1999/xlink" width="122" height="116.609" viewBox="0 0 122 116.609">
  <defs>
    <filter id="Rect치ngulo_303695" x="0" y="0" width="122" height="116.609" filterUnits="userSpaceOnUse">
      <feOffset dy="3" input="SourceAlpha"/>
      <feGaussianBlur stdDeviation="3" result="blur"/>
      <feFlood flood-opacity="0.161"/>
      <feComposite operator="in" in2="blur"/>
      <feComposite in="SourceGraphic"/>
    </filter>
  </defs>
  <g id="Grupo_900014" data-name="Grupo 900014" transform="translate(-171 -7928.497)">
    <g transform="matrix(1, 0, 0, 1, 171, 7928.5)" filter="url(#Rect치ngulo_303695)">
      <rect id="Rect치ngulo_303695-2" data-name="Rect치ngulo 303695" width="104" height="98.609" rx="10" transform="translate(9 6)" fill="#e8e8e8"/>
    </g>
    <path id="Trazado_618682" data-name="Trazado 618682" d="M47.417-26.455q0,13.271-5.493,20.3T25.84.879q-10.459,0-16-6.9T4.175-25.8V-37.573q0-13.4,5.559-20.347t16.018-6.943q10.459,0,16,6.877t5.669,19.753ZM34.717-39.4q0-7.962-2.175-11.591a7.351,7.351,0,0,0-6.79-3.629,7.221,7.221,0,0,0-6.614,3.453q-2.131,3.453-2.263,10.8V-24.8q0,7.83,2.131,11.635A7.254,7.254,0,0,0,25.84-9.36a7.132,7.132,0,0,0,6.724-3.651q2.065-3.651,2.153-11.173Zm23.159,7.939,3.691-32.52H97.427v10.591H71.982L70.4-39.639a20.135,20.135,0,0,1,9.624-2.417q9.141,0,14.326,5.669t5.186,15.864a23.2,23.2,0,0,1-2.615,11.1,18.455,18.455,0,0,1-7.493,7.6A23.391,23.391,0,0,1,77.915.879,24.839,24.839,0,0,1,67.148-1.472,19.1,19.1,0,0,1,59.3-8.086,18.025,18.025,0,0,1,56.25-17.8H68.818a9.388,9.388,0,0,0,2.791,6.218A8.847,8.847,0,0,0,77.871-9.36a7.808,7.808,0,0,0,6.636-3.1q2.329-3.1,2.329-8.767,0-5.449-2.681-8.35t-7.6-2.9A10.994,10.994,0,0,0,69.214-30.1l-1.23,1.143Z" transform="translate(180 8016.498)" fill="#12263f" opacity="0.23"/>
  </g>
</svg>
