<svg id="Grupo_897476" data-name="Grupo 897476" xmlns="http://www.w3.org/2000/svg" xmlns:xlink="http://www.w3.org/1999/xlink" width="48.766" height="47.027" viewBox="0 0 48.766 47.027">
  <defs>
    <clipPath id="clip-path">
      <rect id="Rectángulo_303027" data-name="Rectángulo 303027" width="48.766" height="47.027" fill="none"/>
    </clipPath>
    <clipPath id="clip-path-2">
      <path id="Trazado_612027" data-name="Trazado 612027" d="M101.432,49.389c.7.031,2.594.555,3.259.222,1.769-.763,2.4-3.035,2.053-4.805-.473-2.5-2.283-2.311-4.292-2.612,3.327.827,2.4,7.327-1.02,7.2" transform="translate(-101.432 -42.194)" fill="none"/>
    </clipPath>
    <linearGradient id="linear-gradient" x1="-3.779" y1="5.761" x2="-3.74" y2="5.761" gradientUnits="objectBoundingBox">
      <stop offset="0" stop-color="#7209b7"/>
      <stop offset="0.143" stop-color="#7209b7"/>
      <stop offset="0.229" stop-color="#7614ba"/>
      <stop offset="0.383" stop-color="#8332c4"/>
      <stop offset="0.586" stop-color="#9863d5"/>
      <stop offset="0.827" stop-color="#b5a6eb"/>
      <stop offset="1" stop-color="#ccdbfd"/>
    </linearGradient>
    <clipPath id="clip-path-4">
      <path id="Trazado_612029" data-name="Trazado 612029" d="M61.525,64.473c.7.031,2.594.555,3.259.222,1.769-.763,2.4-3.035,2.053-4.805-.473-2.5-2.283-2.311-4.292-2.612,3.327.827,2.4,7.327-1.02,7.2" transform="translate(-61.525 -57.278)" fill="none"/>
    </clipPath>
    <linearGradient id="linear-gradient-2" x1="-2.237" y1="4.97" x2="-2.199" y2="4.97" xlink:href="#linear-gradient"/>
    <clipPath id="clip-path-6">
      <path id="Trazado_612031" data-name="Trazado 612031" d="M21.618,79.557c.7.031,2.594.555,3.259.222,1.769-.763,2.4-3.035,2.053-4.805-.473-2.5-2.283-2.311-4.292-2.612,3.327.827,2.4,7.327-1.02,7.2" transform="translate(-21.618 -72.362)" fill="none"/>
    </clipPath>
    <linearGradient id="linear-gradient-3" x1="-0.696" y1="4.179" x2="-0.657" y2="4.179" xlink:href="#linear-gradient"/>
  </defs>
  <g id="Grupo_892239" data-name="Grupo 892239">
    <g id="Grupo_892238" data-name="Grupo 892238" clip-path="url(#clip-path)">
      <path id="Trazado_612023" data-name="Trazado 612023" d="M37.915,130.413a6.657,6.657,0,0,0-3.282.383l-14.368,5.364a2.769,2.769,0,0,1-1.367.161l5.834.827a2.766,2.766,0,0,0,1.367-.161l14.368-5.363a6.654,6.654,0,0,1,3.282-.383Z" transform="translate(-13.178 -90.898)" fill="#0e7a84"/>
      <path id="Trazado_612024" data-name="Trazado 612024" d="M35.845.187,3.177,12.382c-2.065.771-3.465,3.706-3.126,6.555L2.734,41.5c.339,2.849,2.288,4.534,4.353,3.763L21.455,39.9A6.531,6.531,0,0,1,28.1,41.044l5.906,4.885a1.062,1.062,0,0,0,1.092.2,2.476,2.476,0,0,0,1.252-2.614l-.42-3.522-.15-1.261c-.263-2.21.823-4.487,2.425-5.085l1.55-.578c2.065-.771,3.466-3.706,3.127-6.555L40.2,3.95C39.86,1.1,37.91-.583,35.845.187" transform="translate(0 0)" fill="#26aab7"/>
      <path id="Trazado_612025" data-name="Trazado 612025" d="M38.084.187,5.417,12.382a4.487,4.487,0,0,0-2.2,2.009,4.27,4.27,0,0,1,1.956-1.62L37.836.577c2.454-.736,4.043.682,4.354,3.762l2.556,21.937c.339,2.849-1.062,5.784-3.127,6.555l-1.549.578c-1.6.6-2.688,2.874-2.425,5.085l.15,1.261.547,4.147a2.924,2.924,0,0,1-.284,1.664,2.831,2.831,0,0,0,.533-2.054l-.42-3.522-.15-1.261c-.263-2.21.823-4.487,2.425-5.085l1.55-.578c2.065-.771,3.466-3.706,3.127-6.555L42.439,3.95C42.1,1.1,40.15-.583,38.084.187" transform="translate(-2.24 0)" fill="#035c65"/>
      <path id="Trazado_612026" data-name="Trazado 612026" d="M125.59,4.287a4.2,4.2,0,0,0-2.336-3.23C123.229.93,117.1.141,116.861.086c1.84.289,2.8,2.231,2.986,3.923l2.683,22.562q.042.37.049.743a7.389,7.389,0,0,1-.967,3.8c-1.949,3.425-4.794,1.151-6.043,5.573a8.466,8.466,0,0,0,.009,3.367l.42,3.522c.148,1.109-.468,2.745-1.78,2.676l5.834.828a1.37,1.37,0,0,0,1.188-.547h0a2.818,2.818,0,0,0,.592-2.13l-.42-3.522a8.506,8.506,0,0,1-.011-3.362,4.192,4.192,0,0,1,2.286-2.984c.28-.113,1.678-.6,1.917-.742a5.19,5.19,0,0,0,2.251-2.683,7.527,7.527,0,0,0,.549-3.23c-.009-.16-.021-.32-.04-.479L125.681,4.837a5.462,5.462,0,0,0-.091-.55" transform="translate(-79.648 -0.06)" fill="#0e7a84"/>
    </g>
  </g>
  <g id="Grupo_892241" data-name="Grupo 892241" transform="translate(30.7 12.771)">
    <g id="Grupo_892240" data-name="Grupo 892240" clip-path="url(#clip-path-2)">
      <rect id="Rectángulo_303028" data-name="Rectángulo 303028" width="7.836" height="5.774" transform="matrix(0.015, -1, 1, 0.015, -0.118, 7.749)" fill="url(#linear-gradient)"/>
    </g>
  </g>
  <g id="Grupo_892243" data-name="Grupo 892243">
    <g id="Grupo_892242" data-name="Grupo 892242" clip-path="url(#clip-path)">
      <path id="Trazado_612028" data-name="Trazado 612028" d="M96.8,42.262c-1.4.522-2.343,2.507-2.114,4.433s1.547,3.066,2.943,2.544,2.344-2.505,2.115-4.432S98.194,41.74,96.8,42.262" transform="translate(-66.003 -29.383)" fill="#f8faff"/>
    </g>
  </g>
  <g id="Grupo_892245" data-name="Grupo 892245" transform="translate(18.621 17.336)">
    <g id="Grupo_892244" data-name="Grupo 892244" clip-path="url(#clip-path-4)">
      <rect id="Rectángulo_303030" data-name="Rectángulo 303030" width="7.836" height="5.774" transform="matrix(0.015, -1, 1, 0.015, -0.118, 7.749)" fill="url(#linear-gradient-2)"/>
    </g>
  </g>
  <g id="Grupo_892247" data-name="Grupo 892247">
    <g id="Grupo_892246" data-name="Grupo 892246" clip-path="url(#clip-path)">
      <path id="Trazado_612030" data-name="Trazado 612030" d="M56.891,57.346c-1.4.521-2.343,2.506-2.114,4.433s1.547,3.066,2.943,2.544,2.344-2.505,2.115-4.433-1.548-3.067-2.944-2.545" transform="translate(-38.174 -39.901)" fill="#f8faff"/>
    </g>
  </g>
  <g id="Grupo_892249" data-name="Grupo 892249" transform="translate(6.543 21.901)">
    <g id="Grupo_892248" data-name="Grupo 892248" clip-path="url(#clip-path-6)">
      <rect id="Rectángulo_303032" data-name="Rectángulo 303032" width="7.836" height="5.774" transform="matrix(0.015, -1, 1, 0.015, -0.118, 7.749)" fill="url(#linear-gradient-3)"/>
    </g>
  </g>
  <g id="Grupo_892251" data-name="Grupo 892251">
    <g id="Grupo_892250" data-name="Grupo 892250" clip-path="url(#clip-path)">
      <path id="Trazado_612032" data-name="Trazado 612032" d="M16.985,72.43c-1.4.521-2.343,2.506-2.114,4.433s1.546,3.066,2.943,2.544,2.344-2.505,2.115-4.433-1.548-3.067-2.945-2.545" transform="translate(-10.346 -50.42)" fill="#f8faff"/>
    </g>
  </g>
</svg>
