<svg id="Grupo_897482" data-name="Grupo 897482" xmlns="http://www.w3.org/2000/svg" xmlns:xlink="http://www.w3.org/1999/xlink" width="33.884" height="33.466" viewBox="0 0 33.884 33.466">
  <defs>
    <clipPath id="clip-path">
      <rect id="Rectángulo_295102" data-name="Rectángulo 295102" width="33.884" height="33.466" fill="none"/>
    </clipPath>
    <clipPath id="clip-path-3">
      <path id="Trazado_597109" data-name="Trazado 597109" d="M16.988.9A2.228,2.228,0,0,0,14.76,3.131V13.557H4.334a2.228,2.228,0,0,0-2.227,2.228v3.39A2.227,2.227,0,0,0,4.334,21.4H14.76V31.828a2.228,2.228,0,0,0,2.227,2.228h3.391a2.228,2.228,0,0,0,2.227-2.228V21.4H33.031a2.227,2.227,0,0,0,2.227-2.227v-3.39a2.228,2.228,0,0,0-2.227-2.228H22.606V3.131A2.228,2.228,0,0,0,20.378.9Z" transform="translate(-2.107 -0.904)" fill="none"/>
    </clipPath>
    <clipPath id="clip-path-4">
      <rect id="Rectángulo_295101" data-name="Rectángulo 295101" width="15.286" height="16.89" fill="none"/>
    </clipPath>
    <clipPath id="clip-path-7">
      <rect id="Rectángulo_295049" data-name="Rectángulo 295049" width="15.194" height="16.79" fill="none"/>
    </clipPath>
    <clipPath id="clip-path-8">
      <rect id="Rectángulo_295050" data-name="Rectángulo 295050" width="15.1" height="16.689" fill="none"/>
    </clipPath>
    <clipPath id="clip-path-9">
      <rect id="Rectángulo_295051" data-name="Rectángulo 295051" width="15.009" height="16.59" fill="none"/>
    </clipPath>
    <clipPath id="clip-path-10">
      <rect id="Rectángulo_295052" data-name="Rectángulo 295052" width="14.918" height="16.487" fill="none"/>
    </clipPath>
    <clipPath id="clip-path-11">
      <rect id="Rectángulo_295053" data-name="Rectángulo 295053" width="14.827" height="16.386" fill="none"/>
    </clipPath>
    <clipPath id="clip-path-12">
      <rect id="Rectángulo_295054" data-name="Rectángulo 295054" width="14.738" height="16.283" fill="none"/>
    </clipPath>
    <clipPath id="clip-path-13">
      <rect id="Rectángulo_295055" data-name="Rectángulo 295055" width="14.648" height="16.179" fill="none"/>
    </clipPath>
    <clipPath id="clip-path-14">
      <rect id="Rectángulo_295056" data-name="Rectángulo 295056" width="14.56" height="16.076" fill="none"/>
    </clipPath>
    <clipPath id="clip-path-15">
      <rect id="Rectángulo_295057" data-name="Rectángulo 295057" width="14.472" height="15.97" fill="none"/>
    </clipPath>
    <clipPath id="clip-path-16">
      <rect id="Rectángulo_295058" data-name="Rectángulo 295058" width="14.386" height="15.863" fill="none"/>
    </clipPath>
    <clipPath id="clip-path-17">
      <rect id="Rectángulo_295059" data-name="Rectángulo 295059" width="14.333" height="15.755" fill="none"/>
    </clipPath>
    <clipPath id="clip-path-18">
      <rect id="Rectángulo_295060" data-name="Rectángulo 295060" width="14.284" height="15.648" fill="none"/>
    </clipPath>
    <clipPath id="clip-path-19">
      <rect id="Rectángulo_295061" data-name="Rectángulo 295061" width="14.237" height="15.537" fill="none"/>
    </clipPath>
    <clipPath id="clip-path-20">
      <rect id="Rectángulo_295062" data-name="Rectángulo 295062" width="14.189" height="15.426" fill="none"/>
    </clipPath>
    <clipPath id="clip-path-21">
      <rect id="Rectángulo_295063" data-name="Rectángulo 295063" width="14.141" height="15.314" fill="none"/>
    </clipPath>
    <clipPath id="clip-path-22">
      <rect id="Rectángulo_295064" data-name="Rectángulo 295064" width="14.094" height="15.2" fill="none"/>
    </clipPath>
    <clipPath id="clip-path-23">
      <rect id="Rectángulo_295065" data-name="Rectángulo 295065" width="14.046" height="15.085" fill="none"/>
    </clipPath>
    <clipPath id="clip-path-24">
      <rect id="Rectángulo_295066" data-name="Rectángulo 295066" width="13.998" height="14.968" fill="none"/>
    </clipPath>
    <clipPath id="clip-path-25">
      <rect id="Rectángulo_295067" data-name="Rectángulo 295067" width="13.952" height="14.85" fill="none"/>
    </clipPath>
    <clipPath id="clip-path-26">
      <rect id="Rectángulo_295068" data-name="Rectángulo 295068" width="13.904" height="14.73" fill="none"/>
    </clipPath>
    <clipPath id="clip-path-27">
      <rect id="Rectángulo_295069" data-name="Rectángulo 295069" width="13.855" height="14.61" fill="none"/>
    </clipPath>
    <clipPath id="clip-path-28">
      <rect id="Rectángulo_295070" data-name="Rectángulo 295070" width="13.809" height="14.487" fill="none"/>
    </clipPath>
    <clipPath id="clip-path-29">
      <rect id="Rectángulo_295071" data-name="Rectángulo 295071" width="13.762" height="14.364" fill="none"/>
    </clipPath>
    <clipPath id="clip-path-30">
      <rect id="Rectángulo_295072" data-name="Rectángulo 295072" width="13.712" height="14.24" fill="none"/>
    </clipPath>
    <clipPath id="clip-path-31">
      <rect id="Rectángulo_295073" data-name="Rectángulo 295073" width="13.666" height="14.113" fill="none"/>
    </clipPath>
    <clipPath id="clip-path-32">
      <rect id="Rectángulo_295074" data-name="Rectángulo 295074" width="13.618" height="13.986" fill="none"/>
    </clipPath>
    <clipPath id="clip-path-33">
      <rect id="Rectángulo_295075" data-name="Rectángulo 295075" width="13.568" height="13.858" fill="none"/>
    </clipPath>
    <clipPath id="clip-path-34">
      <rect id="Rectángulo_295076" data-name="Rectángulo 295076" width="13.52" height="13.728" fill="none"/>
    </clipPath>
    <clipPath id="clip-path-35">
      <rect id="Rectángulo_295077" data-name="Rectángulo 295077" width="13.471" height="13.599" fill="none"/>
    </clipPath>
    <clipPath id="clip-path-36">
      <rect id="Rectángulo_295078" data-name="Rectángulo 295078" width="13.422" height="13.467" fill="none"/>
    </clipPath>
    <clipPath id="clip-path-37">
      <rect id="Rectángulo_295079" data-name="Rectángulo 295079" width="13.371" height="13.336" fill="none"/>
    </clipPath>
    <clipPath id="clip-path-38">
      <rect id="Rectángulo_295080" data-name="Rectángulo 295080" width="13.321" height="13.205" fill="none"/>
    </clipPath>
    <clipPath id="clip-path-39">
      <rect id="Rectángulo_295081" data-name="Rectángulo 295081" width="13.269" height="13.072" fill="none"/>
    </clipPath>
    <clipPath id="clip-path-40">
      <rect id="Rectángulo_295082" data-name="Rectángulo 295082" width="13.216" height="12.94" fill="none"/>
    </clipPath>
    <clipPath id="clip-path-41">
      <rect id="Rectángulo_295083" data-name="Rectángulo 295083" width="13.163" height="12.808" fill="none"/>
    </clipPath>
    <clipPath id="clip-path-42">
      <rect id="Rectángulo_295084" data-name="Rectángulo 295084" width="13.109" height="12.675" fill="none"/>
    </clipPath>
    <clipPath id="clip-path-43">
      <rect id="Rectángulo_295085" data-name="Rectángulo 295085" width="13.053" height="12.543" fill="none"/>
    </clipPath>
    <clipPath id="clip-path-44">
      <rect id="Rectángulo_295086" data-name="Rectángulo 295086" width="12.995" height="12.412" fill="none"/>
    </clipPath>
    <clipPath id="clip-path-45">
      <rect id="Rectángulo_295087" data-name="Rectángulo 295087" width="12.937" height="12.28" fill="none"/>
    </clipPath>
    <clipPath id="clip-path-46">
      <rect id="Rectángulo_295088" data-name="Rectángulo 295088" width="12.877" height="12.149" fill="none"/>
    </clipPath>
    <clipPath id="clip-path-47">
      <rect id="Rectángulo_295089" data-name="Rectángulo 295089" width="12.815" height="12.02" fill="none"/>
    </clipPath>
    <clipPath id="clip-path-48">
      <rect id="Rectángulo_295090" data-name="Rectángulo 295090" width="12.753" height="11.89" fill="none"/>
    </clipPath>
    <clipPath id="clip-path-49">
      <rect id="Rectángulo_295091" data-name="Rectángulo 295091" width="12.689" height="11.762" fill="none"/>
    </clipPath>
    <clipPath id="clip-path-50">
      <rect id="Rectángulo_295092" data-name="Rectángulo 295092" width="12.623" height="11.636" fill="none"/>
    </clipPath>
    <clipPath id="clip-path-51">
      <rect id="Rectángulo_295093" data-name="Rectángulo 295093" width="12.555" height="11.51" fill="none"/>
    </clipPath>
    <clipPath id="clip-path-52">
      <rect id="Rectángulo_295094" data-name="Rectángulo 295094" width="12.488" height="11.385" fill="none"/>
    </clipPath>
    <clipPath id="clip-path-53">
      <rect id="Rectángulo_295095" data-name="Rectángulo 295095" width="12.416" height="11.263" fill="none"/>
    </clipPath>
    <clipPath id="clip-path-54">
      <rect id="Rectángulo_295096" data-name="Rectángulo 295096" width="12.344" height="11.141" fill="none"/>
    </clipPath>
    <clipPath id="clip-path-55">
      <rect id="Rectángulo_295097" data-name="Rectángulo 295097" width="12.273" height="11.019" fill="none"/>
    </clipPath>
    <clipPath id="clip-path-56">
      <rect id="Rectángulo_295098" data-name="Rectángulo 295098" width="12.197" height="10.901" fill="none"/>
    </clipPath>
    <clipPath id="clip-path-57">
      <rect id="Rectángulo_295099" data-name="Rectángulo 295099" width="12.121" height="10.784" fill="none"/>
    </clipPath>
  </defs>
  <g id="Grupo_879265" data-name="Grupo 879265" clip-path="url(#clip-path)">
    <g id="Grupo_879100" data-name="Grupo 879100" transform="translate(0 0)">
      <g id="Grupo_879099" data-name="Grupo 879099" clip-path="url(#clip-path)">
        <path id="Trazado_597053" data-name="Trazado 597053" d="M33.031,13.557H22.605V3.131A2.228,2.228,0,0,0,20.377.9h-3.39a2.227,2.227,0,0,0-2.227,2.227V13.557H4.334a2.228,2.228,0,0,0-2.228,2.227v3.391A2.228,2.228,0,0,0,4.334,21.4H14.759V31.828a2.228,2.228,0,0,0,2.227,2.228h3.39a2.228,2.228,0,0,0,2.228-2.228V21.4H33.031a2.227,2.227,0,0,0,2.227-2.227V15.785a2.227,2.227,0,0,0-2.227-2.227" transform="translate(-1.374 -0.59)" fill="#ccdbfd"/>
        <path id="Trazado_597054" data-name="Trazado 597054" d="M16.174,58.457H5.063a1.929,1.929,0,0,1-.789-.169,2.217,2.217,0,0,0,1.475.561H16.174Z" transform="translate(-2.789 -38.036)" fill="#abc4ff"/>
        <path id="Trazado_597055" data-name="Trazado 597055" d="M59.66,3.86V14.971h.392V4.546a2.217,2.217,0,0,0-.561-1.475,1.929,1.929,0,0,1,.169.789" transform="translate(-38.821 -2.004)" fill="#abc4ff"/>
        <path id="Trazado_597056" data-name="Trazado 597056" d="M59.876,39.489a1.923,1.923,0,0,1,.169.789v3.979a1.933,1.933,0,0,1-1.933,1.933H47.392V56.91a1.934,1.934,0,0,1-1.934,1.934H41.48a1.929,1.929,0,0,1-.789-.169,2.218,2.218,0,0,0,1.475.561h3.391a2.227,2.227,0,0,0,2.227-2.227V46.582H58.209a2.228,2.228,0,0,0,2.228-2.228v-3.39a2.216,2.216,0,0,0-.561-1.475" transform="translate(-26.553 -25.768)" fill="#abc4ff"/>
      </g>
    </g>
    <g id="Grupo_879264" data-name="Grupo 879264" transform="translate(0.732 0.314)">
      <g id="Grupo_879263" data-name="Grupo 879263" clip-path="url(#clip-path-3)">
        <g id="Grupo_879262" data-name="Grupo 879262" transform="translate(-0.732 -0.314)" opacity="0.5">
          <g id="Grupo_879261" data-name="Grupo 879261">
            <g id="Grupo_879260" data-name="Grupo 879260" clip-path="url(#clip-path-4)">
              <g id="Grupo_879259" data-name="Grupo 879259">
                <g id="Grupo_879258" data-name="Grupo 879258">
                  <g id="Grupo_879257" data-name="Grupo 879257" clip-path="url(#clip-path-4)">
                    <g id="Grupo_879103" data-name="Grupo 879103" opacity="0">
                      <g id="Grupo_879102" data-name="Grupo 879102">
                        <g id="Grupo_879101" data-name="Grupo 879101" clip-path="url(#clip-path-4)">
                          <path id="Trazado_597057" data-name="Trazado 597057" d="M.731,16.89c-.206,0-.4-.4-.582-1.13l-.066-.288-.033-.155-.016-.08a.712.712,0,0,1-.014-.094,2.744,2.744,0,0,1,.053-.973,3.037,3.037,0,0,1,1.484-1.944,3.193,3.193,0,0,1,.687-.287c.123-.035.25-.059.379-.085l.2-.023L3,11.814l1.107-.086c.765-.054,1.583-.1,2.443-.138s1.763-.067,2.7-.087l1.428-.023,1.214-.008s0,.007.016,0q.013-.622.026-1.226.019-.631.037-1.241c.028-.812.064-1.592.107-2.331.085-1.479.2-2.8.327-3.9l.05-.4q.014-.107.028-.212c.014-.093.023-.185.045-.273a2.533,2.533,0,0,1,.4-.92,2.3,2.3,0,0,1,1.2-.888,1.491,1.491,0,0,1,.883-.016c.193.068.278.164.277.256.027.373-1.457.669-.919,2.458.131,1.1.243,2.423.327,3.9.042.74.078,1.519.107,2.331q.018.61.037,1.241.013.661.026,1.343A2.852,2.852,0,0,1,12.4,14.433c-.123.013-.245.026-.369.028h-.625l-.731-.006-1.428-.023c-.936-.02-1.839-.049-2.7-.087s-1.678-.084-2.443-.138L3,14.12l-.087-.008-.066-.01c-.043,0-.087,0-.13,0a1.227,1.227,0,0,0-.256.036,1.387,1.387,0,0,0-.811.592,1.636,1.636,0,0,0-.2.438.319.319,0,0,0-.018.07l-.016.08-.033.155-.066.288c-.179.728-.375,1.13-.582,1.13" transform="translate(0 0)" fill="#fff"/>
                        </g>
                      </g>
                    </g>
                    <g id="Grupo_879106" data-name="Grupo 879106" transform="translate(0.023 0.031)" opacity="0.02">
                      <g id="Grupo_879105" data-name="Grupo 879105">
                        <g id="Grupo_879104" data-name="Grupo 879104" clip-path="url(#clip-path-7)">
                          <path id="Trazado_597058" data-name="Trazado 597058" d="M.774,16.878c-.2,0-.4-.4-.572-1.125-.021-.093-.043-.189-.065-.287A2.379,2.379,0,0,1,.08,15.12a2.61,2.61,0,0,1,.078-.962,3.034,3.034,0,0,1,1.516-1.889c.1-.058.217-.1.329-.153s.234-.082.356-.115a3.6,3.6,0,0,1,.377-.074c.123-.015.28-.03.349-.035l1.1-.084c.761-.053,1.575-.1,2.431-.136s1.755-.066,2.687-.085l1.421-.023,1.211-.008a.048.048,0,0,0,.036-.024q.013-.619.025-1.221.019-.627.036-1.234c.028-.807.063-1.583.1-2.318.083-1.471.193-2.784.322-3.881q.025-.2.049-.4c.008-.065.017-.129.025-.192l.038-.266a2.556,2.556,0,0,1,.37-.92A2.249,2.249,0,0,1,14.1.182a1.471,1.471,0,0,1,.872-.05c.193.055.281.155.284.243.01.19-.327.346-.626.711a1.5,1.5,0,0,0-.329.682,1.2,1.2,0,0,0-.007.408c.008.037.014.063.02.109.008.064.017.128.025.192q.024.2.049.4c.129,1.1.238,2.41.322,3.881.042.736.077,1.511.1,2.318q.018.607.036,1.234.013.658.025,1.335a2.827,2.827,0,0,1-2.44,2.819c-.121.013-.242.025-.364.027h-.255l-.367,0-.727-.006-1.421-.022c-.932-.019-1.83-.048-2.687-.085s-1.67-.083-2.431-.136l-1.1-.084c-.108-.009-.125-.01-.175-.017s-.087,0-.132-.007l-.131.008c-.041.01-.087.011-.129.024a1.42,1.42,0,0,0-.828.581,1.517,1.517,0,0,0-.212.435,2.2,2.2,0,0,0-.068.285c-.022.1-.044.193-.065.287-.175.724-.369,1.125-.572,1.125" transform="translate(-0.065 -0.088)" fill="#fff"/>
                        </g>
                      </g>
                    </g>
                    <g id="Grupo_879109" data-name="Grupo 879109" transform="translate(0.048 0.062)" opacity="0.039">
                      <g id="Grupo_879108" data-name="Grupo 879108">
                        <g id="Grupo_879107" data-name="Grupo 879107" clip-path="url(#clip-path-8)">
                          <path id="Trazado_597059" data-name="Trazado 597059" d="M.821,16.868c-.2,0-.389-.4-.562-1.119-.02-.093-.042-.188-.064-.285-.01-.051-.02-.1-.031-.154L.143,15.1a2.732,2.732,0,0,1,.1-.952,3.031,3.031,0,0,1,1.548-1.833,3.251,3.251,0,0,1,.685-.248A2.766,2.766,0,0,1,2.852,12l.192-.02.132-.011,1.1-.083c.758-.052,1.567-.1,2.419-.133s1.747-.065,2.674-.084l1.414-.022,1.208-.008a.069.069,0,0,0,.057-.048q.013-.616.025-1.215.018-.623.036-1.228c.027-.8.062-1.574.1-2.3.082-1.463.189-2.768.316-3.858q.025-.2.049-.4.029-.219.058-.431a2.556,2.556,0,0,1,.337-.921A2.27,2.27,0,0,1,13.51.621a2.028,2.028,0,0,1,.574-.329,1.519,1.519,0,0,1,.862-.084c.195.054.284.137.29.23.015.18-.311.354-.6.723a1.557,1.557,0,0,0-.194.314,1.282,1.282,0,0,0-.118.378,1.22,1.22,0,0,0,0,.411c.011.044.03.2.046.324s.032.264.049.4c.127,1.09.234,2.4.316,3.858.041.731.076,1.5.1,2.3q.017.6.036,1.228.013.654.025,1.327a2.8,2.8,0,0,1-2.42,2.795c-.12.013-.239.025-.359.027H11.5l-.723-.006L9.367,14.5c-.927-.019-1.822-.048-2.674-.084s-1.662-.081-2.419-.133l-1.1-.083-.131-.011-.067-.007a.828.828,0,0,0-.134-.008,1.373,1.373,0,0,0-.264.025,1.448,1.448,0,0,0-.846.569,1.7,1.7,0,0,0-.221.431l-.037.112c-.011.052-.021.1-.031.154l-.064.285c-.173.721-.362,1.119-.562,1.119" transform="translate(-0.137 -0.179)" fill="#fff"/>
                        </g>
                      </g>
                    </g>
                    <g id="Grupo_879112" data-name="Grupo 879112" transform="translate(0.069 0.092)" opacity="0.059">
                      <g id="Grupo_879111" data-name="Grupo 879111">
                        <g id="Grupo_879110" data-name="Grupo 879110" clip-path="url(#clip-path-9)">
                          <path id="Trazado_597060" data-name="Trazado 597060" d="M.862,16.854c-.2,0-.382-.4-.552-1.114A3.543,3.543,0,0,1,.2,15.077a2.82,2.82,0,0,1,.131-.94,2.976,2.976,0,0,1,1.577-1.776,3.023,3.023,0,0,1,.682-.231,4.82,4.82,0,0,1,.671-.085l1.091-.082c.754-.051,1.56-.095,2.408-.131S8.5,11.77,9.421,11.75l1.408-.022,1.205-.008a.091.091,0,0,0,.079-.073q.013-.612.025-1.208.018-.62.035-1.221c.027-.8.061-1.565.1-2.292.081-1.454.186-2.752.311-3.837q.024-.2.047-.4l.053-.4a2.54,2.54,0,0,1,.3-.92A2.27,2.27,0,0,1,14.061.4a1.464,1.464,0,0,1,.851-.112c.194.042.287.126.3.211.023.186-.3.356-.577.735a1.6,1.6,0,0,0-.295.7,1.241,1.241,0,0,0,.016.414c0,.023.014.094.022.156s.016.126.025.19q.023.195.048.4c.124,1.084.23,2.382.31,3.837.04.727.074,1.494.1,2.292q.018.6.035,1.221.012.649.025,1.319a2.776,2.776,0,0,1-2.4,2.77c-.118.012-.236.024-.354.026h-.616l-.72-.006-1.408-.022c-.923-.019-1.813-.047-2.661-.083s-1.654-.08-2.408-.131l-1.091-.082-.219-.018a.742.742,0,0,0-.135-.01,1.136,1.136,0,0,0-.266.023,1.416,1.416,0,0,0-.862.556,1.854,1.854,0,0,0-.234.427,5.226,5.226,0,0,0-.132.53c-.17.717-.356,1.114-.552,1.114" transform="translate(-0.2 -0.264)" fill="#fff"/>
                        </g>
                      </g>
                    </g>
                    <g id="Grupo_879115" data-name="Grupo 879115" transform="translate(0.092 0.125)" opacity="0.078">
                      <g id="Grupo_879114" data-name="Grupo 879114">
                        <g id="Grupo_879113" data-name="Grupo 879113" clip-path="url(#clip-path-10)">
                          <path id="Trazado_597061" data-name="Trazado 597061" d="M.9,16.847c-.192,0-.375-.395-.542-1.108L.3,15.456a2.762,2.762,0,0,1-.035-.394,2.641,2.641,0,0,1,.154-.926,2.976,2.976,0,0,1,1.6-1.72,2.432,2.432,0,0,1,.329-.125A2.7,2.7,0,0,1,2.7,12.2a3.1,3.1,0,0,1,.368-.05l.277-.024,1.086-.08c.75-.05,1.552-.093,2.4-.129s1.73-.063,2.648-.081l1.4-.021,1.2-.008a.114.114,0,0,0,.1-.1q.013-.609.024-1.2.018-.617.035-1.214c.027-.794.06-1.556.1-2.279.079-1.446.183-2.737.305-3.815.031-.272.061-.52.1-.773a2.489,2.489,0,0,1,.276-.918,2.217,2.217,0,0,1,1.028-1,1.472,1.472,0,0,1,.837-.143c.193.032.289.114.3.2.028.177-.283.36-.551.746a1.535,1.535,0,0,0-.277.709,1.212,1.212,0,0,0,.023.416c.031.23.064.495.094.762.122,1.078.226,2.368.305,3.815.04.723.073,1.485.1,2.279q.017.6.035,1.214.012.646.024,1.311a2.75,2.75,0,0,1-2.378,2.746c-.116.012-.232.024-.35.026H11.6l-.716-.005-1.4-.021c-.918-.018-1.8-.046-2.648-.081s-1.646-.079-2.4-.129l-1.086-.08-.24-.02a1.213,1.213,0,0,0-.137-.011.88.88,0,0,0-.136,0,.715.715,0,0,0-.134.016,1.447,1.447,0,0,0-.877.542,1.625,1.625,0,0,0-.243.422,2.01,2.01,0,0,0-.074.228l-.062.282c-.166.714-.35,1.108-.542,1.108" transform="translate(-0.266 -0.36)" fill="#fff"/>
                        </g>
                      </g>
                    </g>
                    <g id="Grupo_879118" data-name="Grupo 879118" transform="translate(0.116 0.157)" opacity="0.098">
                      <g id="Grupo_879117" data-name="Grupo 879117">
                        <g id="Grupo_879116" data-name="Grupo 879116" clip-path="url(#clip-path-11)">
                          <path id="Trazado_597062" data-name="Trazado 597062" d="M.949,16.837c-.189,0-.368-.393-.532-1.1-.019-.092-.042-.174-.059-.29a2.447,2.447,0,0,1-.024-.4,2.579,2.579,0,0,1,.177-.913,2.972,2.972,0,0,1,1.63-1.663,3.22,3.22,0,0,1,.676-.2c.118-.019.244-.031.362-.042l.257-.021,1.081-.079c.747-.049,1.544-.092,2.384-.126s1.721-.061,2.635-.08L10.93,11.9l1.2-.008a.138.138,0,0,0,.12-.121q.013-.607.024-1.2.017-.613.034-1.207c.026-.789.059-1.547.1-2.266.077-1.438.179-2.721.3-3.792q.045-.4.093-.763l.033-.233a1.926,1.926,0,0,1,.053-.237,1.615,1.615,0,0,1,.072-.222,1.624,1.624,0,0,1,.088-.205,2.219,2.219,0,0,1,.463-.645,2.03,2.03,0,0,1,.52-.374,1.506,1.506,0,0,1,.822-.174c.194.03.289.1.305.183.034.171-.268.365-.526.756a1.612,1.612,0,0,0-.168.329,1.28,1.28,0,0,0-.09.388.6.6,0,0,0,0,.1.585.585,0,0,0,0,.1.685.685,0,0,0,.013.105l.009.052.01.069q.048.361.093.763c.12,1.072.222,2.354.3,3.792.039.719.072,1.476.1,2.266q.017.594.034,1.207.012.642.024,1.3A2.726,2.726,0,0,1,12.6,14.6c-.115.011-.229.024-.345.025h-.61l-.713-.005L9.536,14.6c-.914-.018-1.8-.045-2.635-.08s-1.638-.077-2.384-.126l-1.081-.079L3.179,14.3c-.051,0-.093-.01-.141-.014a1.419,1.419,0,0,0-.272.016,1.481,1.481,0,0,0-.894.528,1.589,1.589,0,0,0-.251.419,1.8,1.8,0,0,0-.079.218c-.023.081-.041.187-.062.272-.164.711-.343,1.1-.532,1.1" transform="translate(-0.333 -0.452)" fill="#fff"/>
                        </g>
                      </g>
                    </g>
                    <g id="Grupo_879121" data-name="Grupo 879121" transform="translate(0.138 0.19)" opacity="0.118">
                      <g id="Grupo_879120" data-name="Grupo 879120">
                        <g id="Grupo_879119" data-name="Grupo 879119" clip-path="url(#clip-path-12)">
                          <path id="Trazado_597063" data-name="Trazado 597063" d="M.991,16.831c-.185,0-.362-.391-.522-1.1a2.486,2.486,0,0,1-.069-.7,2.766,2.766,0,0,1,.2-.9,2.972,2.972,0,0,1,1.655-1.607c.106-.04.215-.074.327-.108s.229-.054.347-.071l.179-.02.159-.015.256-.021L4.6,12.213c.743-.048,1.537-.09,2.372-.124s1.713-.06,2.622-.078l1.387-.02,1.2-.008a.161.161,0,0,0,.141-.146q.012-.6.024-1.19.017-.61.034-1.2c.026-.785.058-1.538.1-2.253.076-1.429.176-2.7.294-3.77q.044-.4.092-.758c.01-.071.019-.141.028-.21a1.9,1.9,0,0,1,.045-.235,2.638,2.638,0,0,1,.144-.428,2.237,2.237,0,0,1,.941-1.04,1.445,1.445,0,0,1,.809-.2c.191.016.291.087.308.166.041.173-.255.364-.5.765a1.625,1.625,0,0,0-.24.725,1.558,1.558,0,0,0,.006.209.657.657,0,0,0,.016.106c.007.048.014.1.02.144q.047.359.092.758c.118,1.065.218,2.341.294,3.77.038.715.071,1.468.1,2.253q.017.59.034,1.2.011.637.024,1.294a2.7,2.7,0,0,1-2.336,2.7c-.113.011-.226.023-.34.025h-.607l-.709-.005-1.387-.02c-.909-.018-1.786-.044-2.622-.078s-1.629-.075-2.372-.124L3.523,14.36l-.256-.021-.092-.007-.07-.008c-.047,0-.092,0-.139,0l-.137.013a1.512,1.512,0,0,0-.911.515,1.856,1.856,0,0,0-.26.415,2.047,2.047,0,0,0-.145.471c-.16.707-.337,1.1-.522,1.1" transform="translate(-0.397 -0.548)" fill="#fff"/>
                        </g>
                      </g>
                    </g>
                    <g id="Grupo_879124" data-name="Grupo 879124" transform="translate(0.162 0.225)" opacity="0.137">
                      <g id="Grupo_879123" data-name="Grupo 879123">
                        <g id="Grupo_879122" data-name="Grupo 879122" clip-path="url(#clip-path-13)">
                          <path id="Trazado_597064" data-name="Trazado 597064" d="M1.035,16.826c-.182,0-.355-.389-.512-1.092C.514,15.688.5,15.649.494,15.6s-.014-.118-.02-.179a2.587,2.587,0,0,1,0-.393A2.738,2.738,0,0,1,.7,14.138a2.916,2.916,0,0,1,1.675-1.55,3.08,3.08,0,0,1,.67-.162l.178-.019.138-.012.255-.02,1.07-.076c.739-.047,1.529-.088,2.361-.121s1.7-.059,2.609-.077l1.38-.02,1.195-.008a.185.185,0,0,0,.163-.17q.011-.6.023-1.184.017-.606.033-1.193c.025-.78.057-1.529.095-2.24.075-1.421.173-2.689.288-3.748q.043-.4.09-.754l.025-.187c.011-.08.023-.158.036-.234a2.6,2.6,0,0,1,.133-.427,2.186,2.186,0,0,1,.9-1.059A1.475,1.475,0,0,1,14.8.648c.19.009.291.073.311.152.044.162-.24.37-.476.773a1.565,1.565,0,0,0-.22.731,1.626,1.626,0,0,0,.008.209l.019.106.022.165q.046.356.09.754c.115,1.059.213,2.327.288,3.748.038.711.069,1.46.095,2.24q.016.586.033,1.193.011.634.023,1.286a2.675,2.675,0,0,1-2.314,2.674c-.112.011-.223.023-.335.025-.051,0-.123,0-.158,0h-.446L11.03,14.7l-1.38-.02c-.9-.018-1.777-.043-2.609-.077s-1.621-.074-2.361-.121L3.611,14.4l-.438-.036a1.356,1.356,0,0,0-.279,0,1.481,1.481,0,0,0-.925.5,1.882,1.882,0,0,0-.273.409,2.237,2.237,0,0,0-.085.214l-.034.106c-.011.039-.02.089-.03.132-.157.7-.33,1.092-.512,1.092" transform="translate(-0.465 -0.647)" fill="#fff"/>
                        </g>
                      </g>
                    </g>
                    <g id="Grupo_879127" data-name="Grupo 879127" transform="translate(0.184 0.259)" opacity="0.157">
                      <g id="Grupo_879126" data-name="Grupo 879126">
                        <g id="Grupo_879125" data-name="Grupo 879125" clip-path="url(#clip-path-14)">
                          <path id="Trazado_597065" data-name="Trazado 597065" d="M1.076,16.821c-.178,0-.348-.387-.5-1.087a2.535,2.535,0,0,1,.215-1.59,2.911,2.911,0,0,1,1.7-1.492,2.376,2.376,0,0,1,.324-.091l.169-.035.173-.021.169-.017.125-.01.253-.02,1.065-.074c.736-.047,1.521-.087,2.349-.119s1.7-.058,2.6-.075l1.373-.019,1.192-.008a.208.208,0,0,0,.184-.195q.011-.6.023-1.178.016-.6.032-1.186c.025-.776.056-1.52.093-2.227.074-1.413.17-2.673.282-3.726q.043-.4.088-.75L13,2.727q.017-.112.032-.222a1.869,1.869,0,0,1,.05-.22,1.482,1.482,0,0,1,.067-.206,2.187,2.187,0,0,1,.386-.665A2.019,2.019,0,0,1,13.995,1,1.48,1.48,0,0,1,14.77.746c.19.006.289.057.313.136.051.16-.226.372-.451.782a1.687,1.687,0,0,0-.14.341,1.331,1.331,0,0,0-.059.4.508.508,0,0,0,0,.1.693.693,0,0,0,.011.106c.007.04.011.061.018.116l.023.175q.046.354.088.75c.113,1.053.209,2.313.282,3.726.037.706.068,1.451.093,2.227q.016.583.032,1.186.011.63.023,1.278a2.649,2.649,0,0,1-2.294,2.649c-.11.011-.22.023-.33.024-.051,0-.12,0-.157,0h-.444l-.7,0-1.373-.019c-.9-.017-1.768-.043-2.6-.075S5.5,14.57,4.762,14.524L3.7,14.449l-.456-.036-.072-.008H3.1a.811.811,0,0,0-.14.007,1.509,1.509,0,0,0-.94.484,1.636,1.636,0,0,0-.281.4,2.3,2.3,0,0,0-.094.211l-.033.106a.752.752,0,0,0-.032.116c-.154.7-.324,1.087-.5,1.087" transform="translate(-0.528 -0.746)" fill="#fff"/>
                        </g>
                      </g>
                    </g>
                    <g id="Grupo_879130" data-name="Grupo 879130" transform="translate(0.208 0.295)" opacity="0.176">
                      <g id="Grupo_879129" data-name="Grupo 879129">
                        <g id="Grupo_879128" data-name="Grupo 879128" clip-path="url(#clip-path-15)">
                          <path id="Trazado_597066" data-name="Trazado 597066" d="M1.121,16.82c-.174,0-.341-.383-.492-1.083a2.555,2.555,0,0,1,.256-1.582A2.909,2.909,0,0,1,2.6,12.72a2.979,2.979,0,0,1,.661-.131l.524-.043,1.059-.073c.732-.046,1.514-.085,2.337-.117s1.687-.057,2.583-.074l1.366-.019,1.189-.008a.232.232,0,0,0,.2-.219q.011-.594.022-1.172.016-.6.032-1.179c.024-.771.055-1.511.091-2.214.072-1.4.166-2.658.277-3.7q.044-.387.086-.745l.05-.373a2.408,2.408,0,0,1,.1-.424,2.19,2.19,0,0,1,.806-1.094,1.436,1.436,0,0,1,.757-.281c.185-.009.29.05.314.121.056.157-.215.37-.427.787a1.628,1.628,0,0,0-.181.743,1.381,1.381,0,0,0,.021.212l.042.31.087.745c.111,1.047.2,2.3.277,3.7.036.7.066,1.443.091,2.214q.016.58.032,1.179.011.625.023,1.27a2.624,2.624,0,0,1-2.272,2.625c-.109.011-.217.022-.326.024-.051,0-.117,0-.155,0h-.442l-.7,0-1.366-.019c-.9-.017-1.759-.042-2.583-.074s-1.605-.071-2.337-.117L3.786,14.5l-.474-.037a1.317,1.317,0,0,0-.284,0,1.539,1.539,0,0,0-.955.467,1.928,1.928,0,0,0-.458.817c-.152.692-.318,1.08-.493,1.079" transform="translate(-0.597 -0.85)" fill="#fff"/>
                        </g>
                      </g>
                    </g>
                    <g id="Grupo_879133" data-name="Grupo 879133" transform="translate(0.23 0.332)" opacity="0.196">
                      <g id="Grupo_879132" data-name="Grupo 879132">
                        <g id="Grupo_879131" data-name="Grupo 879131" clip-path="url(#clip-path-16)">
                          <path id="Trazado_597067" data-name="Trazado 597067" d="M1.163,16.819c-.085,0-.169-.1-.25-.278A2.742,2.742,0,0,1,.794,16.2q-.029-.1-.058-.215a1.929,1.929,0,0,1-.052-.26,2.4,2.4,0,0,1,.007-.722,2.752,2.752,0,0,1,.289-.838A2.9,2.9,0,0,1,2.714,12.79c.1-.032.212-.051.32-.075s.222-.028.336-.041l.5-.04,1.053-.071c.728-.044,1.507-.083,2.325-.114s1.678-.056,2.569-.072l1.359-.019,1.187-.008a.255.255,0,0,0,.225-.243q.011-.592.022-1.165.016-.6.031-1.172c.024-.767.054-1.5.089-2.2.071-1.4.163-2.642.272-3.682l.084-.741q.023-.179.046-.351c.011-.073.023-.145.034-.217l.054-.2a2.157,2.157,0,0,1,.761-1.108,1.483,1.483,0,0,1,.738-.309c.185-.011.287.034.315.107.058.145-.2.375-.4.794a1.6,1.6,0,0,0-.162.748c0,.035,0,.07.007.105l.018.107.043.329.084.741c.109,1.04.2,2.286.272,3.682.035.7.065,1.434.089,2.2q.016.576.032,1.172.01.621.022,1.261a2.6,2.6,0,0,1-2.251,2.6c-.107.011-.214.022-.321.024-.05,0-.114,0-.154,0h-.44l-.695,0L9.82,14.8c-.891-.017-1.751-.041-2.569-.072s-1.6-.07-2.325-.114l-1.053-.071-.492-.038c-.048,0-.1-.01-.144-.011s-.1,0-.142,0a1.559,1.559,0,0,0-.97.451,1.977,1.977,0,0,0-.3.394,2.106,2.106,0,0,0-.174.413c-.024.059-.04.157-.06.229s-.038.149-.057.215a2.8,2.8,0,0,1-.119.337c-.081.182-.164.278-.25.278" transform="translate(-0.661 -0.956)" fill="#fff"/>
                        </g>
                      </g>
                    </g>
                    <g id="Grupo_879136" data-name="Grupo 879136" transform="translate(0.252 0.371)" opacity="0.216">
                      <g id="Grupo_879135" data-name="Grupo 879135">
                        <g id="Grupo_879134" data-name="Grupo 879134" clip-path="url(#clip-path-17)">
                          <path id="Trazado_597068" data-name="Trazado 597068" d="M1.2,16.823c-.084,0-.166-.1-.245-.277a2.772,2.772,0,0,1-.116-.336C.825,16.144.806,16.073.787,16c-.009-.039-.019-.076-.027-.121l-.02-.152a2.5,2.5,0,0,1,.338-1.535,2.856,2.856,0,0,1,1.747-1.323c.1-.023.21-.049.319-.066l.165-.019.154-.015.494-.038,1.048-.07c.725-.044,1.5-.081,2.313-.112s1.67-.055,2.557-.071l1.352-.018,1.184-.008a.279.279,0,0,0,.247-.268q.01-.588.021-1.159.016-.593.031-1.165c.024-.762.053-1.494.088-2.188.069-1.388.159-2.626.266-3.66q.043-.383.083-.736.022-.173.043-.338a2.761,2.761,0,0,1,.077-.41,2.167,2.167,0,0,1,.309-.677,2.015,2.015,0,0,1,.406-.445,1.458,1.458,0,0,1,.719-.331c.182-.019.286.022.314.09.065.147-.187.374-.376.8a1.609,1.609,0,0,0-.14.753,2.19,2.19,0,0,0,.027.221q.021.165.043.338.04.354.083.736c.107,1.034.2,2.272.266,3.66.035.694.064,1.425.088,2.188q.015.573.031,1.165.01.618.022,1.254a2.574,2.574,0,0,1-2.23,2.577c-.106.01-.211.021-.317.023-.05,0-.112,0-.153,0H11.92l-.692,0-1.352-.018c-.886-.016-1.742-.04-2.557-.071s-1.589-.068-2.313-.112L3.958,14.6l-.494-.038-.086-.006L3.3,14.549c-.048,0-.1,0-.144,0a1.543,1.543,0,0,0-.983.436,1.89,1.89,0,0,0-.494.8l-.033.1L1.622,16c-.019.076-.038.148-.056.214a2.772,2.772,0,0,1-.116.336c-.079.181-.161.277-.245.277" transform="translate(-0.725 -1.067)" fill="#fff"/>
                        </g>
                      </g>
                    </g>
                    <g id="Grupo_879139" data-name="Grupo 879139" transform="translate(0.275 0.409)" opacity="0.235">
                      <g id="Grupo_879138" data-name="Grupo 879138">
                        <g id="Grupo_879137" data-name="Grupo 879137" clip-path="url(#clip-path-18)">
                          <path id="Trazado_597069" data-name="Trazado 597069" d="M1.248,16.825c-.082,0-.162-.095-.239-.275a2.812,2.812,0,0,1-.114-.334C.876,16.15.858,16.079.839,16A2.8,2.8,0,0,1,.8,15.719a2.352,2.352,0,0,1,.052-.706,2.5,2.5,0,0,1,.328-.8,2.853,2.853,0,0,1,1.761-1.265,2.562,2.562,0,0,1,.316-.058c.1-.013.231-.025.3-.03l.492-.038,1.043-.068c.721-.043,1.491-.08,2.3-.109s1.662-.054,2.543-.069l1.346-.018,1.181-.007a.3.3,0,0,0,.268-.292q.01-.585.021-1.153.016-.589.03-1.158c.023-.757.052-1.485.086-2.174.068-1.38.156-2.61.26-3.638q.042-.38.081-.732.021-.171.042-.336l.026-.187a1.719,1.719,0,0,1,.038-.2,2.153,2.153,0,0,1,.67-1.132,1.442,1.442,0,0,1,.7-.354c.177-.03.284.011.314.076.068.139-.175.373-.352.8a1.641,1.641,0,0,0-.121.757L14.6,3.4l.081.732c.1,1.028.192,2.258.26,3.638.034.69.063,1.417.086,2.174q.015.569.03,1.158.01.613.021,1.245A2.548,2.548,0,0,1,12.866,14.9c-.1.01-.208.021-.312.023-.05,0-.109,0-.153,0h-.435l-.688,0L9.933,14.9c-.882-.016-1.733-.039-2.543-.069s-1.581-.067-2.3-.109l-1.043-.068-.492-.037L3.376,14.6a1.07,1.07,0,0,0-.145,0,1.571,1.571,0,0,0-1,.417,1.674,1.674,0,0,0-.319.382,2.041,2.041,0,0,0-.2.4c-.019.07-.044.123-.062.2s-.037.147-.055.213a2.812,2.812,0,0,1-.114.334c-.077.18-.157.275-.239.275" transform="translate(-0.791 -1.178)" fill="#fff"/>
                        </g>
                      </g>
                    </g>
                    <g id="Grupo_879142" data-name="Grupo 879142" transform="translate(0.297 0.45)" opacity="0.255">
                      <g id="Grupo_879141" data-name="Grupo 879141">
                        <g id="Grupo_879140" data-name="Grupo 879140" clip-path="url(#clip-path-19)">
                          <path id="Trazado_597070" data-name="Trazado 597070" d="M1.289,16.832c-.08,0-.158-.094-.234-.274a2.81,2.81,0,0,1-.112-.332c-.018-.067-.037-.132-.053-.216a2.749,2.749,0,0,1-.034-.29,2.514,2.514,0,0,1,.418-1.485,2.849,2.849,0,0,1,1.775-1.207,2.076,2.076,0,0,1,.313-.051l.159-.016.119-.009.489-.036,1.038-.067c.717-.042,1.483-.078,2.29-.107s1.653-.052,2.53-.068l1.338-.018,1.178-.007a.325.325,0,0,0,.288-.317q.011-.582.021-1.147.015-.586.03-1.152c.023-.753.051-1.476.084-2.161.066-1.371.153-2.594.255-3.616l.079-.728q.021-.17.042-.334c.007-.056.015-.112.022-.167l.032-.2a2.137,2.137,0,0,1,.626-1.141,1.5,1.5,0,0,1,.676-.379c.178-.03.279,0,.313.063.07.13-.162.374-.327.806a1.641,1.641,0,0,0-.1.76l.017.106c.007.05.013.1.02.151q.02.163.041.334l.079.728c.1,1.021.188,2.245.255,3.616.033.686.061,1.409.084,2.161q.015.566.03,1.152.01.609.021,1.237A2.523,2.523,0,0,1,12.9,14.951c-.1.01-.2.02-.308.022-.05,0-.106,0-.151,0h-.433l-.684,0-1.338-.017c-.878-.016-1.724-.039-2.53-.068s-1.573-.066-2.29-.107l-1.038-.067-.489-.036-.2-.014a.74.74,0,0,0-.146-.005,1.6,1.6,0,0,0-1.012.4,1.971,1.971,0,0,0-.532.776c-.027.065-.042.13-.065.192l-.055.208a2.81,2.81,0,0,1-.112.332c-.075.18-.154.274-.234.274" transform="translate(-0.855 -1.296)" fill="#fff"/>
                        </g>
                      </g>
                    </g>
                    <g id="Grupo_879145" data-name="Grupo 879145" transform="translate(0.319 0.492)" opacity="0.275">
                      <g id="Grupo_879144" data-name="Grupo 879144">
                        <g id="Grupo_879143" data-name="Grupo 879143" clip-path="url(#clip-path-20)">
                          <path id="Trazado_597071" data-name="Trazado 597071" d="M1.331,16.842c-.079,0-.155-.094-.229-.272a2.809,2.809,0,0,1-.109-.33,1.433,1.433,0,0,1-.048-.226,1.662,1.662,0,0,1-.025-.288,2.374,2.374,0,0,1,.089-.69,2.746,2.746,0,0,1,.367-.768,2.825,2.825,0,0,1,1.786-1.151,2.6,2.6,0,0,1,.311-.043l.14-.013.118-.009.486-.035,1.032-.066c.714-.041,1.476-.076,2.278-.1s1.644-.051,2.517-.066l1.331-.017,1.176-.007a.348.348,0,0,0,.309-.341q.01-.579.02-1.141.015-.582.029-1.144c.022-.749.05-1.467.082-2.149.065-1.363.149-2.578.249-3.594q.04-.376.077-.723c.014-.113.027-.224.041-.332l.021-.158.028-.189a2.133,2.133,0,0,1,.579-1.149,1.439,1.439,0,0,1,.658-.4c.171-.042.277-.013.31.047.076.13-.15.372-.3.809a1.658,1.658,0,0,0-.079.764c.012.089.024.181.037.274s.027.219.041.332q.037.347.077.723c.1,1.015.184,2.231.249,3.594.033.682.06,1.4.082,2.149q.014.562.029,1.144.01.605.02,1.229a2.523,2.523,0,0,1-.6,1.648A2.5,2.5,0,0,1,12.94,15c-.1.01-.2.02-.3.022-.05,0-.1,0-.15,0h-.43l-.681,0-1.331-.017c-.873-.015-1.715-.037-2.517-.066s-1.565-.064-2.278-.1l-1.032-.065-.486-.036-.213-.016a1.177,1.177,0,0,0-.148-.007,1.6,1.6,0,0,0-1.025.38,2.048,2.048,0,0,0-.338.369,2.139,2.139,0,0,0-.211.4c-.1.241-.157.545-.235.715s-.151.272-.229.272" transform="translate(-0.918 -1.416)" fill="#fff"/>
                        </g>
                      </g>
                    </g>
                    <g id="Grupo_879148" data-name="Grupo 879148" transform="translate(0.342 0.535)" opacity="0.294">
                      <g id="Grupo_879147" data-name="Grupo 879147">
                        <g id="Grupo_879146" data-name="Grupo 879146" clip-path="url(#clip-path-21)">
                          <path id="Trazado_597072" data-name="Trazado 597072" d="M1.374,16.853c-.077,0-.151-.093-.224-.271a2.836,2.836,0,0,1-.106-.329,2.08,2.08,0,0,1-.059-.522A2.463,2.463,0,0,1,1.478,14.3a2.8,2.8,0,0,1,1.794-1.1c.1-.016.2-.025.308-.036l.239-.019.484-.035,1.027-.064c.71-.04,1.468-.074,2.266-.1s1.636-.05,2.5-.065l1.325-.017,1.173-.008a.371.371,0,0,0,.33-.365q.01-.575.02-1.135.014-.578.028-1.138c.022-.744.049-1.458.081-2.135.063-1.355.146-2.563.243-3.571q.04-.374.076-.719c.014-.112.027-.222.04-.33l.044-.327A2.117,2.117,0,0,1,14,1.984a1.452,1.452,0,0,1,.634-.419c.168-.048.272-.025.308.033.077.121-.138.371-.279.81a1.659,1.659,0,0,0-.06.766q.038.3.078.62.036.344.076.719c.1,1.009.18,2.217.243,3.571.032.678.059,1.392.081,2.135q.014.559.028,1.138.01.6.02,1.221a2.472,2.472,0,0,1-2.146,2.48c-.1.009-.2.019-.3.022-.049,0-.1,0-.149,0H12.1l-.678,0L10.1,15.061C9.233,15.046,8.4,15.024,7.6,15s-1.557-.063-2.266-.1L4.3,14.83l-.862-.063a1.6,1.6,0,0,0-1.036.363,1.938,1.938,0,0,0-.569.752,2.885,2.885,0,0,0-.132.371,2.836,2.836,0,0,1-.106.329c-.073.178-.147.271-.224.271" transform="translate(-0.984 -1.539)" fill="#fff"/>
                        </g>
                      </g>
                    </g>
                    <g id="Grupo_879151" data-name="Grupo 879151" transform="translate(0.364 0.579)" opacity="0.314">
                      <g id="Grupo_879150" data-name="Grupo 879150">
                        <g id="Grupo_879149" data-name="Grupo 879149" clip-path="url(#clip-path-22)">
                          <path id="Trazado_597073" data-name="Trazado 597073" d="M1.416,16.867c-.075,0-.148-.093-.219-.27a2.626,2.626,0,0,1-.1-.328q-.02-.111-.038-.243c-.006-.088-.007-.183-.007-.285a2.492,2.492,0,0,1,.532-1.4,2.8,2.8,0,0,1,1.8-1.04l.151-.017.142-.014.233-.018.482-.034,1.022-.063c.706-.039,1.46-.073,2.254-.1s1.627-.049,2.492-.063l1.318-.016,1.17-.008A.4.4,0,0,0,13,12.578q.01-.573.02-1.129.014-.575.028-1.131c.021-.739.047-1.449.079-2.122.062-1.346.143-2.547.238-3.55q.071-.753.153-1.35a2.119,2.119,0,0,1,.492-1.159,1.467,1.467,0,0,1,.611-.439c.167-.05.266-.039.3.019.081.117-.126.37-.254.813a1.69,1.69,0,0,0-.042.768c.054.393.105.847.153,1.347.095,1,.176,2.2.238,3.55.031.673.057,1.383.079,2.122q.014.556.028,1.131.009.6.019,1.213a2.446,2.446,0,0,1-2.125,2.456c-.1.009-.2.019-.294.022-.049,0-.1,0-.147,0h-.426l-.674,0-1.318-.017c-.864-.014-1.7-.036-2.492-.063s-1.548-.061-2.254-.1l-1.022-.063-.876-.063a1.636,1.636,0,0,0-1.049.343,2.006,2.006,0,0,0-.588.74L1.8,16.1q-.029.091-.059.174a3.224,3.224,0,0,1-.1.326c-.071.177-.144.27-.219.27" transform="translate(-1.048 -1.668)" fill="#fff"/>
                        </g>
                      </g>
                    </g>
                    <g id="Grupo_879154" data-name="Grupo 879154" transform="translate(0.387 0.625)" opacity="0.333">
                      <g id="Grupo_879153" data-name="Grupo 879153">
                        <g id="Grupo_879152" data-name="Grupo 879152" clip-path="url(#clip-path-23)">
                          <path id="Trazado_597074" data-name="Trazado 597074" d="M1.457,16.883c-.073,0-.145-.092-.214-.268a1.738,1.738,0,0,1-.1-.336,1.94,1.94,0,0,1-.028-.524,2.478,2.478,0,0,1,.564-1.373A2.794,2.794,0,0,1,3.49,13.4c.221-.026.343-.031.507-.044l.479-.033,1.017-.061c.7-.038,1.453-.071,2.242-.1s1.619-.048,2.478-.062l1.311-.016,1.167-.008a.419.419,0,0,0,.372-.414q.01-.57.019-1.123.014-.571.027-1.124c.02-.735.046-1.441.077-2.109.06-1.338.139-2.531.232-3.528.047-.5.1-.947.149-1.34l.025-.17a1.533,1.533,0,0,1,.034-.174,2.122,2.122,0,0,1,.388-.8,1.422,1.422,0,0,1,.59-.455c.158-.063.264-.046.3.005s.011.145-.04.281a3.48,3.48,0,0,0-.192.53,1.873,1.873,0,0,0-.052.363,1.428,1.428,0,0,0,0,.2.913.913,0,0,0,.013.1c.006.039.011.079.016.12.053.393.1.842.149,1.34.093,1,.172,2.19.232,3.528.03.669.056,1.374.076,2.109q.014.552.027,1.124.009.593.019,1.2a2.422,2.422,0,0,1-2.1,2.432c-.1.009-.193.019-.29.021h-.57l-.67,0-1.311-.016c-.86-.014-1.689-.035-2.478-.062s-1.54-.059-2.242-.1l-1.017-.061L3.586,14.9a1.664,1.664,0,0,0-1.062.321,2.014,2.014,0,0,0-.6.729,2.6,2.6,0,0,0-.145.354c-.041.107-.069.231-.105.314-.069.176-.14.268-.214.268" transform="translate(-1.112 -1.799)" fill="#fff"/>
                        </g>
                      </g>
                    </g>
                    <g id="Grupo_879157" data-name="Grupo 879157" transform="translate(0.41 0.672)" opacity="0.353">
                      <g id="Grupo_879156" data-name="Grupo 879156">
                        <g id="Grupo_879155" data-name="Grupo 879155" clip-path="url(#clip-path-24)">
                          <path id="Trazado_597075" data-name="Trazado 597075" d="M1.5,16.9c-.072,0-.141-.092-.208-.267a1.823,1.823,0,0,1-.1-.863,2.447,2.447,0,0,1,.6-1.342A2.754,2.754,0,0,1,3.6,13.5l.143-.014.113-.009.231-.017.477-.032,1.011-.06c.7-.037,1.445-.069,2.231-.1s1.61-.046,2.465-.06l2.469-.023a.442.442,0,0,0,.393-.438q.009-.566.019-1.116.014-.568.027-1.117c.02-.73.045-1.431.075-2.1.059-1.33.136-2.516.227-3.505.045-.5.094-.941.146-1.332.011-.087.03-.214.05-.326a2.22,2.22,0,0,1,.092-.315,1.956,1.956,0,0,1,.266-.491,1.47,1.47,0,0,1,.564-.474c.157-.064.257-.059.3-.007.082.1-.1.367-.207.812a1.762,1.762,0,0,0-.043.363,1.861,1.861,0,0,0,.008.2q.016.116.033.239c.051.391.1.837.146,1.332.091.99.167,2.176.227,3.505.03.665.055,1.366.075,2.1q.013.549.026,1.117.009.589.019,1.2a2.4,2.4,0,0,1-2.083,2.408c-.095.009-.19.018-.285.02h-.566l-.667,0-1.3-.016c-.855-.014-1.68-.034-2.465-.06s-1.532-.058-2.231-.1l-1.011-.06-.9-.063a1.653,1.653,0,0,0-1.073.3,1.984,1.984,0,0,0-.62.715,4.5,4.5,0,0,0-.259.654c-.067.175-.137.267-.208.267" transform="translate(-1.179 -1.934)" fill="#fff"/>
                        </g>
                      </g>
                    </g>
                    <g id="Grupo_879160" data-name="Grupo 879160" transform="translate(0.43 0.721)" opacity="0.373">
                      <g id="Grupo_879159" data-name="Grupo 879159">
                        <g id="Grupo_879158" data-name="Grupo 879158" clip-path="url(#clip-path-25)">
                          <path id="Trazado_597076" data-name="Trazado 597076" d="M1.539,16.924c-.07,0-.138-.091-.2-.265a1.768,1.768,0,0,1-.079-.865,2.32,2.32,0,0,1,.186-.635,2.457,2.457,0,0,1,.446-.674,2.707,2.707,0,0,1,.758-.58A2.816,2.816,0,0,1,3.7,13.61l.468-.036.474-.032,1.006-.058c.695-.036,1.438-.067,2.219-.093s1.6-.045,2.452-.059l2.459-.023a.466.466,0,0,0,.414-.463q.009-.563.018-1.11.013-.564.026-1.11c.019-.726.044-1.422.073-2.083.058-1.322.133-2.5.221-3.484.044-.492.092-.935.142-1.323.007-.048.013-.1.019-.143l.026-.165a2.208,2.208,0,0,1,.078-.314,2.008,2.008,0,0,1,.247-.494,1.437,1.437,0,0,1,.54-.49c.152-.07.252-.068.29-.022.089.1-.093.363-.183.812a1.915,1.915,0,0,0-.035.363,1.828,1.828,0,0,0,.016.2q.017.123.034.253c.05.388.1.831.142,1.323.089.984.164,2.162.221,3.484.029.661.054,1.357.073,2.083q.013.545.026,1.11.009.585.018,1.189a2.371,2.371,0,0,1-2.062,2.384c-.094.009-.187.018-.281.02h-.563l-.663,0-1.3-.015c-.85-.014-1.671-.033-2.452-.059s-1.524-.057-2.219-.093L4.646,15.1l-.913-.063a1.65,1.65,0,0,0-1.084.282,2,2,0,0,0-.639.7,3.382,3.382,0,0,0-.161.346l-.106.294c-.066.174-.134.265-.2.265" transform="translate(-1.237 -2.075)" fill="#fff"/>
                        </g>
                      </g>
                    </g>
                    <g id="Grupo_879163" data-name="Grupo 879163" transform="translate(0.452 0.771)" opacity="0.392">
                      <g id="Grupo_879162" data-name="Grupo 879162">
                        <g id="Grupo_879161" data-name="Grupo 879161" clip-path="url(#clip-path-26)">
                          <path id="Trazado_597077" data-name="Trazado 597077" d="M1.581,16.949c-.068,0-.134-.091-.2-.264a1.774,1.774,0,0,1-.051-.865,2.45,2.45,0,0,1,.662-1.279,2.751,2.751,0,0,1,1.815-.822c1.176-.089,2.576-.161,4.13-.211.777-.025,1.593-.044,2.439-.057l2.45-.023a.489.489,0,0,0,.435-.487q.009-.56.018-1.1.013-.561.025-1.1c.019-.721.043-1.413.071-2.07.056-1.313.13-2.484.215-3.462.043-.489.09-.929.139-1.315.006-.048.013-.1.018-.142s.015-.1.022-.15a1.878,1.878,0,0,1,.068-.312,2.027,2.027,0,0,1,.224-.5,1.427,1.427,0,0,1,.518-.5c.145-.079.247-.077.286-.033s.022.135-.018.271a3.485,3.485,0,0,0-.146.537,1.979,1.979,0,0,0-.021.365,1.343,1.343,0,0,0,.019.2q.017.129.035.266c.049.386.1.826.139,1.315.086.978.159,2.148.215,3.462.028.656.052,1.348.072,2.07q.013.542.025,1.1.009.581.018,1.181a2.345,2.345,0,0,1-2.041,2.36c-.092.009-.184.018-.277.02h-.559l-.66,0-1.29-.015c-.846-.013-1.662-.032-2.439-.057-1.555-.05-2.955-.122-4.13-.211a1.713,1.713,0,0,0-1.1.263,2.033,2.033,0,0,0-.654.687,3.96,3.96,0,0,0-.279.624c-.064.173-.13.264-.2.264" transform="translate(-1.301 -2.219)" fill="#fff"/>
                        </g>
                      </g>
                    </g>
                    <g id="Grupo_879166" data-name="Grupo 879166" transform="translate(0.476 0.822)" opacity="0.412">
                      <g id="Grupo_879165" data-name="Grupo 879165">
                        <g id="Grupo_879164" data-name="Grupo 879164" clip-path="url(#clip-path-27)">
                          <path id="Trazado_597078" data-name="Trazado 597078" d="M1.625,16.975c-.066,0-.132-.089-.192-.264a1.776,1.776,0,0,1-.022-.863,2.359,2.359,0,0,1,.216-.613A2.734,2.734,0,0,1,2.1,14.6a2.706,2.706,0,0,1,.774-.524,1.843,1.843,0,0,1,.239-.094,1.976,1.976,0,0,1,.255-.073,2.211,2.211,0,0,1,.269-.05l.139-.015.126-.011c1.17-.087,2.562-.157,4.109-.205.773-.024,1.584-.043,2.426-.056l2.44-.022a.513.513,0,0,0,.456-.511q.009-.557.017-1.1.013-.558.025-1.1c.019-.717.042-1.4.07-2.057.055-1.3.126-2.468.21-3.439.042-.486.087-.923.135-1.306l.036-.277a2.507,2.507,0,0,1,.059-.31,1.9,1.9,0,0,1,.206-.5,1.479,1.479,0,0,1,.49-.52c.146-.079.238-.089.28-.045.088.086-.073.358-.138.807a1.729,1.729,0,0,0-.014.364c0,.065.017.131.023.2q.017.134.036.277c.048.383.093.821.135,1.306.084.971.155,2.134.21,3.439.027.653.051,1.34.07,2.057q.012.538.025,1.1.008.577.017,1.172a2.32,2.32,0,0,1-2.02,2.336c-.091.008-.181.017-.272.019h-.556l-.657,0-1.283-.015c-.842-.013-1.653-.032-2.426-.056-1.546-.048-2.939-.118-4.109-.205l-.168-.01a1.08,1.08,0,0,0-.15,0,.975.975,0,0,0-.147.014.874.874,0,0,0-.142.027,1.821,1.821,0,0,0-.514.208,2.259,2.259,0,0,0-.4.318,2.258,2.258,0,0,0-.272.356,3.958,3.958,0,0,0-.293.612c-.065.168-.128.262-.194.261" transform="translate(-1.37 -2.365)" fill="#fff"/>
                        </g>
                      </g>
                    </g>
                    <g id="Grupo_879169" data-name="Grupo 879169" transform="translate(0.497 0.875)" opacity="0.431">
                      <g id="Grupo_879168" data-name="Grupo 879168">
                        <g id="Grupo_879167" data-name="Grupo 879167" clip-path="url(#clip-path-28)">
                          <path id="Trazado_597079" data-name="Trazado 597079" d="M1.665,17.006c-.062,0-.132-.082-.183-.269a1.709,1.709,0,0,1,0-.856,2.418,2.418,0,0,1,.721-1.213,2.561,2.561,0,0,1,.778-.5,2.589,2.589,0,0,1,.492-.153,1.825,1.825,0,0,1,.267-.042l.137-.014.111-.008c1.163-.084,2.548-.153,4.086-.2.769-.024,1.576-.042,2.413-.055l2.43-.022a.536.536,0,0,0,.477-.536q.008-.554.017-1.092.012-.554.024-1.089c.018-.712.041-1.4.068-2.044.053-1.3.123-2.452.2-3.417.041-.482.085-.917.131-1.3l.035-.276c.007-.048.014-.1.022-.144l.026-.15a2.036,2.036,0,0,1,.188-.5,1.41,1.41,0,0,1,.466-.532c.136-.088.233-.1.272-.058.092.084-.064.353-.116.8a2,2,0,0,0,0,.364l.064.49c.047.38.09.815.131,1.3.082.965.151,2.121.2,3.417.027.648.05,1.332.068,2.044q.011.535.024,1.089.008.573.017,1.164a2.3,2.3,0,0,1-2,2.311c-.089.008-.179.017-.268.019H12.42l-.653,0-1.277-.014c-.837-.013-1.644-.031-2.413-.054-1.538-.047-2.923-.116-4.086-.2a1.875,1.875,0,0,0-1.831.879,3.475,3.475,0,0,0-.3.6c-.069.156-.126.257-.192.253" transform="translate(-1.43 -2.519)" fill="#fff"/>
                        </g>
                      </g>
                    </g>
                    <g id="Grupo_879172" data-name="Grupo 879172" transform="translate(0.519 0.929)" opacity="0.451">
                      <g id="Grupo_879171" data-name="Grupo 879171">
                        <g id="Grupo_879170" data-name="Grupo 879170" clip-path="url(#clip-path-29)">
                          <path id="Trazado_597080" data-name="Trazado 597080" d="M1.706,17.038c-.062,0-.127-.083-.174-.272a1.721,1.721,0,0,1,.032-.847,2.426,2.426,0,0,1,.749-1.179,2.661,2.661,0,0,1,.781-.476l.238-.079c.082-.024.167-.04.253-.059a4.722,4.722,0,0,1,.5-.054c1.157-.082,2.534-.149,4.064-.195.765-.023,1.568-.041,2.4-.053l2.421-.021a.559.559,0,0,0,.5-.56q.009-.551.017-1.085.011-.551.023-1.083c.018-.708.04-1.387.066-2.031.052-1.288.12-2.436.2-3.395.04-.479.082-.911.127-1.289l.034-.274.018-.13.025-.149a2.014,2.014,0,0,1,.164-.5,1.439,1.439,0,0,1,.442-.543c.131-.092.225-.106.266-.068s.032.125,0,.26a3.509,3.509,0,0,0-.1.54,2,2,0,0,0,.008.365l.064.5c.045.378.088.81.128,1.289.079.959.147,2.107.2,3.395.026.644.048,1.323.066,2.031q.011.532.024,1.083.008.569.017,1.156A2.271,2.271,0,0,1,13.277,15.6c-.088.008-.176.017-.264.019h-.548l-.649,0L10.546,15.6c-.832-.012-1.635-.03-2.4-.053-1.53-.046-2.907-.113-4.064-.195a1.9,1.9,0,0,0-1.869.844,3.539,3.539,0,0,0-.315.594c-.069.151-.128.249-.19.247" transform="translate(-1.494 -2.674)" fill="#fff"/>
                        </g>
                      </g>
                    </g>
                    <g id="Grupo_879175" data-name="Grupo 879175" transform="translate(0.543 0.984)" opacity="0.471">
                      <g id="Grupo_879174" data-name="Grupo 879174">
                        <g id="Grupo_879173" data-name="Grupo 879173" clip-path="url(#clip-path-30)">
                          <path id="Trazado_597081" data-name="Trazado 597081" d="M1.752,17.071c-.062,0-.118-.087-.165-.276a1.8,1.8,0,0,1,.063-.837,2.415,2.415,0,0,1,.774-1.147,2.685,2.685,0,0,1,.786-.448,2.994,2.994,0,0,1,.488-.127l.262-.029.217-.016c1.151-.08,2.521-.145,4.042-.189.761-.023,1.559-.04,2.387-.051l2.411-.021a.583.583,0,0,0,.519-.585q.008-.548.016-1.08.012-.547.023-1.075c.017-.7.039-1.378.064-2.018.051-1.28.116-2.421.193-3.373.039-.476.08-.905.124-1.281q.017-.139.033-.272c.013-.091.019-.16.038-.264a1.622,1.622,0,0,1,.061-.269,1.482,1.482,0,0,1,.085-.231,1.467,1.467,0,0,1,.413-.555c.13-.093.216-.115.258-.08.092.073-.044.347-.071.8a1.284,1.284,0,0,0,0,.175,1.239,1.239,0,0,0,.017.188q.03.24.065.509c.044.376.085.8.124,1.281.077.952.143,2.093.193,3.373.025.64.047,1.315.064,2.018q.011.528.023,1.075.008.565.016,1.148a2.244,2.244,0,0,1-1.958,2.263c-.087.008-.173.016-.26.018h-.545l-.646,0L10.6,15.679c-.828-.012-1.626-.029-2.387-.051-1.521-.044-2.891-.109-4.042-.189l-.209-.015-.153-.008a2.016,2.016,0,0,0-.3.026,1.889,1.889,0,0,0-.53.178,2.058,2.058,0,0,0-.716.628c-.322.454-.389.826-.52.823" transform="translate(-1.563 -2.831)" fill="#fff"/>
                        </g>
                      </g>
                    </g>
                    <g id="Grupo_879178" data-name="Grupo 879178" transform="translate(0.564 1.042)" opacity="0.49">
                      <g id="Grupo_879177" data-name="Grupo 879177">
                        <g id="Grupo_879176" data-name="Grupo 879176" clip-path="url(#clip-path-31)">
                          <path id="Trazado_597082" data-name="Trazado 597082" d="M1.793,17.11c-.056,0-.12-.091-.151-.279A1.725,1.725,0,0,1,1.73,16a2.4,2.4,0,0,1,.8-1.113,2.6,2.6,0,0,1,.789-.421,2.54,2.54,0,0,1,.485-.113c.081-.009.181-.02.25-.025l.212-.015c1.144-.077,2.507-.14,4.02-.183.756-.022,1.551-.039,2.374-.05l2.4-.02a.607.607,0,0,0,.54-.609c.013-.737.026-1.452.038-2.142s.038-1.369.063-2c.049-1.272.113-2.405.188-3.351.038-.473.077-.9.12-1.272.022-.187.043-.359.066-.52a2.043,2.043,0,0,1,.129-.5,1.406,1.406,0,0,1,.388-.564c.117-.1.212-.121.251-.09s.034.117.015.252a3.187,3.187,0,0,0-.066.54,2.1,2.1,0,0,0,.025.363c.022.157.044.332.065.518.042.373.083.8.12,1.272.075.946.138,2.079.188,3.351.025.636.046,1.306.063,2q.011.525.022,1.068.008.561.016,1.14a2.22,2.22,0,0,1-1.936,2.239c-.085.008-.17.016-.255.018h-.541l-.642,0-1.256-.013c-.823-.011-1.618-.028-2.374-.05-1.513-.043-2.875-.106-4.02-.183l-.212-.015-.163-.008a1.584,1.584,0,0,0-.3.019,1.806,1.806,0,0,0-.536.166,2.072,2.072,0,0,0-.73.612c-.333.446-.4.813-.533.807" transform="translate(-1.624 -2.998)" fill="#fff"/>
                        </g>
                      </g>
                    </g>
                    <g id="Grupo_879181" data-name="Grupo 879181" transform="translate(0.587 1.098)" opacity="0.51">
                      <g id="Grupo_879180" data-name="Grupo 879180">
                        <g id="Grupo_879179" data-name="Grupo 879179" clip-path="url(#clip-path-32)">
                          <path id="Trazado_597083" data-name="Trazado 597083" d="M1.84,17.148c-.055,0-.117-.095-.139-.281a1.707,1.707,0,0,1,.113-.818,2.41,2.41,0,0,1,.824-1.075,2.485,2.485,0,0,1,.79-.4,1.908,1.908,0,0,1,.235-.059,1.651,1.651,0,0,1,.247-.039l.127-.013.108-.008.211-.014c1.138-.075,2.493-.136,4-.178.752-.021,1.542-.037,2.361-.048l2.392-.02a.629.629,0,0,0,.56-.633c.013-.732.025-1.444.037-2.129s.037-1.36.06-1.992c.048-1.263.11-2.389.182-3.329.036-.47.075-.893.117-1.264.021-.185.042-.358.064-.516.009-.074.028-.177.043-.256s.045-.16.067-.232a1.468,1.468,0,0,1,.362-.573c.116-.1.2-.131.243-.1.087.059-.025.339-.031.787,0,.057,0,.115.009.175s.017.13.026.2c.022.158.043.33.064.516.041.371.08.794.116,1.264.073.94.134,2.066.182,3.329.024.632.044,1.3.061,1.992q.01.521.022,1.061.008.557.016,1.132a2.219,2.219,0,0,1-.522,1.46,2.195,2.195,0,0,1-1.393.755c-.084.007-.167.015-.252.018H12.6l-.639,0-1.249-.013c-.819-.011-1.609-.027-2.361-.048-1.5-.042-2.86-.1-4-.178a3.426,3.426,0,0,0-.686-.012,1.706,1.706,0,0,0-.54.156,2.106,2.106,0,0,0-.747.594,3.339,3.339,0,0,0-.352.565c-.082.144-.132.23-.192.227" transform="translate(-1.69 -3.162)" fill="#fff"/>
                        </g>
                      </g>
                    </g>
                    <g id="Grupo_879184" data-name="Grupo 879184" transform="translate(0.611 1.158)" opacity="0.529">
                      <g id="Grupo_879183" data-name="Grupo 879183">
                        <g id="Grupo_879182" data-name="Grupo 879182" clip-path="url(#clip-path-33)">
                          <path id="Trazado_597084" data-name="Trazado 597084" d="M1.889,17.19c-.058,0-.1-.1-.126-.283a1.787,1.787,0,0,1,.143-.8,2.384,2.384,0,0,1,.846-1.041,2.614,2.614,0,0,1,.791-.374,2.911,2.911,0,0,1,.479-.084c.091-.01.15-.013.221-.018l.21-.014c1.132-.073,2.479-.132,3.976-.173.748-.02,1.534-.036,2.348-.047l2.382-.02a.653.653,0,0,0,.582-.658c.013-.728.024-1.435.036-2.116s.035-1.351.059-1.979c.046-1.255.106-2.373.177-3.307.035-.467.073-.887.113-1.256q.03-.276.062-.512l.016-.115.022-.128a1.458,1.458,0,0,1,.058-.231,1.444,1.444,0,0,1,.335-.58c.11-.106.193-.137.233-.11.092.057-.019.334-.008.783a1.342,1.342,0,0,0,.014.174l.027.207q.032.236.062.512c.04.368.077.789.113,1.256.07.933.13,2.052.177,3.307.023.627.043,1.289.059,1.979q.01.518.021,1.055.008.552.015,1.123a2.193,2.193,0,0,1-.516,1.444,2.17,2.17,0,0,1-1.379.747c-.082.007-.165.015-.247.017h-.533l-.635,0-1.242-.012c-.814-.011-1.6-.026-2.348-.047-1.5-.041-2.844-.1-3.976-.173l-.21-.014c-.067,0-.144-.01-.188-.011a2.073,2.073,0,0,0-.3,0,1.891,1.891,0,0,0-.544.147,2.079,2.079,0,0,0-.759.577c-.35.43-.445.787-.56.774" transform="translate(-1.759 -3.333)" fill="#fff"/>
                        </g>
                      </g>
                    </g>
                    <g id="Grupo_879187" data-name="Grupo 879187" transform="translate(0.634 1.219)" opacity="0.549">
                      <g id="Grupo_879186" data-name="Grupo 879186">
                        <g id="Grupo_879185" data-name="Grupo 879185" clip-path="url(#clip-path-34)">
                          <path id="Trazado_597085" data-name="Trazado 597085" d="M1.937,17.235c-.051-.005-.1-.1-.11-.284a1.754,1.754,0,0,1,.168-.791,2.346,2.346,0,0,1,.318-.516,2.636,2.636,0,0,1,.548-.492,2.67,2.67,0,0,1,.793-.346c.076-.016.153-.035.232-.048l.243-.026.416-.028c1.126-.071,2.466-.128,3.954-.167.744-.019,1.525-.035,2.335-.046l2.372-.019a.677.677,0,0,0,.6-.682c.012-.723.024-1.426.035-2.1s.034-1.342.057-1.966c.045-1.247.1-2.357.171-3.285.034-.463.071-.881.109-1.247l.06-.509a3.3,3.3,0,0,1,.083-.461,1.4,1.4,0,0,1,.309-.586c.1-.112.186-.143.224-.119s.04.107.031.239a3.025,3.025,0,0,0-.02.536c.016.2.072.54.107.9s.075.783.109,1.247c.068.927.126,2.038.171,3.285.023.623.042,1.281.057,1.966q.01.514.02,1.048.007.549.015,1.115a2.144,2.144,0,0,1-1.873,2.167c-.081.007-.162.015-.243.017H12.7l-.632,0-1.235-.012c-.81-.01-1.591-.026-2.335-.046-1.488-.039-2.828-.1-3.954-.167l-.408-.026-.153-.006-.149.008a1.972,1.972,0,0,0-.55.133,2.28,2.28,0,0,0-.445.255,2.386,2.386,0,0,0-.326.308c-.362.42-.457.774-.575.757" transform="translate(-1.825 -3.508)" fill="#fff"/>
                        </g>
                      </g>
                    </g>
                    <g id="Grupo_879190" data-name="Grupo 879190" transform="translate(0.658 1.279)" opacity="0.569">
                      <g id="Grupo_879189" data-name="Grupo 879189">
                        <g id="Grupo_879188" data-name="Grupo 879188" clip-path="url(#clip-path-35)">
                          <path id="Trazado_597086" data-name="Trazado 597086" d="M1.994,17.279c-.047-.006-.1-.1-.1-.284a1.713,1.713,0,0,1,.191-.779,2.384,2.384,0,0,1,.887-.97,2.505,2.505,0,0,1,.793-.321,3,3,0,0,1,.462-.064l.41-.026c1.119-.068,2.452-.124,3.931-.162.74-.019,1.517-.034,2.322-.044l2.363-.019a.7.7,0,0,0,.623-.707c.011-.719.023-1.418.034-2.09s.034-1.333.055-1.952c.043-1.238.1-2.342.165-3.263.033-.46.068-.875.106-1.239q.031-.268.058-.506.015-.115.03-.222c.012-.076.027-.157.041-.227a1.506,1.506,0,0,1,.282-.592c.1-.112.173-.151.216-.128.087.046,0,.325.03.77l.052.4q.027.238.058.506c.038.363.073.778.106,1.239.066.921.122,2.025.165,3.263.022.619.04,1.272.055,1.952q.009.511.02,1.041t.014,1.107a2.14,2.14,0,0,1-.5,1.412,2.118,2.118,0,0,1-1.349.73c-.08.007-.159.014-.239.017h-.526l-.628,0-1.228-.011c-.805-.01-1.582-.025-2.322-.044-1.48-.038-2.812-.093-3.931-.162l-.41-.026a2.244,2.244,0,0,0-.312,0,1.818,1.818,0,0,0-.554.121,2.114,2.114,0,0,0-.786.543,3.235,3.235,0,0,0-.388.534c-.091.135-.141.216-.2.208" transform="translate(-1.895 -3.681)" fill="#fff"/>
                        </g>
                      </g>
                    </g>
                    <g id="Grupo_879193" data-name="Grupo 879193" transform="translate(0.682 1.342)" opacity="0.588">
                      <g id="Grupo_879192" data-name="Grupo 879192">
                        <g id="Grupo_879191" data-name="Grupo 879191" clip-path="url(#clip-path-36)">
                          <path id="Trazado_597087" data-name="Trazado 597087" d="M2.048,17.33c-.051-.009-.087-.1-.085-.285a1.784,1.784,0,0,1,.216-.764,2.37,2.37,0,0,1,.906-.933,2.424,2.424,0,0,1,.791-.3,1.7,1.7,0,0,1,.228-.034l.118-.012.1-.007.407-.025c1.113-.066,2.438-.119,3.909-.156.736-.018,1.508-.033,2.309-.043l2.353-.018a.714.714,0,0,0,.468-.244.727.727,0,0,0,.177-.487c.011-.715.023-1.409.033-2.077s.036-1.322.054-1.939c.042-1.23.1-2.326.159-3.241.032-.457.066-.869.1-1.23q.03-.267.056-.5c.02-.157.034-.286.065-.437a1.429,1.429,0,0,1,.255-.6c.09-.117.167-.155.2-.136.088.042,0,.32.051.763l.053.4q.026.236.056.5c.036.361.07.773.1,1.23.064.915.118,2.011.159,3.241.017.617.035,1.265.054,1.939s.022,1.4.033,2.133a2.117,2.117,0,0,1-.5,1.4,2.1,2.1,0,0,1-1.334.722c-.079.007-.157.014-.235.016s-.164,0-.206,0H12.8l-.625,0L10.95,16.2c-.8-.01-1.573-.024-2.309-.043-1.471-.037-2.8-.09-3.909-.156l-.407-.025-.1-.006-.076,0a.955.955,0,0,0-.151,0,1.745,1.745,0,0,0-.557.111,2.106,2.106,0,0,0-.8.524,3.565,3.565,0,0,0-.4.523.9.9,0,0,1-.114.154c-.03.035-.058.052-.083.048" transform="translate(-1.963 -3.863)" fill="#fff"/>
                        </g>
                      </g>
                    </g>
                    <g id="Grupo_879196" data-name="Grupo 879196" transform="translate(0.707 1.405)" opacity="0.608">
                      <g id="Grupo_879195" data-name="Grupo 879195">
                        <g id="Grupo_879194" data-name="Grupo 879194" clip-path="url(#clip-path-37)">
                          <path id="Trazado_597088" data-name="Trazado 597088" d="M2.106,17.38c-.046-.009-.076-.1-.07-.284a1.792,1.792,0,0,1,.241-.748,2.344,2.344,0,0,1,.923-.9,2.572,2.572,0,0,1,.79-.274c.32-.044.555-.048.838-.067,1.107-.064,2.424-.115,3.888-.15.731-.018,1.5-.032,2.3-.041l2.344-.018a.74.74,0,0,0,.483-.252.753.753,0,0,0,.182-.5c.011-.71.022-1.4.032-2.063s.035-1.314.052-1.926c.04-1.222.093-2.31.154-3.219s.129-1.63.212-2.145a1.415,1.415,0,0,1,.229-.6c.084-.12.157-.162.2-.143s.045.1.045.226a2.944,2.944,0,0,0,.024.53c.072.486.146,1.225.206,2.131s.114,2,.154,3.219c.016.613.034,1.256.051,1.926s.021,1.389.032,2.118a2.091,2.091,0,0,1-.492,1.381,2.07,2.07,0,0,1-1.319.714c-.077.006-.154.013-.231.016s-.162,0-.2,0h-.314l-.621,0L11.011,16.3c-.8-.009-1.564-.023-2.3-.041-1.463-.035-2.781-.087-3.888-.151-.27-.014-.564-.038-.74-.038a1.937,1.937,0,0,0-.561.1,2.091,2.091,0,0,0-.809.507c-.389.393-.506.732-.612.706" transform="translate(-2.036 -4.045)" fill="#fff"/>
                        </g>
                      </g>
                    </g>
                    <g id="Grupo_879199" data-name="Grupo 879199" transform="translate(0.732 1.469)" opacity="0.627">
                      <g id="Grupo_879198" data-name="Grupo 879198">
                        <g id="Grupo_879197" data-name="Grupo 879197" clip-path="url(#clip-path-38)">
                          <path id="Trazado_597089" data-name="Trazado 597089" d="M2.17,17.432c-.041-.009-.079-.107-.057-.283a1.728,1.728,0,0,1,.263-.733,2.362,2.362,0,0,1,.938-.862,2.662,2.662,0,0,1,.788-.248l.224-.024.195-.012.4-.024c1.1-.061,2.411-.111,3.866-.145.727-.017,1.491-.031,2.283-.04l2.334-.018a.76.76,0,0,0,.5-.26.776.776,0,0,0,.188-.52c.01-.706.021-1.391.031-2.051s.034-1.305.05-1.913c.039-1.213.09-2.294.149-3.2s.127-1.625.2-2.123c.088-.563.326-.783.389-.75.085.034.019.309.087.75.074.5.142,1.221.2,2.123s.109,1.983.149,3.2c.016.608.032,1.248.05,1.913s.02,1.379.031,2.1a2.043,2.043,0,0,1-1.79,2.07c-.076.006-.151.013-.227.015H12.9l-.617,0-1.207-.01c-.792-.009-1.556-.022-2.283-.039-1.455-.034-2.765-.084-3.866-.145l-.4-.024-.193-.012-.152,0a2.093,2.093,0,0,0-.566.086,2.144,2.144,0,0,0-.82.49,3.162,3.162,0,0,0-.421.5c-.1.126-.15.2-.2.19" transform="translate(-2.106 -4.228)" fill="#fff"/>
                        </g>
                      </g>
                    </g>
                    <g id="Grupo_879202" data-name="Grupo 879202" transform="translate(0.759 1.535)" opacity="0.647">
                      <g id="Grupo_879201" data-name="Grupo 879201">
                        <g id="Grupo_879200" data-name="Grupo 879200" clip-path="url(#clip-path-39)">
                          <path id="Trazado_597090" data-name="Trazado 597090" d="M2.238,17.489c-.044-.012-.068-.107-.045-.281a1.783,1.783,0,0,1,.285-.718,2.372,2.372,0,0,1,.955-.822,2.44,2.44,0,0,1,.785-.224c.155-.018.276-.023.405-.031l.4-.023c1.094-.059,2.4-.107,3.843-.14l2.27-.038,2.324-.017a.786.786,0,0,0,.514-.268.8.8,0,0,0,.193-.536c.01-.7.02-1.382.03-2.037s.033-1.3.048-1.9c.038-1.2.086-2.279.143-3.175s.122-1.614.194-2.108a1.536,1.536,0,0,1,.181-.592c.069-.124.14-.17.174-.157.081.033.027.3.1.749.071.494.136,1.213.193,2.108s.105,1.97.143,3.175c.015.6.031,1.239.048,1.9s.019,1.369.03,2.088a2.041,2.041,0,0,1-.479,1.349,2.02,2.02,0,0,1-1.29.7c-.074.006-.149.013-.223.015h-.51l-.614,0-1.2-.01-2.27-.038c-1.447-.033-2.749-.081-3.843-.14l-.4-.023c-.13-.008-.263-.017-.354-.017a1.844,1.844,0,0,0-.568.074,2.168,2.168,0,0,0-.833.469,3.34,3.34,0,0,0-.43.49c-.1.125-.157.2-.2.184" transform="translate(-2.184 -4.418)" fill="#fff"/>
                        </g>
                      </g>
                    </g>
                    <g id="Grupo_879205" data-name="Grupo 879205" transform="translate(0.787 1.6)" opacity="0.667">
                      <g id="Grupo_879204" data-name="Grupo 879204">
                        <g id="Grupo_879203" data-name="Grupo 879203" clip-path="url(#clip-path-40)">
                          <path id="Trazado_597091" data-name="Trazado 597091" d="M2.308,17.545c-.042-.013-.055-.105-.031-.279a1.838,1.838,0,0,1,.309-.7,2.313,2.313,0,0,1,.968-.786,2.381,2.381,0,0,1,.781-.2l.108-.01.094-.006.191-.011.4-.022c1.088-.057,2.383-.1,3.821-.134l2.257-.036,2.315-.017a.809.809,0,0,0,.53-.277.822.822,0,0,0,.2-.552c.01-.7.019-1.373.029-2.025L14.32,10.6c.036-1.2.083-2.263.138-3.153s.117-1.6.186-2.093a3.445,3.445,0,0,1,.063-.342,1.359,1.359,0,0,1,.1-.243c.067-.125.126-.176.164-.163s.049.088.057.213c0,.062.013.139.016.225s.028.2.044.309c.068.491.131,1.2.186,2.093s.1,1.956.137,3.153c.015.6.03,1.23.046,1.887s.019,1.359.028,2.073a1.993,1.993,0,0,1-1.748,2.022c-.073.006-.146.013-.219.015h-.506l-.61,0L11.2,16.587l-2.257-.036c-1.438-.032-2.734-.078-3.821-.134l-.4-.022-.191-.011-.094-.006-.077,0a1.805,1.805,0,0,0-.571.063,2.1,2.1,0,0,0-.843.45c-.413.364-.551.687-.643.655" transform="translate(-2.265 -4.606)" fill="#fff"/>
                        </g>
                      </g>
                    </g>
                    <g id="Grupo_879208" data-name="Grupo 879208" transform="translate(0.814 1.667)" opacity="0.686">
                      <g id="Grupo_879207" data-name="Grupo 879207">
                        <g id="Grupo_879206" data-name="Grupo 879206" clip-path="url(#clip-path-41)">
                          <path id="Trazado_597092" data-name="Trazado 597092" d="M2.382,17.6c-.036-.012-.057-.109-.018-.276a1.74,1.74,0,0,1,.328-.682,2.343,2.343,0,0,1,.391-.405,2.483,2.483,0,0,1,.589-.344,2.517,2.517,0,0,1,.777-.179c.255-.018.5-.03.777-.044,1.082-.054,2.369-.1,3.8-.129l2.243-.035,2.305-.017a.831.831,0,0,0,.545-.285.848.848,0,0,0,.2-.568c.009-.692.018-1.365.027-2.011s.03-1.279.044-1.874c.035-1.188.079-2.247.132-3.131s.113-1.591.178-2.078a3.376,3.376,0,0,1,.057-.334,1.223,1.223,0,0,1,.082-.244c.063-.125.118-.179.153-.168s.051.085.061.209.032.286.069.537c.066.487.126,1.2.178,2.078s.1,1.942.132,3.131c.014.6.029,1.222.044,1.874s.018,1.349.027,2.058A1.988,1.988,0,0,1,15.039,16a1.967,1.967,0,0,1-1.26.68c-.072.006-.143.012-.215.015h-.5l-.607,0-1.187-.009-2.243-.035c-1.43-.03-2.718-.074-3.8-.129l-.766-.041a1.99,1.99,0,0,0-.574.052,2.185,2.185,0,0,0-.482.181,2.417,2.417,0,0,0-.37.25,3.045,3.045,0,0,0-.45.466c-.1.118-.158.188-.2.173" transform="translate(-2.343 -4.797)" fill="#fff"/>
                        </g>
                      </g>
                    </g>
                    <g id="Grupo_879211" data-name="Grupo 879211" transform="translate(0.843 1.735)" opacity="0.706">
                      <g id="Grupo_879210" data-name="Grupo 879210">
                        <g id="Grupo_879209" data-name="Grupo 879209" clip-path="url(#clip-path-42)">
                          <path id="Trazado_597093" data-name="Trazado 597093" d="M2.461,17.666c-.037-.014-.049-.108-.007-.273a1.781,1.781,0,0,1,.347-.665,2.363,2.363,0,0,1,.993-.712,2.726,2.726,0,0,1,.769-.156l.767-.041c1.075-.052,2.355-.094,3.777-.123l2.231-.034,2.3-.016a.853.853,0,0,0,.56-.293.867.867,0,0,0,.209-.584c.009-.688.018-1.356.026-2s.029-1.27.042-1.861c.033-1.18.076-2.231.126-3.108s.108-1.58.17-2.064a2.159,2.159,0,0,1,.123-.57c.05-.128.11-.181.141-.173s.045.08.064.2.044.29.074.539c.063.484.12,1.187.171,2.064s.093,1.928.126,3.108c.014.591.028,1.213.042,1.861s.017,1.339.026,2.043a1.963,1.963,0,0,1-.461,1.3,1.944,1.944,0,0,1-1.245.672c-.071.006-.141.011-.212.014h-.5l-.6,0-1.18-.009-2.231-.033c-1.422-.029-2.7-.072-3.777-.124l-.767-.041a2.256,2.256,0,0,0-.58.039,2.2,2.2,0,0,0-.863.412,3.135,3.135,0,0,0-.458.455c-.1.116-.163.182-.2.168" transform="translate(-2.428 -4.993)" fill="#fff"/>
                        </g>
                      </g>
                    </g>
                    <g id="Grupo_879214" data-name="Grupo 879214" transform="translate(0.874 1.802)" opacity="0.725">
                      <g id="Grupo_879213" data-name="Grupo 879213">
                        <g id="Grupo_879212" data-name="Grupo 879212" clip-path="url(#clip-path-43)">
                          <path id="Trazado_597094" data-name="Trazado 597094" d="M2.542,17.727c-.06-.017-.049-.4.374-.914a2.309,2.309,0,0,1,1-.674A2.617,2.617,0,0,1,4.673,16l.763-.039c1.068-.05,2.341-.09,3.755-.118l2.217-.032,2.286-.016a.878.878,0,0,0,.576-.3.9.9,0,0,0,.214-.6c.008-.684.017-1.347.025-1.985s.028-1.261.041-1.848c.032-1.172.073-2.215.121-3.086s.1-1.569.163-2.049c.015-.12.03-.227.046-.319a1.661,1.661,0,0,1,.063-.244c.051-.127.1-.185.13-.177s.052.078.067.2l.034.221c.015.092.031.2.046.319.06.48.115,1.178.163,2.049s.089,1.914.121,3.086c.013.587.026,1.2.041,1.848s.017,1.329.025,2.028a1.937,1.937,0,0,1-.455,1.286,1.917,1.917,0,0,1-1.23.663c-.069.006-.139.011-.208.014h-.494l-.6,0-1.173-.008-2.217-.032c-1.413-.028-2.686-.068-3.755-.118L4.673,16.7c-.064,0-.114,0-.162-.006a1.156,1.156,0,0,0-.147,0l-.143.011-.137.024a2.137,2.137,0,0,0-.871.391c-.435.334-.593.64-.67.6" transform="translate(-2.516 -5.187)" fill="#fff"/>
                        </g>
                      </g>
                    </g>
                    <g id="Grupo_879217" data-name="Grupo 879217" transform="translate(0.907 1.87)" opacity="0.745">
                      <g id="Grupo_879216" data-name="Grupo 879216">
                        <g id="Grupo_879215" data-name="Grupo 879215" clip-path="url(#clip-path-44)">
                          <path id="Trazado_597095" data-name="Trazado 597095" d="M2.632,17.792c-.03-.013-.036-.107.019-.265a1.776,1.776,0,0,1,.385-.626,2.272,2.272,0,0,1,1.011-.637,2.594,2.594,0,0,1,.362-.086c.127-.014.266-.028.379-.032l.758-.038c1.062-.047,2.328-.086,3.733-.112l2.2-.031,2.276-.015a.9.9,0,0,0,.591-.31.919.919,0,0,0,.22-.617c.008-.679.016-1.338.024-1.972s.026-1.252.039-1.835c.03-1.163.069-2.2.115-3.064s.1-1.557.155-2.034a3.418,3.418,0,0,1,.1-.555c.042-.128.089-.186.119-.181s.049.075.069.2.053.3.081.54c.057.477.109,1.17.155,2.034s.085,1.9.115,3.064c.012.583.025,1.2.039,1.835s.016,1.319.024,2.013a1.914,1.914,0,0,1-.449,1.27,1.892,1.892,0,0,1-1.216.655c-.068.006-.136.011-.2.014h-.49l-.6,0-1.166-.008-2.2-.031c-1.405-.027-2.67-.065-3.733-.113l-.758-.037c-.127-.009-.219-.007-.318-.01a2.208,2.208,0,0,0-.281.031,2.1,2.1,0,0,0-.88.371c-.442.322-.6.625-.678.587" transform="translate(-2.61 -5.383)" fill="#fff"/>
                        </g>
                      </g>
                    </g>
                    <g id="Grupo_879220" data-name="Grupo 879220" transform="translate(0.94 1.939)" opacity="0.765">
                      <g id="Grupo_879219" data-name="Grupo 879219">
                        <g id="Grupo_879218" data-name="Grupo 879218" clip-path="url(#clip-path-45)">
                          <path id="Trazado_597096" data-name="Trazado 597096" d="M2.723,17.859c-.03-.015-.031-.106.03-.261a1.777,1.777,0,0,1,.4-.607,2.293,2.293,0,0,1,1.019-.6,2.409,2.409,0,0,1,.361-.072l.192-.019.176-.009.753-.035c1.057-.045,2.314-.082,3.711-.107l2.191-.029,2.267-.015a.924.924,0,0,0,.607-.318.94.94,0,0,0,.224-.633c.008-.675.016-1.33.023-1.959s.025-1.243.037-1.822c.029-1.155.066-2.184.109-3.042s.093-1.546.148-2.019a3.864,3.864,0,0,1,.089-.547c.032-.129.079-.188.107-.183.052.014.091.253.152.731s.1,1.161.148,2.019.081,1.887.109,3.042c.012.579.024,1.187.037,1.822s.015,1.31.023,2a1.89,1.89,0,0,1-.443,1.255,1.867,1.867,0,0,1-1.2.646c-.067.005-.133.011-.2.013h-.485l-.593,0L11.559,17.1l-2.191-.029c-1.4-.025-2.655-.062-3.711-.107L4.9,16.927l-.176-.009-.149,0a2.016,2.016,0,0,0-.282.021,2.159,2.159,0,0,0-.889.351,2.913,2.913,0,0,0-.484.418c-.108.108-.169.169-.2.154" transform="translate(-2.704 -5.581)" fill="#fff"/>
                        </g>
                      </g>
                    </g>
                    <g id="Grupo_879223" data-name="Grupo 879223" transform="translate(0.974 2.008)" opacity="0.784">
                      <g id="Grupo_879222" data-name="Grupo 879222">
                        <g id="Grupo_879221" data-name="Grupo 879221" clip-path="url(#clip-path-46)">
                          <path id="Trazado_597097" data-name="Trazado 597097" d="M2.819,17.926c-.051-.02.006-.385.462-.842a2.331,2.331,0,0,1,1.025-.563,3.6,3.6,0,0,1,.716-.084l.749-.034c1.05-.043,2.3-.077,3.689-.1l2.179-.027L13.9,16.26a.947.947,0,0,0,.623-.326.964.964,0,0,0,.23-.649c.008-.671.015-1.321.022-1.946s.024-1.234.035-1.809c.027-1.147.063-2.168.1-3.02.087-1.7.18-2.733.317-2.731a10.01,10.01,0,0,1,.294,2.731c.041.852.076,1.873.1,3.02.011.574.023,1.179.035,1.809s.015,1.3.022,1.983a1.862,1.862,0,0,1-.437,1.239,1.842,1.842,0,0,1-1.186.638c-.066,0-.131.01-.2.013H13.38l-.589,0L11.639,17.2,9.46,17.176c-1.388-.024-2.639-.059-3.689-.1l-.749-.034a3.5,3.5,0,0,0-.615,0,2.211,2.211,0,0,0-.9.331c-.453.3-.63.591-.692.554" transform="translate(-2.804 -5.78)" fill="#fff"/>
                        </g>
                      </g>
                    </g>
                    <g id="Grupo_879226" data-name="Grupo 879226" transform="translate(1.011 2.077)" opacity="0.804">
                      <g id="Grupo_879225" data-name="Grupo 879225">
                        <g id="Grupo_879224" data-name="Grupo 879224" clip-path="url(#clip-path-47)">
                          <path id="Trazado_597098" data-name="Trazado 597098" d="M2.922,18c-.025-.014-.016-.1.054-.249a1.828,1.828,0,0,1,.436-.565,2.255,2.255,0,0,1,1.03-.525c.057-.011.114-.024.173-.034L4.8,16.6c.123-.011.228-.013.349-.02l.745-.032c1.044-.04,2.287-.073,3.667-.1l2.165-.026,2.248-.014a.972.972,0,0,0,.638-.334.988.988,0,0,0,.235-.665c.007-.666.014-1.312.021-1.933s.023-1.225.033-1.8c.026-1.139.059-2.152.1-3a8.711,8.711,0,0,1,.3-2.71,9.984,9.984,0,0,1,.282,2.71c.039.846.072,1.86.1,3,.01.57.022,1.17.033,1.8s.014,1.29.021,1.968a1.837,1.837,0,0,1-.431,1.223,1.817,1.817,0,0,1-1.171.63l-.193.013h-.477l-.586,0-1.146-.007-2.165-.026c-1.38-.023-2.623-.056-3.667-.1l-.745-.032c-.115,0-.238-.014-.336-.014l-.145,0-.14.012a2.12,2.12,0,0,0-.9.309c-.461.29-.639.576-.7.536" transform="translate(-2.91 -5.979)" fill="#fff"/>
                        </g>
                      </g>
                    </g>
                    <g id="Grupo_879229" data-name="Grupo 879229" transform="translate(1.049 2.147)" opacity="0.824">
                      <g id="Grupo_879228" data-name="Grupo 879228">
                        <g id="Grupo_879227" data-name="Grupo 879227" clip-path="url(#clip-path-48)">
                          <path id="Trazado_597099" data-name="Trazado 597099" d="M3.029,18.067c-.024-.014-.013-.1.064-.244a1.793,1.793,0,0,1,.45-.545,2.232,2.232,0,0,1,1.034-.487,2.67,2.67,0,0,1,.352-.044l.341-.016.74-.03c1.037-.038,2.273-.069,3.645-.091l2.152-.025,2.238-.014a.994.994,0,0,0,.654-.343,1.012,1.012,0,0,0,.241-.681c.007-.662.013-1.3.02-1.92s.021-1.217.031-1.783c.024-1.13.056-2.136.092-2.976a9.35,9.35,0,0,1,.276-2.69,10.043,10.043,0,0,1,.269,2.69c.037.839.068,1.846.093,2.976.01.566.02,1.162.031,1.783s.013,1.28.02,1.952a1.813,1.813,0,0,1-.425,1.208,1.792,1.792,0,0,1-1.157.621L14,17.421H12.945l-1.139-.007-2.152-.025c-1.372-.021-2.607-.052-3.645-.09l-.74-.03-.341-.016a2.407,2.407,0,0,0-.285.006,2.106,2.106,0,0,0-.91.288,2.782,2.782,0,0,0-.506.38c-.113.1-.173.156-.2.14" transform="translate(-3.018 -6.179)" fill="#fff"/>
                        </g>
                      </g>
                    </g>
                    <g id="Grupo_879232" data-name="Grupo 879232" transform="translate(1.087 2.216)" opacity="0.843">
                      <g id="Grupo_879231" data-name="Grupo 879231">
                        <g id="Grupo_879230" data-name="Grupo 879230" clip-path="url(#clip-path-49)">
                          <path id="Trazado_597100" data-name="Trazado 597100" d="M3.137,18.137c-.041-.02.058-.363.539-.761a2.311,2.311,0,0,1,1.037-.451c.108-.017.234-.027.343-.033l.338-.015.736-.028c1.031-.036,2.259-.065,3.623-.085l2.139-.023,2.229-.013a1.017,1.017,0,0,0,.669-.351,1.035,1.035,0,0,0,.246-.7c.007-.657.013-1.294.019-1.907s.02-1.208.03-1.77c.023-1.122.052-2.12.087-2.954a10.118,10.118,0,0,1,.256-2.67,10.147,10.147,0,0,1,.255,2.67c.034.833.064,1.832.087,2.954.009.562.019,1.153.029,1.77s.012,1.27.019,1.937A1.789,1.789,0,0,1,15.4,16.9a1.769,1.769,0,0,1-1.142.613,3.442,3.442,0,0,1-.362.013H13.6l-.579,0-1.132-.006L9.754,17.5c-1.363-.02-2.591-.049-3.623-.085L5.4,17.382l-.338-.015c-.11,0-.2,0-.292,0a2.215,2.215,0,0,0-.917.267c-.469.27-.662.541-.711.5" transform="translate(-3.129 -6.378)" fill="#fff"/>
                        </g>
                      </g>
                    </g>
                    <g id="Grupo_879235" data-name="Grupo 879235" transform="translate(1.128 2.285)" opacity="0.863">
                      <g id="Grupo_879234" data-name="Grupo 879234">
                        <g id="Grupo_879233" data-name="Grupo 879233" clip-path="url(#clip-path-50)">
                          <path id="Trazado_597101" data-name="Trazado 597101" d="M3.254,18.21c-.019-.013,0-.1.085-.23a1.885,1.885,0,0,1,.479-.5,2.28,2.28,0,0,1,1.038-.416c.23-.027.437-.029.67-.04L6.257,17c1.025-.034,2.245-.061,3.6-.08l2.126-.022,2.219-.013a1.041,1.041,0,0,0,.685-.359,1.059,1.059,0,0,0,.251-.713c.006-.653.012-1.286.018-1.894s.019-1.2.027-1.756c.022-1.114.049-2.105.081-2.932a10.644,10.644,0,0,1,.239-2.65,10.644,10.644,0,0,1,.239,2.65c.032.827.06,1.818.081,2.932.009.557.018,1.144.028,1.756s.011,1.26.017,1.922a1.763,1.763,0,0,1-.413,1.176,1.741,1.741,0,0,1-1.127.6,3.408,3.408,0,0,1-.355.013h-.29l-.575,0-1.125-.006L9.858,17.6c-1.355-.019-2.576-.046-3.6-.08L5.526,17.5c-.228-.008-.457-.023-.633-.019a2.2,2.2,0,0,0-.921.247c-.476.256-.67.525-.718.486" transform="translate(-3.247 -6.578)" fill="#fff"/>
                        </g>
                      </g>
                    </g>
                    <g id="Grupo_879238" data-name="Grupo 879238" transform="translate(1.171 2.355)" opacity="0.882">
                      <g id="Grupo_879237" data-name="Grupo 879237">
                        <g id="Grupo_879236" data-name="Grupo 879236" clip-path="url(#clip-path-51)">
                          <path id="Trazado_597102" data-name="Trazado 597102" d="M3.376,18.285c-.017-.013,0-.1.095-.223a1.821,1.821,0,0,1,.491-.479A2.215,2.215,0,0,1,5,17.2l.167-.015.159-.007.334-.013.727-.024c1.019-.032,2.232-.057,3.578-.074l4.323-.033a1.064,1.064,0,0,0,.7-.368,1.082,1.082,0,0,0,.256-.729c.006-.648.011-1.277.016-1.881s.017-1.191.026-1.743c.02-1.105.046-2.089.076-2.91a11.25,11.25,0,0,1,.222-2.629,11.226,11.226,0,0,1,.222,2.629c.03.821.056,1.8.076,2.91.008.553.017,1.136.026,1.743s.011,1.25.016,1.907a1.737,1.737,0,0,1-.407,1.16,1.716,1.716,0,0,1-1.112.6,3.372,3.372,0,0,1-.35.012H13.2l-1.118-.005-2.114-.02c-1.347-.017-2.56-.043-3.578-.074L5.66,17.61,5.326,17.6l-.159-.007H5.025a2.125,2.125,0,0,0-.927.224,2.656,2.656,0,0,0-.525.342c-.117.09-.177.144-.2.129" transform="translate(-3.37 -6.778)" fill="#fff"/>
                        </g>
                      </g>
                    </g>
                    <g id="Grupo_879241" data-name="Grupo 879241" transform="translate(1.213 2.424)" opacity="0.902">
                      <g id="Grupo_879240" data-name="Grupo 879240">
                        <g id="Grupo_879239" data-name="Grupo 879239" clip-path="url(#clip-path-52)">
                          <path id="Trazado_597103" data-name="Trazado 597103" d="M3.5,18.36c-.019-.015.015-.089.1-.216a1.948,1.948,0,0,1,.5-.457,2.238,2.238,0,0,1,1.039-.341c.416-.026.864-.035,1.373-.052,1.012-.029,2.218-.052,3.556-.069l4.3-.031a1.085,1.085,0,0,0,.716-.376,1.1,1.1,0,0,0,.262-.745c.005-.644.01-1.268.015-1.868s.016-1.181.024-1.73c.019-1.1.042-2.073.07-2.888a11.922,11.922,0,0,1,.206-2.609,11.938,11.938,0,0,1,.206,2.609c.028.814.052,1.791.071,2.888.007.549.015,1.127.024,1.73s.01,1.24.015,1.893a1.712,1.712,0,0,1-.4,1.144,1.693,1.693,0,0,1-1.1.588,3.335,3.335,0,0,1-.343.011h-.855l-1.111,0-2.1-.019c-1.339-.016-2.544-.04-3.556-.069L5.155,17.7a2.16,2.16,0,0,0-.932.2c-.485.235-.69.489-.728.454" transform="translate(-3.49 -6.978)" fill="#fff"/>
                        </g>
                      </g>
                    </g>
                    <g id="Grupo_879244" data-name="Grupo 879244" transform="translate(1.259 2.494)" opacity="0.922">
                      <g id="Grupo_879243" data-name="Grupo 879243">
                        <g id="Grupo_879242" data-name="Grupo 879242" clip-path="url(#clip-path-53)">
                          <path id="Trazado_597104" data-name="Trazado 597104" d="M3.627,18.437c-.025-.014.119-.326.628-.641a2.284,2.284,0,0,1,1.036-.308c.4-.019.856-.031,1.36-.045,1.006-.027,2.2-.048,3.535-.063l4.277-.029a1.11,1.11,0,0,0,.731-.384,1.13,1.13,0,0,0,.266-.762c.013-2.551.05-4.826.1-6.438a12.764,12.764,0,0,1,.189-2.589,12.7,12.7,0,0,1,.189,2.589c.051,1.621.088,3.864.1,6.46a1.69,1.69,0,0,1-.395,1.129,1.668,1.668,0,0,1-1.082.579c-.112.009-.235.013-.337.011h-.85l-1.1,0-2.087-.017c-1.33-.015-2.528-.036-3.535-.063L5.3,17.818A2.229,2.229,0,0,0,4.36,18c-.49.222-.7.473-.733.437" transform="translate(-3.624 -7.178)" fill="#fff"/>
                        </g>
                      </g>
                    </g>
                    <g id="Grupo_879247" data-name="Grupo 879247" transform="translate(1.306 2.563)" opacity="0.941">
                      <g id="Grupo_879246" data-name="Grupo 879246">
                        <g id="Grupo_879245" data-name="Grupo 879245" clip-path="url(#clip-path-54)">
                          <path id="Trazado_597105" data-name="Trazado 597105" d="M3.762,18.516c-.012-.01.019-.087.122-.2a1.866,1.866,0,0,1,.524-.411,2.284,2.284,0,0,1,1.031-.275l1.349-.04c1-.024,2.19-.044,3.512-.058l4.255-.027a1.133,1.133,0,0,0,.747-.393,1.153,1.153,0,0,0,.272-.778c.012-2.533.045-4.79.092-6.389a13.678,13.678,0,0,1,.173-2.569,13.7,13.7,0,0,1,.173,2.569c.047,1.608.08,3.835.092,6.41a1.663,1.663,0,0,1-.389,1.114,1.641,1.641,0,0,1-1.067.57c-.11.009-.229.013-.331.011h-.844l-1.1,0L10.3,18.03c-1.322-.014-2.512-.033-3.512-.058l-1.349-.04a2.237,2.237,0,0,0-.94.163,2.509,2.509,0,0,0-.542.3c-.121.081-.179.133-.195.118" transform="translate(-3.759 -7.378)" fill="#fff"/>
                        </g>
                      </g>
                    </g>
                    <g id="Grupo_879250" data-name="Grupo 879250" transform="translate(1.353 2.633)" opacity="0.961">
                      <g id="Grupo_879249" data-name="Grupo 879249">
                        <g id="Grupo_879248" data-name="Grupo 879248" clip-path="url(#clip-path-55)">
                          <path id="Trazado_597106" data-name="Trazado 597106" d="M3.9,18.595c-.014-.013.029-.079.13-.19a1.959,1.959,0,0,1,.533-.388,2.288,2.288,0,0,1,1.024-.24l1.341-.036c.994-.022,2.177-.04,3.49-.052l4.232-.025a1.157,1.157,0,0,0,.762-.4,1.174,1.174,0,0,0,.277-.794c.011-2.516.041-4.754.083-6.341a14.9,14.9,0,0,1,.156-2.549,14.875,14.875,0,0,1,.157,2.549c.042,1.6.072,3.806.083,6.36a1.639,1.639,0,0,1-.383,1.1,1.617,1.617,0,0,1-1.053.562,3.231,3.231,0,0,1-.325.01h-.839l-1.09,0-2.061-.014c-1.314-.013-2.5-.03-3.49-.052l-1.341-.036a2.252,2.252,0,0,0-.947.141,2.63,2.63,0,0,0-.546.29c-.117.083-.183.125-.194.115" transform="translate(-3.894 -7.577)" fill="#fff"/>
                        </g>
                      </g>
                    </g>
                    <g id="Grupo_879253" data-name="Grupo 879253" transform="translate(1.403 2.702)" opacity="0.98">
                      <g id="Grupo_879252" data-name="Grupo 879252">
                        <g id="Grupo_879251" data-name="Grupo 879251" clip-path="url(#clip-path-56)">
                          <path id="Trazado_597107" data-name="Trazado 597107" d="M4.038,18.675c-.016-.01.16-.292.68-.547a2.284,2.284,0,0,1,.454-.151,2.9,2.9,0,0,1,.563-.058l1.332-.032c.987-.02,2.163-.036,3.468-.047l4.209-.023a1.179,1.179,0,0,0,.778-.409,1.2,1.2,0,0,0,.282-.81c.01-2.5.037-4.718.075-6.293a16.282,16.282,0,0,1,.14-2.528,16.371,16.371,0,0,1,.14,2.528c.038,1.582.065,3.777.075,6.31a1.613,1.613,0,0,1-.377,1.082,1.593,1.593,0,0,1-1.038.553c-.106.009-.219.012-.319.01h-.834l-1.083,0-2.048-.013c-1.305-.011-2.481-.027-3.468-.047l-1.332-.032a2.386,2.386,0,0,0-.952.122,7.009,7.009,0,0,0-.745.389" transform="translate(-4.037 -7.777)" fill="#fff"/>
                        </g>
                      </g>
                    </g>
                    <g id="Grupo_879256" data-name="Grupo 879256" transform="translate(1.454 2.772)">
                      <g id="Grupo_879255" data-name="Grupo 879255">
                        <g id="Grupo_879254" data-name="Grupo 879254" clip-path="url(#clip-path-57)">
                          <path id="Trazado_597108" data-name="Trazado 597108" d="M4.187,18.759c-.007-.007.033-.077.146-.172a1.926,1.926,0,0,1,.549-.342,1.49,1.49,0,0,1,.211-.076,1.548,1.548,0,0,1,.242-.059,3.149,3.149,0,0,1,.555-.046l1.324-.029c.981-.017,2.149-.032,3.446-.041l4.186-.021a1.2,1.2,0,0,0,.794-.418,1.222,1.222,0,0,0,.287-.826c.009-2.481.033-4.682.066-6.245.017-.783.036-1.41.057-1.841a2.523,2.523,0,0,1,.067-.667,2.554,2.554,0,0,1,.067.667c.021.432.04,1.058.057,1.841.034,1.569.058,3.749.066,6.26a1.586,1.586,0,0,1-.371,1.066,1.568,1.568,0,0,1-1.023.545c-.1.008-.213.012-.312.01h-.829l-1.076,0-2.035-.011c-1.3-.01-2.465-.024-3.446-.041l-1.324-.029a3.233,3.233,0,0,0-.527.012,1.466,1.466,0,0,0-.227.039,1.429,1.429,0,0,0-.2.056,2.4,2.4,0,0,0-.555.263c-.124.072-.182.122-.193.109" transform="translate(-4.186 -7.977)" fill="#fff"/>
                        </g>
                      </g>
                    </g>
                  </g>
                </g>
              </g>
            </g>
          </g>
        </g>
      </g>
    </g>
  </g>
</svg>
