<svg id="Grupo_897479" data-name="Grupo 897479" xmlns="http://www.w3.org/2000/svg" xmlns:xlink="http://www.w3.org/1999/xlink" width="60.371" height="60.371" viewBox="0 0 60.371 60.371">
  <defs>
    <clipPath id="clip-path">
      <rect id="Rectángulo_293814" data-name="Rectángulo 293814" width="60.371" height="60.371" fill="none"/>
    </clipPath>
    <clipPath id="clip-path-2">
      <rect id="Rectángulo_293759" data-name="Rectángulo 293759" width="60.371" height="60.371" rx="10" fill="none"/>
    </clipPath>
    <linearGradient id="linear-gradient" x1="0.5" x2="0.5" y2="1" gradientUnits="objectBoundingBox">
      <stop offset="0" stop-color="#1565c0"/>
      <stop offset="0.18" stop-color="#1565c0"/>
      <stop offset="1" stop-color="#b2ebf2"/>
    </linearGradient>
  </defs>
  <g id="Grupo_875524" data-name="Grupo 875524" clip-path="url(#clip-path)">
    <g id="Grupo_875362" data-name="Grupo 875362">
      <g id="Grupo_875361" data-name="Grupo 875361" clip-path="url(#clip-path-2)">
        <rect id="Rectángulo_293758" data-name="Rectángulo 293758" width="95.852" height="95.852" transform="translate(-41.08 37.207) rotate(-47.637)" fill="url(#linear-gradient)"/>
      </g>
    </g>
    <g id="Grupo_875523" data-name="Grupo 875523">
      <g id="Grupo_875522" data-name="Grupo 875522" clip-path="url(#clip-path)">
        <path id="Trazado_595902" data-name="Trazado 595902" d="M69.6,14.866a13.6,13.6,0,0,1,2.3,7.583V57.924A13.743,13.743,0,0,1,58.121,71.636H22.484a13.753,13.753,0,0,1-7.618-2.289,14.407,14.407,0,0,0,10.06,4.074h34.34A14.39,14.39,0,0,0,73.689,59.064V24.88A14.275,14.275,0,0,0,69.6,14.866" transform="translate(-13.317 -13.05)" fill="#12263f"/>
        <g id="Grupo_897468" data-name="Grupo 897468" transform="translate(4.235 12.044)">
          <path id="Trazado_617688" data-name="Trazado 617688" d="M545.091,939.561q-2.213,0-2.215,2.037v7.757a2.648,2.648,0,0,1-2.359,2.931,2.6,2.6,0,0,1,2.359,2.9v8.4a1.45,1.45,0,0,0,.518,1.287,3.8,3.8,0,0,0,1.984.359v3.324h-1.214q-4.862,0-4.863-4.719V956.11a2.526,2.526,0,0,0-.427-1.663,1.736,1.736,0,0,0-1.36-.482h-.858v-3.324h.858a1.7,1.7,0,0,0,1.36-.5,2.673,2.673,0,0,0,.427-1.716v-7.436q0-4.717,4.863-4.718h1.214v3.324A.945.945,0,0,0,545.091,939.561Zm5.275,23.269a2.6,2.6,0,0,1-.771-1.894,2.626,2.626,0,0,1,2.645-2.646,2.611,2.611,0,0,1,1.894.768,2.53,2.53,0,0,1,.789,1.878,2.689,2.689,0,0,1-2.683,2.68A2.517,2.517,0,0,1,550.367,962.83Zm10.007,0a2.6,2.6,0,0,1-.77-1.894,2.626,2.626,0,0,1,2.645-2.646,2.61,2.61,0,0,1,1.893.768,2.53,2.53,0,0,1,.79,1.878,2.69,2.69,0,0,1-2.683,2.68A2.518,2.518,0,0,1,560.374,962.83Zm10.008,0a2.6,2.6,0,0,1-.77-1.894,2.626,2.626,0,0,1,2.645-2.646,2.611,2.611,0,0,1,1.894.768,2.529,2.529,0,0,1,.789,1.878,2.69,2.69,0,0,1-2.683,2.68A2.517,2.517,0,0,1,570.382,962.83Zm10.685,5.72h-1.214v-3.324a3.8,3.8,0,0,0,1.984-.359,1.458,1.458,0,0,0,.518-1.287v-8.4a2.6,2.6,0,0,1,2.359-2.9,2.648,2.648,0,0,1-2.359-2.931V941.6a1.942,1.942,0,0,0-.59-1.591,1.847,1.847,0,0,0-1.164-.482H580.5l-.643.07v-3.324h1.214q4.862,0,4.863,4.718v7.436a2.671,2.671,0,0,0,.427,1.716,1.7,1.7,0,0,0,1.36.5h.858v3.324h-.858a1.736,1.736,0,0,0-1.36.482,2.524,2.524,0,0,0-.427,1.663v7.721Q585.93,968.547,581.067,968.549Z" transform="translate(-536.656 -936.271)" fill="#fff"/>
          <g id="Grupo_897466" data-name="Grupo 897466" transform="translate(0)">
            <path id="Trazado_617689" data-name="Trazado 617689" d="M537.015,993.873a1.867,1.867,0,0,0,1.187-.339,2.46,2.46,0,0,1-.688.089h-.858v.249Z" transform="translate(-536.656 -979.253)" fill="#b0c0d2"/>
            <path id="Trazado_617690" data-name="Trazado 617690" d="M553,1011.913v-8.4a2.579,2.579,0,0,0-2.135-2.85,3.826,3.826,0,0,1-.723.2,2.6,2.6,0,0,1,2.359,2.895v8.4a1.45,1.45,0,0,0,.518,1.287,3.8,3.8,0,0,0,1.984.359v3.075h.5v-3.324a3.8,3.8,0,0,1-1.984-.359A1.45,1.45,0,0,1,553,1011.913Z" transform="translate(-546.777 -984.605)" fill="#b0c0d2"/>
            <path id="Trazado_617691" data-name="Trazado 617691" d="M556.618,960.448v-7.757a1.888,1.888,0,0,1,.693-1.641,1.763,1.763,0,0,0-1.192,1.89V960.7a2.716,2.716,0,0,1-1.156,2.484A2.622,2.622,0,0,0,556.618,960.448Z" transform="translate(-550.398 -947.364)" fill="#b0c0d2"/>
            <path id="Trazado_617692" data-name="Trazado 617692" d="M711.348,1051.747c.027-.018.051-.04.075-.061a5.628,5.628,0,0,1-1.561.17v.236A3.04,3.04,0,0,0,711.348,1051.747Z" transform="translate(-666.666 -1022.902)" fill="#b0c0d2"/>
            <path id="Trazado_617693" data-name="Trazado 617693" d="M725.128,1001.328c-.082-.015-.16-.033-.238-.051a2.74,2.74,0,0,0-.5.25A3.759,3.759,0,0,1,725.128,1001.328Z" transform="translate(-677.569 -985.065)" fill="#c7c6fe"/>
            <path id="Trazado_617694" data-name="Trazado 617694" d="M634.953,1024.562a2.566,2.566,0,0,0-1.437.411,2.7,2.7,0,0,1,.938-.162,2.609,2.609,0,0,1,1.893.768,2.529,2.529,0,0,1,.79,1.878,2.584,2.584,0,0,1-.79,1.894,2.811,2.811,0,0,1-.462.374,2.64,2.64,0,0,0,.961-.623,2.585,2.585,0,0,0,.79-1.894,2.53,2.53,0,0,0-.79-1.878A2.61,2.61,0,0,0,634.953,1024.562Z" transform="translate(-609.36 -1002.543)" fill="#b0c0d2"/>
            <path id="Trazado_617695" data-name="Trazado 617695" d="M727.03,1008.978a2.524,2.524,0,0,0-.427,1.663v7.721q0,2.923-1.87,4.034,2.365-1,2.368-4.284v-7.721a2.524,2.524,0,0,1,.427-1.663,1.2,1.2,0,0,1,.152-.141A1.36,1.36,0,0,0,727.03,1008.978Z" transform="translate(-677.828 -990.552)" fill="#b0c0d2"/>
            <path id="Trazado_617696" data-name="Trazado 617696" d="M717.728,950.641a1.7,1.7,0,0,1-1.36-.5,2.671,2.671,0,0,1-.427-1.716v-7.436q0-4.717-4.863-4.718h-1.214v.249h.715q4.862,0,4.863,4.718v7.436a2.671,2.671,0,0,0,.427,1.716,1.7,1.7,0,0,0,1.36.5h.858v3.074h.5v-3.324Z" transform="translate(-666.666 -936.271)" fill="#b0c0d2"/>
            <path id="Trazado_617697" data-name="Trazado 617697" d="M594.825,1024.562a2.565,2.565,0,0,0-1.436.411,2.7,2.7,0,0,1,.938-.162,2.61,2.61,0,0,1,1.894.768,2.529,2.529,0,0,1,.789,1.878,2.584,2.584,0,0,1-.789,1.894,2.823,2.823,0,0,1-.462.374,2.639,2.639,0,0,0,.961-.623,2.585,2.585,0,0,0,.789-1.894,2.53,2.53,0,0,0-.789-1.878A2.611,2.611,0,0,0,594.825,1024.562Z" transform="translate(-579.24 -1002.543)" fill="#b0c0d2"/>
            <path id="Trazado_617698" data-name="Trazado 617698" d="M554.759,936.955a6.42,6.42,0,0,1,2.495-.435h1.214v3.046c.069,0,.139-.006.212-.006a.946.946,0,0,1,.287.034v-3.324h-1.214A5.8,5.8,0,0,0,554.759,936.955Z" transform="translate(-550.244 -936.271)" fill="#b0c0d2"/>
            <path id="Trazado_617699" data-name="Trazado 617699" d="M675.08,1024.562a2.565,2.565,0,0,0-1.436.411,2.7,2.7,0,0,1,.938-.162,2.61,2.61,0,0,1,1.894.768,2.529,2.529,0,0,1,.789,1.878,2.584,2.584,0,0,1-.789,1.894,2.823,2.823,0,0,1-.462.374,2.643,2.643,0,0,0,.961-.623,2.584,2.584,0,0,0,.789-1.894,2.53,2.53,0,0,0-.789-1.878A2.611,2.611,0,0,0,675.08,1024.562Z" transform="translate(-639.48 -1002.543)" fill="#b0c0d2"/>
          </g>
          <g id="Grupo_897467" data-name="Grupo 897467" transform="translate(0)">
            <path id="Trazado_617700" data-name="Trazado 617700" d="M565.158,947.461q-1.714,0-2.1,1.224a2.152,2.152,0,0,1,1.851-.725.946.946,0,0,1,.287.034v-.531Z" transform="translate(-556.473 -944.67)" fill="#12263f"/>
            <path id="Trazado_617701" data-name="Trazado 617701" d="M547.063,953.579v-7.436a5.987,5.987,0,0,1,.416-2.341,5.431,5.431,0,0,0-.665,2.84v7.436a3.974,3.974,0,0,1-.149,1.177A2.759,2.759,0,0,0,547.063,953.579Z" transform="translate(-544.169 -941.924)" fill="#12263f"/>
            <path id="Trazado_617702" data-name="Trazado 617702" d="M710.612,939.525a1.847,1.847,0,0,1,1.164.482,1.942,1.942,0,0,1,.59,1.591v7.757a2.622,2.622,0,0,0,1.643,2.729,3.517,3.517,0,0,1,.965-.3,2.648,2.648,0,0,1-2.359-2.931V941.1a1.942,1.942,0,0,0-.59-1.591,1.846,1.846,0,0,0-1.164-.482h-.106l-.643.07v-2.825h-.249v3.324l.643-.07Z" transform="translate(-666.666 -936.271)" fill="#12263f"/>
            <path id="Trazado_617703" data-name="Trazado 617703" d="M719.683,1015.089a2.367,2.367,0,0,1-.071.605,1.673,1.673,0,0,0,.32-1.1v-8.4a3.7,3.7,0,0,1,.209-1.3,3.2,3.2,0,0,0-.458,1.795Z" transform="translate(-673.984 -987.781)" fill="#12263f"/>
            <path id="Trazado_617704" data-name="Trazado 617704" d="M544.414,1011.3q-4.862,0-4.863-4.719v-7.721a2.526,2.526,0,0,0-.427-1.663,1.735,1.735,0,0,0-1.36-.482h-.858v-2.825h-.249v3.324h.858a1.736,1.736,0,0,1,1.36.482,2.526,2.526,0,0,1,.427,1.663v7.721q0,4.717,4.863,4.719h1.214v-.5Z" transform="translate(-536.656 -979.522)" fill="#12263f"/>
            <path id="Trazado_617705" data-name="Trazado 617705" d="M555.038,993.968a2.723,2.723,0,0,1-1.9,1.126,3.752,3.752,0,0,1,.711.189A2.338,2.338,0,0,0,555.038,993.968Z" transform="translate(-549.029 -979.579)" fill="#12263f"/>
            <path id="Trazado_617706" data-name="Trazado 617706" d="M711.326,1055.182h-1.214v-2.829c-.082,0-.163,0-.249,0v3.324h1.214q3.447,0,4.447-2.377Q714.391,1055.18,711.326,1055.182Z" transform="translate(-666.666 -1023.403)" fill="#12263f"/>
            <path id="Trazado_617707" data-name="Trazado 617707" d="M737.441,1005.219a1.736,1.736,0,0,0-1.36.482,1.491,1.491,0,0,0-.287.548c.013-.016.024-.034.037-.049a1.736,1.736,0,0,1,1.36-.482h.858v-.5Z" transform="translate(-686.13 -988.024)" fill="#12263f"/>
            <path id="Trazado_617708" data-name="Trazado 617708" d="M633.457,1032.241a2.577,2.577,0,0,1-1.893.786,2.517,2.517,0,0,1-1.875-.786,2.6,2.6,0,0,1-.771-1.894,2.7,2.7,0,0,1,.162-.938,2.567,2.567,0,0,0-.411,1.437,2.6,2.6,0,0,0,.771,1.894,2.517,2.517,0,0,0,1.875.786,2.578,2.578,0,0,0,1.893-.786,2.651,2.651,0,0,0,.627-.966A2.838,2.838,0,0,1,633.457,1032.241Z" transform="translate(-605.721 -1006.182)" fill="#12263f"/>
            <path id="Trazado_617709" data-name="Trazado 617709" d="M673.585,1032.242a2.579,2.579,0,0,1-1.894.786,2.517,2.517,0,0,1-1.875-.786,2.6,2.6,0,0,1-.77-1.894,2.7,2.7,0,0,1,.162-.937,2.566,2.566,0,0,0-.411,1.436,2.6,2.6,0,0,0,.77,1.894,2.518,2.518,0,0,0,1.875.786,2.579,2.579,0,0,0,1.894-.786,2.653,2.653,0,0,0,.627-.966A2.845,2.845,0,0,1,673.585,1032.242Z" transform="translate(-635.842 -1006.182)" fill="#12263f"/>
            <path id="Trazado_617710" data-name="Trazado 617710" d="M593.329,1032.241a2.579,2.579,0,0,1-1.894.786,2.517,2.517,0,0,1-1.875-.786,2.6,2.6,0,0,1-.771-1.894,2.7,2.7,0,0,1,.162-.938,2.567,2.567,0,0,0-.411,1.437,2.6,2.6,0,0,0,.771,1.894,2.518,2.518,0,0,0,1.875.786,2.579,2.579,0,0,0,1.894-.786,2.66,2.66,0,0,0,.627-.966A2.858,2.858,0,0,1,593.329,1032.241Z" transform="translate(-575.601 -1006.182)" fill="#12263f"/>
          </g>
        </g>
      </g>
    </g>
  </g>
</svg>
