<svg xmlns="http://www.w3.org/2000/svg" xmlns:xlink="http://www.w3.org/1999/xlink" width="715" height="347.656" viewBox="0 0 715 347.656">
  <defs>
    <clipPath id="clip-path">
      <rect id="Rectángulo_46332" data-name="Rectángulo 46332" width="715" height="347.656" rx="16" fill="#f6f6f6"/>
    </clipPath>
    <clipPath id="clip-path-2">
      <ellipse id="Elipse_4979" data-name="Elipse 4979" cx="44.421" cy="51.137" rx="44.421" ry="51.137" fill="none"/>
    </clipPath>
  </defs>
  <g id="Grupo_897535" data-name="Grupo 897535" transform="translate(-500 -8526.164)">
    <g id="Grupo_154673" data-name="Grupo 154673" transform="translate(500 8526.164)">
      <path id="Trazado_196472" data-name="Trazado 196472" d="M16,0H699a16.238,16.238,0,0,1,16,16.466v313.89a16.238,16.238,0,0,1-16,16.466H16A16.238,16.238,0,0,1,0,330.356V16.466A16.238,16.238,0,0,1,16,0Z" transform="translate(0 0)" fill="#f6f6f6"/>
      <g id="Enmascarar_grupo_141249" data-name="Enmascarar grupo 141249" transform="translate(0 0)" opacity="0.603" clip-path="url(#clip-path)">
        <g id="Grupo_154672" data-name="Grupo 154672" transform="translate(0 -57.219)">
          <path id="Trazado_174289" data-name="Trazado 174289" d="M197.961,383.022c-62.9,0-113.883,58.7-113.883,131.1s50.987,131.1,113.883,131.1,113.883-58.7,113.883-131.1S260.857,383.022,197.961,383.022Zm0,235.995c-50.324,0-91.119-46.963-91.119-104.895s40.8-104.895,91.119-104.895S289.08,456.19,289.08,514.122,248.285,619.016,197.961,619.016Z" transform="translate(33.048 -149.286)" fill="#e8e8e8" opacity="0.428"/>
          <path id="Trazado_174290" data-name="Trazado 174290" d="M59.688,319.2-111.288,516.022c-5.834,6.717-15.292,6.717-21.126,0h0a19.085,19.085,0,0,1,0-24.32L38.562,294.877c5.834-6.716,15.292-6.716,21.126,0h0A19.085,19.085,0,0,1,59.688,319.2Z" transform="translate(136.79 -289.84)" fill="none" stroke="#8f9294" stroke-miterlimit="10" stroke-width="2" opacity="0.232"/>
          <path id="Trazado_174291" data-name="Trazado 174291" d="M57.955,410.57-72.549,560.8a10.377,10.377,0,0,1-16.125,0h0a14.567,14.567,0,0,1,0-18.564l130.5-150.234a10.378,10.378,0,0,1,16.126,0h0A14.569,14.569,0,0,1,57.955,410.57Z" transform="translate(121.171 -309.986)" fill="none" stroke="#8f9294" stroke-miterlimit="10" stroke-width="2" opacity="0.339"/>
          <g id="Grupo_124668" data-name="Grupo 124668" transform="translate(849.625 221.789)">
            <line id="Línea_1655" data-name="Línea 1655" x1="10.948" y2="12.603" fill="none" stroke="#d8d9da" stroke-miterlimit="10" stroke-width="0.78"/>
            <line id="Línea_1656" data-name="Línea 1656" x1="10.948" y2="12.603" transform="translate(5.334)" fill="none" stroke="#d8d9da" stroke-miterlimit="10" stroke-width="0.78"/>
            <line id="Línea_1657" data-name="Línea 1657" x1="10.948" y2="12.603" transform="translate(10.667)" fill="none" stroke="#d8d9da" stroke-miterlimit="10" stroke-width="0.78"/>
            <line id="Línea_1658" data-name="Línea 1658" x1="10.948" y2="12.603" transform="translate(16.001)" fill="none" stroke="#d8d9da" stroke-miterlimit="10" stroke-width="0.78"/>
            <line id="Línea_1659" data-name="Línea 1659" x1="10.948" y2="12.603" transform="translate(21.335)" fill="none" stroke="#d8d9da" stroke-miterlimit="10" stroke-width="0.78"/>
            <line id="Línea_1660" data-name="Línea 1660" x1="10.948" y2="12.603" transform="translate(26.668)" fill="none" stroke="#d8d9da" stroke-miterlimit="10" stroke-width="0.78"/>
            <line id="Línea_1661" data-name="Línea 1661" x1="10.948" y2="12.603" transform="translate(32.002)" fill="none" stroke="#d8d9da" stroke-miterlimit="10" stroke-width="0.78"/>
            <line id="Línea_1662" data-name="Línea 1662" x1="10.948" y2="12.603" transform="translate(37.336)" fill="none" stroke="#d8d9da" stroke-miterlimit="10" stroke-width="0.78"/>
            <line id="Línea_1663" data-name="Línea 1663" x1="10.948" y2="12.603" transform="translate(42.669)" fill="none" stroke="#d8d9da" stroke-miterlimit="10" stroke-width="0.78"/>
            <line id="Línea_1664" data-name="Línea 1664" x1="10.948" y2="12.603" transform="translate(48.003)" fill="none" stroke="#d8d9da" stroke-miterlimit="10" stroke-width="0.78"/>
            <line id="Línea_1665" data-name="Línea 1665" x1="10.948" y2="12.603" transform="translate(53.336)" fill="none" stroke="#d8d9da" stroke-miterlimit="10" stroke-width="0.78"/>
            <line id="Línea_1666" data-name="Línea 1666" x1="10.948" y2="12.603" transform="translate(58.67)" fill="none" stroke="#d8d9da" stroke-miterlimit="10" stroke-width="0.78"/>
            <line id="Línea_1667" data-name="Línea 1667" x1="10.948" y2="12.603" transform="translate(64.004)" fill="none" stroke="#d8d9da" stroke-miterlimit="10" stroke-width="0.78"/>
          </g>
          <g id="Grupo_124677" data-name="Grupo 124677" transform="translate(240.432 139.408)">
            <g id="Grupo_124673" data-name="Grupo 124673">
              <line id="Línea_1668" data-name="Línea 1668" y2="10.169" transform="translate(4.417)" fill="none" stroke="#8f9294" stroke-miterlimit="10" stroke-width="0.388"/>
              <line id="Línea_1669" data-name="Línea 1669" x2="8.834" transform="translate(0 5.085)" fill="none" stroke="#8f9294" stroke-miterlimit="10" stroke-width="0.388"/>
            </g>
            <g id="Grupo_124674" data-name="Grupo 124674" transform="translate(24.072)">
              <line id="Línea_1670" data-name="Línea 1670" y2="10.169" transform="translate(4.417)" fill="none" stroke="#8f9294" stroke-miterlimit="10" stroke-width="0.388"/>
              <line id="Línea_1671" data-name="Línea 1671" x2="8.834" transform="translate(0 5.085)" fill="none" stroke="#8f9294" stroke-miterlimit="10" stroke-width="0.388"/>
            </g>
            <g id="Grupo_124675" data-name="Grupo 124675" transform="translate(48.144)">
              <line id="Línea_1672" data-name="Línea 1672" y2="10.169" transform="translate(4.417)" fill="none" stroke="#8f9294" stroke-miterlimit="10" stroke-width="0.388"/>
              <line id="Línea_1673" data-name="Línea 1673" x2="8.834" transform="translate(0 5.085)" fill="none" stroke="#8f9294" stroke-miterlimit="10" stroke-width="0.388"/>
            </g>
            <g id="Grupo_124676" data-name="Grupo 124676" transform="translate(72.215)">
              <line id="Línea_1674" data-name="Línea 1674" y2="10.169" transform="translate(4.417)" fill="none" stroke="#8f9294" stroke-miterlimit="10" stroke-width="0.388"/>
              <line id="Línea_1675" data-name="Línea 1675" x2="8.834" transform="translate(0 5.085)" fill="none" stroke="#8f9294" stroke-miterlimit="10" stroke-width="0.388"/>
            </g>
          </g>
          <g id="Grupo_124682" data-name="Grupo 124682" transform="translate(240.432 156.249)">
            <g id="Grupo_124678" data-name="Grupo 124678">
              <line id="Línea_1676" data-name="Línea 1676" y2="10.169" transform="translate(4.417)" fill="none" stroke="#8f9294" stroke-miterlimit="10" stroke-width="0.388"/>
              <line id="Línea_1677" data-name="Línea 1677" x2="8.834" transform="translate(0 5.085)" fill="none" stroke="#8f9294" stroke-miterlimit="10" stroke-width="0.388"/>
            </g>
            <g id="Grupo_124679" data-name="Grupo 124679" transform="translate(24.072)">
              <line id="Línea_1678" data-name="Línea 1678" y2="10.169" transform="translate(4.417)" fill="none" stroke="#8f9294" stroke-miterlimit="10" stroke-width="0.388"/>
              <line id="Línea_1679" data-name="Línea 1679" x2="8.834" transform="translate(0 5.085)" fill="none" stroke="#8f9294" stroke-miterlimit="10" stroke-width="0.388"/>
            </g>
            <g id="Grupo_124680" data-name="Grupo 124680" transform="translate(48.144)">
              <line id="Línea_1680" data-name="Línea 1680" y2="10.169" transform="translate(4.417)" fill="none" stroke="#8f9294" stroke-miterlimit="10" stroke-width="0.388"/>
              <line id="Línea_1681" data-name="Línea 1681" x2="8.834" transform="translate(0 5.085)" fill="none" stroke="#8f9294" stroke-miterlimit="10" stroke-width="0.388"/>
            </g>
            <g id="Grupo_124681" data-name="Grupo 124681" transform="translate(72.215)">
              <line id="Línea_1682" data-name="Línea 1682" y2="10.169" transform="translate(4.417)" fill="none" stroke="#8f9294" stroke-miterlimit="10" stroke-width="0.388"/>
              <line id="Línea_1683" data-name="Línea 1683" x2="8.834" transform="translate(0 5.085)" fill="none" stroke="#8f9294" stroke-miterlimit="10" stroke-width="0.388"/>
            </g>
          </g>
          <g id="Grupo_124687" data-name="Grupo 124687" transform="translate(240.432 173.091)">
            <g id="Grupo_124683" data-name="Grupo 124683">
              <line id="Línea_1684" data-name="Línea 1684" y2="10.169" transform="translate(4.417)" fill="none" stroke="#8f9294" stroke-miterlimit="10" stroke-width="0.388"/>
              <line id="Línea_1685" data-name="Línea 1685" x2="8.834" transform="translate(0 5.085)" fill="none" stroke="#8f9294" stroke-miterlimit="10" stroke-width="0.388"/>
            </g>
            <g id="Grupo_124684" data-name="Grupo 124684" transform="translate(24.072)">
              <line id="Línea_1686" data-name="Línea 1686" y2="10.169" transform="translate(4.417)" fill="none" stroke="#8f9294" stroke-miterlimit="10" stroke-width="0.388"/>
              <line id="Línea_1687" data-name="Línea 1687" x2="8.834" transform="translate(0 5.085)" fill="none" stroke="#8f9294" stroke-miterlimit="10" stroke-width="0.388"/>
            </g>
            <g id="Grupo_124685" data-name="Grupo 124685" transform="translate(48.144)">
              <line id="Línea_1688" data-name="Línea 1688" y2="10.169" transform="translate(4.417)" fill="none" stroke="#8f9294" stroke-miterlimit="10" stroke-width="0.388"/>
              <line id="Línea_1689" data-name="Línea 1689" x2="8.834" transform="translate(0 5.085)" fill="none" stroke="#8f9294" stroke-miterlimit="10" stroke-width="0.388"/>
            </g>
            <g id="Grupo_124686" data-name="Grupo 124686" transform="translate(72.215)">
              <line id="Línea_1690" data-name="Línea 1690" y2="10.169" transform="translate(4.417)" fill="none" stroke="#8f9294" stroke-miterlimit="10" stroke-width="0.388"/>
              <line id="Línea_1691" data-name="Línea 1691" x2="8.834" transform="translate(0 5.085)" fill="none" stroke="#8f9294" stroke-miterlimit="10" stroke-width="0.388"/>
            </g>
          </g>
          <g id="Grupo_124692" data-name="Grupo 124692" transform="translate(240.432 189.933)">
            <g id="Grupo_124688" data-name="Grupo 124688">
              <line id="Línea_1692" data-name="Línea 1692" y2="10.169" transform="translate(4.417)" fill="none" stroke="#8f9294" stroke-miterlimit="10" stroke-width="0.388"/>
              <line id="Línea_1693" data-name="Línea 1693" x2="8.834" transform="translate(0 5.085)" fill="none" stroke="#8f9294" stroke-miterlimit="10" stroke-width="0.388"/>
            </g>
            <g id="Grupo_124689" data-name="Grupo 124689" transform="translate(24.072)">
              <line id="Línea_1694" data-name="Línea 1694" y2="10.169" transform="translate(4.417)" fill="none" stroke="#8f9294" stroke-miterlimit="10" stroke-width="0.388"/>
              <line id="Línea_1695" data-name="Línea 1695" x2="8.834" transform="translate(0 5.085)" fill="none" stroke="#8f9294" stroke-miterlimit="10" stroke-width="0.388"/>
            </g>
            <g id="Grupo_124690" data-name="Grupo 124690" transform="translate(48.144)">
              <line id="Línea_1696" data-name="Línea 1696" y2="10.169" transform="translate(4.417)" fill="none" stroke="#8f9294" stroke-miterlimit="10" stroke-width="0.388"/>
              <line id="Línea_1697" data-name="Línea 1697" x2="8.834" transform="translate(0 5.085)" fill="none" stroke="#8f9294" stroke-miterlimit="10" stroke-width="0.388"/>
            </g>
            <g id="Grupo_124691" data-name="Grupo 124691" transform="translate(72.215)">
              <line id="Línea_1698" data-name="Línea 1698" y2="10.169" transform="translate(4.417)" fill="none" stroke="#8f9294" stroke-miterlimit="10" stroke-width="0.388"/>
              <line id="Línea_1699" data-name="Línea 1699" x2="8.834" transform="translate(0 5.085)" fill="none" stroke="#8f9294" stroke-miterlimit="10" stroke-width="0.388"/>
            </g>
          </g>
          <rect id="Rectángulo_35685" data-name="Rectángulo 35685" width="97.944" height="9.454" transform="translate(640.588 94.695)" fill="none" stroke="#8f9294" stroke-linecap="round" stroke-linejoin="round" stroke-width="1"/>
          <path id="Trazado_174309" data-name="Trazado 174309" d="M745.488,275.471c-11.512,0-20.844,10.743-20.844,24s9.332,24,20.844,24,20.845-10.744,20.845-24S757,275.471,745.488,275.471Zm0,35.216c-5.383,0-9.747-5.024-9.747-11.221s4.364-11.221,9.747-11.221,9.747,5.024,9.747,11.221S750.871,310.687,745.488,310.687Z" transform="translate(62.678 -143.324)" fill="#fff"/>
          <g id="Grupo_124745" data-name="Grupo 124745" transform="translate(752.148 293.377)" clip-path="url(#clip-path-2)">
            <path id="Trazado_174310" data-name="Trazado 174310" d="M501.577,136.445C489.291,151.458,476.1,165.431,463.81,180.5" transform="translate(-468.586 -138.843)" fill="none" stroke="#606060" stroke-miterlimit="10" stroke-width="0.655"/>
            <path id="Trazado_174311" data-name="Trazado 174311" d="M507.19,136.393c-13.685,16.883-28.989,33.286-43.418,49.959" transform="translate(-468.579 -138.84)" fill="none" stroke="#606060" stroke-miterlimit="10" stroke-width="0.655"/>
            <path id="Trazado_174312" data-name="Trazado 174312" d="M512.364,136.4c-16.245,18.7-32.6,37.528-48.72,56.095" transform="translate(-468.554 -138.841)" fill="none" stroke="#606060" stroke-miterlimit="10" stroke-width="0.655"/>
            <path id="Trazado_174313" data-name="Trazado 174313" d="M517.526,136.55q-26.553,30.575-53.831,61.959" transform="translate(-468.564 -138.851)" fill="none" stroke="#606060" stroke-miterlimit="10" stroke-width="0.655"/>
            <path id="Trazado_174314" data-name="Trazado 174314" d="M523.855,136.489c-19.8,22.263-39.849,44.739-60.086,67.882" transform="translate(-468.578 -138.847)" fill="none" stroke="#606060" stroke-miterlimit="10" stroke-width="0.655"/>
            <path id="Trazado_174315" data-name="Trazado 174315" d="M527.971,136.579c-20.768,24.609-41.349,47.694-62.457,72.6-.527.608-1.583.608-1.862,1.441" transform="translate(-468.556 -138.853)" fill="none" stroke="#606060" stroke-miterlimit="10" stroke-width="0.655"/>
            <path id="Trazado_174316" data-name="Trazado 174316" d="M533.749,136.461c-12.784,15.605-26.5,29.578-40.226,45.372-10.026,12.15-20.053,22.478-29.661,34.6" transform="translate(-468.597 -138.845)" fill="none" stroke="#606060" stroke-miterlimit="10" stroke-width="0.655"/>
            <path id="Trazado_174317" data-name="Trazado 174317" d="M537.292,137.765c-24.261,28.368-49.592,55.7-73.522,84.835" transform="translate(-468.579 -138.938)" fill="none" stroke="#606060" stroke-miterlimit="10" stroke-width="0.655"/>
            <path id="Trazado_174318" data-name="Trazado 174318" d="M537.262,144.249c-24.21,27.817-49.013,56.37-73.382,84.583" transform="translate(-468.6 -139.405)" fill="none" stroke="#606060" stroke-miterlimit="10" stroke-width="0.655"/>
            <path id="Trazado_174319" data-name="Trazado 174319" d="M539.925,147.767C514.638,177.179,488.78,205.731,463.9,235.2" transform="translate(-468.604 -139.657)" fill="none" stroke="#606060" stroke-miterlimit="10" stroke-width="0.655"/>
            <path id="Trazado_174320" data-name="Trazado 174320" d="M545.127,147.736C517.751,179,491.365,211.2,463.616,241.485" transform="translate(-468.549 -139.655)" fill="none" stroke="#606060" stroke-miterlimit="10" stroke-width="0.655"/>
            <path id="Trazado_174321" data-name="Trazado 174321" d="M550.692,147.97,467.2,244.078" transform="translate(-469.244 -139.672)" fill="none" stroke="#606060" stroke-miterlimit="10" stroke-width="0.655"/>
            <path id="Trazado_174322" data-name="Trazado 174322" d="M557.061,147.974c-27.874,31.65-55.315,63.847-83.446,96.159" transform="translate(-470.487 -139.672)" fill="none" stroke="#606060" stroke-miterlimit="10" stroke-width="0.655"/>
            <path id="Trazado_174323" data-name="Trazado 174323" d="M561.069,150.913c-26.94,30.744-53.325,62.334-81.012,93.456" transform="translate(-471.735 -139.884)" fill="none" stroke="#606060" stroke-miterlimit="10" stroke-width="0.655"/>
            <path id="Trazado_174324" data-name="Trazado 174324" d="M562.482,157.09c-25.516,29.264-49.791,59.639-75.953,87.72" transform="translate(-472.989 -140.328)" fill="none" stroke="#606060" stroke-miterlimit="10" stroke-width="0.655"/>
            <path id="Trazado_174325" data-name="Trazado 174325" d="M563.548,164.17c-23.739,26.946-46.959,54.283-70.519,81.12" transform="translate(-474.248 -140.837)" fill="none" stroke="#606060" stroke-miterlimit="10" stroke-width="0.655"/>
            <path id="Trazado_174326" data-name="Trazado 174326" d="M564.966,170.164c-21.782,25.027-43.418,50.542-65.413,75.5" transform="translate(-475.513 -141.268)" fill="none" stroke="#606060" stroke-miterlimit="10" stroke-width="0.655"/>
            <path id="Trazado_174327" data-name="Trazado 174327" d="M566.146,176.763q-30.212,34.733-60.2,69.454" transform="translate(-476.751 -141.742)" fill="none" stroke="#606060" stroke-miterlimit="10" stroke-width="0.655"/>
            <path id="Trazado_174328" data-name="Trazado 174328" d="M567.479,183.234c-18.091,21.4-36.561,42.664-54.971,63.358" transform="translate(-478.023 -142.207)" fill="none" stroke="#606060" stroke-miterlimit="10" stroke-width="0.655"/>
            <path id="Trazado_174329" data-name="Trazado 174329" d="M568.659,189.833c-16.443,18.922-33.329,38.362-49.727,57.275" transform="translate(-479.268 -142.682)" fill="none" stroke="#606060" stroke-miterlimit="10" stroke-width="0.655"/>
            <path id="Trazado_174330" data-name="Trazado 174330" d="M569.768,196.537q-22.081,25.429-44.4,51.082" transform="translate(-480.515 -143.164)" fill="none" stroke="#606060" stroke-miterlimit="10" stroke-width="0.655"/>
            <path id="Trazado_174331" data-name="Trazado 174331" d="M571.178,202.6q-15.364,17.612-30.648,35.318-4.363,5.069-8.714,10.154" transform="translate(-481.765 -143.6)" fill="none" stroke="#606060" stroke-miterlimit="10" stroke-width="0.655"/>
            <path id="Trazado_174332" data-name="Trazado 174332" d="M572.392,209.851c-11.15,13.1-22.76,26.466-34.117,38.753" transform="translate(-483.016 -144.121)" fill="none" stroke="#606060" stroke-miterlimit="10" stroke-width="0.655"/>
          </g>
          <ellipse id="Elipse_4980" data-name="Elipse 4980" cx="4.324" cy="4.977" rx="4.324" ry="4.977" transform="translate(829.011 74.489)" fill="none" stroke="#606060" stroke-miterlimit="10" stroke-width="0.655"/>
          <g id="Grupo_124668-2" data-name="Grupo 124668" transform="translate(865.609 115.61)">
            <line id="Línea_1655-2" data-name="Línea 1655" x1="8.613" y2="9.915" fill="none" stroke="#d8d9da" stroke-miterlimit="10" stroke-width="0.78"/>
            <line id="Línea_1656-2" data-name="Línea 1656" x1="8.613" y2="9.915" transform="translate(4.196)" fill="none" stroke="#d8d9da" stroke-miterlimit="10" stroke-width="0.78"/>
            <line id="Línea_1657-2" data-name="Línea 1657" x1="8.613" y2="9.915" transform="translate(8.392)" fill="none" stroke="#d8d9da" stroke-miterlimit="10" stroke-width="0.78"/>
            <line id="Línea_1658-2" data-name="Línea 1658" x1="8.613" y2="9.915" transform="translate(12.589)" fill="none" stroke="#d8d9da" stroke-miterlimit="10" stroke-width="0.78"/>
            <line id="Línea_1659-2" data-name="Línea 1659" x1="8.613" y2="9.915" transform="translate(16.785)" fill="none" stroke="#d8d9da" stroke-miterlimit="10" stroke-width="0.78"/>
            <line id="Línea_1660-2" data-name="Línea 1660" x1="8.613" y2="9.915" transform="translate(20.981)" fill="none" stroke="#d8d9da" stroke-miterlimit="10" stroke-width="0.78"/>
            <line id="Línea_1661-2" data-name="Línea 1661" x1="8.613" y2="9.915" transform="translate(25.177)" fill="none" stroke="#d8d9da" stroke-miterlimit="10" stroke-width="0.78"/>
            <line id="Línea_1662-2" data-name="Línea 1662" x1="8.613" y2="9.915" transform="translate(29.373)" fill="none" stroke="#d8d9da" stroke-miterlimit="10" stroke-width="0.78"/>
            <line id="Línea_1663-2" data-name="Línea 1663" x1="8.613" y2="9.915" transform="translate(33.57)" fill="none" stroke="#d8d9da" stroke-miterlimit="10" stroke-width="0.78"/>
            <line id="Línea_1664-2" data-name="Línea 1664" x1="8.613" y2="9.915" transform="translate(37.766)" fill="none" stroke="#d8d9da" stroke-miterlimit="10" stroke-width="0.78"/>
            <line id="Línea_1665-2" data-name="Línea 1665" x1="8.613" y2="9.915" transform="translate(41.962)" fill="none" stroke="#d8d9da" stroke-miterlimit="10" stroke-width="0.78"/>
            <line id="Línea_1666-2" data-name="Línea 1666" x1="8.613" y2="9.915" transform="translate(46.158)" fill="none" stroke="#d8d9da" stroke-miterlimit="10" stroke-width="0.78"/>
            <line id="Línea_1667-2" data-name="Línea 1667" x1="8.613" y2="9.915" transform="translate(50.354)" fill="none" stroke="#d8d9da" stroke-miterlimit="10" stroke-width="0.78"/>
          </g>
        </g>
      </g>
    </g>
  </g>
</svg>
