<svg xmlns="http://www.w3.org/2000/svg" xmlns:xlink="http://www.w3.org/1999/xlink" width="108.419" height="108.419" viewBox="0 0 108.419 108.419">
  <defs>
    <linearGradient id="linear-gradient" x1="0.5" x2="0.5" y2="1" gradientUnits="objectBoundingBox">
      <stop offset="0" stop-color="#fdbe41"/>
      <stop offset="1" stop-color="#d09f40"/>
    </linearGradient>
  </defs>
  <g id="Grupo_900003" data-name="Grupo 900003" transform="translate(-587.386 -5842.418)">
    <circle id="Elipse_6020" data-name="Elipse 6020" cx="54.209" cy="54.209" r="54.209" transform="translate(587.386 5842.418)" fill="url(#linear-gradient)"/>
    <g id="etcSe4" transform="translate(839.352 3500.418)">
      <g id="Grupo_897524" data-name="Grupo 897524" transform="translate(-221.835 2360.94)">
        <path id="Trazado_617756" data-name="Trazado 617756" d="M-181.078,2427.218c-.637,0-1.219,0-1.8,0-.161,0-.231.059-.284.225a4.087,4.087,0,0,1-3.515,3.006,2.583,2.583,0,0,1-.392.018l-20.731,0q-3.35,0-6.7,0a4.085,4.085,0,0,1-4.15-3.524,12.087,12.087,0,0,1-.051-1.827q0-7.3,0-14.6,0-7.943,0-15.887,0-7.8,0-15.6,0-5.915,0-11.83a3.212,3.212,0,0,1,3.1-3.217c1.3-.033,2.6.005,3.9,0q7.6-.006,15.2-.016,5.064,0,10.128,0a3.232,3.232,0,0,1,3.323,2.763,3.239,3.239,0,0,1,.031.573q0,6.962,0,13.925,0,10,0,20c0,1.143,0,2.286,0,3.429a.407.407,0,0,0,.085.278c.6.516,1.208,1.02,1.841,1.55v-.262q0-4.1,0-8.193,0-2.431,0-4.862a.479.479,0,0,1,.354-.515.413.413,0,0,1,.5.177.839.839,0,0,1,.1.42c0,.915-.018,1.83-.017,2.744q.007,5.64.017,11.279a.762.762,0,0,0,.191.512c.987,1.24,1.985,2.473,2.934,3.742a2.309,2.309,0,0,0,1.71,1.059c.291.025.578.1.867.147a2.43,2.43,0,0,1,1.909-1.659,1.454,1.454,0,0,1,.286-.026q2.683,0,5.365.012c.344,0,.505.116.546.367.055.337-.138.55-.513.553q-1.832.012-3.664.017c-.5,0-.995,0-1.492,0a1.473,1.473,0,0,0-1.578,1.563q-.006,2.788,0,5.575c0,1.718.027,3.437-.01,5.154a1.571,1.571,0,0,0,1.695,1.679c1.666-.026,3.333-.01,5-.01.342,0,.527.128.565.381.053.351-.146.57-.531.571q-1.675,0-3.35,0c-.628,0-1.256,0-1.885,0a2.359,2.359,0,0,1-1.929-.929.3.3,0,0,0-.347-.129,7.316,7.316,0,0,0-.8.135,4.691,4.691,0,0,0-.9.435,4.129,4.129,0,0,1-1.7.766c-.432.043-.87.038-1.3.045-.3,0-.609,0-.913-.015-.147-.005-.174.069-.172.193.006.444.023.89.007,1.334a5.177,5.177,0,0,1-4.285,4.856,18.837,18.837,0,0,1-2.738.108q-7.879.013-15.757,0-6.844,0-13.689,0a5.251,5.251,0,0,1-5.155-4.457,7.948,7.948,0,0,1-.064-1.147q0-7.525,0-15.051,0-7.734,0-15.469,0-7.983,0-15.966c0-5.148-.009-10.3,0-15.443a5.166,5.166,0,0,1,4.081-5.085,11.661,11.661,0,0,1,2.341-.14c4.746-.01,9.493,0,14.239,0q7.669,0,15.338-.009a6.068,6.068,0,0,1,2.43.4,5.1,5.1,0,0,1,2.035,1.507,5.032,5.032,0,0,1,1.023,1.916,6.192,6.192,0,0,1,.2,1.468c.016,3.7.009,7.4.009,11.1q0,4.641,0,9.281c0,.462,0,.924,0,1.387,0,.354-.19.55-.5.542s-.461-.209-.461-.545q0-3.546,0-7.093c0-4.833-.009-9.666.008-14.5a4.548,4.548,0,0,0-.532-2.255,4,4,0,0,0-2.739-2.085,10.479,10.479,0,0,0-2.077-.145c-2.478-.012-4.956,0-7.433,0q-3.856,0-7.712,0-7.446,0-14.892,0a4.278,4.278,0,0,0-4.331,3.5,4.044,4.044,0,0,0-.075.831q-.008,3.809,0,7.617v29.84q0,12.328,0,24.657a4.261,4.261,0,0,0,2.956,4.152,4.271,4.271,0,0,0,1.3.211c2.25.021,4.5.011,6.751.012q5.561,0,11.123.009c1.666,0,3.332-.007,5-.009q4.187,0,8.374,0a4.3,4.3,0,0,0,4.227-3.624,3.21,3.21,0,0,0,.061-.437C-181.073,2428.2-181.078,2427.734-181.078,2427.218Zm-17.69-10.476h-.268q-5.457,0-10.914,0a3.1,3.1,0,0,1-1.752-.52,3.137,3.137,0,0,1-1.29-3.548,3.171,3.171,0,0,1,3.057-2.243h6.543c1.056,0,2.112,0,3.167,0,.36,0,.592.2.6.487s-.237.49-.592.49q-2.107,0-4.214,0c-1.885,0-3.769-.008-5.654.005a2.2,2.2,0,0,0-2.071,2.358,2.26,2.26,0,0,0,2.251,2c2.818-.027,5.636-.009,8.454-.009.837,0,1.675,0,2.512-.005.082,0,.217-.062.236-.123a2.64,2.64,0,0,1,1.061-1.427c0-.026,0-.038,0-.042-.038-.036-.078-.07-.116-.105a2.976,2.976,0,0,1-.981-2.81,3.113,3.113,0,0,1,3.18-2.616q3.05,0,6.1,0h.308a4.412,4.412,0,0,0-1.211-2.292,8.419,8.419,0,0,1-1.253.193q-8.73.019-17.459.007a9.346,9.346,0,0,1-1.46-.058,3.136,3.136,0,0,1-2.581-3.358,3.15,3.15,0,0,1,3.119-2.869q8.18,0,16.36,0h1.338c.018-.063.036-.111.045-.161s.013-.121.021-.181a3.209,3.209,0,0,1,.766-1.8,2.951,2.951,0,0,1,2.959-.866,2.519,2.519,0,0,1,2.1,1.969c.1.378.2.756.3,1.134a6.987,6.987,0,0,0,1.94,3.546c.052.048.11.09.2.166v-.311q0-10.849,0-21.7,0-7.369,0-14.737a2.311,2.311,0,0,0-2.408-2.4H-215.4a2.305,2.305,0,0,0-2.335,2.337q0,1.2,0,2.408,0,11.936,0,23.872,0,13.768,0,27.537v.279h20.088a2.679,2.679,0,0,1,.467-2.648A2.65,2.65,0,0,1-198.768,2416.742Zm24.214-3.053c-.277-.047-.531-.1-.789-.134a3.1,3.1,0,0,1-2.27-1.229c-.776-1.052-1.559-2.1-2.374-3.12a21.172,21.172,0,0,0-3.929-3.813,7.357,7.357,0,0,1-2.733-3.547c-.27-.8-.491-1.612-.719-2.424a1.6,1.6,0,0,0-1.189-1.191,1.984,1.984,0,0,0-2.671,1.523A3.932,3.932,0,0,0-191.3,2401a10.539,10.539,0,0,0,2.292,5.543,3.758,3.758,0,0,1,.84,2.286c.021.616-.126.76-.735.76-2.225,0-4.45,0-6.675,0a2.189,2.189,0,0,0-2.262,2.18,2.108,2.108,0,0,0,1.394,1.991c.024.01.05.015.075.024.292.113.434.3.407.533s-.188.383-.5.444a1.6,1.6,0,0,0-1.272,1.041,1.475,1.475,0,0,0,.3,1.559,1.629,1.629,0,0,0,1.271.568c.07,0,.14,0,.209,0a.462.462,0,0,1,.479.4.467.467,0,0,1-.307.543,1.653,1.653,0,0,0-1.007,1.128,1.682,1.682,0,0,0,1.6,2.094.512.512,0,0,1,.538.329.48.48,0,0,1-.17.558,1.665,1.665,0,0,0-.494,2,1.926,1.926,0,0,0,1.773,1.3q7.5-.026,15,0a2.875,2.875,0,0,0,1.649-.479,3.4,3.4,0,0,1,1.8-.818,3.967,3.967,0,0,0,.546-.083Zm-21.509,9.249c-.271-.168-.517-.33-.772-.476a.722.722,0,0,0-.329-.111c-.925-.009-1.849,0-2.774,0h-17.792c0,.077-.008.12-.008.162q0,1.989,0,3.978a1.471,1.471,0,0,0,.015.235,3.179,3.179,0,0,0,3.285,2.787h27.215a3.146,3.146,0,0,0,2.555-1.206,2.72,2.72,0,0,0,.548-1.069h-.266q-4.593,0-9.187,0a2.855,2.855,0,0,1-.6-.043,2.784,2.784,0,0,1-1.937-1.607A2.668,2.668,0,0,1-196.062,2422.938Zm3.731-21.73h-.3q-8.5,0-17.008,0a4.838,4.838,0,0,0-.729.044,2.187,2.187,0,0,0-1.791,2.315,2.2,2.2,0,0,0,2.263,2.02q4.187,0,8.373,0,4.827,0,9.655,0a8.428,8.428,0,0,0,.924-.1c-.291-.736-.594-1.4-.818-2.095S-192.135,2401.969-192.331,2401.208Z" transform="translate(221.835 -2360.94)" fill="#12263f" stroke="#12263f" stroke-width="1"/>
        <path id="Trazado_617757" data-name="Trazado 617757" d="M-24.962,2659.776h-7.9c-.5,0-.995.017-1.491,0a2.388,2.388,0,0,1-2.227-2.287c-.009-3.254,0-6.509,0-9.763q0-.732,0-1.465a2.4,2.4,0,0,1,2.461-2.463q4.568,0,9.135,0,4.62,0,9.24,0a2.4,2.4,0,0,1,2.381,1.889,2.667,2.667,0,0,1,.062.6q0,4.79-.006,9.58c0,.619.02,1.24-.033,1.855a2.344,2.344,0,0,1-2.167,2.055c-.766.031-1.535.013-2.3.013q-3.573,0-7.145,0Zm6.125-6.056c.061-.052.109-.089.153-.13q2.142-2.037,4.279-4.079a.484.484,0,0,0,.119-.317c.009-.968,0-1.936,0-2.9a1.462,1.462,0,0,0-1.54-1.541H-34.009a1.521,1.521,0,0,0-1.639,1.6c0,1.071.016,2.143.013,3.214a.366.366,0,0,0,.219.367q2.746,1.537,5.486,3.085.691.389,1.382.773c1.511-1.208,3-2.4,4.491-3.592a.532.532,0,0,1,.791-.014C-21.8,2651.355-20.325,2652.531-18.837,2653.72Zm-16.773-2.794c-.009.083-.019.131-.019.18,0,2.085-.008,4.17,0,6.255a1.453,1.453,0,0,0,1.514,1.465h18.348a1.453,1.453,0,0,0,1.481-1.492q0-3.154,0-6.308v-.276c-.1.086-.151.135-.205.187q-1.944,1.846-3.889,3.693c-.318.3-.486.309-.819.043q-1.37-1.092-2.737-2.189l-1.716-1.37c-.05.037-.085.062-.118.088q-2.175,1.739-4.349,3.479a.542.542,0,0,1-.669.085q-2.41-1.362-4.825-2.717Z" transform="translate(46.288 -2628.985)" fill="#12263f" stroke="#12263f" stroke-width="1"/>
        <path id="Trazado_617758" data-name="Trazado 617758" d="M357.314,2466.731c.541,0,1.082-.007,1.623,0a1.272,1.272,0,0,1,1.284,1.272,1.413,1.413,0,0,1-.555,1.428,1.474,1.474,0,0,1-.7.23c-1.1.024-2.2.015-3.3.01a1.273,1.273,0,0,1-1.283-1.276,1.6,1.6,0,0,1,.3-1.207,1.267,1.267,0,0,1,.982-.46c.55,0,1.1,0,1.649,0Zm-.016,1.984h0c.506,0,1.012,0,1.518,0,.362,0,.444-.112.441-.569,0-.347-.112-.461-.447-.462q-1.5,0-3.009,0c-.356,0-.462.118-.464.5,0,.407.1.523.47.525C356.3,2468.717,356.8,2468.715,357.3,2468.715Z" transform="translate(-324.215 -2461.19)" fill="#12263f" stroke="#12263f" stroke-width="1"/>
        <path id="Trazado_617759" data-name="Trazado 617759" d="M-95.016,2485.705c.619,0,1.239,0,1.858,0,.368,0,.582.188.574.492s-.22.463-.575.464h-3.769c-.357,0-.566-.173-.573-.465s.2-.489.574-.49c.637,0,1.274,0,1.911,0Z" transform="translate(104.01 -2479.173)" fill="#12263f" stroke="#12263f" stroke-width="1"/>
        <path id="Trazado_617760" data-name="Trazado 617760" d="M308.048,2485.726a.493.493,0,0,1,.5.47.488.488,0,1,1-.5-.47Z" transform="translate(-279.855 -2479.193)" fill="#12263f" stroke="#12263f" stroke-width="1"/>
        <path id="Trazado_617761" data-name="Trazado 617761" d="M270.959,2486.7a.471.471,0,0,1-.471-.486.48.48,0,1,1,.471.486Z" transform="translate(-244.714 -2479.209)" fill="#12263f" stroke="#12263f" stroke-width="1"/>
        <path id="Trazado_617762" data-name="Trazado 617762" d="M233.857,2485.754a.457.457,0,0,1,.465.486.476.476,0,1,1-.951-.021A.455.455,0,0,1,233.857,2485.754Z" transform="translate(-209.541 -2479.22)" fill="#12263f" stroke="#12263f" stroke-width="1"/>
        <path id="Trazado_617763" data-name="Trazado 617763" d="M147.164,3569.81c-.3,0-.593.007-.89,0a.906.906,0,0,1-.894-.906c-.007-.576-.005-1.151,0-1.728a.939.939,0,0,1,.978-.968q.785,0,1.57,0a.984.984,0,0,1,1.056,1.038q.008.76,0,1.518a.953.953,0,0,1-1.059,1.047c-.253,0-.506,0-.759,0Zm.823-.953v-1.649h-1.658c0,.508,0,.994.006,1.479,0,.058.086.162.134.163C146.97,3568.861,147.472,3568.856,147.987,3568.856Z" transform="translate(-126.151 -3503.107)" fill="#12263f" stroke="#12263f" stroke-width="1"/>
        <path id="Trazado_617764" data-name="Trazado 617764" d="M53.388,2683.313a2.175,2.175,0,1,1,2.169-2.156A2.155,2.155,0,0,1,53.388,2683.313Zm1.2-2.186a1.217,1.217,0,0,0-2.435.01,1.217,1.217,0,1,0,2.435-.01Z" transform="translate(-36.906 -2662.313)" fill="#12263f" stroke="#12263f" stroke-width="1"/>
      </g>
    </g>
  </g>
</svg>
