<svg xmlns="http://www.w3.org/2000/svg" xmlns:xlink="http://www.w3.org/1999/xlink" width="108.419" height="108.419" viewBox="0 0 108.419 108.419">
  <defs>
    <linearGradient id="linear-gradient" x1="0.5" x2="0.5" y2="1" gradientUnits="objectBoundingBox">
      <stop offset="0" stop-color="#fdbe41"/>
      <stop offset="1" stop-color="#d09f40"/>
    </linearGradient>
  </defs>
  <g id="Grupo_900002" data-name="Grupo 900002" transform="translate(-272.172 -5844.697)">
    <circle id="Elipse_6019" data-name="Elipse 6019" cx="54.209" cy="54.209" r="54.209" transform="translate(272.172 5844.697)" fill="url(#linear-gradient)"/>
    <g id="_24f50N" data-name="24f50N" transform="translate(298.16 3453.363)">
      <g id="Grupo_897523" data-name="Grupo 897523" transform="translate(-2.422 2412.995)">
        <path id="Trazado_617745" data-name="Trazado 617745" d="M63.44,2472.543a3.141,3.141,0,0,1-3.426,2.191c-3.6-.057-7.2-.016-10.8-.018a2.808,2.808,0,0,1-3.077-3.073c-.011-2.058,0-4.116,0-6.174v-.745H37.016c.2.711.391,1.4.593,2.083.484,1.632.487,1.6,2.18,1.655a4.224,4.224,0,0,1,1.665.37,2.839,2.839,0,0,1,1.671,2.553c.028.577.031,1.158,0,1.735a1.6,1.6,0,0,1-1.6,1.592c-.171.01-.343,0-.514,0H16.64c-1.576,0-2.11-.535-2.1-2.132a8.912,8.912,0,0,1,.081-1.729,3.124,3.124,0,0,1,2.9-2.408c.085,0,.171,0,.257,0,.577-.013,1.337.194,1.683-.1.4-.337.453-1.1.638-1.69.2-.628.374-1.262.586-1.982H19.9q-6.109,0-12.219,0a2.828,2.828,0,0,1-3.128-3.153q0-5.6,0-11.19v-.837c-.266-.014-.491-.035-.716-.036-1.115,0-2.23.014-3.344-.006a2.691,2.691,0,0,1-2.918-2.984q0-15.241,0-30.482A2.694,2.694,0,0,1,.548,2413q18.81,0,37.621,0a2.734,2.734,0,0,1,3,2.988q0,6.785,0,13.569v.8c.287.013.516.032.744.032q4.019,0,8.039,0a2.837,2.837,0,0,1,3.167,3.182q0,7.653,0,15.305v.857h.736c2.036,0,4.075.062,6.109-.019a3.165,3.165,0,0,1,3.476,2.115ZM-.5,2423.94v.826q0,10.707,0,21.415c0,1.18.117,1.3,1.275,1.3H37.949c1.124,0,1.259-.133,1.259-1.247q0-10.772,0-21.544c0-.229-.02-.458-.033-.751H22.156c-.214,0-.429.005-.643-.011a.894.894,0,0,1-.884-.857.918.918,0,0,1,.76-1.039,2.766,2.766,0,0,1,.7-.036H39.208v-.739q0-2.476,0-4.952c0-1.237-.121-1.357-1.363-1.357H.867c-.107,0-.214,0-.321,0-.811.018-1.039.237-1.041,1.035q-.008,2.733,0,5.466c0,.165.02.33.035.545h17.13c.951,0,1.448.341,1.445.988s-.47.956-1.457.957H-.5Zm51.591,25.8c.02-.236.041-.362.041-.488q0-7.943,0-15.886c0-.771-.224-.984-1.008-.985q-4.245-.007-8.49,0a4.165,4.165,0,0,0-.467.056v.8q0,6.657,0,13.313a2.674,2.674,0,0,1-1.876,2.758,5.42,5.42,0,0,1-1.461.152q-15.178.012-30.357.006h-.9v8.338H46.131v-.738c0-1.437-.011-2.873,0-4.309a2.765,2.765,0,0,1,2.992-3.012C49.764,2449.729,50.4,2449.736,51.094,2449.736Zm-2.986,12.445q0,4.7,0,9.39c0,.963.213,1.189,1.155,1.19q5.531.006,11.062,0c.929,0,1.186-.262,1.187-1.185q0-9.358,0-18.715c0-.931-.244-1.17-1.181-1.171q-5.531,0-11.062,0c-.971,0-1.161.19-1.161,1.166Q48.106,2457.519,48.108,2462.181Zm-41.567-2.352c0,.6,0,1.177,0,1.75.006.939.189,1.128,1.134,1.131,1.736.006,3.472,0,5.209,0H25.938c.193,0,.386-.007.579.005.682.043,1.045.383,1.047.967a.958.958,0,0,1-1.036.985c-1.114.022-2.229,0-3.343.018-.176,0-.465.11-.5.232-.374,1.146-.705,2.307-1.054,3.481H36.054c-.347-1.156-.662-2.264-1.028-3.355a.7.7,0,0,0-.533-.352c-1.028-.034-2.057-.014-3.086-.017-.86,0-1.306-.337-1.313-.974s.415-.977,1.29-.99c.171,0,.343,0,.514,0q6.72,0,13.44,0c.247,0,.494-.023.757-.037v-2.844Zm34.644,12.894a11.921,11.921,0,0,0-.009-1.31c-.079-.691-.579-1-1.543-1q-10.8,0-21.6,0a3.721,3.721,0,0,0-.576.035,1.067,1.067,0,0,0-.956.978,10.29,10.29,0,0,0-.011,1.3Z" transform="translate(2.422 -2412.995)" fill="#12263f"/>
        <path id="Trazado_617746" data-name="Trazado 617746" d="M49.011,2530.335q0,3.31,0,6.62c0,1.535-.564,2.1-2.08,2.1q-4.5,0-9,0c-1.393,0-2.017-.6-2.02-1.984q-.011-6.781,0-13.561c0-1.365.6-1.948,1.966-1.95q4.6-.006,9.19,0c1.378,0,1.935.564,1.939,1.96C49.016,2525.793,49.011,2528.064,49.011,2530.335Zm-11.089-6.8v13.532h9.1v-13.532Z" transform="translate(-30.968 -2507.567)" fill="#12263f"/>
        <path id="Trazado_617747" data-name="Trazado 617747" d="M169.845,2521.561q3.375,0,6.751,0c1.513,0,2.027.524,2.029,2.058,0,1.222.006,2.443,0,3.665a1.668,1.668,0,0,1-1.885,1.844c-2.829.011-5.658,0-8.487,0-1.715,0-3.429,0-5.144,0-1.4,0-1.993-.6-2-1.993,0-1.286-.011-2.572,0-3.858a1.579,1.579,0,0,1,1.723-1.715C165.173,2521.552,167.509,2521.561,169.845,2521.561Zm-6.779,5.537h13.587v-3.556H163.067Z" transform="translate(-140.028 -2507.565)" fill="#12263f"/>
        <path id="Trazado_617748" data-name="Trazado 617748" d="M169.876,2606.57h7.26a3.885,3.885,0,0,1,.577.015.942.942,0,0,1,.841,1.033.892.892,0,0,1-.912.888c-.106.009-.214.008-.321.008q-7.517,0-15.034,0c-.535,0-1-.1-1.19-.656-.238-.679.259-1.281,1.07-1.289,1.392-.013,2.784,0,4.176,0Z" transform="translate(-139.969 -2581.617)" fill="#12263f"/>
        <path id="Trazado_617749" data-name="Trazado 617749" d="M43.015,2449.846c-1.542,0-3.084,0-4.625,0-.781,0-1.185-.328-1.2-.937-.015-.625.431-1,1.213-1q4.69,0,9.38,0c.736,0,1.193.374,1.209.957.017.62-.422.988-1.223.992-1.585.008-3.169,0-4.754,0Z" transform="translate(-32.085 -2443.403)" fill="#12263f"/>
        <path id="Trazado_617750" data-name="Trazado 617750" d="M225.456,2644.1c-1.307,0-2.614,0-3.921,0a.884.884,0,0,1-.987-.736,1.633,1.633,0,0,1,.361-1.008c.114-.157.464-.2.708-.2q3.825-.02,7.65,0c.732,0,1.118.346,1.129.943.011.619-.407,1-1.146,1C227.985,2644.106,226.72,2644.1,225.456,2644.1Z" transform="translate(-191.805 -2612.608)" fill="#12263f"/>
        <path id="Trazado_617751" data-name="Trazado 617751" d="M163.337,2644.064c-.385,0-.771.018-1.154,0a.958.958,0,0,1-.99-.96.906.906,0,0,1,.958-.973c.79-.027,1.582-.027,2.372,0a.924.924,0,0,1,.968.971.983.983,0,0,1-1,.961C164.108,2644.082,163.722,2644.064,163.337,2644.064Z" transform="translate(-140.104 -2612.575)" fill="#12263f"/>
        <path id="Trazado_617752" data-name="Trazado 617752" d="M208.058,2447.959a.988.988,0,0,1,.988.973.958.958,0,0,1-.917.963.927.927,0,0,1-1.006-.922A.971.971,0,0,1,208.058,2447.959Z" transform="translate(-180.113 -2443.453)" fill="#12263f"/>
        <path id="Trazado_617753" data-name="Trazado 617753" d="M245.063,2449.9a.939.939,0,0,1-.967-.969.974.974,0,0,1,.98-.971.984.984,0,0,1,.941.951A.954.954,0,0,1,245.063,2449.9Z" transform="translate(-212.321 -2443.45)" fill="#12263f"/>
        <path id="Trazado_617754" data-name="Trazado 617754" d="M282.971,2448.936a.936.936,0,0,1-.978.957.947.947,0,0,1-.942-.934.983.983,0,0,1,.951-1.005A.971.971,0,0,1,282.971,2448.936Z" transform="translate(-244.513 -2443.448)" fill="#12263f"/>
        <path id="Trazado_617755" data-name="Trazado 617755" d="M434.753,2848.776a.986.986,0,0,1-1-.958.954.954,0,0,1,.959-.98.932.932,0,0,1,.993.941A.98.98,0,0,1,434.753,2848.776Z" transform="translate(-377.535 -2790.918)" fill="#12263f"/>
      </g>
    </g>
  </g>
</svg>
