<svg xmlns="http://www.w3.org/2000/svg" width="146.139" height="138.058" viewBox="0 0 146.139 138.058">
  <g id="Grupo_897542" data-name="Grupo 897542" transform="translate(49.683 44.495)">
    <rect id="Rectángulo_49533" data-name="Rectángulo 49533" width="89.789" height="83.368" transform="translate(6.667 10.195)" fill="#ffde96"/>
    <g id="JoDrkG" transform="translate(115.295 380.323)">
      <g id="Grupo_897709" data-name="Grupo 897709" transform="translate(-164.979 -424.818)">
        <path id="Trazado_617780" data-name="Trazado 617780" d="M-59.523-405.947c3.493-.741,6.123.264,7.724,3.45.282.562.692.412,1.082.414,2.929.014,5.859.046,8.786-.016.882-.019,1.041.271,1.036,1.078-.016,3.081.012,3.081-3.015,3.081-2.283,0-4.566-.006-6.849.006-.4,0-.749-.077-1.063.447-1.94,3.236-3.905,4.1-7.7,3.405,0,2.02.008,4.013-.006,6.005,0,.43.218.468.565.481,1.024.037,1.813.048,2.488-1.137a6.076,6.076,0,0,1,10.533.087,1.781,1.781,0,0,0,1.874,1.066c3.274-.056,3.249-.021,3.176,3.286-.016.7-.229.915-.878.831-.254-.033-.518.015-.774-.009a3.741,3.741,0,0,0-3.98,1.769c-2.5,3.607-7.987,3-10.147-.849a2.4,2.4,0,0,0-2.572-.9c-.548.251-.263.757-.264,1.131q-.027,12.21-.014,24.42c0,3.532.024,7.064-.018,10.595-.01.811.156,1.183,1.038,1.066a12.167,12.167,0,0,1,1.678-.011,2.143,2.143,0,0,1,2.018,1.348c.817,1.655,1.7,3.28,2.468,4.955a1.223,1.223,0,0,0,1.481.813c1.755-.182,3.524-.223,5.283-.364a2.448,2.448,0,0,1,2.535,1.386c1.223,2.171,2.453,4.338,3.733,6.476a2.417,2.417,0,0,1-.107,2.877c-1.022,1.488-1.979,3.022-3.012,4.5a1.119,1.119,0,0,0,0,1.493c1.034,1.48,1.99,3.014,3.013,4.5a2.415,2.415,0,0,1,.107,2.876c-1.279,2.138-2.512,4.3-3.733,6.476a2.536,2.536,0,0,1-2.669,1.381c-1.759-.148-3.526-.2-5.283-.369a1.085,1.085,0,0,0-1.292.712c-.762,1.634-1.611,3.226-2.389,4.852a2.542,2.542,0,0,1-2.546,1.58q-41.351-.026-82.7-.019a6.178,6.178,0,0,1-6.442-6.542c-.01-9.82-.023-19.639.024-29.459.005-1.054-.315-1.243-1.279-1.23-4.005.052-8.011.028-12.017.02-3.314-.006-5.335-2-5.338-5.277q-.012-11.241,0-22.482c0-3.306,2-5.31,5.3-5.317,4.049-.008,8.1-.037,12.146.024.966.015,1.192-.225,1.19-1.19q-.052-22.74-.024-45.48c0-4.672,2.414-7.109,7.044-7.109h72.751c4.638,0,7.047,2.43,7.048,7.106C-59.523-413.8-59.523-409.884-59.523-405.947ZM-80.214-335.9a4.8,4.8,0,0,0,1.386-2.067,2.644,2.644,0,0,1,2.848-1.522c1.713.166,3.442.184,5.152.37a1.16,1.16,0,0,0,1.377-.8c.789-1.671,1.645-3.311,2.465-4.967a2.049,2.049,0,0,1,2.139-1.349c1.126.14,1.206-.4,1.2-1.31q-.037-17.312-.016-34.625c0-.258,0-.517,0-.775,0-.277-.042-.525-.4-.519-1.2.021-2.518-.243-3.546.187-.579.242-.113,1.664-.188,2.551-.021.257,0,.517-.014.775a4.8,4.8,0,0,1-4.713,4.72q-11.887.075-23.774-.006a4.62,4.62,0,0,1-4.553-4.564q-.078-11.885,0-23.771a4.685,4.685,0,0,1,4.6-4.675q11.887-.088,23.774-.005a4.847,4.847,0,0,1,4.637,4.115c.115.665-.3,1.6.253,1.934s1.415.106,2.143.125a4.181,4.181,0,0,1,.516,0c.956.145,1.333-.143,1.3-1.216-.09-2.581-.092-5.169,0-7.75.04-1.127-.244-1.406-1.392-1.4q-37.083.057-74.167.029c-.732,0-1.468.045-2.2-.013-.693-.055-.875.2-.862.87.041,2.109.015,4.22.015,6.33,0,10.939.023,21.877-.033,32.816-.006,1.185.332,1.459,1.425,1.368,1.155-.1,2.324-.026,3.487-.021,3.485.016,5.444,1.959,5.458,5.43.01,2.713-.006,5.426.013,8.139,0,.326-.237.88.4.887,2.243.024,4.487.01,6.73.01l.163-.376c-.8-.718-2.111-1.339-2.272-2.179-.191-1,1.332-1.565,1.981-2.43.456-.608.815-.506,1.313.008,1.737,1.794,3.532,3.532,5.284,5.312,1.2,1.222,1.2,2.245.005,3.469s-2.433,2.439-3.651,3.657c-2.394,2.395-2.375,2.376-4.692-.054-.495-.519-.439-.792.051-1.209.669-.569,1.292-1.192,1.935-1.792-2.182-.265-4.192-.228-6.2-.283-.818-.023-1.1.171-1.084,1.047.059,2.8.046,5.6.013,8.4a4.869,4.869,0,0,1-5.063,5.041c-1.335.022-2.674.064-4-.015-.971-.057-1.306.177-1.291,1.237q.1,6.975,0,13.952c-.018,1.133.258,1.4,1.4,1.4q29.589-.06,59.178.018c1.431,0,1.933-.739,2.526-1.68.537-.853-.354-1.211-.618-1.767-.292-.615-.807-1.124-1.106-1.738a1.775,1.775,0,0,0-1.937-1.085c-1.5.079-3.014.021-4.521.021-3.325,0-3.3,0-3.216-3.286.018-.678.193-.877.872-.864,2.153.041,4.307.021,6.46.009.361,0,.8.155,1.027-.31.644-1.291,1.639-2.4,2.014-3.831Zm11.8,30.994c-.373-.787-.717-1.419-.976-2.083a1.265,1.265,0,0,0-1.563-.9c-1.752.2-3.523.229-5.283.359a2.37,2.37,0,0,1-2.444-1.314c-.926-1.65-1.91-3.267-2.823-4.924-.553-1-1.392-1.887-1.42-3.132-.013-.575-.462-.4-.761-.4-1.206-.018-2.412-.007-3.618-.007q-26.814,0-53.628-.027c-1.075,0-1.364.248-1.329,1.328.087,2.667.028,5.34.029,8.01,0,2.553.542,3.092,3.1,3.092h70.715Zm19.024-6.988c2.393.943,4.071-.407,5.065-3.055a3.654,3.654,0,0,1,.512-.894,1.2,1.2,0,0,0-.023-1.622c-.711-.971-1.231-2.1-2.027-2.988-1.882-2.1-1.8-4-.009-6.148.965-1.153,2.416-2.443,2.265-3.891-.147-1.409-1.431-2.687-2.152-4.055a1.158,1.158,0,0,0-1.331-.693c-1.672.153-3.358.153-5.026.338a2.788,2.788,0,0,1-3.257-1.868c-.529-1.267-1.315-2.431-1.8-3.712-.5-1.333-1.329-1.552-2.684-1.714-3.017-.359-4.56.743-5.736,3.554-1.674,4-1.25,4.174-6.018,3.507-2.944-.412-4.958.209-5.908,3.18a2.118,2.118,0,0,1-.383.67,1.272,1.272,0,0,0,.011,1.818c.711.915,1.3,1.925,1.94,2.895,2.022,3.059,2,3.045.026,6.1-.831,1.288-2.382,2.489-2.279,3.9.1,1.394,1.41,2.689,2.146,4.051a1.213,1.213,0,0,0,1.337.718c1.888-.148,3.783-.212,5.674-.334a2.26,2.26,0,0,1,2.377,1.4c.655,1.355,1.449,2.654,1.983,4.053s1.4,1.689,2.866,1.854c2.927.328,4.382-.726,5.557-3.425C-54.427-312.454-55.1-312.4-49.388-311.894Zm-47.354-79.843c0,3.7.018,7.405-.012,11.108-.008.933.321,1.31,1.279,1.307q11.109-.033,22.218,0c1.025,0,1.345-.391,1.342-1.379q-.038-11.043,0-22.086c0-.992-.326-1.378-1.346-1.374q-11.044.042-22.089,0c-1.086,0-1.421.4-1.408,1.445C-96.715-399.056-96.742-395.4-96.742-391.737Zm-39.287,37.329c0-3.7-.028-7.406.018-11.108.013-1.065-.352-1.434-1.423-1.429q-10.98.049-21.961,0c-1.029,0-1.467.283-1.462,1.388q.052,11.044,0,22.088c0,1,.344,1.366,1.355,1.363q11.045-.042,22.091,0c1.1,0,1.409-.418,1.4-1.455C-136.055-347.174-136.028-350.791-136.029-354.408Zm33.085-62.14h19.382q9.368,0,18.736-.013c.381,0,.891.271,1.144-.261a2.726,2.726,0,0,0-2.569-3.857q-36.7-.007-73.394,0a5.131,5.131,0,0,0-.774.024c-1.422.218-2.031,1.349-1.8,3.453.148,1.371,1.239.613,1.807.615C-127.925-416.535-115.434-416.548-102.944-416.548Zm39.285,23.773v-2.061c0-3.2,0-3.178-3.23-3.125-.735.012-.936.222-.921.941.044,2.1.016,4.207.016,6.311,0,3.3,0,3.277,3.359,3.123.621-.029.8-.2.789-.81C-63.685-389.854-63.659-391.315-63.659-392.774ZM-55.391-400a2.059,2.059,0,0,0-2.023-2.075,2.062,2.062,0,0,0-2.108,2.121,2.061,2.061,0,0,0,2.087,2.011A2.064,2.064,0,0,0-55.391-400Zm6.2,14.523A2.064,2.064,0,0,0-51.16-387.6a2.064,2.064,0,0,0-2.158,2.07,2.059,2.059,0,0,0,2.036,2.062A2.067,2.067,0,0,0-49.188-385.476Z" transform="translate(164.979 424.817)" fill="#12263f"/>
        <path id="Trazado_617781" data-name="Trazado 617781" d="M-61.211-344.446c0-3.744-.012-7.487,0-11.231.013-3.3,2-5.3,5.313-5.3q11.232-.018,22.464,0c3.3.006,5.292,2.008,5.3,5.318q.02,11.231,0,22.462c-.006,3.29-2.018,5.285-5.328,5.29q-11.232.019-22.464,0c-3.33-.006-5.269-1.964-5.282-5.307C-61.222-336.959-61.211-340.7-61.211-344.446Zm4.135,0c0,3.7.018,7.406-.012,11.109-.008.933.319,1.31,1.277,1.307q11.11-.033,22.22,0c1.025,0,1.345-.39,1.341-1.378q-.039-11.044,0-22.088c0-.992-.323-1.377-1.345-1.373q-11.045.042-22.091,0c-1.086,0-1.42.394-1.408,1.444C-57.049-351.762-57.076-348.1-57.076-344.442Z" transform="translate(88.095 377.522)" fill="#12263f"/>
        <path id="Trazado_617782" data-name="Trazado 617782" d="M11.127-185.335a7.99,7.99,0,0,1,7.443,4.679,7.791,7.791,0,0,1-1.078,8.823A7.941,7.941,0,0,1,9.4-169c-.779-.146-1.085-.411-.694-1.184a4.78,4.78,0,0,0,.311-.846c.353-1.236.57-2.217,2.459-2.022,2.206.228,3.958-2.086,3.79-4.319a4.047,4.047,0,0,0-4.512-3.778c-.937.126-1.216-.182-1.392-.941a9.3,9.3,0,0,0-.324-.979c-.72-2.038-.639-2.156,1.573-2.261C10.782-185.342,10.955-185.335,11.127-185.335Z" transform="translate(36.413 247.373)" fill="#12263f"/>
        <path id="Trazado_617783" data-name="Trazado 617783" d="M81.329-197.943c.572.418,1.093.79,1.606,1.173,1.662,1.24,1.662,1.243.418,2.905-1.209,1.616-2.393,3.253-3.648,4.834a1.593,1.593,0,0,0-.231,1.852c1.034,2.449,1.96,4.944,2.986,7.4.283.678.184.929-.507,1.22-2.99,1.257-2.978,1.283-4.157-1.669-.923-2.31-1.827-4.628-2.786-6.922a2.708,2.708,0,0,1,.367-2.99c1.794-2.3,3.511-4.668,5.265-7C80.839-197.412,81.073-197.649,81.329-197.943Z" transform="translate(-12.63 256.713)" fill="#12263f"/>
        <path id="Trazado_617784" data-name="Trazado 617784" d="M166.45-187.023a10.224,10.224,0,0,1-.306.993c-1.187,2.988-2.407,5.963-3.564,8.963-.274.709-.527.883-1.285.582-2.968-1.178-2.981-1.148-1.785-4.153.7-1.752,1.344-3.528,2.12-5.245a1.749,1.749,0,0,0-.306-2.068c-1.461-1.854-2.829-3.781-4.268-5.653-.39-.507-.422-.769.139-1.212,2.6-2.057,2.585-2.079,4.559.563q2.006,2.683,4.018,5.36A2.686,2.686,0,0,1,166.45-187.023Z" transform="translate(-73.421 255.497)" fill="#12263f"/>
        <path id="Trazado_617785" data-name="Trazado 617785" d="M118.851-172.013c-1.091-.48-2.2-.939-3.28-1.459-.4-.195-.093-.519.015-.773q2.8-6.561,5.6-13.121c.2-.479.375-.616.938-.414,3.272,1.172,3.278,1.151,1.941,4.258-1.524,3.542-3.04,7.088-4.575,10.625C119.354-172.573,119.359-172.108,118.851-172.013Z" transform="translate(-42.747 249.25)" fill="#12263f"/>
        <path id="Trazado_617786" data-name="Trazado 617786" d="M64.641-65.7c1.8,0,3.609.023,5.412-.012.609-.012.781.169.81.789.154,3.358.174,3.358-3.127,3.358-2.792,0-5.585-.023-8.376.016-.719.01-.928-.187-.94-.922-.053-3.229-.079-3.228,3.129-3.228Z" transform="translate(-0.541 158.74)" fill="#12263f"/>
        <path id="Trazado_617787" data-name="Trazado 617787" d="M94.292-97.592h.9c3.457,0,3.444,0,3.12,3.484-.046.493-.178.662-.673.658q-3.476-.028-6.952,0c-.495,0-.628-.163-.674-.657-.324-3.486-.338-3.485,3.119-3.485Z" transform="translate(-23.859 182.358)" fill="#12263f"/>
        <path id="Trazado_617788" data-name="Trazado 617788" d="M144.363-93.759c-1.806,0-3.613-.013-5.418.024-.6.012-.79-.148-.82-.78-.16-3.367-.181-3.371,3.127-3.362.982,0,2.285-.326,2.862.17.687.59.15,1.934.227,2.947.026.342,0,.688-.009,1.032Z" transform="translate(-59.568 182.646)" fill="#12263f"/>
        <path id="Trazado_617789" data-name="Trazado 617789" d="M62.666-95.415c0,1.957,0,1.957-1.921,1.957-2.215,0-2.215,0-2.215-2.177,0-1.957,0-1.957,1.921-1.957C62.666-97.592,62.666-97.592,62.666-95.415Z" transform="translate(-0.632 182.358)" fill="#12263f"/>
        <path id="Trazado_617790" data-name="Trazado 617790" d="M51.984,6.145c2.235,0,4.469-.009,6.7,0,1.617.009,2.54.8,2.51,2.111-.028,1.253-.935,2.015-2.475,2.019q-6.833.016-13.666,0c-1.531,0-2.432-.785-2.443-2.048s.891-2.068,2.408-2.079C47.342,6.132,49.663,6.145,51.984,6.145Z" transform="translate(11.162 105.496)" fill="#12263f"/>
        <path id="Trazado_617791" data-name="Trazado 617791" d="M204.027-58.118a8.5,8.5,0,0,1,8.392-8.532,8.582,8.582,0,0,1,8.652,8.58,8.588,8.588,0,0,1-8.5,8.468A8.5,8.5,0,0,1,204.027-58.118Zm9.918,4.11a4.46,4.46,0,0,0,2.985-4.226,4.221,4.221,0,0,0-2.985-3.941Zm-4.187-7.486c-1.539,1.594-1.967,3.486-1.34,4.907a.812.812,0,0,0,.892.531c.569,0,.441-.407.443-.717C209.763-58.262,209.757-59.752,209.757-61.495Z" transform="translate(-108.439 159.431)" fill="#12263f"/>
        <path id="Trazado_617792" data-name="Trazado 617792" d="M130.956-320.753a8.282,8.282,0,0,1-8.172,8.261,8.273,8.273,0,0,1-8.353-8.208,8.266,8.266,0,0,1,8.233-8.324A8.277,8.277,0,0,1,130.956-320.753Zm-4.129,0a4.137,4.137,0,0,0-4.194-4.133,4.14,4.14,0,0,0-4.07,4.127,4.138,4.138,0,0,0,4.193,4.136A4.157,4.157,0,0,0,126.827-320.757Z" transform="translate(-42.052 353.839)" fill="#12263f"/>
        <path id="Trazado_617793" data-name="Trazado 617793" d="M-116.523-177.011c0,1.938.022,3.877-.007,5.814a2.068,2.068,0,0,1-2.319,2.317q-5.944.036-11.889,0a2.059,2.059,0,0,1-2.316-2.318q-.036-5.943,0-11.887a2.056,2.056,0,0,1,2.317-2.316q5.944-.035,11.889,0a2.066,2.066,0,0,1,2.318,2.317C-116.5-181.06-116.523-179.035-116.523-177.011Zm-8.464,4.005c1.312,0,2.389-.035,3.461.013.671.03.894-.183.882-.869-.039-2.191-.028-4.385-.005-6.577.006-.571-.106-.858-.769-.848-2.235.034-4.471.03-6.706,0-.609-.008-.836.18-.814.8.04,1.116,0,2.235.014,3.353.019,1.324-.443,3.1.23,3.851C-127.919-172.413-126.106-173.125-124.987-173.005Z" transform="translate(141.337 247.433)" fill="#12263f"/>
        <path id="Trazado_617794" data-name="Trazado 617794" d="M-21.316-320.8c0-1.893-.02-3.786.005-5.678.03-2.2,1.575-3.077,3.482-1.951q4.829,2.854,9.623,5.767c1.829,1.111,1.84,2.838.021,3.945q-4.791,2.916-9.622,5.769c-1.964,1.161-3.485.265-3.506-2.045C-21.33-316.931-21.316-318.867-21.316-320.8Zm4.2,2.652,4.2-2.552-4.2-2.484Z" transform="translate(58.536 353.764)" fill="#12263f"/>
      </g>
    </g>
  </g>
</svg>
