<svg xmlns="http://www.w3.org/2000/svg" width="117.822" height="117.775" viewBox="0 0 117.822 117.775">
  <g id="xyphmU" transform="translate(-197.56 -287.247)">
    <g id="Grupo_899966" data-name="Grupo 899966" transform="translate(197.56 287.247)">
      <path id="Trazado_618601" data-name="Trazado 618601" d="M315.3,330.337c-2.9,1.675-6.486.564-8.171,4.681-1.7,4.152,1.955,5.778,2.448,8.579L299.41,353.774a10.287,10.287,0,0,1-2.505-1.466c-2.6-2.6-5.184-1.422-7.811-.173-.244.116-.614.214-.686.409-1.214,3.246-3.313,6.48-3.411,9.771-.393,13.185-.162,26.389-.162,39.587v3.121H197.56V294.977H208.6c.09-1.112.15-1.895.216-2.677a5.163,5.163,0,0,1,5.061-4.988c2.436-.107,4.88-.053,7.321-.036,4.336.031,6.14,1.752,6.525,6.179.031.354.087.706.18,1.441h2.872c7.5,0,15.007.076,22.506-.055a13.9,13.9,0,0,0,5.309-1.535c3.037-.114,4.7,3.829,8.908,2.176,4.238-1.667,3.028-5.446,4.758-8.208,4.155,0,8.394-.06,12.629.062a2.79,2.79,0,0,1,1.851,1.375,11.716,11.716,0,0,1,.787,2.85,5.472,5.472,0,0,0,8.418,3.384c1.231-.731,2.47-1.45,3.586-2.1l10.206,10.173a12.767,12.767,0,0,1-1.572,2.627c-2.536,2.631-1.7,5.381,0,7.766.773,1.083,2.636,1.689,4.1,1.916,2.46.381,3.252,1.452,3.1,3.927C315.136,322.935,315.3,326.644,315.3,330.337Zm-106.417-31.9c-1.821,0-3.344.128-4.837-.029-2.4-.253-3.244.47-3.237,3.08q.141,48.554.007,97.109c-.007,2.509.691,3.171,3.176,3.162,24.684-.09,49.368-.054,74.052-.054h2.875V359.5h-8.652c-1.718-2.829-.551-6.566-4.777-8.289-4.2-1.713-5.836,2.419-8.744,2.48l-9.929-9.778c.464-3.076,4.222-4.841,2.474-9.014-1.739-4.154-5.627-2.791-8.119-4.585V316.455c2.752-1.772,6.505-.664,8.186-4.865,1.673-4.18-2.277-5.827-2.65-9.643l3.754-2.767-.318-.531H227.608v49.426l3.765.184V370.8H205.165V348.24l3.723-.183Zm90.3-1.739c-3.766,5.112-7.544,3.015-11.574,1.416-1.97-.782-3.1-1.725-3.207-3.671-.17-3.184-1.86-4.144-4.76-3.664a2.169,2.169,0,0,1-.811,0c-3.253-.733-4.486.924-4.927,3.884a4.246,4.246,0,0,1-1.572,2.831,38.743,38.743,0,0,1-6.461,2.668,3.219,3.219,0,0,1-2.209-.246c-4.592-2.24-4.564-2.251-8.257,1.355a23.449,23.449,0,0,1-2.442,1.84c2.317,3.4,3.595,5.9,1.906,10.064-1.709,4.213-4.432,5.219-8.05,5.891,0,2.353.112,4.435-.035,6.5-.123,1.728.516,2.375,2.2,2.645,1.457.234,3.812.668,4.078,1.534,1.252,4.073,5.443,8.156.77,12.618a1.873,1.873,0,0,0-.362.7l5.956,6.174c1.431-.844,2.785-1.741,4.23-2.451a3.083,3.083,0,0,1,2.14-.268,64.7,64.7,0,0,1,6.454,2.71,3.141,3.141,0,0,1,1.383,1.685c1.677,4.844,1.65,4.853,6.81,4.85h3.085c.761-3.606,1.706-6.209,5.762-8.029,4.3-1.931,6.812-.28,9.968,1.7,1.714-1.8,3.347-3.368,4.782-5.1.426-.515.683-1.818.358-2.2-2.5-2.967-2.458-5.9-.34-9a3.814,3.814,0,0,0,.644-1.767c.14-1.8,1.343-2.333,2.831-2.709,4.26-1.077,4.256-1.1,4.255-5.341a7.265,7.265,0,0,1,.012-1.354c.435-2.264-.57-3.4-2.774-3.583-2.742-.225-4.516-1.451-4.793-4.38a2.57,2.57,0,0,0-.514-1.237c-1.992-2.618-1.573-5.026.318-7.541a2.925,2.925,0,0,0,.119-2.716C302.818,300.588,301.145,298.918,299.189,296.694Zm-90.425,55.478v14.874h19.073c0-4.476.007-8.793-.008-13.109,0-.612-.106-1.224-.157-1.773-2.334-.716-3.828-.077-4.977,2.029-1.237,2.267-2.842,4.333-4.491,6.79-1.624-2.4-3.212-4.469-4.48-6.715C212.576,352.235,211.157,351.369,208.764,352.172Zm15.268-49.81c0-1.286.006-2.432,0-3.578-.053-8.978,1.355-7.993-8.993-7.99-.18,0-.427-.044-.527.053-.715.691-1.943,1.374-2,2.134-.228,3.106-.1,6.24-.1,9.382Zm-7.8,41.879V313.968h-3.721v30.273Zm7.633.011V313.971h-3.574v30.282ZM212.555,309.9h11.257v-3.582H212.555Zm5.652,44.4,3.94-5.944h-7.914Z" transform="translate(-197.56 -287.247)"/>
      <path id="Trazado_618602" data-name="Trazado 618602" d="M211.632,307.8v49.624l-3.723.183v22.557h26.207V357.626l-3.765-.184V308.016h24.542l.318.531-3.754,2.767c.372,3.816,4.322,5.463,2.65,9.643-1.68,4.2-5.434,3.093-8.186,4.865v13.859c2.492,1.794,6.38.432,8.119,4.585,1.748,4.174-2.01,5.938-2.474,9.014l9.929,9.778c2.908-.061,4.545-4.193,8.744-2.48,4.226,1.723,3.059,5.46,4.777,8.289h8.652v42.2h-2.875c-24.684,0-49.368-.035-74.052.054-2.485.009-3.183-.654-3.176-3.162q.125-48.555-.007-97.109c-.008-2.611.841-3.333,3.237-3.08C208.289,307.928,209.811,307.8,211.632,307.8Zm-3.721,76.426v22.581h26.377c0-4.905.028-9.673-.009-14.439-.025-3.235-.57-6.608,3.179-8.518l-2.755-3.345c-1.779,4.2-4.892,3.752-7.9,3.733C220.584,384.2,214.362,384.227,207.912,384.227Zm30.36,7.317h41.519v-3.3H238.272Zm.011,7.589h41.568v-3.24H238.283Zm33.951-30.062H238.373v3.439h33.861Zm0,7.68h-33.91v3.418h33.91Zm-33.923,29.976h34.067c-.053-1.191-.1-2.148-.139-3.118H238.316Zm14.962-45.2H238.34v3.406h14.938Zm23.028,45.3h3.5v-3.157h-3.5Z" transform="translate(-200.304 -296.615)" fill="#b2ebf2"/>
      <path id="Trazado_618603" data-name="Trazado 618603" d="M340.689,299.521c1.956,2.224,3.629,3.894,4.975,5.794a2.925,2.925,0,0,1-.119,2.716c-1.892,2.515-2.31,4.923-.318,7.541a2.571,2.571,0,0,1,.514,1.237c.277,2.929,2.051,4.155,4.793,4.38,2.2.181,3.209,1.318,2.774,3.583a7.265,7.265,0,0,0-.013,1.354c0,4.243.005,4.263-4.255,5.341-1.489.376-2.691.91-2.831,2.709a3.814,3.814,0,0,1-.644,1.767c-2.118,3.1-2.162,6.034.34,9,.325.386.068,1.689-.358,2.2-1.435,1.734-3.068,3.306-4.782,5.1-3.156-1.98-5.664-3.631-9.968-1.7-4.056,1.82-5,4.424-5.762,8.029H321.95c-5.16,0-5.132-.005-6.81-4.85a3.141,3.141,0,0,0-1.383-1.685,64.7,64.7,0,0,0-6.454-2.71,3.083,3.083,0,0,0-2.14.268c-1.445.71-2.8,1.606-4.23,2.451l-5.956-6.174a1.873,1.873,0,0,1,.362-.7c4.673-4.463.482-8.546-.77-12.618-.266-.866-2.621-1.3-4.078-1.534-1.685-.271-2.323-.917-2.2-2.645.147-2.064.035-4.146.035-6.5,3.618-.672,6.341-1.678,8.05-5.891,1.688-4.161.411-6.669-1.906-10.064a23.444,23.444,0,0,0,2.442-1.84c3.693-3.607,3.665-3.6,8.257-1.355a3.218,3.218,0,0,0,2.209.246,38.739,38.739,0,0,0,6.461-2.668,4.246,4.246,0,0,0,1.572-2.831c.442-2.96,1.674-4.617,4.927-3.884a2.169,2.169,0,0,0,.811,0c2.9-.48,4.59.48,4.76,3.664.1,1.946,1.236,2.889,3.207,3.671C333.145,302.536,336.923,304.633,340.689,299.521ZM320.772,348.91a22.768,22.768,0,0,0,22.86-22.85,23.169,23.169,0,0,0-23.068-22.789,22.762,22.762,0,0,0-22.57,22.869A22.431,22.431,0,0,0,320.772,348.91Z" transform="translate(-239.06 -290.075)" fill="#1565c0"/>
      <path id="Trazado_618604" data-name="Trazado 618604" d="M218.211,406.67c2.394-.8,3.812.063,4.96,2.1,1.268,2.246,2.856,4.311,4.48,6.715,1.649-2.458,3.254-4.524,4.491-6.79,1.149-2.106,2.643-2.745,4.977-2.028.051.549.155,1.161.157,1.773.014,4.316.008,8.633.008,13.109H218.211Z" transform="translate(-207.007 -341.745)" fill="#e8e8e8"/>
      <path id="Trazado_618605" data-name="Trazado 618605" d="M236.525,305.325H224.91c0-3.142-.133-6.275.1-9.382.056-.759,1.284-1.443,2-2.134.1-.1.348-.053.527-.053,10.348,0,8.94-.988,8.993,7.99C236.531,302.893,236.525,304.039,236.525,305.325Z" transform="translate(-210.054 -290.21)" fill="#26aab7"/>
      <path id="Trazado_618606" data-name="Trazado 618606" d="M228.831,366.774H225.11V336.5h3.721Z" transform="translate(-210.164 -309.78)" fill="#fb8c00"/>
      <path id="Trazado_618607" data-name="Trazado 618607" d="M243.024,366.787H239.45V336.5h3.574Z" transform="translate(-216.724 -309.782)" fill="#fb8c00"/>
      <path id="Trazado_618608" data-name="Trazado 618608" d="M225.2,325.987V322.4h11.257v3.582Z" transform="translate(-210.204 -303.331)" fill="#fff"/>
      <path id="Trazado_618609" data-name="Trazado 618609" d="M232.266,405.835l-3.974-5.944h7.914Z" transform="translate(-211.619 -338.78)" fill="#fff"/>
      <path id="Trazado_618610" data-name="Trazado 618610" d="M211.582,445.6c6.45,0,12.673-.028,18.895.012,3.005.019,6.117.463,7.9-3.733l2.755,3.345c-3.749,1.91-3.2,5.283-3.179,8.518.037,4.766.009,9.533.009,14.439H211.582Zm10.652,12.03,8.373-8.2H214.97c0,4.786-.059,9.464.1,14.134.015.431,1.4,1.15,2.159,1.168,4.606.11,9.216.067,13.825.047,1.03,0,2.06-.122,3.06-.185V452.308l-10.872,11.25-5.185-5.245,2.028-2.653Z" transform="translate(-203.975 -357.989)"/>
      <path id="Trazado_618611" data-name="Trazado 618611" d="M267.544,459.442v-3.3h41.52v3.3Z" transform="translate(-229.576 -364.513)"/>
      <path id="Trazado_618612" data-name="Trazado 618612" d="M267.565,473.482v-3.24h41.568v3.24Z" transform="translate(-229.586 -370.964)"/>
      <path id="Trazado_618613" data-name="Trazado 618613" d="M301.592,420.8v3.439H267.731V420.8Z" transform="translate(-229.662 -348.346)"/>
      <path id="Trazado_618614" data-name="Trazado 618614" d="M301.559,434.958v3.418h-33.91v-3.418Z" transform="translate(-229.624 -354.822)"/>
      <path id="Trazado_618615" data-name="Trazado 618615" d="M267.625,487.581v-3.118h33.927c.043.971.086,1.927.139,3.118Z" transform="translate(-229.613 -377.47)"/>
      <path id="Trazado_618616" data-name="Trazado 618616" d="M282.607,406.893V410.3H267.669v-3.406Z" transform="translate(-229.634 -341.983)"/>
      <path id="Trazado_618617" data-name="Trazado 618617" d="M337.649,487.732v-3.157h3.5v3.157Z" transform="translate(-261.648 -377.521)"/>
      <path id="Trazado_618618" data-name="Trazado 618618" d="M328.967,357.211a22.431,22.431,0,0,1-22.779-22.77,22.762,22.762,0,0,1,22.57-22.869,23.169,23.169,0,0,1,23.068,22.789A22.768,22.768,0,0,1,328.967,357.211Zm19.1-22.62a19.176,19.176,0,0,0-38.352-.227c-.142,10.272,8.672,19.189,19.089,19.314A19.433,19.433,0,0,0,348.07,334.592Z" transform="translate(-247.255 -298.376)"/>
      <path id="Trazado_618619" data-name="Trazado 618619" d="M225.082,464l-2.151-1.97-2.028,2.653,5.185,5.245,10.872-11.25v12.288c-1,.063-2.03.181-3.06.185-4.609.021-9.219.063-13.825-.047-.761-.018-2.144-.737-2.159-1.168-.157-4.671-.1-9.348-.1-14.134h15.638Z" transform="translate(-206.823 -364.358)" fill="#fffae7"/>
      <path id="Trazado_618620" data-name="Trazado 618620" d="M351.045,337.761a19.433,19.433,0,0,1-19.263,19.087c-10.417-.125-19.231-9.042-19.089-19.314a19.176,19.176,0,0,1,38.352.227Zm-19.233,14.986A15.147,15.147,0,0,0,347.16,337.6a15.5,15.5,0,0,0-15.174-15.216A15.141,15.141,0,0,0,316.8,337.421,14.809,14.809,0,0,0,331.812,352.747Z" transform="translate(-250.231 -301.545)" fill="#fffae7"/>
      <path id="Trazado_618621" data-name="Trazado 618621" d="M335.274,356.022A14.809,14.809,0,0,1,320.261,340.7a15.141,15.141,0,0,1,15.187-15.036,15.5,15.5,0,0,1,15.174,15.216A15.147,15.147,0,0,1,335.274,356.022Zm.167-26.634a11.529,11.529,0,1,0,11.454,11.682A11.772,11.772,0,0,0,335.441,329.388Z" transform="translate(-253.693 -304.82)"/>
    </g>
  </g>
</svg>
