<svg xmlns="http://www.w3.org/2000/svg" xmlns:xlink="http://www.w3.org/1999/xlink" width="108.419" height="108.419" viewBox="0 0 108.419 108.419">
  <defs>
    <linearGradient id="linear-gradient" x1="0.5" x2="0.5" y2="1" gradientUnits="objectBoundingBox">
      <stop offset="0" stop-color="#fdbe41"/>
      <stop offset="1" stop-color="#d09f40"/>
    </linearGradient>
  </defs>
  <g id="Grupo_899997" data-name="Grupo 899997" transform="translate(-272.882 -1586.404)">
    <circle id="Elipse_6019" data-name="Elipse 6019" cx="54.209" cy="54.209" r="54.209" transform="translate(272.882 1586.404)" fill="url(#linear-gradient)"/>
    <g id="Grupo_897519" data-name="Grupo 897519" transform="translate(296.545 1608.03)">
      <path id="Trazado_617729" data-name="Trazado 617729" d="M87.446,205.972a2.34,2.34,0,0,1-1.42-2.5,26.862,26.862,0,0,0-.17-4.314,9.653,9.653,0,0,0-2.921-5.311,35.227,35.227,0,0,1-3.169-3.628,7.9,7.9,0,0,1-1.353-4.69c-.008-4.074-.022-8.148,0-12.221a5.709,5.709,0,0,1,7.208-5.58c.12.029.245.034.426.059v-1.294c0-2.546-.017-5.092.012-7.638a1.4,1.4,0,0,0-.631-1.394,5.045,5.045,0,0,1-.712-.65c-2.054,1.233-4.091,2.448-6.113,3.688a.689.689,0,0,0-.242.548,5.689,5.689,0,0,1-7.654,6.093,5.692,5.692,0,0,1-.991-10.218,5.516,5.516,0,0,1,6.235.175.732.732,0,0,0,.6.114c2.065-1.208,4.114-2.445,6.069-3.617a31.342,31.342,0,0,1-.369-3.4,9.529,9.529,0,0,1,18.965-1.191c.064.413.2.619.65.672,3.177.378,6.35.781,9.525,1.173,1.787.221,3.576.425,5.361.666a.612.612,0,0,0,.707-.34,5.719,5.719,0,1,1,1.1,7.28,5.483,5.483,0,0,1-1.67-2.579.672.672,0,0,0-.647-.565q-5.836-.709-11.67-1.432c-1.219-.151-2.436-.313-3.717-.479-.092.193-.2.392-.284.6a8.706,8.706,0,0,1-2.547,3.514,1.256,1.256,0,0,0-.529,1.193c.044.46.009.928.009,1.476a5.876,5.876,0,0,1,5.722,1.137,5.738,5.738,0,0,1,5.427-1.194,5.677,5.677,0,0,1,3.887,3.771,18.922,18.922,0,0,1,3.054-.086,5.522,5.522,0,0,1,4.8,5.352c.058,5.367.072,10.736-.014,16.1a16.491,16.491,0,0,1-1.794,7.288,17.855,17.855,0,0,0-1.989,9.262c.028.55-.038,1.107.013,1.654a2.24,2.24,0,0,1-1.407,2.5Zm25.341-3.847c0-.806,0-1.566,0-2.326a16.276,16.276,0,0,1,1.709-7.488,20.242,20.242,0,0,0,2.121-9.443c-.038-4.328-.007-8.656-.014-12.984a3.847,3.847,0,0,0-.1-.942,1.777,1.777,0,0,0-1.568-1.38,1.671,1.671,0,0,0-1.789.837,2.991,2.991,0,0,0-.348,1.383c-.034,2.4-.011,4.795-.018,7.192a1.909,1.909,0,1,1-3.811-.022c-.006-2.482,0-4.965,0-7.447,0-1.273.025-2.547-.009-3.819a1.905,1.905,0,0,0-2.595-1.834,1.986,1.986,0,0,0-1.218,1.978q-.011,3.66,0,7.32a1.9,1.9,0,0,1-.642,1.528,1.905,1.905,0,0,1-3.173-1.414c-.008-2.482.007-4.965-.008-7.447a1.916,1.916,0,0,0-2.535-1.985,1.968,1.968,0,0,0-1.283,1.994q-.012,3.66,0,7.32a1.911,1.911,0,1,1-3.815-.006q-.009-9.2-.007-18.394a4.807,4.807,0,0,0-.109-1.069,1.862,1.862,0,0,0-3.566-.165,3.9,3.9,0,0,0-.14,1.126q-.011,12.952-.006,25.9c0,1.413-.726,2.262-1.924,2.255-1.169-.008-1.89-.854-1.891-2.224,0-2.334.016-4.668-.015-7a3.007,3.007,0,0,0-.324-1.33,1.775,1.775,0,0,0-2.025-.815,1.882,1.882,0,0,0-1.454,1.919c-.013,3.989-.024,7.977,0,11.966a5.814,5.814,0,0,0,1.75,4.169c.657.663,1.335,1.306,1.977,1.983a13.027,13.027,0,0,1,3.781,7.73c.1.962.119,1.933.176,2.929Zm-26.4-50.04a5.812,5.812,0,0,1,10.791.028,5.742,5.742,0,0,0-2.2-6.5,5.808,5.808,0,0,0-6.557.1A5.589,5.589,0,0,0,86.391,152.085Zm37.847,2.094a1.9,1.9,0,1,0-1.925,1.883A1.956,1.956,0,0,0,124.238,154.179ZM72.659,163.7a1.9,1.9,0,1,0-1.888-1.92A1.956,1.956,0,0,0,72.659,163.7Z" transform="translate(-66.96 -140.805)" fill="#12263f"/>
    </g>
  </g>
</svg>
