<svg xmlns="http://www.w3.org/2000/svg" width="117.284" height="117.284" viewBox="0 0 117.284 117.284">
  <g id="_1q6vzJ" data-name="1q6vzJ" transform="translate(9.872 -1523.283)">
    <g id="Grupo_899968" data-name="Grupo 899968" transform="translate(-9.872 1523.283)">
      <path id="Trazado_618645" data-name="Trazado 618645" d="M48.895,1523.283q26.084,0,52.168,0c4,0,6.349,2.363,6.349,6.383q0,52.229,0,104.458c0,4.1-2.329,6.443-6.415,6.443H-3.46c-4.079,0-6.411-2.346-6.411-6.446q0-52.229,0-104.458c0-4.011,2.358-6.378,6.354-6.379Q22.689,1523.282,48.895,1523.283Zm54.608,19.641H-5.962v1.426q0,44.654,0,89.307c0,2.48.519,3,2.994,3H100.511c2.47,0,2.992-.524,2.992-3q0-44.654,0-89.307Zm-109.428-4.106H103.469c0-2.857,0-5.655,0-8.452,0-2.645-.49-3.14-3.112-3.14H-2.842c-.326,0-.652-.013-.977.005a1.963,1.963,0,0,0-2.093,2.059C-5.95,1532.423-5.925,1535.555-5.925,1538.818Z" transform="translate(9.872 -1523.283)"/>
      <path id="Trazado_618646" data-name="Trazado 618646" d="M115.562,1603.5v1.422q0,44.654,0,89.307c0,2.48-.522,3-2.992,3H9.091c-2.475,0-2.994-.52-2.994-3q0-44.654,0-89.307V1603.5Zm-3.959,54.722H64.833v35.046H111.6Zm-101.545-4.072H111.563v-19.41H10.057Zm101.531-23.434v-23.326h-62.4v23.326ZM10.053,1693.247h50.68v-35.04H10.053ZM45.1,1630.73v-23.357H10.07v23.357Z" transform="translate(-2.187 -1583.863)" fill="#fff"/>
      <path id="Trazado_618647" data-name="Trazado 618647" d="M6.223,1550.967c0-3.263-.025-6.4.012-9.527a1.963,1.963,0,0,1,2.093-2.059c.325-.018.651-.005.977-.005H112.5c2.622,0,3.112.495,3.112,3.14,0,2.8,0,5.595,0,8.452Zm54.584-3.772H93.283a5.731,5.731,0,0,0,1.217-.033,1.993,1.993,0,0,0-.023-3.924,4.728,4.728,0,0,0-.974-.026h-65.2a7.346,7.346,0,0,0-.854.013,1.992,1.992,0,0,0,.024,3.959,10.45,10.45,0,0,0,1.1.013Z" transform="translate(-2.276 -1535.432)" fill="#26aab7"/>
      <path id="Trazado_618648" data-name="Trazado 618648" d="M292.763,1827.008v35.046h-46.77v-35.046Zm-42.89,29.22,16.094-11.712-16.094-11.7Zm38.954-23.4-16.062,11.692,16.062,11.676Zm-4.2-1.882H254.1l15.267,11.1ZM254.1,1858.093h30.536l-15.271-11.1Z" transform="translate(-183.348 -1752.645)"/>
      <path id="Trazado_618649" data-name="Trazado 618649" d="M22.273,1750.509V1731.1H123.778v19.41Zm3.965-3.989H119.83v-11.432H26.238Z" transform="translate(-14.403 -1680.218)"/>
      <path id="Trazado_618650" data-name="Trazado 618650" d="M244.5,1642.719H182.1v-23.327h62.4Zm-3.884-19.389H186.007v15.43h54.609Z" transform="translate(-135.099 -1595.861)"/>
      <path id="Trazado_618651" data-name="Trazado 618651" d="M22.254,1861.971v-35.04h50.68v35.04Zm46.731-3.9V1830.9H26.227v27.171Z" transform="translate(-14.388 -1752.587)"/>
      <path id="Trazado_618652" data-name="Trazado 618652" d="M57.356,1642.665H22.325v-23.357H57.356ZM26.305,1624.9v12.192l9.746-6.121Zm17.357,6.08,9.754,6.1v-12.2Zm-12.236-7.74c.333.26.5.416.691.535,2.3,1.439,4.63,2.844,6.908,4.323a1.366,1.366,0,0,0,1.736-.043c2.213-1.432,4.466-2.8,6.7-4.2a9.455,9.455,0,0,0,.769-.614Zm-.056,15.418H48.344c-2.82-1.764-5.39-3.383-7.979-4.97a1.017,1.017,0,0,0-.869-.071C36.841,1635.234,34.211,1636.888,31.371,1638.66Z" transform="translate(-14.442 -1595.797)"/>
      <path id="Trazado_618653" data-name="Trazado 618653" d="M120.893,1559H88.661a10.483,10.483,0,0,1-1.1-.013,1.992,1.992,0,0,1-.024-3.959,7.346,7.346,0,0,1,.854-.013h65.2a4.719,4.719,0,0,1,.974.026,1.993,1.993,0,0,1,.023,3.924,5.747,5.747,0,0,1-1.217.033Z" transform="translate(-62.362 -1547.236)"/>
      <path id="Trazado_618654" data-name="Trazado 618654" d="M261.84,1874.146v-23.411l16.094,11.7Z" transform="translate(-195.315 -1770.563)" fill="#fff"/>
      <path id="Trazado_618655" data-name="Trazado 618655" d="M371.4,1850.8v23.368l-16.062-11.676Z" transform="translate(-265.923 -1770.608)" fill="#fff"/>
      <path id="Trazado_618656" data-name="Trazado 618656" d="M309.637,1843.108l-15.257,11.1-15.267-11.1Z" transform="translate(-208.359 -1764.803)" fill="#fff"/>
      <path id="Trazado_618657" data-name="Trazado 618657" d="M279.1,1919.724l15.266-11.1,15.271,11.1Z" transform="translate(-208.347 -1814.276)" fill="#fff"/>
      <path id="Trazado_618658" data-name="Trazado 618658" d="M38.469,1758.822V1747.39H132.06v11.432Z" transform="translate(-26.633 -1692.52)" fill="#fffae7"/>
      <path id="Trazado_618659" data-name="Trazado 618659" d="M252.663,1635.474v15.43H198.054v-15.43Z" transform="translate(-147.146 -1608.005)" fill="#b2ebf2"/>
      <path id="Trazado_618660" data-name="Trazado 618660" d="M81.239,1870.311H38.481V1843.14H81.239Z" transform="translate(-26.642 -1764.827)" fill="#1565c0"/>
      <path id="Trazado_618661" data-name="Trazado 618661" d="M38.581,1642.154l9.746,6.071-9.746,6.121Z" transform="translate(-26.718 -1613.05)" fill="#fff"/>
      <path id="Trazado_618662" data-name="Trazado 618662" d="M109.474,1648.182l9.754-6.1v12.2Z" transform="translate(-80.254 -1612.998)" fill="#fff"/>
      <path id="Trazado_618663" data-name="Trazado 618663" d="M59.5,1635.377H76.3a9.49,9.49,0,0,1-.769.614c-2.233,1.4-4.486,2.77-6.7,4.2a1.365,1.365,0,0,1-1.736.043c-2.278-1.479-4.6-2.885-6.908-4.323C60,1635.793,59.831,1635.637,59.5,1635.377Z" transform="translate(-42.514 -1607.932)" fill="#fff"/>
      <path id="Trazado_618664" data-name="Trazado 618664" d="M59.271,1682.586c2.84-1.771,5.47-3.426,8.125-5.041a1.017,1.017,0,0,1,.869.071c2.589,1.587,5.159,3.206,7.979,4.97Z" transform="translate(-42.342 -1639.724)" fill="#fff"/>
    </g>
  </g>
</svg>
