<svg xmlns="http://www.w3.org/2000/svg" xmlns:xlink="http://www.w3.org/1999/xlink" width="108.419" height="108.419" viewBox="0 0 108.419 108.419">
  <defs>
    <linearGradient id="linear-gradient" x1="0.5" x2="0.5" y2="1" gradientUnits="objectBoundingBox">
      <stop offset="0" stop-color="#fdbe41"/>
      <stop offset="1" stop-color="#d09f40"/>
    </linearGradient>
  </defs>
  <g id="Grupo_899998" data-name="Grupo 899998" transform="translate(-588.096 -1584.125)">
    <circle id="Elipse_6020" data-name="Elipse 6020" cx="54.209" cy="54.209" r="54.209" transform="translate(588.096 1584.125)" fill="url(#linear-gradient)"/>
    <g id="Grupo_897520" data-name="Grupo 897520" transform="translate(613.427 1607.958)">
      <path id="Trazado_617730" data-name="Trazado 617730" d="M38.583,841.106H35.668c-.576,0-1.152-.017-1.726.014-.131.007-.359.18-.361.282-.027,1.036-.017,2.074-.017,3.166.2.014.369.028.537.036,1.868.091,3.736.174,5.6.287a.666.666,0,0,1,.472.343c.468,1.137.9,2.287,1.338,3.438a.936.936,0,0,1,.062.508,32.058,32.058,0,0,1-3.432,9.26c-.211.355-.447.694-.641,1.083a11.523,11.523,0,0,0,3.418-1.992c1.01-.852,1.956-1.78,2.977-2.717.223.582.473,1.191.68,1.815.034.1-.091.29-.189.395a16,16,0,0,0-1.165,1.3l1.709-.808.7,1.765a28.972,28.972,0,1,1,13.5-14.748l-1.736-.6c.434-1.477.892-2.9,1.265-4.348a20.962,20.962,0,0,0,.628-4.5c-1.117,0-2.183-.006-3.249.012-.085,0-.219.166-.243.274a7.176,7.176,0,0,1-3.433,4.807.781.781,0,0,0-.289.452c-.1.415-.163.842-.26,1.373-.634-.38-1.428-.233-1.886-.9-.03-.044-.144-.032-.219-.046a8.407,8.407,0,0,1-1.159-.218c-1.255-.417-2.5-.869-3.745-1.383.129-.01.258-.028.387-.028,1.231,0,2.463,0,3.694,0a5.4,5.4,0,0,0,5.353-5.294,12.856,12.856,0,0,0-.045-1.672,5.356,5.356,0,0,0-5.326-4.745q-16.6-.013-33.2,0a5.383,5.383,0,0,0-5.326,4.767,6.211,6.211,0,0,0,1.341,5.118,5.237,5.237,0,0,0,4.02,1.824q10.841.008,21.683-.009c.426,0,.639.118.751.524C38.248,840.3,38.41,840.651,38.583,841.106ZM5.209,832.9h2.28c.367,0,.837.134,1.069-.043.209-.159.15-.662.221-1.011a7.106,7.106,0,0,1,3.742-5.06.9.9,0,0,0,.393-.517c.341-1.346.641-2.7.974-4.05.121-.49.294-.967.453-1.481-.176-.049-.312-.085-.446-.125-1.375-.413-2.756-.811-4.122-1.253a.474.474,0,0,0-.678.255,27,27,0,0,0-3.642,10.468C5.334,830.991,5.292,831.913,5.209,832.9Zm54.169,0c-.075-.868-.125-1.647-.211-2.423a26.7,26.7,0,0,0-3.726-10.932c-.155-.259-.29-.292-.575-.2-1.2.4-2.405.756-3.611,1.127-.209.064-.421.117-.65.18.041.148.073.254.1.36.434,1.7.9,3.393,1.282,5.1a1.409,1.409,0,0,0,.768,1.1,3.355,3.355,0,0,1,.653.484,7.052,7.052,0,0,1,2.5,4.854c.012.121.144.327.223.329C57.178,832.9,58.229,832.894,59.378,832.894Zm-54.06,2.187a1.843,1.843,0,0,0-.026.249,26.93,26.93,0,0,0,3.877,12.31c.161.267.31.223.548.15,1.418-.436,2.842-.854,4.263-1.28a2.775,2.775,0,0,0,.261-.1c-.451-1.923-.89-3.8-1.34-5.678a.537.537,0,0,0-.235-.321,7.1,7.1,0,0,1-3.889-5.06.422.422,0,0,0-.3-.259C7.435,835.073,6.4,835.081,5.317,835.081Zm19.54-14.734c2.092.079,4.071.146,6.048.237.406.019.511-.112.509-.508-.013-4.25-.008-8.5-.009-12.751,0-.167-.015-.334-.032-.675a16.938,16.938,0,0,0-1.429,1.163,15.13,15.13,0,0,0-3.1,5.289,39.729,39.729,0,0,0-1.2,3.873C25.351,818.048,25.136,819.142,24.858,820.347Zm6.55,40.035v-.529q0-2.54,0-5.08c0-2.541-.012-5.082.01-7.623,0-.47-.09-.652-.6-.617-1,.07-2.013.059-3.019.106-.953.045-1.9.123-2.852.185a.929.929,0,0,0-.015.2,40.939,40.939,0,0,0,2.2,7.67,16.576,16.576,0,0,0,2.186,3.921A5.577,5.577,0,0,0,31.407,860.382Zm2.164-39.771,6.5-.307c-.088-.45-.141-.764-.212-1.075a33.582,33.582,0,0,0-2.753-8.379,10.83,10.83,0,0,0-2.641-3.547c-.25-.2-.537-.356-.895-.59Zm6.519,26.316a1.321,1.321,0,0,0-.234-.082c-1.979-.1-3.959-.192-5.938-.3-.377-.02-.358.2-.358.458q0,6.5,0,12.991c0,.1.019.207.041.423.393-.277.732-.479,1.028-.731a10.541,10.541,0,0,0,2.553-3.557,26.3,26.3,0,0,0,2-5.42C39.479,849.456,39.784,848.2,40.091,846.926Zm-23.123.892c2.292,5.112,5.318,9.369,10.49,11.713a23.372,23.372,0,0,1-2.837-6.03c-.651-2.13-1.2-4.29-1.817-6.516ZM27.445,807.6c-5.17,2.351-8.194,6.616-10.473,11.71l5.948.846C23.821,815.689,24.976,811.413,27.445,807.6Zm14.711,12.5,5.7-.841c-.635-3.762-7.007-10.884-10.434-11.664a20.839,20.839,0,0,1,2.919,5.994C40.995,815.7,41.534,817.854,42.156,820.1Zm-31.7,29.448a26.5,26.5,0,0,0,11.739,9.043c-.016-.1-.1-.122-.156-.173a26.153,26.153,0,0,1-6.5-9.022c-.166-.36-.253-.9-.527-1.027-.3-.137-.79.081-1.184.192C12.728,848.87,11.635,849.2,10.456,849.549ZM22.2,808.542a26.364,26.364,0,0,0-11.71,8.99c.21.081.352.15.5.193,1.195.346,2.394.678,3.585,1.036.36.108.517.026.671-.336a26.85,26.85,0,0,1,6.024-9.02C21.578,809.111,21.893,808.829,22.2,808.542Zm20.671,17.491h7.077a.412.412,0,0,0,.012-.137q-.606-2.287-1.216-4.572c-.08-.3-.286-.222-.494-.188-1.337.219-2.674.438-4.013.646-.609.095-1.222.166-1.862.252Zm-27.909-.04H22.1l.482-3.87c-2.023-.314-4.019-.629-6.019-.918a.5.5,0,0,0-.38.281c-.247.723-.474,1.455-.672,2.194C15.308,824.441,15.146,825.215,14.964,825.992ZM15,841.115a3.623,3.623,0,0,0,.06.447c.348,1.31.714,2.614,1.045,3.928.107.423.3.509.712.427.891-.178,1.79-.319,2.689-.451,1.022-.15,2.047-.275,3.084-.412l-.5-3.938Zm28.2-32.248c.718.768,1.466,1.51,2.147,2.309a27.651,27.651,0,0,1,4.365,7.226c.124.293.253.389.565.294.564-.173,1.141-.3,1.706-.469.693-.207,1.379-.437,2.125-.675A26.542,26.542,0,0,0,43.2,808.867Zm-2.3,17.116-.467-3.73-6.838.327v3.4Zm-16.83-.005h7.3V822.6c-2.2-.116-4.354-.233-6.508-.335-.1-.005-.3.105-.311.182C24.371,823.613,24.224,824.78,24.067,825.978Zm7.309,18.592c.011-.172.029-.327.03-.481,0-.83-.02-1.661.01-2.49.015-.413-.138-.506-.521-.5-2.075.016-4.15.008-6.225.011-.171,0-.341.017-.6.031.146,1.13.3,2.213.418,3.3.04.384.183.464.545.433.953-.081,1.91-.132,2.866-.175C29.043,844.644,30.188,844.612,31.375,844.57Z" transform="translate(-3.257 -804.514)" fill="#12263f"/>
      <path id="Trazado_617731" data-name="Trazado 617731" d="M379.388,1165.261l22.459,7.849-6.258,3.556,8.416,8.146-4.338,4.524-8.449-8.178L388,1187.494Z" transform="translate(-343.298 -1130.647)" fill="#12263f"/>
      <path id="Trazado_617732" data-name="Trazado 617732" d="M259.271,1070.953c-.288,1.193-.59,2.382-.854,3.58-.073.333-.2.445-.54.427-.525-.027-1.052-.007-1.628-.007l-2.036-7.669c.723,0,1.361-.016,2,.016.1.005.254.2.288.334.293,1.128.564,2.261.842,3.392.038.154.084.305.166.6l1.038-4.344c.54,0,1.081-.022,1.618.017.118.009.28.221.32.367.311,1.139.6,2.284.893,3.427.035.137.081.272.159.533.319-1.292.612-2.463.894-3.636.171-.709.163-.711.877-.71q.455,0,.911.007a.617.617,0,0,1,.123.035,1.748,1.748,0,0,1-.028.3c-.6,2.283-1.219,4.563-1.806,6.85-.1.387-.265.52-.653.482a7.51,7.51,0,0,0-1.1,0c-.271.014-.387-.078-.452-.354-.262-1.1-.553-2.2-.836-3.293-.031-.122-.073-.241-.11-.361Z" transform="translate(-230.133 -1042.065)" fill="#12263f"/>
      <path id="Trazado_617733" data-name="Trazado 617733" d="M155.287,1067.319h1.746a3.789,3.789,0,0,1-.061.432c-.6,2.268-1.205,4.534-1.8,6.8-.082.314-.207.453-.552.423a8.53,8.53,0,0,0-1.2,0c-.281.015-.387-.1-.448-.364-.24-1.058-.5-2.111-.76-3.164a1.172,1.172,0,0,0-.266-.54c-.1.448-.2.9-.308,1.344-.19.805-.371,1.613-.59,2.41a.518.518,0,0,1-.374.293,10.494,10.494,0,0,1-1.437,0,.486.486,0,0,1-.366-.249c-.655-2.4-1.29-4.805-1.926-7.21a.674.674,0,0,1,.007-.17h2.159l1.011,4.161.094,0c.25-1,.542-1.99.741-3,.233-1.187.2-1.2,1.393-1.192.882.007.673-.141.91.738.308,1.139.59,2.285.988,3.446Z" transform="translate(-133.16 -1042.082)" fill="#12263f"/>
      <path id="Trazado_617734" data-name="Trazado 617734" d="M367.005,1070.839l-.95,3.992h-2.07l-2.031-7.641c.721,0,1.383-.013,2.043.015.09,0,.218.2.25.329.3,1.159.574,2.322.86,3.484a.622.622,0,0,0,.215.356c.283-1.24.581-2.477.839-3.722.077-.37.223-.528.6-.469a2.864,2.864,0,0,0,.431,0c1.029,0,.991.008,1.209,1.04.223,1.055.529,2.092.8,3.136h.12c.218-.864.438-1.727.652-2.592.107-.433.183-.876.315-1.3a.478.478,0,0,1,.342-.271c.476-.031.955-.013,1.506-.013-.212.821-.409,1.6-.615,2.375-.43,1.615-.878,3.225-1.287,4.845-.087.345-.21.483-.569.455-.491-.037-1.12.15-1.442-.091s-.328-.885-.452-1.358c-.224-.855-.431-1.714-.645-2.571Z" transform="translate(-327.537 -1041.969)" fill="#12263f"/>
    </g>
  </g>
</svg>
