<svg xmlns="http://www.w3.org/2000/svg" width="70.789" height="89.205" viewBox="0 0 70.789 89.205">
  <g id="OFjhNE" transform="translate(0)">
    <g id="Grupo_155273" data-name="Grupo 155273" transform="translate(0)">
      <path id="Trazado_197098" data-name="Trazado 197098" d="M4293.919,4303.709h-1.245c-7.023,0-14.045.011-21.068,0a8.4,8.4,0,0,1-8.44-6.332,8.847,8.847,0,0,1-.271-2.142q-.028-12.344-.011-24.687c0-.214-.062-.487.042-.628.17-.228.458-.507.694-.5a.977.977,0,0,1,.664.523,2.091,2.091,0,0,1,.051.872c0,8.067-.008,16.136.011,24.2a6.924,6.924,0,0,0,3.663,6.356,7.012,7.012,0,0,0,10.353-5.754c.017-.429.009-.858.009-1.287q0-24.968,0-49.936v-1.02h-14.037v1.124q0,10.614,0,21.229c0,.562.175,1.336-.7,1.345-.86.008-.745-.737-.745-1.321q0-11.3,0-22.6c0-1.244.111-1.353,1.391-1.353h14.038c.049-.671.085-1.277.139-1.88a8.464,8.464,0,0,1,2.844-5.592,1.675,1.675,0,0,0,.479-1.083c.044-2.438.006-4.878.044-7.317a3.221,3.221,0,0,1,.37-1.436c1.257-2.3,2.557-4.583,3.854-6.863.575-1.009,1.147-.993,1.725.029,1.291,2.286,2.593,4.564,3.852,6.867a3.069,3.069,0,0,1,.344,1.36c.039,1.795.015,3.591.015,5.387v.951c.418.019.755.048,1.092.048q15.922,0,31.843,0a8.38,8.38,0,0,1,8.728,8.621q.034,32,.009,64.009c0,1.1-.106,1.184-1.3,1.184q-18.534,0-37.069,0c-1.313,0-1.358-.047-1.356-1.363C4293.92,4304.429,4293.919,4304.137,4293.919,4303.709Zm-1.721-67.5-.22.067v.954q0,17.652,0,35.3c0,1.1-.106,1.211-1.185,1.213q-3.739.007-7.479,0c-1.493,0-1.516-.021-1.516-1.544q0-17.531,0-35.063v-1.078a4.961,4.961,0,0,0-.388.338,5.2,5.2,0,0,0-.34.448,7.737,7.737,0,0,0-1.207,4.5q.027,26.821.015,53.642a8.5,8.5,0,0,1-3.095,6.782,1.475,1.475,0,0,1-.446.172l.193.232h17.348c.017-.316.042-.579.042-.841,0-2.037-.027-4.075.016-6.112.016-.7-.175-.922-.9-.913-3.055.039-6.111.019-9.167.015-.986,0-1.169-.181-1.17-1.173q-.009-5.067,0-10.133c0-.966.224-1.187,1.178-1.187q20.909,0,41.819,0c1.07,0,1.2.129,1.2,1.214q.007,4.905,0,9.811c0,1.469,0,1.471-1.492,1.471-9.678,0-19.355.011-29.032-.02-.832,0-1.036.236-1.023,1.038.047,2.814.036,5.63,0,8.443-.007.672.21.858.874.857q17.572-.028,35.144,0c.693,0,.842-.237.841-.879q-.021-31.4-.019-62.81a7.02,7.02,0,0,0-7.224-7.219q-16.084-.029-32.168,0c-.241,0-.481.036-.812.061a2.223,2.223,0,0,0,.224.316,8.911,8.911,0,0,1,3.173,7.313c-.044,12.519-.018,25.038-.019,37.557,0,.241.07.541-.045.708a1.217,1.217,0,0,1-.727.557c-.205.016-.512-.311-.639-.555a1.86,1.86,0,0,1-.039-.792q0-11.26,0-22.518c0-5.174.007-10.348-.005-15.522A6.811,6.811,0,0,0,4292.2,4236.213Zm18.194,47.193h-4.533c-.153.6.176,1.45-.777,1.474-1.03.026-.59-.94-.85-1.47H4299.8c-.2.585.138,1.47-.8,1.476-.99.007-.619-.928-.807-1.5h-4.557c0,.847,0,1.668,0,2.49,0,.515-.061,1.023-.729,1.021-.652,0-.745-.481-.74-1.012.008-.82,0-1.642,0-2.5h-4.53c-.148.594.14,1.5-.821,1.5s-.653-.915-.8-1.466h-1.807c0,2.911.023,5.75-.017,8.589-.01.717.205.893.906.892q19.741-.03,39.482,0c.647,0,.89-.155.881-.843-.036-2.626-.014-5.254-.018-7.88,0-.257-.03-.515-.045-.762h-7.36c-.108.627.124,1.463-.789,1.478-.979.016-.679-.89-.833-1.477h-4.523c0,.865-.006,1.664,0,2.464.006.527-.08,1.009-.727,1.025s-.77-.467-.773-.993C4310.389,4285.082,4310.393,4284.256,4310.393,4283.407Zm-19.859-34.18v-21.221c0-1.9,0-1.9-1.879-1.9-1.033,0-1.035,0-1.035,1.048q0,21.664,0,43.327c0,1.831,0,1.831,1.868,1.826,1.042,0,1.045,0,1.046-1.054Q4290.534,4260.239,4290.533,4249.227Zm-7.265-23.081v44.234c0,1.933,0,1.9,1.931,1.944.785.02.982-.235.981-1q-.031-22.114-.019-44.229c0-.311-.038-.623-.06-.953Zm.589-1.586h6.07c-.473-.848-.869-1.6-1.314-2.332-.3-.492-3.112-.527-3.416-.039C4284.737,4222.93,4284.335,4223.706,4283.857,4224.56Zm3.047-5.39-.645,1.164h1.268Z" transform="translate(-4262.865 -4216.879)" fill="#12263f"/>
      <path id="Trazado_197099" data-name="Trazado 197099" d="M4497.023,4415.039h-4.7c-1.441,0-1.5-.061-1.5-1.486,0-1.582.024-3.164-.01-4.745-.015-.72.279-1.05.979-1.05l12.223,0c.664,0,.962.323.956,1-.019,1.742-.026,3.484,0,5.227.012.776-.357,1.054-1.074,1.052-1.711-.007-3.424,0-5.185,0a2.419,2.419,0,0,0,.686,2.552,29.021,29.021,0,0,1,2.735,2.718,1.857,1.857,0,0,0,1.548.622c1.957-.038,3.914,0,5.87-.021.743-.008,1.116.264,1.059,1.036-.018.24.022.484,0,.723a2.118,2.118,0,0,0,1.354,2.6,3.59,3.59,0,0,1,1.625,4.443,3.906,3.906,0,0,1-7.56-.713,3.907,3.907,0,0,1,2.329-4.1c.276-.12.716-.285.744-.479a7.706,7.706,0,0,0-.021-1.833c-.008-.083-.359-.189-.551-.19-1.8-.013-3.592-.018-5.388.009a1.126,1.126,0,0,0-.7.306q-1.759,1.71-3.472,3.465a2.864,2.864,0,0,0,.083,2.959c1.207,1.219,2.428,2.423,3.636,3.642.664.67.663.918-.013,1.6-1.339,1.353-2.7,2.685-4.03,4.044a.9.9,0,0,1-1.5.021q-2.052-2.1-4.146-4.155a.875.875,0,0,1,0-1.441q1.825-1.813,3.638-3.64a2.572,2.572,0,0,0-.031-3.235c-1.062-1.06-2.119-2.126-3.193-3.174a1.174,1.174,0,0,0-.662-.388c-1.736-.032-3.473-.018-5.332-.018a13.378,13.378,0,0,0,.03,1.9c.032.214.383.443.637.551a3.872,3.872,0,0,1,2.453,3.635,3.814,3.814,0,0,1-2.374,3.6,3.892,3.892,0,0,1-5.083-2.1,3.818,3.818,0,0,1,2.1-5.056.935.935,0,0,0,.737-1.1c-.051-.639-.015-1.286-.01-1.929a.85.85,0,0,1,.985-.97c1.822.02,3.646.032,5.467-.015a1.847,1.847,0,0,0,1.1-.465c.948-.868,1.791-1.854,2.763-2.69A2.357,2.357,0,0,0,4497.023,4415.039Zm-4.715-1.573h11.127v-4.131h-11.127Zm2.281,19.987,3.307,3.32,3.2-3.206-3.261-3.3Zm3.179-15.255c-.906.934-1.863,1.833-2.694,2.837a1.309,1.309,0,0,0,.013,1.254c.819,1.012,1.765,1.923,2.623,2.831l3.542-3.44Zm-11.129,12.684a2.412,2.412,0,1,0,.059-4.823,2.412,2.412,0,1,0-.059,4.823Zm25.633-2.4a2.386,2.386,0,1,0-4.771-.022,2.386,2.386,0,1,0,4.771.022Z" transform="translate(-4447.403 -4377.056)" fill="#12263f"/>
      <path id="Trazado_197100" data-name="Trazado 197100" d="M4614.75,4643.349a2.548,2.548,0,0,1,2.589,2.66,2.613,2.613,0,0,1-2.664,2.615,2.66,2.66,0,0,1-2.606-2.692A2.583,2.583,0,0,1,4614.75,4643.349Zm-.068,3.76a1.2,1.2,0,0,0,1.2-1.151,1.242,1.242,0,0,0-1.133-1.156,1.167,1.167,0,0,0-1.173,1.169A1.113,1.113,0,0,0,4614.683,4647.108Z" transform="translate(-4555.9 -4574.751)" fill="#12263f"/>
    </g>
  </g>
</svg>
