<svg xmlns="http://www.w3.org/2000/svg" width="84.563" height="89.207" viewBox="0 0 84.563 89.207">
  <g id="LwdD94.tif" transform="translate(0)">
    <g id="Grupo_157288" data-name="Grupo 157288" transform="translate(0 0)">
      <path id="Trazado_197625" data-name="Trazado 197625" d="M-2516.89,366.485h-2.727a1.848,1.848,0,0,0-.365-.181,8.49,8.49,0,0,1-5.944-5.151,1.655,1.655,0,0,0-.727-.749,4.286,4.286,0,0,1-2.419-3.047,4.355,4.355,0,0,1,.733-3.566c-.391-1.405-.715-2.566-1.037-3.724-2.635,2.781-5.311,5.625-8.016,8.439a4.009,4.009,0,0,1-1.325.906c-3.873,1.6-7.763,3.149-11.64,4.733-1.862.76-3.708,1.559-5.563,2.341h-1.874c-2.871-1.727-3.3-3.033-2.075-6.387,2.009-5.522,4.008-11.047,6.043-16.558a4.69,4.69,0,0,1,.962-1.54q5.454-5.812,10.962-11.567a1.14,1.14,0,0,0,.3-1.312,20.407,20.407,0,0,1-.975-4.246c-.159-2.394-.043-4.809-.043-7.245.025.009-.027-.025-.081-.025q-4.174-.01-8.349-.016a17.312,17.312,0,0,1-2.3-.049,8.49,8.49,0,0,1-7.14-7.56,8.759,8.759,0,0,1,5.2-9.077c.178-.075.354-.158.4-.179a48.547,48.547,0,0,1,.033-5.621c.779-6.521,6.642-11.923,12.869-12.015,5.366-.08,9.438,2.324,12.306,7.084a.93.93,0,0,0,.776.379c4.931-.978,8.8.732,11.683,5.033a1.373,1.373,0,0,0,.8.5c1.691.361,3.4.632,5.082,1.029a1.234,1.234,0,0,0,1.4-.38c5.042-5.358,10.083-10.716,15.18-16.013a10.109,10.109,0,0,1,10.743-2.943c4.049,1.206,6.623,4.108,7.718,8.422.1.4.207.8.311,1.2v3.236c-.049.07-.13.134-.141.21a12.324,12.324,0,0,1-3.521,6.8c-4.559,4.763-9.032,9.617-13.652,14.312-1.243,1.263-1.746,2.333-1.125,4.122a27.225,27.225,0,0,1,.777,4.438h2.661c0,.924,0,1.76,0,2.6a2.806,2.806,0,0,0,1.6,2.813,2.452,2.452,0,0,0,3.089-.724c.6-.633,1.13-1.33,1.624-1.919l5.957,6.283c-.582.588-1.227,1.215-1.844,1.87a2.745,2.745,0,0,0-.619,3.119,2.606,2.606,0,0,0,2.555,1.734c.879.016,1.76,0,2.64,0v8.628c-.88,0-1.761-.016-2.641,0a2.581,2.581,0,0,0-2.553,1.73,2.774,2.774,0,0,0,.62,3.124c.619.653,1.26,1.283,1.776,1.806l-5.88,6.229c-.5-.556-1.06-1.19-1.632-1.813a2.462,2.462,0,0,0-3.013-.754,2.818,2.818,0,0,0-1.679,2.854c.006.858,0,1.716,0,2.569h-8.175v-2.577a2.813,2.813,0,0,0-1.6-2.813,2.442,2.442,0,0,0-3.086.731c-.594.635-1.127,1.332-1.907,2.262l-1.547-2.121a4.537,4.537,0,0,1-2.774,4.365,1.258,1.258,0,0,0-.506.631,7.678,7.678,0,0,1-2.73,3.594A32.981,32.981,0,0,1-2516.89,366.485Zm-29.949-57.571c-.07-.409-.128-.79-.2-1.167a5.417,5.417,0,0,0-6.341-4.391,5.66,5.66,0,0,0-4.3,6.585,5.5,5.5,0,0,0,5.562,4.775q18.148.016,36.294,0c.143,0,.285,0,.427-.008A4.218,4.218,0,0,0-2511.49,311a4.391,4.391,0,0,0-2.319-4.49,3.814,3.814,0,0,0-4.885,1.25,14.869,14.869,0,0,0-1.135,2.578h-2.526a6.714,6.714,0,0,1,2.786-5.634,3.01,3.01,0,0,0,1.3-2.764,9.1,9.1,0,0,0-.123-1.426,8.32,8.32,0,0,0-7.663-7.346,8.292,8.292,0,0,0-8.246,6.295c-.2.755-.155,1.123.631,1.473a5.233,5.233,0,0,1,3.043,5.1h-2.578c-.452-1.847-1.342-2.765-2.7-2.819s-2.251.819-2.9,2.8h-2.595a5.566,5.566,0,0,1,3.493-5.29,1.06,1.06,0,0,0,.738-.94,11.3,11.3,0,0,1,4.015-7.065c.371-.312.759-.6,1.132-.895a10.51,10.51,0,0,0-13.92-4.814,11.467,11.467,0,0,0-5.948,13.3c4.6.63,8.037,4.464,7.657,8.6Zm31.359-5.747a2.52,2.52,0,0,0,.264.048,7.031,7.031,0,0,1,6.493,6.526,7.082,7.082,0,0,1-5.594,7.721,15.591,15.591,0,0,1-2.884.123c-1.694.017-3.387,0-5.146,0,0,1.328,0,2.55,0,3.772,0,1.5.465,1.984,1.892,1.986,3.407,0,6.815,0,10.223,0a4.163,4.163,0,0,1,4.245,4.261,4.17,4.17,0,0,1-4.24,4.358q-6.432.009-12.865,0a3.724,3.724,0,0,0-.764.027,1.365,1.365,0,0,0-1.193,1.412,1.373,1.373,0,0,0,1.191,1.415,2.792,2.792,0,0,0,.594.026c.767,0,1.533-.006,2.3,0a4.153,4.153,0,0,1,4.065,4.267c.016,2.386,0,4.772,0,7.244,2.046,0,4,.015,5.951-.024.186,0,.407-.318.544-.535a51.42,51.42,0,0,1,3.2-5.052c1.821-2.25,3.872-4.293,5.841-6.408a17.8,17.8,0,0,0,4.7-15.453c-1.332-8.875-6.034-15.054-13.923-18.446a43.928,43.928,0,0,0-5.122-1.523C-2515.62,300.486-2515.553,301.79-2515.481,303.167Zm-4.136,43.166c0-2.428.019-4.76-.01-7.092a1.409,1.409,0,0,0-1.47-1.511c-.823-.03-1.647-.005-2.471-.009a4.168,4.168,0,0,1-4.225-4.283,4.163,4.163,0,0,1,4.258-4.336q6.39-.007,12.781,0a4.488,4.488,0,0,0,.849-.032,1.416,1.416,0,0,0,1.027-2.031,1.535,1.535,0,0,0-1.577-.823q-5.154.013-10.31,0c-2.605,0-4.3-1.8-4.3-4.562,0-1.336,0-2.672,0-4.064-4.765,0-9.419-.006-14.072.02a.748.748,0,0,0-.561.452c-.764,4.6-.46,9.072,2.139,12.994a46.683,46.683,0,0,0,4.866,5.863c2.652,2.849,5.336,5.646,6.793,9.413Zm35.083,7.317,1.873-1.932a5.8,5.8,0,0,1-1.055-6.206,5.348,5.348,0,0,1,4.939-3.529v-2.788c-4.946-.395-6.762-5.076-3.873-9.806l-1.827-1.95a5.115,5.115,0,0,1-5.429,1.392,5.641,5.641,0,0,1-3.769-4.345q-.8,3.045-1.567,6a9.793,9.793,0,0,1,9.684,9.264c.35,5.157-2.882,9.715-7.5,10.7a8.931,8.931,0,0,1-6.587-1.025,10.224,10.224,0,0,1-4.919-7.477,17.525,17.525,0,0,0-3.564,5.77.927.927,0,0,0,.155.64,4.616,4.616,0,0,1,.578,3.1,1.014,1.014,0,0,0,.178.689c.448.575.946,1.108,1.446,1.683,1.845-1.709,3.823-2.237,6.005-1.275a5.656,5.656,0,0,1,3.38,5.3h2.633C-2493.629,352.92-2488.27,350.169-2484.535,353.65Zm-9.75-69.287,11.64,12.277c4.7-4.42,5.286-10.089,1.354-14C-2484.447,279.5-2490.028,278.672-2494.285,284.363Zm-51.348,64.045,9.866-10.424-4.2-5.151-10.214,10.776Zm-6.173-2.147a.2.2,0,0,0-.08.083c-1.083,2.948-2.172,5.893-3.221,8.854a1.019,1.019,0,0,0,.252.8c1.4,1.523,2.851,3,4.249,4.528a.772.772,0,0,0,1.038.193c1.285-.548,2.583-1.062,3.876-1.589l4.392-1.793Zm8.478,4.364,4.772,5.03c2.957-3.123,5.989-6.317,9-9.529a.771.771,0,0,0,.136-.672,22.9,22.9,0,0,0-4.076-5.205Zm55.068-10.024a7.054,7.054,0,0,0-6.845-7.18,3.358,3.358,0,0,0-3.089,1.475,17.826,17.826,0,0,1-2.657,3.02,3.416,3.416,0,0,0-1.04,2.706,7.078,7.078,0,0,0,6.867,7.167A7.089,7.089,0,0,0-2488.26,340.6Zm-5.452-42.313-6.095,6.408,3.738,5.888,7.012-7.389Zm-2.235-2.191-4.651-4.9-6.92,7.3,5.6,3.96Zm-2.45-7.405,11.536,12.163,1.893-1.849-11.609-12.244Zm-19.881,63.415q3.188,0,6.376,0c1.135,0,1.8-.527,1.821-1.415s-.656-1.464-1.772-1.465q-6.419-.006-12.838,0c-1.061,0-1.717.548-1.735,1.413-.018.9.657,1.463,1.771,1.466C-2522.53,352.113-2520.4,352.109-2518.278,352.109Zm.01,5.751c2.211,0,4.421.012,6.632-.006a1.45,1.45,0,0,0,1.555-1.421,1.436,1.436,0,0,0-1.528-1.448c-4.421-.014-8.842-.025-13.262.023a1.781,1.781,0,0,0-1.276.673,1.521,1.521,0,0,0-.054,1.37,2.044,2.044,0,0,0,1.388.774C-2522.634,357.906-2520.451,357.86-2518.268,357.86Zm4.759,2.927H-2523a5.414,5.414,0,0,0,4.751,2.8A5.4,5.4,0,0,0-2513.51,360.786Zm-39.63,1.364-3.277-3.446c-.412,1.139-.879,2.322-1.254,3.538a1.3,1.3,0,0,0,.216,1.028.989.989,0,0,0,.9.231C-2555.383,363.092-2554.242,362.6-2553.14,362.15Z" transform="translate(2560.549 -277.279)" fill="#12263f"/>
      <path id="Trazado_197626" data-name="Trazado 197626" d="M-2193.342,608.868a3.848,3.848,0,0,1-3.885,3.884,3.846,3.846,0,0,1-3.862-3.906,3.847,3.847,0,0,1,3.844-3.843A3.844,3.844,0,0,1-2193.342,608.868Zm-2.589,0a1.346,1.346,0,0,0-1.3-1.273,1.345,1.345,0,0,0-1.271,1.3,1.346,1.346,0,0,0,1.3,1.273A1.35,1.35,0,0,0-2195.932,608.865Z" transform="translate(2262.819 -545.353)" fill="#12263f"/>
    </g>
  </g>
</svg>
