<svg xmlns="http://www.w3.org/2000/svg" xmlns:xlink="http://www.w3.org/1999/xlink" width="108.419" height="108.419" viewBox="0 0 108.419 108.419">
  <defs>
    <linearGradient id="linear-gradient" x1="0.5" x2="0.5" y2="1" gradientUnits="objectBoundingBox">
      <stop offset="0" stop-color="#fdbe41"/>
      <stop offset="1" stop-color="#d09f40"/>
    </linearGradient>
  </defs>
  <g id="Grupo_899999" data-name="Grupo 899999" transform="translate(-898.058 -1584.125)">
    <circle id="Elipse_6021" data-name="Elipse 6021" cx="54.209" cy="54.209" r="54.209" transform="translate(898.058 1584.125)" fill="url(#linear-gradient)"/>
    <g id="Grupo_897521" data-name="Grupo 897521" transform="translate(925.206 1610.438)">
      <path id="Trazado_617735" data-name="Trazado 617735" d="M99.472,1401.333h7.1l1,.776v7.542a1.33,1.33,0,0,1-1.437.789c-.653-.038-1.309-.008-1.945-.008v14.756c.652,0,1.262.03,1.867-.008a1.465,1.465,0,0,1,1.515.776v7.542a1.476,1.476,0,0,1-1.52.773c-.618-.039-1.241-.008-1.859-.008v14.752c.637,0,1.229.034,1.816-.009a1.6,1.6,0,0,1,1.563.687v7.653a1.545,1.545,0,0,1-1.376.747c-2.107-.018-4.214,0-6.322-.01-.963,0-1.378-.436-1.383-1.4,0-.659,0-1.317,0-1.982H83.714c0,.7,0,1.361,0,2.024-.005.9-.415,1.345-1.31,1.351q-3.244.023-6.488,0a1.159,1.159,0,0,1-1.282-1.319c0-.679,0-1.358,0-2.062H59.926c-.027.063-.053.095-.054.127-.006.647-.005,1.293-.015,1.94a1.159,1.159,0,0,1-1.242,1.311q-3.3.031-6.6,0a1.13,1.13,0,0,1-1.235-1.3q0-3.189,0-6.377c0-1.032.355-1.381,1.407-1.386.657,0,1.315,0,1.979,0v-14.685a.506.506,0,0,0-.132-.053c-.647-.006-1.293-.008-1.94-.014a1.155,1.155,0,0,1-1.314-1.329q0-3.216,0-6.432c0-.9.411-1.305,1.33-1.312.678,0,1.356,0,2.047,0v-14.756c-.724,0-1.406,0-2.088,0-.893-.006-1.288-.4-1.289-1.278,0-2.07.03-4.141-.017-6.21a1.421,1.421,0,0,1,1.012-1.61h7.1a1.439,1.439,0,0,1,.992,1.634c-.042.6-.008,1.2-.008,1.783H74.632c0-.624.039-1.214-.009-1.8a1.4,1.4,0,0,1,1-1.62h7.1a1.409,1.409,0,0,1,1,1.623c-.045.6-.009,1.2-.009,1.8H98.487c0-.619.033-1.208-.008-1.791A1.428,1.428,0,0,1,99.472,1401.333Zm-12.234,15.2c.984,1.386.975,1.48-.228,2.68q-9.186,9.167-18.372,18.334c-1.2,1.194-1.289,1.2-2.691.21l-.629,5.794,5.854-.641c-.167-.187-.25-.281-.335-.374a1.134,1.134,0,0,1,0-1.8q4.761-4.768,9.537-9.521a1.141,1.141,0,0,1,1.673-.105,1.163,1.163,0,0,1-.085,1.724c-.449.465-.936.9-1.36,1.384a1.28,1.28,0,0,0-.31.761c-.018,4.492-.014,8.984-.012,13.476,0,.176.015.351.024.552.75,0,1.432-.006,2.115,0a1.137,1.137,0,0,1,1.292,1.291c.006.681,0,1.362,0,2.077h14.7c.028-.061.056-.093.057-.126.006-.647.006-1.293.014-1.94a1.148,1.148,0,0,1,1.289-1.3c.7-.009,1.393,0,2.1,0v-14.752c-.7,0-1.369,0-2.032,0a1.187,1.187,0,0,1-1.356-1.361q-.007-3.161,0-6.322c0-.976.412-1.387,1.381-1.391.675,0,1.35,0,2.018,0v-14.756c-.691,0-1.353,0-2.014,0-.986,0-1.38-.392-1.385-1.37,0-.658,0-1.317,0-1.985H83.714c0,.742.009,1.443,0,2.144a1.1,1.1,0,0,1-1.2,1.208q-3.327.011-6.655,0a1.107,1.107,0,0,1-1.22-1.245c-.007-.7,0-1.394,0-2.112H59.859c0,.681,0,1.326,0,1.971-.005.988-.4,1.385-1.369,1.389-.676,0-1.353,0-2.034,0v14.756c.668,0,1.309,0,1.951,0,1.046,0,1.447.4,1.451,1.435,0,.657,0,1.313,0,1.972.157.013.229.024.3.024,4.621,0,9.243.005,13.864-.012a1.051,1.051,0,0,0,.65-.309q5.118-5.078,10.214-10.177c.1-.1.184-.211.3-.346-.472-.462-.932-.891-1.365-1.345a1.033,1.033,0,0,1-.236-1.175,1.1,1.1,0,0,1,.97-.715c3.157-.34,6.313-.684,9.471-1.014,1.008-.105,1.524.466,1.394,1.462-.112.86-.19,1.724-.286,2.587-.247,2.239-.5,4.477-.741,6.716a1.132,1.132,0,0,1-2.015.689c-.405-.428-.8-.863-1.247-1.339-.655.672-1.23,1.272-1.817,1.86-.656.658-1.294.711-1.842.171-.492-.485-.4-1.137.253-1.794q1.078-1.079,2.162-2.152c.99-.981,1.311-.994,2.365-.108.021.017.067.006.153.01l.623-5.726Zm-27.382,14.323c0,.693,0,1.337,0,1.98-.007,1-.424,1.417-1.414,1.422-.658,0-1.315,0-1.966,0v14.759h1.869c1.159,0,1.509.355,1.511,1.53,0,.618,0,1.237,0,1.859h14.7c.03-.061.059-.093.06-.125.007-.646.01-1.293.017-1.939.01-.906.42-1.319,1.319-1.324.694,0,1.389,0,2.062,0v-12.186l-4.828,4.876c.4.385.826.789,1.238,1.211a1.091,1.091,0,0,1,.334,1.251,1.2,1.2,0,0,1-1.12.754c-1.578.163-3.153.353-4.731.521-1.6.17-3.192.348-4.791.482a1.072,1.072,0,0,1-1.2-1.239c.346-3.173.706-6.344,1.048-9.517a1.13,1.13,0,0,1,.752-1.055,1.061,1.061,0,0,1,1.2.323c.422.438.824.9,1.168,1.273l4.849-4.858Zm-6.82-3.414v4.587c1.449,0,2.866.01,4.281-.02.106,0,.291-.286.294-.442.026-1.07.014-2.14.014-3.211v-.914Zm47.721,0V1432h4.549v-4.553Zm-43.174-19.256v-4.513H53.039v4.513Zm23.876-4.522H76.889v4.494h4.569Zm19.306-.007v4.506h4.542v-4.506Zm-43.173,52.131v-4.511H53.031v4.511Zm23.865-4.493H76.887v4.5h4.569Zm19.288,4.489h4.567v-4.5h-4.567Z" transform="translate(-50.764 -1401.333)" fill="#12263f"/>
      <path id="Trazado_617736" data-name="Trazado 617736" d="M553.913,1402.109l-1-.776" transform="translate(-497.109 -1401.333)" fill="#12263f"/>
      <path id="Trazado_617737" data-name="Trazado 617737" d="M346.791,1635.945a1.161,1.161,0,0,1,1.142-1.18,1.2,1.2,0,0,1,1.118,1.157,1.123,1.123,0,0,1-1.095,1.1A1.106,1.106,0,0,1,346.791,1635.945Z" transform="translate(-313.892 -1608.822)" fill="#12263f"/>
    </g>
  </g>
</svg>
