<svg xmlns="http://www.w3.org/2000/svg" xmlns:xlink="http://www.w3.org/1999/xlink" width="505" height="430.783" viewBox="0 0 505 430.783">
  <defs>
    <clipPath id="clip-path">
      <rect id="Rectángulo_57307" data-name="Rectángulo 57307" width="474.43" height="400.996" fill="none"/>
    </clipPath>
    <clipPath id="clip-path-2">
      <rect id="Rectángulo_57283" data-name="Rectángulo 57283" width="474.43" height="312.391" fill="none"/>
    </clipPath>
    <clipPath id="clip-path-7">
      <rect id="Rectángulo_57291" data-name="Rectángulo 57291" width="30.612" height="17.012" fill="none"/>
    </clipPath>
    <clipPath id="clip-path-8">
      <rect id="Rectángulo_57292" data-name="Rectángulo 57292" width="33.751" height="2.735" fill="none"/>
    </clipPath>
    <clipPath id="clip-path-9">
      <rect id="Rectángulo_57293" data-name="Rectángulo 57293" width="17.809" height="9.783" fill="none"/>
    </clipPath>
    <clipPath id="clip-path-10">
      <rect id="Rectángulo_57294" data-name="Rectángulo 57294" width="4.575" height="8.764" fill="none"/>
    </clipPath>
    <clipPath id="clip-path-12">
      <rect id="Rectángulo_57297" data-name="Rectángulo 57297" width="54.367" height="49.779" fill="none"/>
    </clipPath>
  </defs>
  <g id="Grupo_899996" data-name="Grupo 899996" transform="translate(-810 -1562.123)">
    <g id="Grupo_888591" data-name="Grupo 888591" transform="translate(810 1562.123)">
      <g id="Grupo_885767" data-name="Grupo 885767" transform="translate(0 0)">
        <rect id="Rectángulo_32196" data-name="Rectángulo 32196" width="505" height="220.899" transform="translate(0 0)" fill="#fff7ee"/>
        <g id="Grupo_177796" data-name="Grupo 177796" transform="translate(22.404 29.786)">
          <g id="Grupo_177790" data-name="Grupo 177790" clip-path="url(#clip-path)">
            <rect id="Rectángulo_57279" data-name="Rectángulo 57279" width="78.547" height="72.869" transform="matrix(0.992, -0.126, 0.126, 0.992, 377.72, 32.127)" fill="#f5f5f5"/>
            <g id="Grupo_177764" data-name="Grupo 177764">
              <g id="Grupo_177763" data-name="Grupo 177763" clip-path="url(#clip-path-2)">
                <path id="Trazado_220935" data-name="Trazado 220935" d="M599.941,59.819a5.425,5.425,0,1,0,6.29,4.666,5.54,5.54,0,0,0-6.29-4.666" transform="translate(-173.022 -17.382)" fill="#e0e0e0"/>
                <path id="Trazado_220936" data-name="Trazado 220936" d="M607.814,40.432l-65.838,8.3c.063-.089-.623.769-.332.414l0,.016,0,.032.008.065.016.129.033.258.065.516.131,1.03.26,2.053q.261,2.05.519,4.081.516,4.064,1.023,8.049,1.016,7.968,1.986,15.576c1.3,10.122,2.524,19.693,3.652,28.5l.04.312.323-.043,47.79-6.225,13.343-1.776,3.494-.48.886-.13a1.614,1.614,0,0,0,.286-.054,2.5,2.5,0,0,0-.327.024l-.925.1-3.566.416-13.437,1.623-14.715,1.818,32.931-4.179a1.452,1.452,0,0,0,.04.2,1.278,1.278,0,0,0-.016-.265c-.022-.209-.05-.474-.084-.812q-.132-1.134-.369-3.2c-.343-2.852-.838-6.979-1.467-12.219-1.306-10.611-3.167-25.72-5.4-43.862l-.037-.306Zm-11.577,36.4-9.111,13.986L566.478,69.274,549.9,108.607c-1.08-8.6-2.25-17.908-3.486-27.744q-.959-7.6-1.968-15.578-.5-3.985-1.018-8.049-.259-2.032-.518-4.081l-.26-2.053-.131-1.03-.066-.515-.019-.155,65.144-8.317c2.34,17.907,4.291,32.829,5.662,43.322l1.64,12.266q.29,2.095.45,3.249c.051.35.093.624.124.84,0,.03.008.044.012.07Z" transform="translate(-157.493 -11.746)" fill="#e0e0e0"/>
                <rect id="Rectángulo_57280" data-name="Rectángulo 57280" width="51.831" height="55.869" transform="matrix(0.161, -0.987, 0.987, 0.161, 0, 270.871)" fill="#f5f5f5"/>
                <path id="Trazado_220937" data-name="Trazado 220937" d="M54.255,333.731a3.859,3.859,0,1,0,3.346,4.453,3.941,3.941,0,0,0-3.346-4.453" transform="translate(-14.429 -97.034)" fill="#e0e0e0"/>
                <path id="Trazado_220938" data-name="Trazado 220938" d="M60.494,324.066l-46.576-7.649c.06-.047-.58.4-.31.216l0,.011,0,.023-.008.046-.015.091-.03.183-.06.364-.118.729-.238,1.452q-.237,1.451-.472,2.889-.469,2.874-.93,5.695-.918,5.639-1.794,11.024c-1.162,7.165-2.261,13.94-3.272,20.171l-.036.221.229.036,33.849,5.418,9.458,1.486,2.48.379.63.09a1.213,1.213,0,0,0,.206.021,1.749,1.749,0,0,0-.228-.05l-.651-.119-2.516-.438-9.491-1.61L30.2,363.01l23.3,3.808a1.112,1.112,0,0,0-.013.145.871.871,0,0,0,.043-.184c.027-.147.062-.333.106-.571q.139-.8.4-2.257c.343-2.014.84-4.928,1.47-8.629,1.255-7.5,3.041-18.18,5.186-31l.036-.216ZM45.241,346.545l-9.041,7.7-9.726-18.863L7.213,358.847c1-6.081,2.087-12.667,3.233-19.625q.882-5.374,1.808-11.022.462-2.818.933-5.695l.472-2.888.238-1.452.119-.729.06-.365.018-.109,46.106,7.5c-2.025,12.685-3.712,23.255-4.9,30.688-.584,3.729-1.044,6.666-1.362,8.7q-.226,1.487-.35,2.306c-.035.249-.062.445-.085.6,0,.022,0,.032-.006.05Z" transform="translate(-1.928 -92.014)" fill="#e0e0e0"/>
                <path id="Trazado_220939" data-name="Trazado 220939" d="M613.505,237.319H503a5.579,5.579,0,0,1-5.579-5.579V167.494A5.579,5.579,0,0,1,503,161.915h110.5a5.578,5.578,0,0,1,5.579,5.579V231.74a5.578,5.578,0,0,1-5.579,5.579" transform="translate(-144.654 -47.086)" fill="#e0e0e0"/>
                <path id="Trazado_220940" data-name="Trazado 220940" d="M588.664,212.723a9.268,9.268,0,1,1-9.268-9.268,9.268,9.268,0,0,1,9.268,9.268" transform="translate(-165.797 -59.166)" fill="#ebebeb"/>
                <path id="Trazado_220941" data-name="Trazado 220941" d="M580.048,217.961v-5.469a.348.348,0,0,1,.519-.3l4.887,2.755a.348.348,0,0,1,0,.607l-4.887,2.713a.348.348,0,0,1-.517-.3" transform="translate(-168.682 -61.692)" fill="#fff"/>
                <path id="Trazado_220942" data-name="Trazado 220942" d="M506.833,255.588v.2h-.916v-.155l.494-.47c.12-.116.142-.188.142-.257,0-.113-.079-.179-.231-.179a.35.35,0,0,0-.291.129l-.162-.124a.573.573,0,0,1,.472-.206c.27,0,.444.136.444.357a.5.5,0,0,1-.206.392l-.333.316Z" transform="translate(-147.11 -74.016)" fill="#fff"/>
                <path id="Trazado_220943" data-name="Trazado 220943" d="M507.4,255.1a.145.145,0,1,1,.145.147.144.144,0,0,1-.145-.147m0,.677a.145.145,0,1,1,.291,0,.145.145,0,1,1-.291,0" transform="translate(-147.556 -74.14)" fill="#fff"/>
                <path id="Trazado_220944" data-name="Trazado 220944" d="M508.427,254.548v1.243h-.23v-1.05h-.263v-.194Z" transform="translate(-147.71 -74.024)" fill="#fff"/>
                <path id="Trazado_220945" data-name="Trazado 220945" d="M510.076,255.508h-.22v.282h-.224v-.282h-.682v-.16l.613-.8h.247l-.577.765h.407v-.25h.217v.25h.22Z" transform="translate(-148.006 -74.023)" fill="#fff"/>
                <rect id="Rectángulo_57281" data-name="Rectángulo 57281" width="94.225" height="0.499" transform="translate(364.098 180.954)" fill="#fff"/>
                <rect id="Rectángulo_57282" data-name="Rectángulo 57282" width="29.446" height="1.33" transform="translate(364.027 180.433)" fill="#ebebeb"/>
                <path id="Trazado_220946" data-name="Trazado 220946" d="M554.982,254.918a1.434,1.434,0,1,1-1.433-1.433,1.433,1.433,0,0,1,1.433,1.433" transform="translate(-160.559 -73.715)" fill="#ebebeb"/>
                <path id="Trazado_220947" data-name="Trazado 220947" d="M649.2,255.127a.414.414,0,0,1-.455.4c-.339,0-.538-.218-.538-.618a.588.588,0,0,1,.609-.66.619.619,0,0,1,.326.079l-.085.174a.419.419,0,0,0-.236-.06c-.235,0-.381.145-.381.428h0a.422.422,0,0,1,.331-.129.388.388,0,0,1,.428.382m-.223.011c0-.13-.1-.211-.25-.211a.226.226,0,0,0-.252.213c0,.117.092.209.257.209a.216.216,0,0,0,.244-.211" transform="translate(-188.503 -73.938)" fill="#fff"/>
                <path id="Trazado_220948" data-name="Trazado 220948" d="M649.763,254.824a.146.146,0,1,1,.146.147.144.144,0,0,1-.146-.147m0,.677a.146.146,0,1,1,.292,0,.146.146,0,1,1-.292,0" transform="translate(-188.956 -74.061)" fill="#fff"/>
                <path id="Trazado_220949" data-name="Trazado 220949" d="M650.383,254.891c0-.408.224-.639.519-.639s.521.231.521.639-.224.639-.521.639-.519-.23-.519-.639m.807,0c0-.3-.118-.438-.288-.438s-.286.138-.286.438.117.438.286.438.288-.138.288-.438" transform="translate(-189.136 -73.938)" fill="#fff"/>
                <path id="Trazado_220950" data-name="Trazado 220950" d="M652.065,254.891c0-.408.224-.639.519-.639s.52.231.52.639-.224.639-.52.639-.519-.23-.519-.639m.807,0c0-.3-.118-.438-.288-.438s-.286.138-.286.438.117.438.286.438.288-.138.288-.438" transform="translate(-189.625 -73.938)" fill="#fff"/>
                <path id="Trazado_220951" data-name="Trazado 220951" d="M656.2,254.523h-.5V253.25h1.27v.5H656.2Z" transform="translate(-190.683 -73.646)" fill="#fff"/>
                <path id="Trazado_220952" data-name="Trazado 220952" d="M656.975,256.852H655.7v-1.271h.5v.772h.774Z" transform="translate(-190.682 -74.324)" fill="#fff"/>
                <path id="Trazado_220953" data-name="Trazado 220953" d="M659.805,256.851h-1.271v-.5h.772v-.774h.5Z" transform="translate(-191.506 -74.323)" fill="#fff"/>
                <path id="Trazado_220954" data-name="Trazado 220954" d="M659.807,254.52h-.5v-.772h-.774v-.5h1.273Z" transform="translate(-191.506 -73.646)" fill="#fff"/>
                <path id="Trazado_220955" data-name="Trazado 220955" d="M637.606,172.193a19.825,19.825,0,0,1,2.563-.14l.138,0v.143c.01.972.021,2.07.033,3.256l0,.421-.3-.3-.342-.341-.869-.873.234.006-1.363,1.2-.258.227,0-.339c.015-1.008.049-1.842.077-2.407a3.969,3.969,0,0,1,.074-.849,6.6,6.6,0,0,1,.075.945c.028.576.062,1.369.077,2.311l-.253-.113,1.339-1.226.118-.109.115.115.873.869.341.341-.3.123c.013-1.186.023-2.284.033-3.256l.14.139a24.972,24.972,0,0,1-2.563-.139" transform="translate(-185.375 -50.033)" fill="#fff"/>
                <path id="Trazado_220956" data-name="Trazado 220956" d="M649.272,172.746a8.878,8.878,0,0,1-.62.792c-.421.521-1.05,1.3-1.819,2.167l-.286.323,0-.434c0-.509,0-1.052-.008-1.614v-.158l.053.125-1.135-1.106-.3-.288.411.006c1.126.016,2.093.074,2.738.113a8.445,8.445,0,0,1,.966.073c-.034.015-.455.028-1.12.06s-1.553.079-2.586.082l.115-.282,1.148,1.092.053.05v.233c0,.562,0,1.1-.008,1.614l-.288-.111c.719-.787,1.371-1.432,1.859-1.922s.791-.8.826-.816" transform="translate(-187.616 -50.179)" fill="#fff"/>
                <path id="Trazado_220957" data-name="Trazado 220957" d="M649.907,172.815c.037.089-.506.4-1.214.7s-1.312.467-1.349.378.507-.4,1.215-.7a2.958,2.958,0,0,1,1.348-.379" transform="translate(-188.251 -50.249)" fill="#fff"/>
                <path id="Trazado_220958" data-name="Trazado 220958" d="M656.632,172.238c0-.018.162-.058.459-.009a1.807,1.807,0,0,1,1.08.651,1.926,1.926,0,0,1,.315,1.845,1.965,1.965,0,0,1-3.709,0,1.926,1.926,0,0,1,.315-1.845,1.8,1.8,0,0,1,1.08-.651c.3-.05.461-.009.46.009s-.161.037-.427.122a1.819,1.819,0,0,0-.919.669,1.7,1.7,0,0,0-.209,1.588,1.66,1.66,0,0,0,3.109,0,1.7,1.7,0,0,0-.209-1.588,1.82,1.82,0,0,0-.919-.669c-.266-.085-.428-.093-.427-.122" transform="translate(-190.382 -50.078)" fill="#fff"/>
                <path id="Trazado_220959" data-name="Trazado 220959" d="M657.92,175.126c-.067.067-.467-.223-.9-.65l-.05-.051v-.082c0-.609.077-1.1.173-1.1s.173.494.173,1.1v.011l-.05-.123c.427.428.718.828.65.9" transform="translate(-191.052 -50.379)" fill="#fff"/>
                <path id="Trazado_220960" data-name="Trazado 220960" d="M572.4,175.661c0,.1-12.5.173-27.924.173s-27.927-.077-27.927-.173,12.5-.173,27.927-.173,27.924.077,27.924.173" transform="translate(-150.215 -51.033)" fill="#fff"/>
                <path id="Trazado_220961" data-name="Trazado 220961" d="M511.023,174.829a2.2,2.2,0,1,1-2.2-2.2,2.2,2.2,0,0,1,2.2,2.2" transform="translate(-147.328 -50.201)" fill="#fff"/>
              </g>
            </g>
            <rect id="Rectángulo_57284" data-name="Rectángulo 57284" width="358.699" height="312.209" transform="translate(46.071 0.183)" fill="#fff"/>
            <rect id="Rectángulo_57285" data-name="Rectángulo 57285" width="358.699" height="19.084" transform="translate(45.629 0.182)" fill="#12263f"/>
            <g id="Grupo_177766" data-name="Grupo 177766">
              <g id="Grupo_177765" data-name="Grupo 177765" clip-path="url(#clip-path-2)">
                <path id="Trazado_220962" data-name="Trazado 220962" d="M80.322,13.172a2.345,2.345,0,1,1-4.681,0,2.345,2.345,0,1,1,4.681,0" transform="translate(-21.997 -3.11)" fill="#fff"/>
                <path id="Trazado_220963" data-name="Trazado 220963" d="M92.6,13.172a2.345,2.345,0,1,1-4.681,0,2.345,2.345,0,1,1,4.681,0" transform="translate(-25.568 -3.11)" fill="#fff"/>
                <path id="Trazado_220964" data-name="Trazado 220964" d="M104.879,13.172a2.345,2.345,0,1,1-4.681,0,2.345,2.345,0,1,1,4.681,0" transform="translate(-29.138 -3.11)" fill="#fff"/>
                <path id="Trazado_220965" data-name="Trazado 220965" d="M268.057,56.039c0,.135-7.834.245-17.5.245s-17.5-.11-17.5-.245,7.832-.245,17.5-.245,17.5.11,17.5.245" transform="translate(-67.777 -16.225)" fill="#263238"/>
                <path id="Trazado_220966" data-name="Trazado 220966" d="M333.687,56.039c0,.135-7.834.245-17.5.245s-17.5-.11-17.5-.245,7.832-.245,17.5-.245,17.5.11,17.5.245" transform="translate(-86.863 -16.225)" fill="#263238"/>
                <path id="Trazado_220967" data-name="Trazado 220967" d="M399.318,56.039c0,.135-7.834.245-17.5.245s-17.5-.11-17.5-.245,7.832-.245,17.5-.245,17.5.11,17.5.245" transform="translate(-105.948 -16.225)" fill="#263238"/>
                <path id="Trazado_220968" data-name="Trazado 220968" d="M465.53,56.039c0,.135-7.834.245-17.5.245s-17.5-.11-17.5-.245,7.832-.245,17.5-.245,17.5.11,17.5.245" transform="translate(-125.203 -16.225)" fill="#263238"/>
                <path id="Trazado_220969" data-name="Trazado 220969" d="M524.893,59.516c0-.029.3-.015.835-.148a3.869,3.869,0,0,0,2.013-1.308,4.037,4.037,0,0,0,.8-1.594,8.438,8.438,0,0,0,.124-2.179c-.1-1.554.348-3.574-.981-5.049a3.652,3.652,0,0,0-2.49-1.3c-1.006-.028-2.1,0-3.213,0l-7.123.023-16.321.019a3.678,3.678,0,0,0-3.269,2.121,4.265,4.265,0,0,0-.405,2.04q0,1.1,0,2.188a8.255,8.255,0,0,0,.128,2.074,3.946,3.946,0,0,0,.916,1.708,3.735,3.735,0,0,0,1.552,1.007,5.622,5.622,0,0,0,1.824.175l13.33.052,8.987.078,2.443.046.635.025a.71.71,0,0,1,.216.025.709.709,0,0,1-.216.025l-.635.025-2.443.046-8.987.078-13.33.052a5.988,5.988,0,0,1-1.952-.187,4.17,4.17,0,0,1-1.741-1.12,4.428,4.428,0,0,1-1.033-1.913,4.716,4.716,0,0,1-.147-1.117q0-.538,0-1.081,0-1.085,0-2.188a4.773,4.773,0,0,1,.452-2.262,4.135,4.135,0,0,1,3.68-2.39l16.321.019,7.123.023c1.121.012,2.179-.009,3.242.031a3.986,3.986,0,0,1,2.707,1.448,4.4,4.4,0,0,1,1.006,2.718q-.006,1.358-.011,2.562a8.568,8.568,0,0,1-.171,2.242,4.192,4.192,0,0,1-.878,1.659,3.83,3.83,0,0,1-2.127,1.277,2.629,2.629,0,0,1-.855.052" transform="translate(-143.775 -13.809)" fill="#263238"/>
                <path id="Trazado_220970" data-name="Trazado 220970" d="M205.851,173.642H109.427a6.1,6.1,0,0,1-6.1-6.1V157.467a6.1,6.1,0,0,1,6.1-6.1h96.424a6.1,6.1,0,0,1,6.1,6.1v10.071a6.1,6.1,0,0,1-6.1,6.1" transform="translate(-30.047 -44.017)" fill="#e0e0e0"/>
                <path id="Trazado_220971" data-name="Trazado 220971" d="M64.273.24,422.972,0h.182V.24c.006,102.563.012,218.09.018,339.871v.3h-.2l-358.7-.049H64.11v-.215c.1-206.3.162-338.14.163-339.911,0,1.769.064,133.607.163,339.911l-.163-.215,358.7-.049-.2.264v-.039c.006-121.782.013-237.308.018-339.871l.182.24L64.273.24" transform="translate(-18.644)" fill="#263238"/>
                <path id="Trazado_220972" data-name="Trazado 220972" d="M474.193,186.548s-.01-.45-.015-1.314-.009-2.147-.016-3.82c-.008-3.354-.021-8.286-.036-14.619-.018-12.657-.043-30.915-.075-53.347l.142.142-128.56.043h-.009l.184-.184c0,25.861-.009,50.583-.013,73.1l-.172-.172,92.482.084,26.556.047,7.076.021,1.828.01c.411,0,.626.011.626.011s-.2.007-.606.01l-1.808.011-7.042.021-26.517.047-92.6.084h-.172v-.172c0-22.518-.008-47.24-.013-73.1v-.184h.194l128.56.043h.142v.142c-.032,22.469-.057,40.757-.075,53.435-.016,6.32-.028,11.24-.036,14.587-.006,1.662-.012,2.933-.016,3.795s-.015,1.284-.015,1.284" transform="translate(-100.456 -32.937)" fill="#12263f"/>
                <path id="Trazado_220973" data-name="Trazado 220973" d="M471.737,113.388s-.1.077-.308.211l-.923.587-3.566,2.225c-3.1,1.928-7.6,4.688-13.184,8.07-11.161,6.768-26.666,15.974-43.953,25.864s-33.089,18.594-44.572,24.8c-5.742,3.1-10.4,5.591-13.63,7.29l-3.722,1.952c-.417.214-.74.381-.972.5s-.337.159-.337.159.1-.07.319-.192l.955-.532,3.689-2.013,13.573-7.393c11.45-6.262,27.224-15,44.514-24.89s32.807-19.058,44-25.767l13.244-7.969,3.6-2.166.941-.555c.214-.124.328-.179.328-.179" transform="translate(-100.785 -32.974)" fill="#12263f"/>
                <path id="Trazado_220974" data-name="Trazado 220974" d="M473.307,186.882c-.051.089-28.259-16.064-62.995-36.073s-62.868-36.309-62.817-36.4,28.252,16.061,63,36.077,62.861,36.3,62.81,36.393" transform="translate(-101.054 -33.271)" fill="#12263f"/>
                <path id="Trazado_220975" data-name="Trazado 220975" d="M471.835,267.746c0,.143-28.1.259-62.746.259s-62.752-.116-62.752-.259,28.09-.258,62.752-.258,62.746.116,62.746.258" transform="translate(-100.717 -77.787)" fill="#263238"/>
                <path id="Trazado_220976" data-name="Trazado 220976" d="M471.835,278.474c0,.143-28.1.258-62.746.258s-62.752-.116-62.752-.258,28.09-.258,62.752-.258,62.746.116,62.746.258" transform="translate(-100.717 -80.906)" fill="#263238"/>
                <path id="Trazado_220977" data-name="Trazado 220977" d="M402.708,305.188c0,.131-12.316.237-27.506.237s-27.508-.106-27.508-.237,12.314-.237,27.508-.237,27.506.106,27.506.237" transform="translate(-101.112 -88.681)" fill="#263238"/>
                <path id="Trazado_220978" data-name="Trazado 220978" d="M456.324,292.255c0,.131-24.32.237-54.313.237s-54.319-.106-54.319-.237,24.315-.237,54.319-.237,54.313.106,54.313.237" transform="translate(-101.111 -84.92)" fill="#263238"/>
                <path id="Trazado_220979" data-name="Trazado 220979" d="M482.473,301.2s-.009-.35-.013-1.025-.008-1.677-.013-2.989c-.007-2.63-.018-6.506-.031-11.512-.016-10.007-.04-24.53-.069-42.628l.126.127-156.193.058h-.011l.185-.185c0,20.3-.005,39.938-.007,58.155l-.178-.178,111.916.084,32.544.05,8.716.022c.989.006,1.743.009,2.255.011s.773.011.773.011-.25.008-.751.012l-2.234.011-8.679.023-32.5.05-112.037.084h-.177V301.2c0-18.216,0-37.855-.007-58.155v-.185h.2l156.193.06h.126v.126c-.029,18.131-.052,32.68-.069,42.7-.013,4.995-.024,8.86-.031,11.484-.006,1.3-.01,2.294-.013,2.967s-.013,1-.013,1" transform="translate(-94.828 -70.625)" fill="#263238"/>
                <path id="Trazado_220980" data-name="Trazado 220980" d="M116.04,53.913a7.956,7.956,0,1,1-7.948-7.593,7.777,7.777,0,0,1,7.948,7.593" transform="translate(-29.123 -13.47)" fill="#fb8c00"/>
                <rect id="Rectángulo_57286" data-name="Rectángulo 57286" width="56.173" height="39.08" transform="translate(20.036 132.444)" fill="#b2ebf2"/>
                <path id="Trazado_220981" data-name="Trazado 220981" d="M84.462,186.753c.059.084-12.449,8.977-27.934,19.862s-28.09,19.645-28.149,19.562,12.447-8.976,27.937-19.864,28.088-19.643,28.146-19.56" transform="translate(-8.252 -54.308)" fill="#263238"/>
                <path id="Trazado_220982" data-name="Trazado 220982" d="M84.8,225.763a.651.651,0,0,1-.153-.086l-.43-.282-1.63-1.116-5.955-4.158L57.064,206.289,37.555,192.366l-5.886-4.254-1.589-1.172-.408-.312a.643.643,0,0,1-.131-.116.647.647,0,0,1,.154.086l.429.282L31.753,188l5.955,4.158,19.57,13.834,19.5,13.919,5.887,4.254,1.591,1.172.408.312a.648.648,0,0,1,.132.117" transform="translate(-8.59 -54.239)" fill="#263238"/>
              </g>
            </g>
            <g id="Grupo_177768" data-name="Grupo 177768" transform="translate(-11.795 88.604)">
              <g id="Grupo_177767" data-name="Grupo 177767" clip-path="url(#clip-path-2)">
                <path id="Trazado_220984" data-name="Trazado 220984" d="M160.852,328.137c0,.1-10.162.185-22.694.185s-22.7-.083-22.7-.185,10.16-.184,22.7-.184,22.694.082,22.694.184" transform="translate(-33.577 -95.37)" fill="#ebebeb"/>
                <path id="Trazado_220985" data-name="Trazado 220985" d="M194.351,339.622c0,.1-10.162.184-22.694.184s-22.7-.082-22.7-.184,10.16-.184,22.7-.184,22.694.082,22.694.184" transform="translate(-43.319 -98.71)" fill="#ebebeb"/>
                <path id="Trazado_220986" data-name="Trazado 220986" d="M264.058,328.137c0,.1-10.162.185-22.694.185s-22.7-.083-22.7-.185,10.16-.184,22.7-.184,22.694.082,22.694.184" transform="translate(-63.59 -95.37)" fill="#ebebeb"/>
                <path id="Trazado_220987" data-name="Trazado 220987" d="M201.632,328.128a51.006,51.006,0,0,1-6.127.184,51,51,0,0,1-6.127-.184,50.991,50.991,0,0,1,6.127-.184,51,51,0,0,1,6.127.184" transform="translate(-55.072 -95.368)" fill="#ebebeb"/>
                <path id="Trazado_220988" data-name="Trazado 220988" d="M129.595,339.622a51.008,51.008,0,0,1-6.128.184,50.984,50.984,0,0,1-6.127-.184,51,51,0,0,1,6.127-.184,51.02,51.02,0,0,1,6.128.184" transform="translate(-34.123 -98.71)" fill="#ebebeb"/>
                <path id="Trazado_220989" data-name="Trazado 220989" d="M233.036,339.137a47.269,47.269,0,0,1-5.9.184,47.268,47.268,0,0,1-5.9-.184,47.2,47.2,0,0,1,5.9-.184,47.2,47.2,0,0,1,5.9.184" transform="translate(-64.339 -98.569)" fill="#ebebeb"/>
                <path id="Trazado_220990" data-name="Trazado 220990" d="M160.852,354.436c0,.1-10.162.184-22.694.184s-22.7-.082-22.7-.184,10.16-.184,22.7-.184,22.694.082,22.694.184" transform="translate(-33.577 -103.018)" fill="#ebebeb"/>
                <path id="Trazado_220991" data-name="Trazado 220991" d="M194.351,365.921c0,.1-10.162.185-22.694.185s-22.7-.082-22.7-.185,10.16-.184,22.7-.184,22.694.082,22.694.184" transform="translate(-43.319 -106.358)" fill="#ebebeb"/>
                <path id="Trazado_220992" data-name="Trazado 220992" d="M264.058,354.436c0,.1-10.162.184-22.694.184s-22.7-.082-22.7-.184,10.16-.184,22.7-.184,22.694.082,22.694.184" transform="translate(-63.59 -103.018)" fill="#ebebeb"/>
                <path id="Trazado_220993" data-name="Trazado 220993" d="M201.632,354.427a51,51,0,0,1-6.127.184,50.991,50.991,0,0,1-6.127-.184,50.979,50.979,0,0,1,6.127-.184,50.989,50.989,0,0,1,6.127.184" transform="translate(-55.072 -103.015)" fill="#ebebeb"/>
                <path id="Trazado_220994" data-name="Trazado 220994" d="M129.595,365.921a50.743,50.743,0,0,1-6.128.185,50.718,50.718,0,0,1-6.127-.185,51.268,51.268,0,0,1,6.127-.184,51.293,51.293,0,0,1,6.128.184" transform="translate(-34.123 -106.358)" fill="#ebebeb"/>
                <path id="Trazado_220995" data-name="Trazado 220995" d="M233.036,365.435a47.237,47.237,0,0,1-5.9.184,47.235,47.235,0,0,1-5.9-.184,47.224,47.224,0,0,1,5.9-.184,47.226,47.226,0,0,1,5.9.184" transform="translate(-64.339 -106.217)" fill="#ebebeb"/>
                <path id="Trazado_220996" data-name="Trazado 220996" d="M161.447,400.032c0,.1-10.162.184-22.694.184s-22.7-.082-22.7-.184,10.16-.184,22.7-.184,22.694.082,22.694.184" transform="translate(-33.75 -116.278)" fill="#ebebeb"/>
                <path id="Trazado_220997" data-name="Trazado 220997" d="M194.946,411.517c0,.1-10.162.184-22.694.184s-22.7-.082-22.7-.184,10.16-.184,22.7-.184,22.694.082,22.694.184" transform="translate(-43.492 -119.618)" fill="#ebebeb"/>
                <path id="Trazado_220998" data-name="Trazado 220998" d="M264.653,400.032c0,.1-10.162.184-22.694.184s-22.7-.082-22.7-.184,10.16-.184,22.7-.184,22.694.082,22.694.184" transform="translate(-63.763 -116.278)" fill="#ebebeb"/>
                <path id="Trazado_220999" data-name="Trazado 220999" d="M202.227,400.023a51.024,51.024,0,0,1-6.127.184,51.015,51.015,0,0,1-6.127-.184,50.98,50.98,0,0,1,6.127-.184,50.988,50.988,0,0,1,6.127.184" transform="translate(-55.245 -116.275)" fill="#ebebeb"/>
                <path id="Trazado_221000" data-name="Trazado 221000" d="M130.19,411.517a51.013,51.013,0,0,1-6.127.184,51,51,0,0,1-6.127-.184,50.988,50.988,0,0,1,6.127-.184,51,51,0,0,1,6.127.184" transform="translate(-34.296 -119.618)" fill="#ebebeb"/>
                <path id="Trazado_221001" data-name="Trazado 221001" d="M233.631,411.032a47.24,47.24,0,0,1-5.9.184,47.239,47.239,0,0,1-5.9-.184,47.238,47.238,0,0,1,5.9-.184,47.24,47.24,0,0,1,5.9.184" transform="translate(-64.512 -119.476)" fill="#ebebeb"/>
                <path id="Trazado_221002" data-name="Trazado 221002" d="M160.852,379.164c0,.1-10.162.185-22.694.185s-22.7-.082-22.7-.185,10.16-.184,22.7-.184,22.694.082,22.694.184" transform="translate(-33.577 -110.209)" fill="#ebebeb"/>
                <path id="Trazado_221003" data-name="Trazado 221003" d="M194.351,390.649c0,.1-10.162.185-22.694.185s-22.7-.083-22.7-.185,10.16-.184,22.7-.184,22.694.082,22.694.184" transform="translate(-43.319 -113.549)" fill="#ebebeb"/>
                <path id="Trazado_221004" data-name="Trazado 221004" d="M264.058,379.164c0,.1-10.162.185-22.694.185s-22.7-.082-22.7-.185,10.16-.184,22.7-.184,22.694.082,22.694.184" transform="translate(-63.59 -110.209)" fill="#ebebeb"/>
                <path id="Trazado_221005" data-name="Trazado 221005" d="M201.632,379.155a50.728,50.728,0,0,1-6.127.185,50.719,50.719,0,0,1-6.127-.185,51.276,51.276,0,0,1,6.127-.184,51.285,51.285,0,0,1,6.127.184" transform="translate(-55.072 -110.206)" fill="#ebebeb"/>
                <path id="Trazado_221006" data-name="Trazado 221006" d="M129.595,390.649a50.9,50.9,0,0,1-6.128.185,50.877,50.877,0,0,1-6.127-.185,51.26,51.26,0,0,1,6.127-.184,51.285,51.285,0,0,1,6.128.184" transform="translate(-34.123 -113.549)" fill="#ebebeb"/>
                <path id="Trazado_221007" data-name="Trazado 221007" d="M233.036,390.163a47.226,47.226,0,0,1-5.9.184,47.225,47.225,0,0,1-5.9-.184,47.253,47.253,0,0,1,5.9-.184,47.255,47.255,0,0,1,5.9.184" transform="translate(-64.339 -113.408)" fill="#ebebeb"/>
                <rect id="Rectángulo_300411" data-name="Rectángulo 300411" width="149.551" height="84.982" transform="translate(66.598 218.904)" fill="#fafafa"/>
                <path id="Trazado_606014" data-name="Trazado 606014" d="M243.382,393.57s-.01-.522-.015-1.525-.009-2.493-.016-4.44c-.008-3.9-.021-9.629-.036-16.992-.018-14.714-.043-35.943-.075-62.025l.142.142-149.54.043h-.011l.185-.184c0,30.063-.009,58.8-.013,84.982l-.172-.172,107.583.084,30.887.047,8.229.021,2.125.011c.478,0,.727.01.727.01s-.235.007-.706.011l-2.1.01-8.194.021-30.848.047-107.7.084H93.66v-.172c0-26.179-.008-54.919-.013-84.982V308.4h.2l149.54.043h.142v.142c-.032,26.12-.057,47.378-.075,62.113-.016,7.349-.028,13.071-.036,16.96-.006,1.935-.012,3.413-.016,4.413s-.015,1.5-.015,1.5" transform="translate(-27.235 -89.685)" fill="#263238"/>
              </g>
            </g>
            <g id="Grupo_177770" data-name="Grupo 177770">
              <g id="Grupo_177769" data-name="Grupo 177769" clip-path="url(#clip-path-2)">
                <path id="Trazado_221012" data-name="Trazado 221012" d="M141.579,101.493l-7.942-4.043a20.769,20.769,0,1,0-1.1,7.358v.012Z" transform="translate(-26.807 -22.506)" fill="#fff"/>
                <path id="Trazado_221013" data-name="Trazado 221013" d="M141.5,101.429l-9.011,3.413a.091.091,0,0,1-.118-.052.087.087,0,0,1-.006-.04v-.012l.179.036a20.722,20.722,0,0,1-5.992,9.006,18.62,18.62,0,0,1-2.652,1.955c-.489.286-.978.592-1.489.872l-1.611.748a20.96,20.96,0,0,1-15.434.209,20.717,20.717,0,0,1-7.361-4.763,21.2,21.2,0,0,1-4.9-7.853,20.509,20.509,0,0,1-.995-9.593,20.878,20.878,0,0,1,3.533-9.19,21.206,21.206,0,0,1,6.988-6.331,20.509,20.509,0,0,1,8.532-2.6,21.079,21.079,0,0,1,14.922,4.7,22.443,22.443,0,0,1,4.475,5.145,20.666,20.666,0,0,1,3.081,10.309l-.048-.076,7.9,4.122-7.982-3.964a.09.09,0,0,1-.048-.076,20.6,20.6,0,0,0-3.12-10.18,22.253,22.253,0,0,0-4.441-5.057A20.823,20.823,0,0,0,111.2,77.567a20.2,20.2,0,0,0-8.385,2.576,20.874,20.874,0,0,0-6.861,6.23A20.549,20.549,0,0,0,92.486,95.4a20.188,20.188,0,0,0,.974,9.424,20.867,20.867,0,0,0,4.8,7.723,20.42,20.42,0,0,0,7.23,4.7,20.7,20.7,0,0,0,15.2-.161l1.592-.73c.506-.274.989-.574,1.474-.854a18.526,18.526,0,0,0,2.628-1.916,20.644,20.644,0,0,0,5.988-8.869.092.092,0,0,1,.116-.058.094.094,0,0,1,.063.094v.011l-.123-.093,9.075-3.24" transform="translate(-26.733 -22.442)" fill="#263238"/>
                <path id="Trazado_221014" data-name="Trazado 221014" d="M128.039,109.579a2.108,2.108,0,0,1,.32-.363l.926-.93c.789-.779,1.889-1.845,3.113-3.013l.028-.026v.157c-1.233-1.145-2.34-2.19-3.133-2.953l-.932-.912a2.084,2.084,0,0,1-.322-.356,2.038,2.038,0,0,1,.378.294l.979.862c.82.735,1.943,1.762,3.176,2.907l.084.078-.084.079-.028.026c-1.223,1.167-2.34,2.216-3.156,2.967l-.973.881a2.1,2.1,0,0,1-.377.3" transform="translate(-37.234 -29.424)" fill="#263238"/>
                <path id="Trazado_221015" data-name="Trazado 221015" d="M128,109.635a.081.081,0,0,1-.06-.033l0,0c-.066-.072-.045-.1.321-.484l.928-.932c.8-.791,1.858-1.816,2.991-2.9-1.118-1.039-2.172-2.033-2.981-2.812l-.933-.913c-.353-.356-.4-.4-.325-.48s.116-.04.5.288l.979.862c.834.748,1.911,1.733,3.045,2.784l.014-.013v.027l.119.111.153.143-.179.171-.091.086v.029l-.016-.014c-1.155,1.1-2.235,2.115-3.051,2.867l-.974.882c-.279.245-.379.33-.44.33m4.307-4.226c-.867.828-1.692,1.625-2.391,2.307.707-.658,1.541-1.445,2.419-2.281l-.005,0-.023-.022m.172-.134v.023l.013-.012Zm-2.542-2.335c.7.665,1.516,1.433,2.369,2.226l.028-.026c-.859-.8-1.685-1.555-2.4-2.2" transform="translate(-37.196 -29.386)" fill="#263238"/>
                <path id="Trazado_221016" data-name="Trazado 221016" d="M112.725,101.182a2.114,2.114,0,0,1-.32.363l-.926.93c-.789.779-1.889,1.845-3.112,3.012l-.028.027v-.157c1.233,1.145,2.34,2.19,3.133,2.953l.932.912a2.089,2.089,0,0,1,.322.356,2.073,2.073,0,0,1-.378-.294l-.979-.862c-.82-.735-1.943-1.762-3.176-2.907l-.084-.078.084-.079.028-.026c1.223-1.167,2.34-2.216,3.155-2.967l.974-.881a2.1,2.1,0,0,1,.377-.3" transform="translate(-31.438 -29.424)" fill="#263238"/>
                <path id="Trazado_221017" data-name="Trazado 221017" d="M112.677,109.634c-.059,0-.159-.08-.44-.321l-.979-.863c-.821-.735-1.9-1.719-3.042-2.782l-.016.015v-.029l-.121-.111-.153-.143.179-.17.091-.086v-.03l.016.015c1.155-1.1,2.235-2.115,3.052-2.867l.974-.882c.384-.338.429-.372.5-.3s.029.124-.32.485l-.928.932c-.794.784-1.852,1.808-2.991,2.9,1.131,1.051,2.185,2.045,2.981,2.812l.933.913c.357.36.394.4.326.479a.082.082,0,0,1-.061.034m-4.335-4.089c.866.8,1.691,1.56,2.4,2.2-.692-.658-1.508-1.425-2.368-2.225Zm-.158-.147.013.011v-.024Zm.156-.15,0,0,.023.022c.872-.833,1.7-1.629,2.393-2.308-.708.659-1.542,1.445-2.421,2.282" transform="translate(-31.385 -29.386)" fill="#263238"/>
                <path id="Trazado_221018" data-name="Trazado 221018" d="M118.062,110.7c-.055-.021.943-2.829,2.231-6.271s2.377-6.218,2.433-6.2-.943,2.828-2.231,6.272-2.377,6.217-2.433,6.2" transform="translate(-34.333 -28.566)" fill="#263238"/>
                <path id="Trazado_221019" data-name="Trazado 221019" d="M118.036,110.752a.1.1,0,0,1-.039-.01h0c-.107-.04-.123-.047.56-1.965.421-1.185,1-2.755,1.62-4.42s1.219-3.226,1.679-4.4c.743-1.894.76-1.889.867-1.85s.123.047-.559,1.966c-.422,1.185-1,2.755-1.62,4.421s-1.218,3.225-1.679,4.4c-.648,1.65-.745,1.86-.828,1.86m3.651-9.875c-.374.966-.83,2.165-1.345,3.542s-.957,2.58-1.31,3.554c.374-.966.83-2.165,1.345-3.541s.958-2.581,1.31-3.555" transform="translate(-34.298 -28.528)" fill="#263238"/>
              </g>
            </g>
            <g id="Grupo_177784" data-name="Grupo 177784" transform="translate(-11.795 88.604)">
              <g id="Grupo_177783" data-name="Grupo 177783" clip-path="url(#clip-path-2)">
                <path id="Trazado_221020" data-name="Trazado 221020" d="M195.8,78.724a8.67,8.67,0,0,1,7.637-7.266,11.248,11.248,0,0,0,2.957-.333,16.875,16.875,0,0,0,2.122-1.212,5.792,5.792,0,0,1,7.076,1.477c1.518,1.94,2.136-.76,5.719,1.371,2.968,1.764,1.42,4.219,1.42,4.219a6.648,6.648,0,0,1,6.593,5.258c.352,1.915-.037,4.245,1.455,5.5.723.606,1.731.773,2.478,1.35,1.389,1.072,1.437,3.14,1.123,4.866s-.852,3.547-.211,5.18c1.05,2.676,4.86,3.739,5.331,6.575.222,1.339-.341,2.945.591,3.931a4.608,4.608,0,0,0,1.4.822,6.062,6.062,0,0,1,.227,10.768c-.542.294-1.186.566-1.393,1.147-.232.647.2,1.321.506,1.935a5.828,5.828,0,0,1-8.29,7.556,9.115,9.115,0,0,1-5.356,4.254A5.529,5.529,0,0,1,224,136.2a6.337,6.337,0,0,1-2.186-1.349c-3.1-2.7-7.449-6.834-7.734-10.935" transform="translate(-56.939 -20.148)" fill="#263238"/>
                <path id="Trazado_221021" data-name="Trazado 221021" d="M274.7,150.6l-18.579,17.01c-2.307-.532-30.6-17.443-30.6-17.443l-4.472,21.76s28.953,13.31,36.92,11.7c1.3-.264,3.44-.43,4.782-2.154,6.374-8.191,19.9-28.456,19.9-28.456Z" transform="translate(-64.285 -43.669)" fill="#ffbe9d"/>
                <path id="Trazado_221022" data-name="Trazado 221022" d="M305.258,124.279c-1.226.5-5.608,7.888-5.608,7.888l-1.1.059a3.493,3.493,0,0,0-3.277,3.906c.365,3.081,1,6.876,1,6.876l6.132,2.795,1.819-.383c1.689-.089,3.333-3.522,4.374-5.946s-.665-2.9-.665-2.9c.018-2.407-2.035-1.928-2.035-1.928a2.1,2.1,0,0,0-2.193-2.085,63.186,63.186,0,0,0,3.252-6.73c.53-1.752-.479-2.053-1.706-1.552" transform="translate(-85.861 -36.077)" fill="#ffbe9d"/>
                <path id="Trazado_221023" data-name="Trazado 221023" d="M308.356,138.175a11.364,11.364,0,0,1-.639,1.548,5.969,5.969,0,0,1-.382.769,3.23,3.23,0,0,1-.669.741,2.316,2.316,0,0,1-1,.51,1.5,1.5,0,0,1-1.185-.282,1.085,1.085,0,0,1-.351-.545,1.472,1.472,0,0,1-.019-.613,6.334,6.334,0,0,1,.316-1.048,12.8,12.8,0,0,1,.755-1.664,10.638,10.638,0,0,1,.645-1.047,1.482,1.482,0,0,1,.286-.35c.033.022-.324.555-.778,1.477a15.294,15.294,0,0,0-.7,1.661,6.6,6.6,0,0,0-.291,1.007.954.954,0,0,0,.29.933,1.273,1.273,0,0,0,.989.235,2.135,2.135,0,0,0,.895-.45,3.115,3.115,0,0,0,.643-.678,6.343,6.343,0,0,0,.394-.73,11.3,11.3,0,0,1,.8-1.474" transform="translate(-88.432 -39.606)" fill="#eb996e"/>
                <path id="Trazado_221024" data-name="Trazado 221024" d="M311.475,140.576a1.461,1.461,0,0,1-.1.424,10.877,10.877,0,0,1-.4,1.115,5.481,5.481,0,0,1-.929,1.511,2.411,2.411,0,0,1-.852.655,1.071,1.071,0,0,1-1.532-1.236,5.172,5.172,0,0,1,.279-1.018c.219-.625.451-1.175.662-1.628s.4-.81.543-1.052a1.4,1.4,0,0,1,.244-.361c.033.018-.248.566-.629,1.482-.19.458-.4,1.009-.607,1.631a5.131,5.131,0,0,0-.255.974.838.838,0,0,0,1.2.986,2.241,2.241,0,0,0,.777-.586,5.723,5.723,0,0,0,.938-1.431c.419-.895.62-1.483.66-1.467" transform="translate(-89.465 -40.418)" fill="#eb996e"/>
                <path id="Trazado_221025" data-name="Trazado 221025" d="M313.466,143.528a2.919,2.919,0,0,1-.241,1.145,5.826,5.826,0,0,1-.562,1.147,3.2,3.2,0,0,1-.471.611.949.949,0,0,1-.835.277.806.806,0,0,1-.581-.67,2.058,2.058,0,0,1,.045-.784,5.142,5.142,0,0,1,.455-1.2,9.728,9.728,0,0,1,.547-1.025,3.837,3.837,0,0,1-.39,1.1,5.831,5.831,0,0,0-.391,1.17,1.9,1.9,0,0,0-.03.693.575.575,0,0,0,.4.477.723.723,0,0,0,.621-.214,3.23,3.23,0,0,0,.444-.557,6.717,6.717,0,0,0,.591-1.088c.277-.652.362-1.091.4-1.082" transform="translate(-90.369 -41.594)" fill="#eb996e"/>
                <path id="Trazado_221026" data-name="Trazado 221026" d="M299.906,135.555c1.574-.062,3.9-.067,5.416.048a1.977,1.977,0,0,1-1.076,2.339,5.513,5.513,0,0,1-2.766.4,3.539,3.539,0,0,1-.076,5.252" transform="translate(-87.215 -39.407)" fill="#ffbe9d"/>
                <path id="Trazado_221027" data-name="Trazado 221027" d="M301.4,143.556a4.678,4.678,0,0,0,.883-1.38,3.472,3.472,0,0,0,.182-1.795,3.527,3.527,0,0,0-1.069-1.992l-.225-.209.309.007a6.043,6.043,0,0,0,2.482-.287,1.916,1.916,0,0,0,1.252-2.29l.1.07c-1.577-.116-2.932-.118-3.888-.13l-1.118-.008a1.7,1.7,0,0,1-.4-.023,1.589,1.589,0,0,1,.4-.051c.26-.021.639-.04,1.118-.057.959-.028,2.315-.057,3.908.043l.068,0,.028.065a1.745,1.745,0,0,1-.14,1.525,2.446,2.446,0,0,1-1.228,1.078,6.125,6.125,0,0,1-2.583.294l.083-.2a3.686,3.686,0,0,1,1.106,2.132,3.534,3.534,0,0,1-.243,1.879,3.421,3.421,0,0,1-.678,1.04,1.278,1.278,0,0,1-.34.286" transform="translate(-87.215 -39.37)" fill="#eb996e"/>
                <path id="Trazado_221028" data-name="Trazado 221028" d="M249.485,408.1a1.484,1.484,0,0,0,.279-.612,4.449,4.449,0,0,0,.145-1.834,2.388,2.388,0,0,0-.145-.622.769.769,0,0,0-.607-.49.546.546,0,0,0-.451.155.738.738,0,0,0-.187.416,4.621,4.621,0,0,0,.015.772c.04.515.04,1.008.122,1.6a.971.971,0,0,0,.63.763,1.938,1.938,0,0,0,.954.038,7.567,7.567,0,0,0,1.671-.494,7.865,7.865,0,0,0,.743-.367,2.172,2.172,0,0,0,.674-.51.716.716,0,0,0,.018-.909.857.857,0,0,0-.81-.194,4.987,4.987,0,0,0-1.2.493,6.5,6.5,0,0,0-1.472,1.09c-.3.308-.438.506-.42.523a12.891,12.891,0,0,1,2.022-1.36,5.137,5.137,0,0,1,1.122-.417.541.541,0,0,1,.489.1.362.362,0,0,1-.046.449,1.888,1.888,0,0,1-.567.4,7.619,7.619,0,0,1-.709.34,7.436,7.436,0,0,1-1.585.46,1.567,1.567,0,0,1-.752-.018.567.567,0,0,1-.38-.468c-.072-.489-.091-1.06-.138-1.55a4.769,4.769,0,0,1-.033-.7c.023-.2.112-.3.256-.287.332.022.447.466.5.822a6.438,6.438,0,0,1-.143,2.4" transform="translate(-72.267 -117.641)" fill="#263238"/>
                <path id="Trazado_221029" data-name="Trazado 221029" d="M291.539,367.879a1.5,1.5,0,0,0-.02-.672,4.464,4.464,0,0,0-.679-1.71,2.4,2.4,0,0,0-.4-.494.768.768,0,0,0-.761-.172.542.542,0,0,0-.336.338.724.724,0,0,0,.016.456,4.6,4.6,0,0,0,.354.686c.264.444.482.886.818,1.387a.971.971,0,0,0,.9.406,1.939,1.939,0,0,0,.872-.387,7.549,7.549,0,0,0,1.281-1.181,7.628,7.628,0,0,0,.5-.658,2.166,2.166,0,0,0,.38-.755.716.716,0,0,0-.385-.823.857.857,0,0,0-.812.184,5.009,5.009,0,0,0-.856.969,6.479,6.479,0,0,0-.839,1.628,1.67,1.67,0,0,0-.146.655,12.89,12.89,0,0,1,1.213-2.113,5.117,5.117,0,0,1,.823-.869.541.541,0,0,1,.482-.128.362.362,0,0,1,.157.423,1.9,1.9,0,0,1-.332.61,7.654,7.654,0,0,1-.487.618,7.486,7.486,0,0,1-1.218,1.113,1.591,1.591,0,0,1-.684.316.568.568,0,0,1-.547-.252c-.28-.408-.549-.911-.808-1.329a4.794,4.794,0,0,1-.339-.613c-.068-.192-.031-.316.1-.369.307-.127.606.221.815.516a6.439,6.439,0,0,1,.933,2.22" transform="translate(-84.132 -105.928)" fill="#263238"/>
                <path id="Trazado_221030" data-name="Trazado 221030" d="M253.532,374.651l-8.654,18.755-13.965-6.451,8.951-23.212Z" transform="translate(-67.151 -105.778)" fill="#ffbe9d"/>
                <path id="Trazado_221031" data-name="Trazado 221031" d="M243.171,400.561l-5.056,9.642s12.942,13.382,11.727,16.373l-30.424-14.587,8.359-19.339Z" transform="translate(-63.808 -114.184)" fill="#43a99b"/>
                <path id="Trazado_221032" data-name="Trazado 221032" d="M232.765,409.173a1.378,1.378,0,0,0-1.539,1.006,1.325,1.325,0,0,0,.984,1.535,1.454,1.454,0,0,0,1.624-1.074,1.375,1.375,0,0,0-1.2-1.482" transform="translate(-67.234 -118.984)" fill="#e0e0e0"/>
                <g id="Grupo_177773" data-name="Grupo 177773" transform="translate(155.609 295.379)" opacity="0.6">
                  <g id="Grupo_177772" data-name="Grupo 177772">
                    <g id="Grupo_177771" data-name="Grupo 177771" clip-path="url(#clip-path-7)">
                      <path id="Trazado_221033" data-name="Trazado 221033" d="M219.417,418.924l1.266-2.425,28.7,14.893s1.072,1.238.462,2.119Z" transform="translate(-219.417 -416.499)" fill="#fff"/>
                    </g>
                  </g>
                </g>
                <path id="Trazado_221034" data-name="Trazado 221034" d="M245.112,417.266c-.076.146-.851-.143-1.811-.015-.963.1-1.649.565-1.757.44-.123-.1.525-.877,1.689-1.01s1.977.464,1.879.584" transform="translate(-70.238 -121.167)" fill="#263238"/>
                <path id="Trazado_221035" data-name="Trazado 221035" d="M248.936,421.424c-.035.16-.8.1-1.606.491-.817.363-1.27.982-1.415.9-.151-.043.164-.962,1.174-1.424s1.91-.114,1.846.03" transform="translate(-71.503 -122.475)" fill="#263238"/>
                <path id="Trazado_221036" data-name="Trazado 221036" d="M250.141,427.3c-.15-.033,0-.874.771-1.5s1.621-.622,1.625-.468c.026.162-.635.383-1.26.911-.638.512-.981,1.118-1.135,1.062" transform="translate(-72.727 -123.661)" fill="#263238"/>
                <path id="Trazado_221037" data-name="Trazado 221037" d="M247.3,411.647c-.127.106-.711-.426-1.578-.772-.859-.364-1.648-.395-1.664-.56-.035-.148.867-.393,1.882.029s1.489,1.22,1.36,1.3" transform="translate(-70.973 -119.262)" fill="#263238"/>
                <path id="Trazado_221038" data-name="Trazado 221038" d="M232.541,351.232l22.043-54.852s-.513-9.74-2.306-12.817-56.134-21.018-56.134-21.018-13.841-3.332-23.069,0-16.148,14.866-14.866,21.274,6.69,11.115,6.69,11.115l39.959,1.188,21.78,7.946-14.667,42.036s7.5,8.2,20.569,5.127" transform="translate(-45.964 -75.919)" fill="#263238"/>
                <path id="Trazado_221039" data-name="Trazado 221039" d="M283.607,334.811l.514,20.649-15.377.376-2.216-24.779Z" transform="translate(-77.508 -96.273)" fill="#ffbe9d"/>
                <path id="Trazado_221040" data-name="Trazado 221040" d="M285.529,362.741l-.281,10.883s17.521,6.294,17.75,9.515l-33.739.342-1.038-21.043Z" transform="translate(-78.001 -105.399)" fill="#43a99b"/>
                <path id="Trazado_221041" data-name="Trazado 221041" d="M277.1,376.274a1.378,1.378,0,0,0-.937,1.582,1.325,1.325,0,0,0,1.56.942,1.453,1.453,0,0,0,.983-1.68,1.374,1.374,0,0,0-1.731-.8" transform="translate(-80.301 -109.405)" fill="#e0e0e0"/>
                <g id="Grupo_177776" data-name="Grupo 177776" transform="translate(191.259 275.347)" opacity="0.6">
                  <g id="Grupo_177775" data-name="Grupo 177775">
                    <g id="Grupo_177774" data-name="Grupo 177774" clip-path="url(#clip-path-8)">
                      <path id="Trazado_221042" data-name="Trazado 221042" d="M269.685,390.988l.065-2.735,32.324.7s1.508.638,1.35,1.7Z" transform="translate(-269.685 -388.253)" fill="#fff"/>
                    </g>
                  </g>
                </g>
                <path id="Trazado_221043" data-name="Trazado 221043" d="M291.746,377.9c0,.164-.827.248-1.632.786-.819.517-1.23,1.235-1.382,1.171-.152-.03.084-1.018,1.069-1.652s1.979-.457,1.945-.3" transform="translate(-83.953 -109.852)" fill="#263238"/>
                <path id="Trazado_221044" data-name="Trazado 221044" d="M297.1,379.947c.039.159-.672.447-1.224,1.149-.573.686-.706,1.441-.871,1.436-.155.027-.278-.937.425-1.8s1.664-.945,1.669-.788" transform="translate(-85.755 -110.472)" fill="#263238"/>
                <path id="Trazado_221045" data-name="Trazado 221045" d="M300.82,384.746c-.149.037-.387-.784.027-1.69s1.181-1.274,1.252-1.137c.1.135-.4.623-.729,1.373-.346.741-.386,1.437-.55,1.454" transform="translate(-87.421 -111.056)" fill="#263238"/>
                <path id="Trazado_221046" data-name="Trazado 221046" d="M291.085,372.122c-.067.151-.826-.069-1.756,0-.933.053-1.654.374-1.741.233-.1-.118.6-.735,1.7-.8s1.874.438,1.795.568" transform="translate(-83.63 -108.047)" fill="#263238"/>
                <path id="Trazado_221047" data-name="Trazado 221047" d="M258.7,255.449s9.213-.737,10.239,9.26,2.032,56.648,2.032,56.648l-21.53,1.794-3.333-47.675-34.346-14.61s40.787-6.7,46.939-5.416" transform="translate(-61.582 -74.238)" fill="#263238"/>
                <path id="Trazado_221048" data-name="Trazado 221048" d="M203.653,236.495s5.592,15.677,4.527,17.425-15.444,8.937-15.444,8.937l-35.98,13.819a30.153,30.153,0,0,1-3.7-14.908c0-9.029,12.515-25.272,12.515-25.272Z" transform="translate(-44.511 -68.774)" fill="#263238"/>
                <path id="Trazado_221049" data-name="Trazado 221049" d="M209.361,262.025a.781.781,0,0,0,.169.091l.511.236,1.993.886,7.478,3.259,25.822,11.115-.116-.164c.326,4.709.679,9.8,1.044,15.058.875,12.3,1.682,23.642,2.32,32.615l.012.162.161-.014,15.686-1.377,4.318-.4,1.129-.117a2.269,2.269,0,0,0,.384-.057,2.43,2.43,0,0,0-.389.008l-1.133.071-4.326.317-15.7,1.239.173.148c-.616-8.975-1.395-20.318-2.24-32.621-.37-5.262-.728-10.348-1.06-15.056l-.008-.118-.109-.046-25.878-10.985-7.523-3.154-2.018-.828-.524-.206a.839.839,0,0,0-.182-.06" transform="translate(-60.884 -76.198)" fill="#455a64"/>
                <path id="Trazado_221050" data-name="Trazado 221050" d="M169.013,262.529a5.25,5.25,0,0,0,1.01-.276l2.709-.874a59.218,59.218,0,0,1,9.066-2.291,26.592,26.592,0,0,1,9.282.119,37.169,37.169,0,0,1,3.719,1.078,4.434,4.434,0,0,0-.935-.474,16.627,16.627,0,0,0-2.723-.882,24.954,24.954,0,0,0-9.4-.239,50.426,50.426,0,0,0-9.1,2.419c-1.134.4-2.045.747-2.67.995a5.2,5.2,0,0,0-.958.423" transform="translate(-49.15 -75.133)" fill="#455a64"/>
                <path id="Trazado_221051" data-name="Trazado 221051" d="M176.184,252.456a26.339,26.339,0,0,1,3.146-.018c.968.067,2.121.216,3.406.365s2.689.325,4.145.6a19.286,19.286,0,0,1,7.05,2.616,21.778,21.778,0,0,1,2.445,1.97,2.712,2.712,0,0,0-.522-.677,10.8,10.8,0,0,0-1.764-1.528,18.049,18.049,0,0,0-7.134-2.774c-1.475-.279-2.894-.442-4.18-.574s-2.447-.248-3.432-.28a12.9,12.9,0,0,0-2.328.1,2.7,2.7,0,0,0-.833.2" transform="translate(-51.235 -73.325)" fill="#455a64"/>
                <path id="Trazado_221052" data-name="Trazado 221052" d="M225.653,149.4a11.664,11.664,0,0,1,5.976,5.193c2.243,3.974,1.645,5.936,1.058,8.283s-1.621,7.009-1.679,6.708-5.355-20.184-5.355-20.184" transform="translate(-65.621 -43.446)" fill="#ffbe9d"/>
                <path id="Trazado_221053" data-name="Trazado 221053" d="M212.46,147.963l-4.718-2.8-26.591-.7L190.1,173.84l16.2,10.2,9.6-4.8.96-10.677Z" transform="translate(-52.68 -42.01)" fill="#ffbe9d"/>
                <path id="Trazado_221054" data-name="Trazado 221054" d="M205.989,147.869s6.115,19.62,5.976,25.237-2.47,21.571-2.2,24.716-.828,11.815-4.662,11.815H167.022s-8.6-2.378-8.973-7.546,6.615-49.368,6.615-49.368,4.857-7.336,8-8.01,8.988-1.968,11.095,4.548,2.794,9.859,7.288,14.352,10.89,9.542,10.89,9.542,5.167-4.318,5.392-10.161-1.955-15.314-1.955-15.314Z" transform="translate(-45.958 -41.916)" fill="#43a99b"/>
                <path id="Trazado_221055" data-name="Trazado 221055" d="M217.7,233.163a3.58,3.58,0,0,0,1.506-.8,9.107,9.107,0,0,0,2.546-3.227,17.558,17.558,0,0,0,1.3-3.888,6.586,6.586,0,0,0,.262-1.672,7.683,7.683,0,0,0-.538,1.6,24.079,24.079,0,0,1-1.382,3.782,10.237,10.237,0,0,1-2.366,3.184c-.77.676-1.357.955-1.326,1.016" transform="translate(-63.307 -65.018)" fill="#263238"/>
                <path id="Trazado_221056" data-name="Trazado 221056" d="M189.286,201.29a2.957,2.957,0,0,0,.638.54,12.051,12.051,0,0,0,5.22,2.123,11.181,11.181,0,0,0,4.155-.179,13.692,13.692,0,0,0,6.464-3.751,15.969,15.969,0,0,0,1.486-1.725,3.178,3.178,0,0,0,.447-.706c-.058-.045-.748.925-2.13,2.228a14.256,14.256,0,0,1-6.359,3.564,11.644,11.644,0,0,1-7.2-.664c-1.745-.742-2.679-1.5-2.723-1.428" transform="translate(-55.045 -57.46)" fill="#263238"/>
                <path id="Trazado_221057" data-name="Trazado 221057" d="M218.354,234.816c.082.067.606-.533.786-1.469a2.077,2.077,0,0,0-.172-1.657,12.4,12.4,0,0,0-.222,1.58c-.16.845-.489,1.483-.391,1.546" transform="translate(-63.494 -67.376)" fill="#263238"/>
                <g id="Grupo_177779" data-name="Grupo 177779" transform="translate(134.389 140.797)" opacity="0.3">
                  <g id="Grupo_177778" data-name="Grupo 177778">
                    <g id="Grupo_177777" data-name="Grupo 177777" clip-path="url(#clip-path-9)">
                      <path id="Trazado_221058" data-name="Trazado 221058" d="M207.122,198.741a11.091,11.091,0,0,1-3.912,7.482A9.2,9.2,0,0,1,195.061,208a7.883,7.883,0,0,1-5.565-6.046,23.328,23.328,0,0,0,6.076,2.116A11.932,11.932,0,0,0,207.3,198.53l-.31.328" transform="translate(-189.496 -198.53)"/>
                    </g>
                  </g>
                </g>
                <g id="Grupo_177782" data-name="Grupo 177782" transform="translate(155.59 158.985)" opacity="0.3">
                  <g id="Grupo_177781" data-name="Grupo 177781">
                    <g id="Grupo_177780" data-name="Grupo 177780" clip-path="url(#clip-path-10)">
                      <path id="Trazado_221059" data-name="Trazado 221059" d="M223.812,224.351A8.531,8.531,0,0,1,221.1,232.3a1.83,1.83,0,0,1-1.708.579,20.337,20.337,0,0,0,4.378-8.7" transform="translate(-219.39 -224.177)"/>
                    </g>
                  </g>
                </g>
                <path id="Trazado_221060" data-name="Trazado 221060" d="M153.061,174.908l19.189,9s7.822-17.3,8.495-19.67,2.784-6.111.62-11.044-7.612-7.681-11.232-6.41c-8.46,2.97-17.071,28.127-17.071,28.127" transform="translate(-44.511 -42.595)" fill="#43a99b"/>
                <path id="Trazado_221061" data-name="Trazado 221061" d="M229.141,175.294c.9,0,11.183,5.381,11.183,5.381l5.858-19.4c-8.747-5.829-17.684-11.89-22.8-13.264l4.448,15.437Z" transform="translate(-64.96 -43.041)" fill="#43a99b"/>
                <path id="Trazado_221062" data-name="Trazado 221062" d="M168.174,194.664c-3.634,5.971-6.169,9.405-6.169,9.405l32.589,19.848-3.8,8.821-42.267-17.4s-4.166-4.288-2.7-9.066l6.739-18.6Z" transform="translate(-42.318 -54.577)" fill="#ffbe9d"/>
                <path id="Trazado_221063" data-name="Trazado 221063" d="M157.585,213.793a28.569,28.569,0,0,1,3.9-2.026,28.554,28.554,0,0,1,4.279-1.008,10.545,10.545,0,0,0-8.179,3.035" transform="translate(-45.826 -61.268)" fill="#eb996e"/>
                <path id="Trazado_221064" data-name="Trazado 221064" d="M153.061,183.523a1.669,1.669,0,0,1,.381.134l1.062.452,3.878,1.721,12.736,5.806,1.553.716-.243.087c2.214-4.564,4.155-8.646,5.53-11.594.663-1.442,1.206-2.619,1.6-3.485l.432-.943a1.448,1.448,0,0,1,.172-.32,1.405,1.405,0,0,1-.106.347c-.082.223-.2.552-.372.97-.335.839-.846,2.046-1.5,3.535-1.316,2.977-3.218,7.081-5.426,11.651l-.079.162-.164-.075-1.554-.715-12.69-5.9-3.829-1.828-1.033-.514a1.7,1.7,0,0,1-.35-.2" transform="translate(-44.511 -51.21)" fill="#263238"/>
                <path id="Trazado_221065" data-name="Trazado 221065" d="M229.835,161.736a5.25,5.25,0,0,1,.449.911,19.752,19.752,0,0,1,.867,2.632,48.01,48.01,0,0,1,1.318,9.027,63.645,63.645,0,0,1-.09,9.122c-.1,1.164-.233,2.1-.345,2.745a5.366,5.366,0,0,1-.225.99,5.385,5.385,0,0,1,.082-1.01c.068-.647.162-1.584.228-2.745a77.951,77.951,0,0,0-.018-9.08,55.668,55.668,0,0,0-1.2-8.986,26.489,26.489,0,0,0-.747-2.643,5.36,5.36,0,0,1-.315-.963" transform="translate(-66.837 -47.033)" fill="#263238"/>
                <path id="Trazado_221066" data-name="Trazado 221066" d="M238.444,244.823l-8.128-3.888-15.863-1.258-1.294-.9-3.8,8.82s4.159,1.989,6.336,2.166l13.337-.4,6.973.733Z" transform="translate(-60.884 -69.438)" fill="#ffbe9d"/>
                <path id="Trazado_221067" data-name="Trazado 221067" d="M236,101.677a3.41,3.41,0,0,0,1.435-.018,8.455,8.455,0,0,0,5.7-3.688,3.414,3.414,0,0,0,.606-1.3,11.592,11.592,0,0,0-.83,1.143,9.66,9.66,0,0,1-5.532,3.576,11.629,11.629,0,0,0-1.384.288" transform="translate(-68.631 -28.112)" fill="#455a64"/>
                <path id="Trazado_221068" data-name="Trazado 221068" d="M233.073,90.442c-.031.031.281.432.931.93a8.222,8.222,0,0,0,6.047,1.54,3.044,3.044,0,0,0,1.262-.371,10.512,10.512,0,0,1-8.239-2.1" transform="translate(-67.779 -26.299)" fill="#455a64"/>
                <path id="Trazado_221069" data-name="Trazado 221069" d="M249.929,140.974c0,.006.045,0,.129-.019a2.682,2.682,0,0,0,.366-.107,4.637,4.637,0,0,0,1.286-.708,5.006,5.006,0,0,0,1.463-1.809,4.861,4.861,0,0,0,.355-3.057,5.039,5.039,0,0,0-.665-1.69,6.552,6.552,0,0,0-1.309-1.458,6.657,6.657,0,0,1-1.355-1.472,2.014,2.014,0,0,1-.061-1.932,9.734,9.734,0,0,1,1.329-1.81,6.7,6.7,0,0,0,.7-1,3.9,3.9,0,0,0,.4-1.207,4.245,4.245,0,0,0-2.311-4.374,13.823,13.823,0,0,0-2.52-.583,2.882,2.882,0,0,1-1.07-.456,1.742,1.742,0,0,1-.621-.9,3.543,3.543,0,0,1,.25-2.216c.287-.7.687-1.372.954-2.092a3.364,3.364,0,0,0,.152-2.25,3.577,3.577,0,0,0-1.276-1.7,9.881,9.881,0,0,0-3.437-1.451,7.533,7.533,0,0,1-2.714-1.236,3.374,3.374,0,0,1-1.136-1.885,2.181,2.181,0,0,1,.135-1.387c.14-.3.276-.416.256-.433a1.2,1.2,0,0,0-.325.4,2.182,2.182,0,0,0-.213,1.45,3.485,3.485,0,0,0,1.143,2.023,7.607,7.607,0,0,0,2.776,1.334,9.745,9.745,0,0,1,3.32,1.443,3.252,3.252,0,0,1,1.147,1.551,3.023,3.023,0,0,1-.16,2.023c-.257.684-.652,1.334-.963,2.081a3.879,3.879,0,0,0-.27,2.461,2.125,2.125,0,0,0,.753,1.095,3.26,3.26,0,0,0,1.212.526,14.049,14.049,0,0,1,2.45.56,3.875,3.875,0,0,1,2.094,3.968,3.531,3.531,0,0,1-.352,1.079,6.4,6.4,0,0,1-.657.945,9.868,9.868,0,0,0-1.365,1.893,2.367,2.367,0,0,0,.09,2.254,6.859,6.859,0,0,0,1.435,1.54,6.306,6.306,0,0,1,1.271,1.378,4.808,4.808,0,0,1,.65,1.586,4.675,4.675,0,0,1-.284,2.91,4.948,4.948,0,0,1-1.361,1.781,6.319,6.319,0,0,1-1.686.953" transform="translate(-69.402 -30.169)" fill="#455a64"/>
                <path id="Trazado_221070" data-name="Trazado 221070" d="M194.593,89.226l.061-2.918,17.645-2.62c5.422-.352,11.041,5.3,11.163,10.728.135,6.035.062,13.409-.833,17.872-1.8,8.973-8.77,9.842-8.77,9.842l-.4,8.964-19.984-.56Z" transform="translate(-56.263 -24.332)" fill="#ffbe9d"/>
                <path id="Trazado_221071" data-name="Trazado 221071" d="M231.594,107.72a1.159,1.159,0,0,1-1.164,1.123,1.108,1.108,0,0,1-1.151-1.093,1.159,1.159,0,0,1,1.162-1.124,1.11,1.11,0,0,1,1.153,1.094" transform="translate(-66.676 -31.008)" fill="#263238"/>
                <path id="Trazado_221072" data-name="Trazado 221072" d="M230.971,103.584c-.15.145-1-.54-2.247-.587-1.245-.065-2.186.539-2.314.381-.064-.07.094-.337.5-.611a3.179,3.179,0,0,1,1.86-.492,3.06,3.06,0,0,1,1.781.656c.371.31.49.588.416.653" transform="translate(-65.837 -29.741)" fill="#263238"/>
                <path id="Trazado_221073" data-name="Trazado 221073" d="M215.336,107.078a1.159,1.159,0,0,1-1.165,1.123,1.109,1.109,0,0,1-1.152-1.093,1.16,1.16,0,0,1,1.163-1.124,1.109,1.109,0,0,1,1.153,1.094" transform="translate(-61.948 -30.821)" fill="#263238"/>
                <path id="Trazado_221074" data-name="Trazado 221074" d="M213.681,103.211c-.15.145-1-.54-2.247-.587-1.245-.065-2.186.539-2.315.381-.063-.07.092-.337.5-.611a3.172,3.172,0,0,1,1.859-.491,3.058,3.058,0,0,1,1.781.655c.371.31.49.589.417.653" transform="translate(-60.809 -29.633)" fill="#263238"/>
                <path id="Trazado_221075" data-name="Trazado 221075" d="M221.339,112.774a8.293,8.293,0,0,1,2.04-.283c.319-.02.623-.071.686-.286a1.619,1.619,0,0,0-.174-.952q-.4-1.173-.843-2.462a41.821,41.821,0,0,1-1.857-6.425,41.68,41.68,0,0,1,2.37,6.261q.419,1.3.8,2.474a1.842,1.842,0,0,1,.115,1.256.8.8,0,0,1-.542.444,2.153,2.153,0,0,1-.543.053,8.119,8.119,0,0,1-2.052-.08" transform="translate(-64.319 -29.768)" fill="#263238"/>
                <path id="Trazado_221076" data-name="Trazado 221076" d="M217.179,136.4a23.936,23.936,0,0,1-12.273-3.748s2.794,6.447,12.175,6Z" transform="translate(-59.588 -38.575)" fill="#eb996e"/>
                <path id="Trazado_221077" data-name="Trazado 221077" d="M218.954,120.87a2.248,2.248,0,0,0-1.979-.916,2.049,2.049,0,0,0-1.447.7,1.3,1.3,0,0,0-.16,1.481,1.509,1.509,0,0,0,1.618.479,4.718,4.718,0,0,0,1.632-.886,1.392,1.392,0,0,0,.371-.355.417.417,0,0,0,.016-.464" transform="translate(-62.582 -34.882)" fill="#eb996e"/>
                <path id="Trazado_221078" data-name="Trazado 221078" d="M216.09,118.048c.2,0,.151,1.35,1.27,2.357s2.565.917,2.568,1.106c.016.086-.332.25-.941.242a3.372,3.372,0,0,1-2.147-.847,2.94,2.94,0,0,1-.979-1.973c-.028-.568.136-.9.228-.885" transform="translate(-62.773 -34.329)" fill="#263238"/>
                <path id="Trazado_221079" data-name="Trazado 221079" d="M213.949,96.455c-.137.334-1.374.123-2.844.24-1.472.087-2.669.467-2.85.156-.081-.149.138-.46.628-.769a4.964,4.964,0,0,1,4.338-.3c.528.238.787.516.728.674" transform="translate(-60.557 -27.748)" fill="#263238"/>
                <path id="Trazado_221080" data-name="Trazado 221080" d="M230.67,98.443c-.231.274-1.077-.055-2.11-.11-1.03-.091-1.914.114-2.1-.191-.082-.148.067-.426.46-.678a3.06,3.06,0,0,1,3.395.243c.353.306.462.6.359.736" transform="translate(-65.849 -28.226)" fill="#263238"/>
                <path id="Trazado_221081" data-name="Trazado 221081" d="M225.82,82.218c-1.452,3.16-4.713,7.864-8.175,8.2a10.215,10.215,0,0,1-9.09-4.093c-.582,2.562-3.469,3.864-6.071,4.23a10.328,10.328,0,0,1-5.481-.5,5.471,5.471,0,0,1-3.388-4.108c-.236-1.842,2.479-6.293,4.313-6.594" transform="translate(-56.3 -23.078)" fill="#263238"/>
                <path id="Trazado_221082" data-name="Trazado 221082" d="M188.725,128.307a7.118,7.118,0,0,1-5.212,6.318,5.044,5.044,0,0,1-9.764,1.962,6.049,6.049,0,0,0-.723-1.709c-.884-1.12-2.61-.9-3.967-1.338-2.446-.792-3.506-3.791-3.229-6.346a6.011,6.011,0,0,0,.072-1.515,6.734,6.734,0,0,0-1.552-2.657c-2.461-3.486-1.435-8.551,1.292-11.832.91-1.094,2.057-2.238,1.974-3.658a7.648,7.648,0,0,0-.772-2.242,6.45,6.45,0,0,1,1.739-7.037,2.025,2.025,0,0,0,.745-.9,1.965,1.965,0,0,0,0-.747,7.542,7.542,0,0,1,6.376-8.054,1.88,1.88,0,0,0,.667-.15c.58-.3.6-1.1.674-1.752.2-1.718,1.53-4.926,2.845-6.05,3.645-3.114,7.179-.579,8.439.606,0,0,2.5,12.373,2.013,14.677s-2.177,8.051-1.506,10.66,1.77,7.954.716,10.307-.822,11.456-.822,11.456" transform="translate(-47.389 -23.005)" fill="#263238"/>
                <path id="Trazado_221083" data-name="Trazado 221083" d="M180.061,92.357c-.015.022.157.16.482.39a12.445,12.445,0,0,0,1.445.869,17.7,17.7,0,0,0,10.839,1.778,12.284,12.284,0,0,0,1.647-.362,1.911,1.911,0,0,0,.581-.216c-.016-.065-.867.149-2.264.306a19.952,19.952,0,0,1-10.68-1.752c-1.274-.6-2.012-1.07-2.049-1.013" transform="translate(-52.363 -26.857)" fill="#455a64"/>
                <path id="Trazado_221084" data-name="Trazado 221084" d="M178.383,93.594a2.994,2.994,0,0,0,.265.735,6.576,6.576,0,0,0,.394.828,11.171,11.171,0,0,0,.608,1.053,16.144,16.144,0,0,0,1.951,2.5,17.18,17.18,0,0,0,6.441,4.247,16.126,16.126,0,0,0,3.062.81,10.993,10.993,0,0,0,1.208.143,6.528,6.528,0,0,0,.916.036,2.98,2.98,0,0,0,.78-.047c0-.078-1.112-.06-2.855-.4a17.858,17.858,0,0,1-2.984-.874,18.076,18.076,0,0,1-6.312-4.162,17.868,17.868,0,0,1-1.979-2.4c-1-1.467-1.424-2.5-1.495-2.466" transform="translate(-51.874 -27.217)" fill="#455a64"/>
                <path id="Trazado_221085" data-name="Trazado 221085" d="M185.341,143.616c0-.021-.156,0-.434-.048a1.947,1.947,0,0,1-1.04-.621,2.66,2.66,0,0,1-.677-1.773,8.657,8.657,0,0,1,.468-2.569,5.583,5.583,0,0,0,.194-3.252,9.5,9.5,0,0,0-2.167-3.042,5.938,5.938,0,0,1-1.077-1.6,2.24,2.24,0,0,1,.057-1.868,4.225,4.225,0,0,1,1.4-1.486c.582-.422,1.226-.8,1.842-1.252a4.013,4.013,0,0,0,1.48-1.766,2.731,2.731,0,0,0-.233-2.235c-.7-1.286-1.791-2.219-2.049-3.452a4.191,4.191,0,0,1,.918-3.318,14.684,14.684,0,0,1,2.174-2.324,15,15,0,0,0,1.824-1.959,5.91,5.91,0,0,0,.943-1.795,3.678,3.678,0,0,0,.147-1.273,1.694,1.694,0,0,0-.082-.438,4.7,4.7,0,0,1-.209,1.666,9.17,9.17,0,0,1-2.808,3.6,14.559,14.559,0,0,0-2.251,2.339,6.183,6.183,0,0,0-.872,1.618,3.567,3.567,0,0,0-.135,1.966c.3,1.384,1.432,2.351,2.061,3.55a2.347,2.347,0,0,1,.206,1.932,3.656,3.656,0,0,1-1.347,1.583c-.591.439-1.235.814-1.837,1.251a4.588,4.588,0,0,0-1.518,1.635,2.62,2.62,0,0,0-.058,2.17,6.25,6.25,0,0,0,1.153,1.7,9.359,9.359,0,0,1,2.13,2.906,5.358,5.358,0,0,1-.154,3.079,8.635,8.635,0,0,0-.42,2.65,2.8,2.8,0,0,0,.784,1.868,1.933,1.933,0,0,0,1.136.594,1.041,1.041,0,0,0,.447-.028" transform="translate(-52.362 -31.275)" fill="#455a64"/>
                <path id="Trazado_221086" data-name="Trazado 221086" d="M282.542,203.153l-45.728.372c-1.483,0-2.9.713-3.123,2.179l-5,33.329H205.141a1.373,1.373,0,1,0,0,2.746h75.226l5.142-35.175a3,3,0,0,0-2.967-3.45" transform="translate(-59.257 -59.078)" fill="#e0e0e0"/>
                <path id="Trazado_221087" data-name="Trazado 221087" d="M282.466,203.146a2.41,2.41,0,0,1,.721.067,3.025,3.025,0,0,1,2.312,2.618,8.447,8.447,0,0,1-.168,1.881c-.191,1.347-.412,2.9-.66,4.642-1.006,6.987-2.457,17.058-4.24,29.438l-.017.121h-.123l-72.982.043h-1.964a1.9,1.9,0,0,1-1.039-.2,1.559,1.559,0,0,1,.006-2.725,1.9,1.9,0,0,1,1.03-.193h8.611l14.663,0-.176.151c1.8-11.936,3.477-23.07,4.982-33.059a2.59,2.59,0,0,1,.846-1.741,3.4,3.4,0,0,1,1.749-.772,15.207,15.207,0,0,1,1.844-.065l1.795-.012,6.885-.046,12.234-.078,17.418-.089,4.66-.008,1.2,0c.27,0,.408.013.408.013s-.138.011-.408.019l-1.2.025-4.659.067-17.417.194-12.235.121-6.884.066-1.8.017a14.912,14.912,0,0,0-1.8.065,3.108,3.108,0,0,0-1.594.7,2.276,2.276,0,0,0-.744,1.561c-1.49,9.991-3.152,21.128-4.932,33.067l-.023.152h-.154l-14.663,0h-8.611a1.529,1.529,0,0,0-.852.148,1.189,1.189,0,0,0,0,2.079,1.537,1.537,0,0,0,.86.151h1.964l72.982.044-.139.121,4.362-29.42.7-4.636a8.488,8.488,0,0,0,.187-1.853,2.929,2.929,0,0,0-.53-1.422,2.99,2.99,0,0,0-1.69-1.165,5.921,5.921,0,0,0-.711-.108" transform="translate(-59.181 -59.071)" fill="#263238"/>
                <path id="Trazado_221088" data-name="Trazado 221088" d="M275.833,228.613a2.863,2.863,0,1,0,2.863-2.863,2.863,2.863,0,0,0-2.863,2.863" transform="translate(-80.214 -65.649)" fill="#fff"/>
                <path id="Trazado_221089" data-name="Trazado 221089" d="M241.528,241.622c.064.011,1.521-8.475,3.25-18.952s3.081-18.983,3.017-18.994-1.52,8.475-3.251,18.955-3.081,18.98-3.016,18.991" transform="translate(-70.237 -59.23)" fill="#263238"/>
              </g>
            </g>
            <g id="Grupo_177789" data-name="Grupo 177789">
              <g id="Grupo_177788" data-name="Grupo 177788" clip-path="url(#clip-path-2)">
                <path id="Trazado_221090" data-name="Trazado 221090" d="M385.768,143.4s-.011-.426-.018-1.234-.01-2.01-.018-3.566c-.009-3.123-.023-7.692-.04-13.511-.02-11.631-.048-28.253-.081-48.259l.157.157-74.531.028h-.006l.184-.184c-.008,24.216-.016,47.005-.022,66.569l-.162-.162,53.914.082,15.2.043,4.025.019,1.038.009c.233,0,.357.009.357.009s-.111.006-.338.009l-1.02.009-3.993.019-15.168.043-54.018.082h-.162V143.4c-.006-19.564-.014-42.353-.022-66.569v-.184h.191l74.531.028h.157v.157c-.033,20.047-.061,36.7-.081,48.358-.017,5.8-.031,10.361-.04,13.475-.008,1.543-.013,2.728-.018,3.536s-.018,1.2-.018,1.2" transform="translate(-90.454 -22.289)" fill="#263238"/>
                <path id="Trazado_221093" data-name="Trazado 221093" d="M0,0H63.6V59H0Z" transform="translate(225.64 58.326)" fill="#eeac3a"/>
                <g id="Grupo_177787" data-name="Grupo 177787" transform="translate(230.201 62.917)" opacity="0.3">
                  <g id="Grupo_177786" data-name="Grupo 177786">
                    <g id="Grupo_177785" data-name="Grupo 177785" clip-path="url(#clip-path-12)">
                      <path id="Trazado_221091" data-name="Trazado 221091" d="M370.528,100.991a4.393,4.393,0,1,0,4.576,4.388,4.485,4.485,0,0,0-4.576-4.388" transform="translate(-336.622 -92.286)"/>
                      <path id="Trazado_221092" data-name="Trazado 221092" d="M378.7,88.761,324.97,88.72c.06-.065-.579.554-.309.3V95.7q0,3.316,0,6.569c0,4.335,0,8.581.008,12.713.01,8.263.02,16.076.028,23.262v.255h.264l39.022-.128,10.9-.067,2.856-.029.725-.015a1.391,1.391,0,0,0,.235-.014,1.94,1.94,0,0,0-.265-.015l-.753-.014-2.907-.03-10.959-.066-12.005-.04h26.877a1.317,1.317,0,0,0,.011.165,1,1,0,0,0,.015-.214c0-.17.009-.387.015-.662q.011-.924.03-2.607c.016-2.326.039-5.691.068-9.964.032-8.657.078-20.984.133-35.784v-.249Zm-13.009,28.054-8.744,10.305-14.39-19.406-17.329,29.9c.009-7.017.018-14.614.028-22.642,0-4.132.005-8.378.008-12.713q0-3.252,0-6.569V89.3l53.175-.041c.055,14.622.1,26.807.133,35.375.028,4.3.051,7.68.067,10.02q.019,1.712.03,2.655c.006.286.011.511.015.687,0,.026,0,.037,0,.058Z" transform="translate(-324.595 -88.716)"/>
                    </g>
                  </g>
                </g>
                <rect id="Rectángulo_57298" data-name="Rectángulo 57298" width="3.905" height="3.905" transform="translate(218.824 52.089)" fill="#263238"/>
                <rect id="Rectángulo_57299" data-name="Rectángulo 57299" width="3.905" height="3.905" transform="translate(292.732 52.089)" fill="#263238"/>
                <rect id="Rectángulo_57300" data-name="Rectángulo 57300" width="3.905" height="3.905" transform="translate(292.732 118.517)" fill="#263238"/>
                <rect id="Rectángulo_57301" data-name="Rectángulo 57301" width="3.905" height="3.905" transform="translate(219.375 118.517)" fill="#263238"/>
                <rect id="Rectángulo_57302" data-name="Rectángulo 57302" width="3.905" height="3.905" transform="translate(219.375 85.691)" fill="#263238"/>
                <rect id="Rectángulo_57303" data-name="Rectángulo 57303" width="3.905" height="3.905" transform="translate(255.612 119.159)" fill="#263238"/>
                <rect id="Rectángulo_57304" data-name="Rectángulo 57304" width="3.905" height="3.905" transform="translate(293.361 83.738)" fill="#263238"/>
                <rect id="Rectángulo_57305" data-name="Rectángulo 57305" width="3.905" height="3.905" transform="translate(255.625 52.442)" fill="#263238"/>
              </g>
            </g>
          </g>
        </g>
      </g>
    </g>
    <g id="Grupo_889567" data-name="Grupo 889567" transform="translate(1072.501 1760.434)">
      <path id="Trazado_605122" data-name="Trazado 605122" d="M182.106,156.307h-170a3.441,3.441,0,0,1-3.442-3.44V47.639a3.441,3.441,0,0,1,3.442-3.44h170a3.44,3.44,0,0,1,3.44,3.44V152.867a3.44,3.44,0,0,1-3.44,3.44" transform="translate(4.868 -30.76)" fill="#12263f"/>
      <path id="Trazado_605123" data-name="Trazado 605123" d="M10.229,147.477V52.744a2.711,2.711,0,0,1,2.711-2.711H179.517a2.712,2.712,0,0,1,2.713,2.711v94.733a2.712,2.712,0,0,1-2.713,2.711H12.94a2.711,2.711,0,0,1-2.711-2.711" transform="translate(5.745 -27.484)" fill="#fff"/>
      <path id="Trazado_605124" data-name="Trazado 605124" d="M121.249,47.923a2.24,2.24,0,1,1-2.239-2.239,2.239,2.239,0,0,1,2.239,2.239" transform="translate(65.586 -29.926)" fill="#fff"/>
      <path id="Trazado_605125" data-name="Trazado 605125" d="M116.51,47.923a2.24,2.24,0,1,1-2.239-2.239,2.239,2.239,0,0,1,2.239,2.239" transform="translate(62.924 -29.926)" fill="#fff"/>
      <path id="Trazado_605126" data-name="Trazado 605126" d="M111.771,47.923a2.24,2.24,0,1,1-2.239-2.239,2.239,2.239,0,0,1,2.239,2.239" transform="translate(60.262 -29.926)" fill="#fff"/>
      <path id="Trazado_605127" data-name="Trazado 605127" d="M32.284,64.77a9.055,9.055,0,1,1-9.056-9.056,9.057,9.057,0,0,1,9.056,9.056" transform="translate(7.96 -24.292)" fill="#1565c0"/>
      <rect id="Rectángulo_299820" data-name="Rectángulo 299820" width="135.03" height="4.277" transform="translate(44.404 31.494)" fill="#e8e8e8"/>
      <rect id="Rectángulo_299821" data-name="Rectángulo 299821" width="91.901" height="4.277" transform="translate(44.404 38.339)" fill="#e8e8e8"/>
      <rect id="Rectángulo_299822" data-name="Rectángulo 299822" width="47.789" height="4.277" transform="translate(44.404 45.607)" fill="#e8e8e8"/>
      <path id="Trazado_605128" data-name="Trazado 605128" d="M32.284,83.237a9.055,9.055,0,1,1-9.056-9.056,9.057,9.057,0,0,1,9.056,9.056" transform="translate(7.96 -13.92)" fill="#fb8c00"/>
      <rect id="Rectángulo_299823" data-name="Rectángulo 299823" width="135.03" height="4.277" transform="translate(44.404 60.333)" fill="#e8e8e8"/>
      <rect id="Rectángulo_299824" data-name="Rectángulo 299824" width="91.901" height="4.277" transform="translate(44.404 67.178)" fill="#e8e8e8"/>
      <rect id="Rectángulo_299825" data-name="Rectángulo 299825" width="47.789" height="4.277" transform="translate(44.404 74.446)" fill="#e8e8e8"/>
      <path id="Trazado_605129" data-name="Trazado 605129" d="M32.284,101.7a9.055,9.055,0,1,1-9.056-9.056,9.057,9.057,0,0,1,9.056,9.056" transform="translate(7.96 -3.547)" fill="#26aab7"/>
      <rect id="Rectángulo_299826" data-name="Rectángulo 299826" width="135.03" height="4.277" transform="translate(44.404 89.173)" fill="#e8e8e8"/>
      <rect id="Rectángulo_299827" data-name="Rectángulo 299827" width="91.901" height="4.277" transform="translate(44.404 96.018)" fill="#e8e8e8"/>
      <rect id="Rectángulo_299828" data-name="Rectángulo 299828" width="47.789" height="4.277" transform="translate(44.404 103.286)" fill="#e8e8e8"/>
      <path id="Trazado_605130" data-name="Trazado 605130" d="M128.145,121.336v2.343H125.8" transform="translate(70.66 12.567)" fill="none" stroke="#38356e" stroke-linejoin="round" stroke-width="0.5"/>
      <line id="Línea_2087" data-name="Línea 2087" x1="183.34" transform="translate(8.481 136.245)" fill="none" stroke="#38356e" stroke-linejoin="round" stroke-width="0.5" stroke-dasharray="2.972 2.972"/>
      <path id="Trazado_605131" data-name="Trazado 605131" d="M4.788,123.679H2.445v-2.343" transform="translate(1.373 12.567)" fill="none" stroke="#38356e" stroke-linejoin="round" stroke-width="0.5"/>
      <line id="Línea_2088" data-name="Línea 2088" y1="120.646" transform="translate(3.818 8.526)" fill="none" stroke="#12263f" stroke-linejoin="round" stroke-width="0.5" stroke-dasharray="3.03 3.03"/>
      <path id="Trazado_605132" data-name="Trazado 605132" d="M2.445,40.381V38.038H4.788" transform="translate(1.373 -34.22)" fill="none" stroke="#38356e" stroke-linejoin="round" stroke-width="0.5"/>
      <line id="Línea_2089" data-name="Línea 2089" x2="183.34" transform="translate(10.802 3.818)" fill="none" stroke="#38356e" stroke-linejoin="round" stroke-width="0.5" stroke-dasharray="2.972 2.972"/>
      <path id="Trazado_605133" data-name="Trazado 605133" d="M125.8,38.038h2.343v2.343" transform="translate(70.66 -34.22)" fill="none" stroke="#38356e" stroke-linejoin="round" stroke-width="0.5"/>
      <line id="Línea_2090" data-name="Línea 2090" y2="120.646" transform="translate(198.805 10.891)" fill="none" stroke="#38356e" stroke-linejoin="round" stroke-width="0.5" stroke-dasharray="3.03 3.03"/>
      <rect id="Rectángulo_299829" data-name="Rectángulo 299829" width="7.637" height="7.637" transform="translate(0 0)" fill="#12263f"/>
      <rect id="Rectángulo_299830" data-name="Rectángulo 299830" width="7.637" height="7.637" transform="translate(194.988 0)" fill="#12263f"/>
      <rect id="Rectángulo_299831" data-name="Rectángulo 299831" width="7.637" height="7.637" transform="translate(194.988 132.426)" fill="#12263f"/>
      <rect id="Rectángulo_299832" data-name="Rectángulo 299832" width="7.637" height="7.637" transform="translate(1.171 132.426)" fill="#12263f"/>
      <path id="Trazado_605134" data-name="Trazado 605134" d="M84.209,104.083V101.74h2.343" transform="translate(47.297 1.559)" fill="none" stroke="#38356e" stroke-linejoin="round" stroke-width="0.5"/>
    </g>
    <g id="Grupo_889568" data-name="Grupo 889568" transform="translate(1184.374 1690.486)">
      <g id="Grupo_54742" data-name="Grupo 54742" transform="translate(0 -0.001)">
        <g id="Grupo_54739" data-name="Grupo 54739" transform="translate(0.345 0.344)">
          <rect id="Rectángulo_29415" data-name="Rectángulo 29415" width="123.854" height="48.149" fill="#fafafa"/>
        </g>
        <g id="Grupo_54741" data-name="Grupo 54741">
          <g id="Grupo_54740" data-name="Grupo 54740">
            <path id="Trazado_117062" data-name="Trazado 117062" d="M470.576,198.341s-.017-.3-.025-.866q-.008-.877-.025-2.5c-.013-2.208-.033-5.425-.059-9.569-.031-8.3-.074-20.311-.13-35.216l.239.238c-31.1.028-75.106.065-123.846.106h-.008l.344-.344c-.005,16.834-.009,33.1-.013,48.148l-.331-.331,88.712.156,25.8.091,6.92.042,1.8.021c.406.007.624.02.624.02s-.19.015-.583.021l-1.757.02-6.851.042-25.726.093-88.937.155h-.331v-.332c-.005-15.046-.009-31.314-.014-48.148v-.344h.353l123.846.106h.24v.238c-.054,14.966-.1,27.021-.13,35.36-.025,4.122-.045,7.319-.058,9.515-.012,1.064-.02,1.88-.026,2.455C470.591,198.073,470.576,198.341,470.576,198.341Z" transform="translate(-346.376 -149.849)" fill="#263238"/>
          </g>
        </g>
      </g>
      <g id="Grupo_54743" data-name="Grupo 54743" transform="translate(0.345 0.343)">
        <rect id="Rectángulo_29416" data-name="Rectángulo 29416" width="123.854" height="10.318" fill="#263238"/>
      </g>
      <g id="Grupo_54744" data-name="Grupo 54744" transform="translate(15.064 18.528)">
        <rect id="Rectángulo_29417" data-name="Rectángulo 29417" width="12.163" height="12.163" fill="#263238"/>
      </g>
      <g id="Grupo_54745" data-name="Grupo 54745" transform="translate(22.431 25.895)">
        <rect id="Rectángulo_29418" data-name="Rectángulo 29418" width="12.163" height="12.163" fill="#263238"/>
      </g>
      <g id="Grupo_54746" data-name="Grupo 54746" transform="translate(44.056 18.528)">
        <rect id="Rectángulo_29419" data-name="Rectángulo 29419" width="12.163" height="12.163" fill="#263238"/>
      </g>
      <g id="Grupo_54750" data-name="Grupo 54750" transform="translate(51.002 25.545)">
        <g id="Grupo_54747" data-name="Grupo 54747" transform="translate(0.421 0.35)">
          <rect id="Rectángulo_29420" data-name="Rectángulo 29420" width="12.163" height="12.163" fill="#f5f5f5"/>
        </g>
        <g id="Grupo_54749" data-name="Grupo 54749">
          <g id="Grupo_54748" data-name="Grupo 54748">
            <path id="Trazado_117063" data-name="Trazado 117063" d="M397.515,181.674a5.868,5.868,0,0,1-.069-.937c-.021-.685-.046-1.513-.078-2.5-.056-2.139-.122-5.14-.151-8.723l.3.3-12.162.046c-.077.075.651-.651.343-.343v1.654l0,1.627q0,1.607-.009,3.143c-.012,2.035-.024,3.958-.034,5.738l-.3-.3c3.582.029,6.584.1,8.723.151l2.5.078a5.834,5.834,0,0,1,.937.069,3.488,3.488,0,0,1-.813.067l-2.437.078c-2.119.056-5.2.123-8.913.152l-.3,0v-.3c-.011-1.781-.022-3.7-.034-5.738q0-1.534-.009-3.143l0-1.627v-1.654c-.308.307.418-.421.345-.347l12.162.048h.3l0,.3c-.029,3.713-.1,6.794-.152,8.912-.03.964-.056,1.771-.078,2.438A3.479,3.479,0,0,1,397.515,181.674Z" transform="translate(-384.931 -169.16)" fill="#263238"/>
          </g>
        </g>
      </g>
      <g id="Grupo_54760" data-name="Grupo 54760" transform="translate(70.686 18.179)">
        <g id="Grupo_54754" data-name="Grupo 54754">
          <g id="Grupo_54751" data-name="Grupo 54751" transform="translate(0.421 0.35)">
            <rect id="Rectángulo_29421" data-name="Rectángulo 29421" width="12.163" height="12.163" fill="#f5f5f5"/>
          </g>
          <g id="Grupo_54753" data-name="Grupo 54753">
            <g id="Grupo_54752" data-name="Grupo 54752">
              <path id="Trazado_117064" data-name="Trazado 117064" d="M412.4,176.1a5.841,5.841,0,0,1-.069-.937c-.021-.685-.046-1.513-.078-2.5-.056-2.139-.122-5.141-.151-8.723l.3.3-12.162.048c-.077.074.651-.652.343-.343V165.6c0,.546,0,1.089,0,1.626,0,1.071-.007,2.122-.009,3.144-.012,2.033-.024,3.958-.034,5.737l-.3-.3c3.582.029,6.584.1,8.723.152l2.5.077a5.862,5.862,0,0,1,.937.069,3.489,3.489,0,0,1-.814.067c-.667.022-1.472.048-2.437.078-2.119.056-5.2.123-8.913.152l-.3,0v-.3c-.011-1.779-.022-3.7-.034-5.737,0-1.023-.007-2.073-.009-3.144l0-1.626v-1.654c-.308.307.418-.422.345-.347l12.162.046h.3l0,.3c-.029,3.714-.1,6.794-.152,8.913-.03.964-.057,1.77-.078,2.437A3.488,3.488,0,0,1,412.4,176.1Z" transform="translate(-399.812 -163.592)" fill="#263238"/>
            </g>
          </g>
        </g>
        <g id="Grupo_54758" data-name="Grupo 54758" transform="translate(7.366 7.366)">
          <g id="Grupo_54755" data-name="Grupo 54755" transform="translate(0.421 0.35)">
            <rect id="Rectángulo_29422" data-name="Rectángulo 29422" width="12.163" height="12.163" fill="#f5f5f5"/>
          </g>
          <g id="Grupo_54757" data-name="Grupo 54757">
            <g id="Grupo_54756" data-name="Grupo 54756">
              <path id="Trazado_117065" data-name="Trazado 117065" d="M417.965,181.674a5.873,5.873,0,0,1-.069-.937c-.021-.685-.048-1.513-.078-2.5-.056-2.139-.123-5.14-.152-8.723l.3.3-12.161.046c-.077.075.651-.651.343-.343v1.654c0,.548,0,1.09,0,1.627q-.006,1.607-.009,3.143c-.012,2.035-.024,3.958-.034,5.738l-.3-.3c3.582.029,6.584.1,8.723.151l2.5.078a5.854,5.854,0,0,1,.937.069,3.489,3.489,0,0,1-.814.067l-2.438.078c-2.118.056-5.2.123-8.912.152l-.3,0,0-.3c-.011-1.781-.021-3.7-.034-5.738q0-1.534-.008-3.143l0-1.627v-1.654c-.307.307.419-.421.347-.347l12.161.048h.3v.3c-.029,3.713-.1,6.794-.152,8.912-.03.964-.057,1.771-.078,2.438A3.479,3.479,0,0,1,417.965,181.674Z" transform="translate(-405.381 -169.16)" fill="#263238"/>
            </g>
          </g>
        </g>
        <g id="Grupo_54759" data-name="Grupo 54759" transform="translate(7.787 7.716)">
          <rect id="Rectángulo_29423" data-name="Rectángulo 29423" width="4.797" height="4.797" fill="#263238"/>
        </g>
      </g>
      <g id="Grupo_54764" data-name="Grupo 54764" transform="translate(95.976 18.528)">
        <g id="Grupo_54761" data-name="Grupo 54761">
          <rect id="Rectángulo_29424" data-name="Rectángulo 29424" width="12.163" height="12.163" fill="#263238"/>
        </g>
        <g id="Grupo_54762" data-name="Grupo 54762" transform="translate(7.366 7.366)">
          <rect id="Rectángulo_29425" data-name="Rectángulo 29425" width="12.163" height="12.163" fill="#263238"/>
        </g>
        <g id="Grupo_54763" data-name="Grupo 54763" transform="translate(7.366 7.366)">
          <rect id="Rectángulo_29426" data-name="Rectángulo 29426" width="4.797" height="4.797" fill="#fafafa"/>
        </g>
      </g>
    </g>
    <g id="Grupo_889569" data-name="Grupo 889569" transform="translate(831.245 1562.122)">
      <g id="Grupo_54809" data-name="Grupo 54809" transform="translate(0 0.001)">
        <g id="Grupo_54800" data-name="Grupo 54800">
          <g id="Grupo_54799" data-name="Grupo 54799">
            <g id="Grupo_54796" data-name="Grupo 54796" transform="translate(0.272 0.272)">
              <rect id="Rectángulo_29439" data-name="Rectángulo 29439" width="131.128" height="91.317" fill="#fff"/>
            </g>
            <g id="Grupo_54798" data-name="Grupo 54798">
              <g id="Grupo_54797" data-name="Grupo 54797">
                <path id="Trazado_117069" data-name="Trazado 117069" d="M235.184,173.655s-.016-.574-.024-1.669-.014-2.721-.024-4.833c-.012-4.24-.032-10.452-.056-18.4-.027-15.882-.067-38.683-.115-66.418l.219.219-131.117.052h-.01l.271-.271c-.008,32.637-.017,63.631-.024,91.317l-.247-.247,94.518.122,26.956.067,7.166.029,1.851.015c.417.005.636.015.636.015s-.2.01-.608.015l-1.823.015-7.117.03-26.9.066-94.68.123h-.248v-.248c-.007-27.686-.016-58.68-.024-91.317v-.272h.282l131.117.053h.22v.219c-.048,27.792-.086,50.64-.115,66.554-.024,7.925-.043,14.121-.055,18.349-.012,2.094-.02,3.7-.025,4.791S235.184,173.655,235.184,173.655Z" transform="translate(-103.785 -82.066)" fill="#263238"/>
              </g>
            </g>
          </g>
        </g>
        <g id="Grupo_54802" data-name="Grupo 54802" transform="translate(0.272 0.272)">
          <g id="Grupo_54801" data-name="Grupo 54801">
            <rect id="Rectángulo_29440" data-name="Rectángulo 29440" width="131.128" height="11.411" fill="#263238"/>
          </g>
        </g>
        <g id="Grupo_54804" data-name="Grupo 54804" transform="translate(4.654 4.873)">
          <g id="Grupo_54803" data-name="Grupo 54803">
            <path id="Trazado_117070" data-name="Trazado 117070" d="M110.988,88.172a1.37,1.37,0,1,1-1.368-1.43A1.4,1.4,0,0,1,110.988,88.172Z" transform="translate(-108.251 -86.742)" fill="#fff"/>
          </g>
        </g>
        <g id="Grupo_54806" data-name="Grupo 54806" transform="translate(10.204 4.873)">
          <g id="Grupo_54805" data-name="Grupo 54805">
            <path id="Trazado_117071" data-name="Trazado 117071" d="M116.312,88.172a1.369,1.369,0,1,1-1.368-1.43A1.4,1.4,0,0,1,116.312,88.172Z" transform="translate(-113.576 -86.742)" fill="#fff"/>
          </g>
        </g>
        <g id="Grupo_54808" data-name="Grupo 54808" transform="translate(15.753 4.873)">
          <g id="Grupo_54807" data-name="Grupo 54807">
            <path id="Trazado_117072" data-name="Trazado 117072" d="M121.636,88.172a1.369,1.369,0,1,1-1.368-1.43A1.4,1.4,0,0,1,121.636,88.172Z" transform="translate(-118.9 -86.742)" fill="#fff"/>
          </g>
        </g>
      </g>
      <g id="Grupo_54810" data-name="Grupo 54810" transform="translate(12.739 22.867)">
        <rect id="Rectángulo_29441" data-name="Rectángulo 29441" width="18.689" height="44.834" fill="#fb8c00"/>
      </g>
      <g id="Grupo_54811" data-name="Grupo 54811" transform="translate(41.556 22.867)">
        <rect id="Rectángulo_29442" data-name="Rectángulo 29442" width="18.689" height="44.834" fill="#ebebeb"/>
      </g>
      <g id="Grupo_54812" data-name="Grupo 54812" transform="translate(70.372 22.867)">
        <rect id="Rectángulo_29443" data-name="Rectángulo 29443" width="18.689" height="44.834" fill="#fafafa"/>
      </g>
      <g id="Grupo_54813" data-name="Grupo 54813" transform="translate(99.189 23.219)">
        <rect id="Rectángulo_29444" data-name="Rectángulo 29444" width="18.689" height="44.834" fill="#e0e0e0"/>
      </g>
      <g id="Grupo_54814" data-name="Grupo 54814" transform="translate(10.574 72.65)">
        <rect id="Rectángulo_29445" data-name="Rectángulo 29445" width="113.269" height="10.245" fill="#26aab7"/>
      </g>
      <g id="Grupo_54815" data-name="Grupo 54815" transform="translate(115.227 80.795)">
        <path id="Trazado_117073" data-name="Trazado 117073" d="M214.348,159.589l2.437,12.335,2-3.442,4.3,6.149,2.152-1.383-4.3-6.149,3.951-.579Z" transform="translate(-214.348 -159.589)" fill="#263238"/>
      </g>
    </g>
  </g>
</svg>
