<svg xmlns="http://www.w3.org/2000/svg" xmlns:xlink="http://www.w3.org/1999/xlink" width="108.419" height="108.419" viewBox="0 0 108.419 108.419">
  <defs>
    <linearGradient id="linear-gradient" x1="0.5" x2="0.5" y2="1" gradientUnits="objectBoundingBox">
      <stop offset="0" stop-color="#fdbe41"/>
      <stop offset="1" stop-color="#d09f40"/>
    </linearGradient>
  </defs>
  <g id="Grupo_900000" data-name="Grupo 900000" transform="translate(-898.058 -4705.942)">
    <circle id="Elipse_6021" data-name="Elipse 6021" cx="54.209" cy="54.209" r="54.209" transform="translate(898.058 4705.942)" fill="url(#linear-gradient)"/>
    <g id="wXrocv" transform="translate(329.386 5297.641)">
      <g id="Grupo_897728" data-name="Grupo 897728" transform="translate(594.106 -571.662)">
        <path id="Trazado_617822" data-name="Trazado 617822" d="M614.258-508.626H594.106v-63.036h47.308a1.681,1.681,0,0,1,.872,1.674q-.023,29.844,0,59.689a1.685,1.685,0,0,1-.872,1.674H624.58c-.282-.353-.7-.666-.816-1.067-.221-.775.461-1.394,1.424-1.394q6.941,0,13.883,0h.7v-58.08h-2.412v.815q0,26.558,0,53.115c0,1.305-.38,1.687-1.678,1.687q-11.948,0-23.9.011a2.184,2.184,0,0,1-1.684-.695q-5.171-5.22-10.381-10.4a2.258,2.258,0,0,1-.711-1.742q.024-21.018.012-42.037v-.75H596.6v58.076H610.27c1.188,0,2.375-.009,3.563.005a1.208,1.208,0,0,1,1.236.911,1.2,1.2,0,0,1-.567,1.373C614.419-508.743,614.339-508.684,614.258-508.626Zm20.6-7.416v-53.11h-8.07c0,1.975,0,3.9,0,5.829,0,1.059-.441,1.508-1.486,1.509q-7.125,0-14.25,0c-1.01,0-1.461-.455-1.464-1.467-.005-1.744,0-3.487,0-5.231v-.638H601.51v42.057h.69q4.392,0,8.783,0c1.129,0,1.553.428,1.554,1.564q0,4.4,0,8.8v.687ZM624.3-564.286v-4.871h-12.2v4.871Zm-14.259,46.355v-6.651H603.4Z" transform="translate(-594.106 571.662)" fill="#12263f"/>
        <path id="Trazado_617823" data-name="Trazado 617823" d="M790.581-77.126c-.1-.068-.2-.135-.293-.205a1.165,1.165,0,0,1-.5-1.384,1.15,1.15,0,0,1,1.193-.862,1.147,1.147,0,0,1,1.132.862,1.168,1.168,0,0,1-.5,1.384c-.1.07-.195.137-.292.206Z" transform="translate(-765.636 140.162)" fill="#12263f"/>
        <path id="Trazado_617824" data-name="Trazado 617824" d="M1025.243-489.6c0-5.683-.01-11.366,0-17.049a4.912,4.912,0,0,1,5.046-4.988,4.918,4.918,0,0,1,4.768,4.707c.034,1,.011,2.01.011,3.016q0,15.695-.015,31.389a3.646,3.646,0,0,1-.354,1.521c-1.073,2.233-2.2,4.438-3.3,6.66-.261.529-.588.95-1.228.958-.671.008-1-.431-1.274-.982-1.1-2.241-2.241-4.466-3.33-6.715a3.216,3.216,0,0,1-.315-1.346C1025.236-478.156,1025.243-483.88,1025.243-489.6Zm7.339,12.65v-20.368h-4.838v20.368Zm.033-22.894c0-2.277,0-4.49,0-6.7a2.467,2.467,0,0,0-2.484-2.628,2.47,2.47,0,0,0-2.428,2.622c-.006,2.072,0,4.144,0,6.216,0,.157.02.315.031.493Zm-.046,25.426h-4.856a5.675,5.675,0,0,0,.483,3.178c.651,1.082,1.15,2.255,1.72,3.386a4.943,4.943,0,0,0,.276.423c.6-1.2,1.089-2.348,1.725-3.413A5.323,5.323,0,0,0,1032.569-474.423Z" transform="translate(-972.16 519.031)" fill="#12263f"/>
        <path id="Trazado_617825" data-name="Trazado 617825" d="M724.807-413.215c-1.164,0-2.329.005-3.493,0a1.259,1.259,0,0,1-1.419-1.258,1.252,1.252,0,0,1,1.415-1.2q3.493-.008,6.986,0a1.258,1.258,0,0,1,1.419,1.257,1.261,1.261,0,0,1-1.415,1.2C727.136-413.209,725.972-413.215,724.807-413.215Z" transform="translate(-704.408 434.883)" fill="#12263f"/>
        <path id="Trazado_617826" data-name="Trazado 617826" d="M724.871-355.674c1.144,0,2.288-.005,3.432,0a1.26,1.26,0,0,1,1.413,1.2,1.26,1.26,0,0,1-1.422,1.256q-3.493.008-6.987,0a1.255,1.255,0,0,1-1.412-1.2c-.017-.745.547-1.25,1.421-1.255C722.5-355.679,723.686-355.674,724.871-355.674Z" transform="translate(-704.408 382.268)" fill="#12263f"/>
        <path id="Trazado_617827" data-name="Trazado 617827" d="M724.8-293.215c-1.164,0-2.329.006-3.493,0a1.255,1.255,0,0,1-1.408-1.208c-.014-.748.546-1.248,1.426-1.25q3.493-.008,6.987,0a1.253,1.253,0,0,1,1.408,1.207c.013.744-.551,1.246-1.427,1.251C727.126-293.21,725.961-293.215,724.8-293.215Z" transform="translate(-704.409 329.657)" fill="#12263f"/>
        <path id="Trazado_617828" data-name="Trazado 617828" d="M842.109-414.429a1.239,1.239,0,0,1-1.226,1.256,1.24,1.24,0,0,1-1.222-1.2,1.237,1.237,0,0,1,1.226-1.255A1.239,1.239,0,0,1,842.109-414.429Z" transform="translate(-809.429 434.837)" fill="#12263f"/>
        <path id="Trazado_617829" data-name="Trazado 617829" d="M842.112-354.393a1.24,1.24,0,0,1-1.267,1.215,1.24,1.24,0,0,1-1.181-1.239,1.237,1.237,0,0,1,1.266-1.214A1.239,1.239,0,0,1,842.112-354.393Z" transform="translate(-809.431 382.229)" fill="#12263f"/>
        <path id="Trazado_617830" data-name="Trazado 617830" d="M842.111-294.42a1.238,1.238,0,0,1-1.235,1.247,1.239,1.239,0,0,1-1.213-1.207,1.236,1.236,0,0,1,1.235-1.246A1.239,1.239,0,0,1,842.111-294.42Z" transform="translate(-809.43 329.611)" fill="#12263f"/>
      </g>
    </g>
  </g>
</svg>
